# Blender v2.77 (sub 0) OBJ File: ''
# www.blender.org
mtllib Rat.mtl
o Mesh_4831
v 0.500000 0.006250 -1.456250
v 0.693750 0.018750 -1.162500
v 0.625000 0.000000 -1.137500
v 0.712500 0.018750 -1.000000
v 0.125000 1.031252 -3.506251
v 0.106250 1.056252 -4.087501
v 0.175000 1.137502 -3.506251
v 0.143750 1.131252 -4.093751
v 0.131250 1.243752 -3.506251
v 0.168750 1.243752 -2.875000
v 0.000000 1.312501 -2.875000
v 0.631250 0.831250 0.243750
v 0.525000 1.212500 0.531250
v 0.481250 1.293750 0.293750
v 0.262500 1.587500 0.531250
v 0.262500 1.593750 0.293750
v 0.262500 1.725000 0.037500
v 0.525000 1.493750 -0.081250
v 0.731250 0.875000 -0.168750
v 0.618750 0.531250 -0.212500
v 0.300000 0.543750 1.131250
v 0.331250 0.656250 1.475001
v 0.000000 0.512500 1.262500
v 0.000000 0.600000 1.481251
v -0.331250 0.656250 1.475001
v -0.300000 0.543750 1.131250
v 0.587500 1.087500 0.806250
v 0.656250 0.756250 0.906250
v 0.537500 0.818750 1.118750
v 0.362500 0.543750 1.137500
v 0.437500 0.650000 1.237500
v 0.462500 0.868750 1.343750
v 0.456250 1.200000 1.031250
v 0.237500 1.550000 0.750000
v 0.000000 0.743750 2.318751
v 0.000000 0.768750 1.850001
v -0.081250 0.743750 2.243751
v 0.000000 0.962500 2.637501
v -0.062500 0.843750 2.575001
v 0.000000 0.843750 2.600001
v 0.000000 0.862500 2.562501
v 0.062500 0.843750 2.575001
v 0.056250 0.968750 2.606251
v 0.000000 1.018749 2.593751
v -0.056250 0.968750 2.606251
v -0.100000 0.831250 2.531251
v -0.081250 0.831250 2.512501
v 0.000000 0.743750 2.500000
v 0.037500 0.737500 2.462501
v 0.050000 0.812500 2.425001
v 0.081250 0.831250 2.512501
v 0.000000 1.018752 -4.087501
v 0.000000 1.037502 -4.593751
v -0.106250 1.056252 -4.087501
v -0.462500 0.868750 1.343750
v -0.318750 0.900000 1.700001
v -0.406250 1.106250 1.525000
v -0.425000 1.175000 1.587500
v 0.318750 0.900000 1.700001
v 0.406250 1.106250 1.525000
v 0.425000 1.175000 1.587500
v 0.362500 1.362500 1.481251
v 0.468750 1.281250 1.643751
v 0.412500 1.475000 1.531250
v 0.500000 1.425000 1.606251
v 0.468750 1.568750 1.650001
v 0.481250 1.668750 1.668751
v 0.443750 1.568750 1.681251
v 0.475000 1.418750 1.643751
v 0.456250 1.337500 1.687500
v 0.293750 1.250000 1.868751
v 0.412500 1.143750 1.793751
v 0.343750 0.925000 1.968751
v 0.275000 0.731250 1.643751
v -0.425000 1.681250 1.756251
v -0.481250 1.668750 1.668751
v -0.243750 1.525000 1.593751
v -0.412500 1.475000 1.531250
v -0.362500 1.362500 1.481251
v -0.318750 1.437500 1.837501
v -0.418750 1.625000 1.731251
v -0.287500 1.406250 1.606251
v -0.443750 1.568750 1.681251
v -0.475000 1.418750 1.643751
v -0.456250 1.337500 1.687500
v -0.293750 1.250000 1.868751
v 0.443750 0.006250 -1.137500
v 0.512500 0.000000 -0.912500
v 0.525000 0.050000 -0.850000
v 0.612500 0.050000 -0.743750
v 0.487500 0.118750 -1.100000
v 0.375000 0.162500 -1.418750
v 0.381250 0.000000 -1.218750
v 0.325000 0.000000 -1.118750
v 0.262500 -0.006250 -1.175000
v 0.306250 0.050000 -1.387500
v -0.350000 0.131250 1.275000
v -0.362500 0.106250 1.343750
v -0.218750 0.018750 1.400000
v -0.287500 0.018750 1.400000
v -0.350000 0.043750 1.212500
v -0.325000 0.112500 1.100000
v -0.381250 0.156250 1.143750
v -0.400000 0.237500 1.031250
v -0.487500 0.118750 1.081250
v -0.481250 0.137500 1.262500
v -0.500000 0.037500 1.212500
v -0.475000 0.018750 1.118750
v 0.000000 1.250002 -4.093751
v -0.087500 1.175002 -4.593751
v -0.112500 1.206252 -4.093751
v -0.118750 1.131252 -4.593751
v -0.143750 1.131252 -4.093751
v -0.087500 1.068752 -4.593751
v 0.000000 1.056252 -5.031251
v -0.062500 1.068752 -5.031251
v 0.000000 1.112502 -5.468751
v -0.075000 1.125002 -5.031251
v -0.050000 1.156252 -5.031251
v 0.000000 1.218752 -4.593751
v 0.087500 1.175002 -4.593751
v 0.112500 1.206252 -4.093751
v 0.118750 1.131252 -4.593751
v 0.087500 1.068752 -4.593751
v 0.193750 0.906250 -2.150001
v 0.293750 1.031250 -2.156250
v 0.137500 0.431250 -1.787500
v 0.218750 0.618750 -0.981250
v 0.112500 0.300000 -1.493750
v 0.137500 0.331250 -1.012500
v 0.237500 0.443750 -0.893750
v 0.000000 0.300000 -0.906250
v 0.000000 0.237500 -1.418750
v 0.000000 0.512500 -1.931250
v 0.000000 0.856250 -2.137501
v -0.287500 0.493750 -1.918750
v -0.218750 0.618750 -0.981250
v -0.293750 1.031250 -2.156250
v 0.625000 0.125000 -1.093750
v 0.500000 0.162500 -1.425000
v 0.687500 0.062500 -1.106250
v -0.625000 0.125000 -1.093750
v -0.687500 0.062500 -1.106250
v -0.500000 0.162500 -1.425000
v -0.800000 0.993750 -0.550000
v -0.525000 1.493750 -0.081250
v -0.593750 1.700000 -0.343750
v -0.262500 1.725000 0.037500
v -0.306250 1.900000 -0.368750
v 0.000000 2.000000 -0.387500
v 0.000000 1.737500 0.075000
v -0.262500 1.593750 0.293750
v 0.000000 1.712500 0.300000
v -0.262500 1.587500 0.531250
v 0.000000 1.693750 0.700000
v -0.237500 1.550000 0.750000
v -0.525000 1.212500 0.531250
v -0.481250 1.293750 0.293750
v -0.631250 0.831250 0.243750
v -0.731250 0.875000 -0.168750
v -0.618750 0.531250 -0.212500
v -0.637500 0.550000 -0.556250
v -0.531250 0.550000 0.187500
v 0.225000 0.331250 0.862500
v 0.000000 0.331250 0.868750
v 0.218750 0.387500 0.650000
v -0.362500 0.543750 1.137500
v -0.537500 0.818750 1.118750
v -0.437500 0.650000 1.237500
v 0.825000 1.025000 -1.293750
v 0.718750 0.718750 -1.043750
v 0.718750 0.825000 -0.887500
v 0.612500 0.456250 0.825000
v 0.631250 0.000000 -0.912500
v -0.625000 0.000000 -1.137500
v -0.712500 0.018750 -1.000000
v -0.693750 0.018750 -1.162500
v -0.500000 0.006250 -1.456250
v -0.437500 0.075000 -1.643750
v -0.456250 0.218750 -1.600000
v -0.350000 0.075000 -1.650000
v -0.350000 0.218750 -1.612500
v -0.406250 0.325000 -1.662500
v -0.306250 0.325000 -1.618750
v -0.443750 0.006250 -1.137500
v -0.381250 0.000000 -1.218750
v -0.375000 0.000000 -1.312500
v -0.325000 0.000000 -1.118750
v -0.262500 -0.006250 -1.175000
v -0.306250 0.050000 -1.387500
v -0.337500 0.018750 1.118750
v 0.556250 0.200000 0.968750
v 0.556250 0.137500 0.762500
v 0.656250 0.487500 0.593750
v 0.631250 0.806250 0.493750
v 0.581250 0.568750 0.500000
v 0.437500 0.450000 0.562500
v -0.300000 0.168750 0.756250
v 0.000000 0.418750 1.125000
v -0.225000 0.331250 0.862500
v -0.218750 0.387500 0.650000
v 0.000000 0.356250 0.643750
v 0.000000 0.387500 0.350000
v -0.343750 0.406250 0.500000
v 0.156250 1.018752 -2.875000
v 0.206250 1.125001 -2.875000
v -0.456250 1.200000 1.031250
v -0.406250 1.231250 1.306250
v -0.425000 1.118750 1.331250
v 0.337500 2.056251 -0.850000
v 0.306250 1.900000 -0.368750
v 0.593750 1.700000 -0.343750
v -0.500000 1.425000 1.606251
v -0.468750 1.281250 1.643751
v -0.306250 1.387500 1.281250
v -0.206250 1.506250 1.043751
v 0.000000 1.637500 1.050000
v 0.206250 1.506250 1.043751
v 0.000000 1.568750 1.287501
v -0.331250 0.393750 0.193750
v 0.000000 0.287500 -0.168750
v -0.306250 0.312500 -0.175000
v 0.000000 0.262500 -0.450000
v -0.268750 0.306250 -0.487500
v -0.218750 1.437500 2.075001
v -0.131250 1.306250 2.275001
v 0.000000 1.406250 2.125001
v 0.000000 1.281250 2.312501
v 0.131250 1.306250 2.275001
v 0.143750 1.262500 2.231251
v 0.150000 1.156250 2.293751
v -0.150000 1.156250 2.293751
v -0.143750 1.262500 2.231251
v -0.231250 1.331250 2.162501
v -0.293750 1.350000 2.062501
v -0.262500 1.456250 1.906251
v 0.000000 1.518750 1.981251
v 0.262500 1.456250 1.906251
v 0.218750 1.437500 2.075001
v 0.231250 1.331250 2.162501
v -0.231250 1.187500 1.993751
v -0.256250 1.243750 2.081251
v -0.212500 1.243750 2.087501
v -0.268750 1.275000 2.056251
v -0.237500 1.293750 2.043751
v -0.187500 1.250000 2.137501
v -0.237500 1.168750 1.993751
v -0.250000 1.250000 1.943751
v -0.268750 1.218750 2.031251
v -0.281250 1.243750 2.006251
v -0.356250 1.350000 1.887501
v 0.481250 0.112500 1.331250
v 0.412500 0.031250 1.493750
v 0.456250 0.043750 1.468750
v 0.468750 -0.000000 1.306250
v 0.543750 0.012500 1.393750
v 0.600000 0.012500 1.393750
v 0.500000 0.037500 1.212500
v 0.481250 0.137500 1.262500
v 0.375000 -0.000000 1.306250
v 0.375000 0.037500 1.456250
v 0.362500 0.106250 1.343750
v 0.287500 0.018750 1.400000
v 0.350000 0.043750 1.212500
v 0.218750 0.018750 1.400000
v 0.350000 0.131250 1.275000
v -0.375000 -0.000000 1.306250
v -0.375000 0.037500 1.456250
v -0.412500 0.031250 1.493750
v 0.000000 1.587500 1.543751
v 0.000000 1.600000 1.756251
v 0.243750 1.525000 1.593751
v 0.306250 1.387500 1.281250
v 0.187500 1.250000 2.137501
v 0.293750 1.350000 2.062501
v 0.381250 0.156250 1.143750
v 0.000000 1.287502 -3.506251
v -0.131250 1.243752 -3.506251
v -0.275000 0.731250 1.643751
v -0.037500 0.737500 2.462501
v -0.050000 0.812500 2.425001
v 0.437500 0.075000 -1.643750
v 0.456250 0.218750 -1.600000
v 0.350000 0.075000 -1.650000
v 0.350000 0.218750 -1.612500
v 0.406250 0.325000 -1.662500
v 0.306250 0.325000 -1.618750
v 0.287500 0.493750 -1.918750
v 0.475000 0.450000 -1.850000
v 0.500000 0.987500 -2.018750
v 0.175000 1.231251 -2.181250
v 0.381250 1.675001 -1.825000
v 0.350000 0.175000 -1.318750
v 0.531250 0.181250 -1.318750
v 0.356250 0.268750 -1.056250
v 0.568750 0.343750 -1.125000
v 0.362500 0.462500 -0.956250
v 0.206250 0.462500 -1.212500
v -0.400000 0.431250 0.993750
v -0.243750 0.350000 0.931250
v -0.300000 0.212500 0.968750
v -0.243750 0.400000 0.612500
v -0.587500 1.087500 0.806250
v -0.631250 0.806250 0.493750
v -0.581250 0.568750 0.500000
v -0.656250 0.487500 0.593750
v -0.437500 0.450000 0.562500
v -0.556250 0.137500 0.762500
v 0.000000 1.318751 -2.193750
v -0.175000 1.231251 -2.181250
v -0.168750 1.243752 -2.875000
v 0.350000 2.050001 -1.237500
v 0.000000 2.000001 -1.575000
v 0.000000 2.131251 -0.981250
v -0.350000 2.050001 -1.237500
v -0.381250 1.675001 -1.825000
v 0.000000 1.668751 -2.000000
v -0.512500 0.000000 -0.912500
v -0.525000 0.050000 -0.850000
v -0.487500 0.118750 -1.100000
v -0.612500 0.050000 -0.743750
v 0.637500 0.550000 -0.556250
v 0.268750 0.306250 -0.487500
v 0.000000 0.300000 -0.687500
v -0.237500 0.443750 -0.893750
v -0.837500 1.493750 -0.812500
v -0.718750 0.825000 -0.887500
v 0.531250 0.550000 0.187500
v 0.343750 0.406250 0.500000
v 0.243750 0.400000 0.612500
v 0.243750 0.350000 0.931250
v -0.718750 0.718750 -1.043750
v -0.362500 0.462500 -0.956250
v -0.218750 0.856250 2.143750
v -0.100000 0.818750 2.350001
v -0.093750 0.800000 2.281250
v 0.000000 0.837500 2.256251
v -0.343750 0.925000 1.968751
v -0.412500 1.143750 1.793751
v -0.281250 1.162500 2.100001
v -0.212500 1.093750 2.275001
v -0.093750 0.987500 2.543751
v -0.162500 0.831250 2.443751
v 0.000000 0.800000 2.418751
v -0.243750 1.018750 2.237501
v -0.356250 1.068750 2.031251
v -0.375000 1.000000 2.012501
v 0.525000 0.325000 -1.606250
v 0.637500 0.543750 -1.600000
v 0.706250 0.543750 -1.312500
v 0.225000 0.325000 -1.293750
v 0.475000 0.018750 1.118750
v 0.337500 0.018750 1.118750
v -0.175000 1.137502 -3.506251
v -0.525000 0.325000 -1.606250
v -0.531250 0.181250 -1.318750
v -0.350000 0.175000 -1.318750
v -0.375000 0.162500 -1.418750
v -0.381250 1.618750 1.825001
v -0.475000 0.450000 -1.850000
v -0.637500 0.543750 -1.600000
v -0.706250 0.543750 -1.312500
v -0.681250 0.993750 -1.775000
v -0.500000 0.987500 -2.018750
v -0.618750 1.487501 -1.675000
v -0.825000 1.025000 -1.293750
v -0.843750 1.443751 -1.262500
v -0.662500 1.843751 -0.900000
v -0.337500 2.056251 -0.850000
v -0.556250 0.200000 0.968750
v 0.000000 0.962501 -2.875001
v -0.156250 1.018752 -2.875000
v 0.000000 0.993752 -3.506251
v -0.125000 1.031252 -3.506251
v -0.206250 1.125001 -2.875000
v -0.193750 0.906250 -2.150001
v -0.468750 1.568750 1.650001
v 0.406250 1.231250 1.306250
v 0.425000 1.118750 1.331250
v 0.250000 1.250000 1.943751
v 0.231250 1.187500 1.993751
v 0.268750 1.218750 2.031251
v 0.256250 1.243750 2.081251
v 0.281250 1.243750 2.006251
v 0.268750 1.275000 2.056251
v 0.300000 0.212500 0.968750
v 0.300000 0.168750 0.756250
v 0.081250 0.743750 2.243751
v 0.093750 0.800000 2.281250
v 0.218750 0.856250 2.143750
v 0.093750 0.987500 2.543751
v 0.100000 0.831250 2.531251
v 0.162500 0.831250 2.443751
v 0.100000 0.818750 2.350001
v 0.237500 1.168750 1.993751
v 0.281250 1.162500 2.100001
v 0.212500 1.243750 2.087501
v 0.237500 1.293750 2.043751
v 0.243750 1.018750 2.237501
v 0.212500 1.093750 2.275001
v 0.356250 1.068750 2.031251
v 0.375000 1.000000 2.012501
v 0.375000 0.000000 -1.312500
v -0.600000 0.012500 1.393750
v -0.543750 0.012500 1.393750
v -0.468750 -0.000000 1.306250
v -0.481250 0.112500 1.331250
v -0.456250 0.043750 1.468750
v 0.062500 1.068752 -5.031251
v 0.075000 1.125002 -5.031251
v 0.050000 1.156252 -5.031251
v 0.000000 1.187502 -5.031251
v -0.581250 1.737501 -1.518750
v -0.650000 1.793751 -1.250000
v 0.356250 1.350000 1.887501
v 0.318750 1.437500 1.837501
v 0.381250 1.618750 1.825001
v 0.425000 1.681250 1.756251
v 0.418750 1.625000 1.731251
v -0.206250 0.462500 -1.212500
v -0.356250 0.268750 -1.056250
v -0.225000 0.325000 -1.293750
v -0.568750 0.343750 -1.125000
v 0.650000 1.793751 -1.250000
v 0.581250 1.737501 -1.518750
v 0.843750 1.443751 -1.262500
v 0.618750 1.487501 -1.675000
v 0.681250 0.993750 -1.775000
v 0.662500 1.843751 -0.900000
v 0.837500 1.493750 -0.812500
v 0.487500 0.118750 1.081250
v 0.400000 0.237500 1.031250
v 0.400000 0.431250 0.993750
v 0.325000 0.112500 1.100000
v -0.137500 0.331250 -1.012500
v -0.112500 0.300000 -1.493750
v -0.137500 0.431250 -1.787500
v -0.612500 0.456250 0.825000
v -0.656250 0.756250 0.906250
v 0.800000 0.993750 -0.550000
v 0.331250 0.393750 0.193750
v 0.306250 0.312500 -0.175000
v 0.287500 1.406250 1.606251
v -0.631250 0.000000 -0.912500
vt 0.3501 -0.0864
vt 0.3044 -0.0254
vt 0.3003 -0.0454
vt 0.2795 -0.0181
vt 0.2078 -0.2676
vt 0.3137 -0.2676
vt 0.2078 -0.3149
vt 0.3137 -0.3149
vt 0.2078 -0.3618
vt 0.1018 -0.3618
vt 0.1018 -0.4092
vt 0.6167 -0.4922
vt 0.6086 -0.6357
vt 0.5723 -0.6104
vt 0.5720 -0.7290
vt 0.6086 -0.7305
vt 0.6487 -0.7705
vt 0.6680 -0.6987
vt 0.6814 -0.5059
vt 0.6882 -0.3984
vt 0.4780 -0.0938
vt 0.4250 -0.1030
vt 0.4583 -0.0039
vt 0.4233 -0.0039
vt 0.4250 -0.1030
vt 0.4780 -0.0938
vt 0.5295 -0.5713
vt 0.4802 -0.4888
vt 0.5139 -0.4688
vt 0.4775 -0.4028
vt 0.4617 -0.4365
vt 0.4780 -0.4023
vt 0.4250 -0.4370
vt 0.4453 -0.5044
vt 0.4937 -0.6064
vt 0.5376 -0.7168
vt 0.2935 -0.4639
vt 0.3044 -0.4658
vt 0.3662 -0.4727
vt 0.2390 -0.5352
vt 0.2527 -0.4956
vt 0.2390 -0.4956
vt 0.2390 -0.4956
vt 0.2527 -0.4956
vt 0.2480 -0.5347
vt 0.2390 -0.5508
vt 0.2480 -0.5347
vt 0.2617 -0.4917
vt 0.2617 -0.4917
vt 0.2646 -0.4644
vt 0.2764 -0.4858
vt 0.2708 -0.4624
vt 0.2390 -0.4800
vt 0.2390 -0.4482
vt 0.2627 -0.4800
vt 0.2627 -0.4482
vt 0.0039 -0.0469
vt 0.0039 -0.0039
vt 0.0784 -0.0039
vt 0.0039 -0.0469
vt 0.4453 -0.5044
vt 0.3896 -0.5142
vt 0.4165 -0.5781
vt 0.4075 -0.5986
vt 0.4165 -0.5781
vt 0.3896 -0.5142
vt 0.4075 -0.5986
vt 0.4236 -0.6592
vt 0.3979 -0.6328
vt 0.4163 -0.6929
vt 0.4001 -0.6763
vt 0.3979 -0.7231
vt 0.3940 -0.7529
vt 0.3979 -0.7231
vt 0.4038 -0.6768
vt 0.3960 -0.6768
vt 0.3916 -0.6504
vt 0.3635 -0.6235
vt 0.3748 -0.5894
vt 0.3472 -0.5215
vt 0.3984 -0.4614
vt 0.2388 -0.8359
vt 0.2781 -0.8203
vt 0.2515 -0.8101
vt 0.2737 -0.7505
vt 0.2820 -0.7178
vt 0.2271 -0.6812
vt 0.2432 -0.7407
vt 0.2629 -0.6709
vt 0.2625 -0.7231
vt 0.2791 -0.6758
vt 0.2734 -0.6504
vt 0.2227 -0.6235
vt 0.8325 -0.2344
vt 0.7974 -0.2329
vt 0.7876 -0.2476
vt 0.7712 -0.2490
vt 0.8262 -0.2705
vt 0.8767 -0.2827
vt 0.8452 -0.2324
vt 0.8298 -0.2319
vt 0.8386 -0.2314
vt 0.8721 -0.2480
vt 0.4558 -0.2734
vt 0.4453 -0.2666
vt 0.4360 -0.2378
vt 0.4365 -0.2383
vt 0.4658 -0.2456
vt 0.4832 -0.2681
vt 0.4744 -0.2900
vt 0.4900 -0.3184
vt 0.4858 -0.2690
vt 0.4583 -0.2754
vt 0.4661 -0.2451
vt 0.4800 -0.2383
vt 0.0039 -0.1890
vt 0.0784 -0.1416
vt 0.0039 -0.1416
vt 0.0784 -0.0942
vt 0.0039 -0.0942
vt 0.0784 -0.0469
vt 0.1567 -0.0039
vt 0.1567 -0.0469
vt 0.2390 -0.0942
vt 0.1567 -0.0942
vt 0.1567 -0.1416
vt 0.0784 -0.1890
vt 0.0784 -0.1416
vt 0.0039 -0.1416
vt 0.0784 -0.0942
vt 0.0039 -0.0942
vt 0.0784 -0.0469
vt 0.9900 -0.0605
vt 0.9915 -0.0928
vt 0.9343 -0.0435
vt 0.8079 -0.0684
vt 0.8882 -0.0352
vt 0.8130 -0.0430
vt 0.7949 -0.0737
vt 0.7964 -0.0039
vt 0.8762 -0.0039
vt 0.9561 -0.0039
vt 0.9885 -0.0039
vt 0.9543 -0.3867
vt 0.9949 -0.5547
vt 0.8079 -0.4258
vt 0.8252 -0.2715
vt 0.8281 -0.2520
vt 0.8770 -0.2842
vt 0.8252 -0.2715
vt 0.8770 -0.2842
vt 0.8281 -0.2520
vt 0.7412 -0.5439
vt 0.6680 -0.6987
vt 0.7085 -0.7642
vt 0.6487 -0.7705
vt 0.7124 -0.8525
vt 0.7156 -0.9336
vt 0.6418 -0.8467
vt 0.6086 -0.7305
vt 0.6084 -0.8140
vt 0.5720 -0.7290
vt 0.5461 -0.8091
vt 0.5376 -0.7168
vt 0.5723 -0.6104
vt 0.6086 -0.6357
vt 0.6167 -0.4922
vt 0.6814 -0.5059
vt 0.6882 -0.3984
vt 0.7419 -0.4038
vt 0.6255 -0.4043
vt 0.5193 -0.0039
vt 0.5205 -0.0713
vt 0.5537 -0.0688
vt 0.4775 -0.4028
vt 0.4617 -0.4365
vt 0.4802 -0.4888
vt 0.8572 -0.5532
vt 0.7935 -0.4897
vt 0.8176 -0.4565
vt 0.5261 -0.3755
vt 0.8821 -0.2349
vt 0.8364 -0.2378
vt 0.8115 -0.2383
vt 0.8323 -0.2329
vt 0.7976 -0.2329
vt 0.8323 -0.2329
vt 0.8115 -0.2383
vt 0.8364 -0.2378
vt 0.8821 -0.2349
vt 0.9111 -0.2554
vt 0.9050 -0.3008
vt 0.9290 -0.2554
vt 0.9231 -0.3008
vt 0.9309 -0.3350
vt 0.9075 -0.3345
vt 0.2795 -0.0181
vt 0.3044 -0.0254
vt 0.3003 -0.0454
vt 0.3501 -0.0864
vt 0.3005 -0.1040
vt 0.3132 -0.1216
vt 0.3279 -0.1240
vt 0.2979 -0.1406
vt 0.3066 -0.1592
vt 0.3401 -0.1455
vt 0.3804 -0.1323
vt 0.3792 -0.1055
vt 0.3918 -0.3301
vt 0.4063 -0.2920
vt 0.4063 -0.3345
vt 0.5037 -0.2949
vt 0.5361 -0.2764
vt 0.5620 -0.3853
vt 0.5776 -0.4839
vt 0.5769 -0.4092
vt 0.5786 -0.3325
vt 0.5366 -0.2861
vt 0.4800 -0.2393
vt 0.4790 -0.0039
vt 0.5205 -0.0713
vt 0.5537 -0.0688
vt 0.5542 -0.0039
vt 0.6001 -0.0039
vt 0.5769 -0.1079
vt 0.1018 -0.2676
vt 0.1018 -0.3149
vt 0.0039 -0.3149
vt 0.0039 -0.2676
vt 0.0039 -0.2202
vt 0.4937 -0.6064
vt 0.4473 -0.5811
vt 0.4512 -0.6172
vt 0.7124 -0.8525
vt 0.7876 -0.9028
vt 0.7085 -0.7642
vt 0.3979 -0.7231
vt 0.4038 -0.6768
vt 0.3960 -0.6768
vt 0.3979 -0.6328
vt 0.3916 -0.6504
vt 0.3635 -0.6235
vt 0.4236 -0.6592
vt 0.4553 -0.6655
vt 0.4922 -0.7021
vt 0.4912 -0.7896
vt 0.4922 -0.7021
vt 0.4541 -0.7690
vt 0.4063 -0.7085
vt 0.6243 -0.1040
vt 0.6819 -0.0967
vt 0.6812 -0.0039
vt 0.7249 -0.0039
vt 0.7312 -0.0845
vt 0.7419 -0.2002
vt 0.6882 -0.1929
vt 0.6255 -0.1665
vt 0.3313 -0.6816
vt 0.3076 -0.6475
vt 0.3230 -0.7183
vt 0.2942 -0.6626
vt 0.3076 -0.6475
vt 0.3062 -0.6274
vt 0.2964 -0.5947
vt 0.2495 -0.5498
vt 0.2964 -0.5947
vt 0.3062 -0.6274
vt 0.3174 -0.6484
vt 0.3333 -0.6548
vt 0.3572 -0.6870
vt 0.3459 -0.7534
vt 0.3572 -0.6870
vt 0.3313 -0.6816
vt 0.3174 -0.6484
vt 0.3418 -0.6104
vt 0.3289 -0.6211
vt 0.3301 -0.6216
vt 0.3337 -0.6313
vt 0.3357 -0.6357
vt 0.3208 -0.6235
vt 0.3418 -0.6104
vt 0.3521 -0.6230
vt 0.3398 -0.6177
vt 0.3398 -0.6177
vt 0.3604 -0.6533
vt 0.3682 -0.6812
vt 0.4468 -0.2671
vt 0.4221 -0.2427
vt 0.4260 -0.2456
vt 0.4514 -0.2329
vt 0.4370 -0.2363
vt 0.4370 -0.2358
vt 0.4661 -0.2451
vt 0.4583 -0.2754
vt 0.4512 -0.2334
vt 0.4275 -0.2437
vt 0.4453 -0.2666
vt 0.4365 -0.2383
vt 0.4658 -0.2456
vt 0.4360 -0.2378
vt 0.4558 -0.2734
vt 0.4512 -0.2334
vt 0.4275 -0.2437
vt 0.4221 -0.2427
vt 0.4136 -0.7749
vt 0.3811 -0.7783
vt 0.4063 -0.7085
vt 0.4553 -0.6655
vt 0.3208 -0.6235
vt 0.3333 -0.6548
vt 0.3835 -0.2329
vt 0.4016 -0.2642
vt 0.3813 -0.2744
vt 0.3137 -0.3618
vt 0.3137 -0.4092
vt 0.2078 -0.4092
vt 0.3137 -0.3618
vt 0.2078 -0.3618
vt 0.3137 -0.3149
vt 0.3984 -0.4614
vt 0.4250 -0.4370
vt 0.3984 -0.0864
vt 0.3662 -0.0039
vt 0.3984 -0.0864
vt 0.2627 -0.4800
vt 0.2627 -0.4482
vt 0.2764 -0.4858
vt 0.9111 -0.2554
vt 0.9050 -0.3008
vt 0.9290 -0.2554
vt 0.9231 -0.3008
vt 0.9309 -0.3350
vt 0.9075 -0.3345
vt 0.9773 -0.3867
vt 0.9431 -0.3730
vt 0.9949 -0.5547
vt 0.9697 -0.5415
vt 0.9961 -0.6162
vt 0.9434 -0.7803
vt 0.8276 -0.2856
vt 0.8611 -0.2891
vt 0.8196 -0.3174
vt 0.8311 -0.3398
vt 0.8044 -0.3774
vt 0.8440 -0.3774
vt 0.8079 -0.4258
vt 0.9543 -0.3867
vt 0.5154 -0.3911
vt 0.4995 -0.3667
vt 0.5095 -0.3428
vt 0.5037 -0.2998
vt 0.5591 -0.3574
vt 0.5205 -0.3369
vt 0.4780 -0.4023
vt 0.5295 -0.5713
vt 0.5776 -0.4839
vt 0.5769 -0.4092
vt 0.5620 -0.3853
vt 0.5786 -0.3325
vt 0.5361 -0.2764
vt 0.5500 -0.2173
vt 0.5903 -0.2896
vt 0.5769 -0.3589
vt 0.5669 -0.3735
vt 0.4194 -0.9761
vt 0.3096 -0.9839
vt 0.4194 -0.8267
vt 0.3096 -0.8423
vt 0.2822 -0.8735
vt 0.0039 -0.3618
vt 0.0039 -0.4092
vt 0.0039 -0.3618
vt 0.1018 -0.3618
vt 0.0039 -0.3149
vt 0.9077 -0.9360
vt 0.8484 -0.9009
vt 0.8076 -0.9824
vt 0.8484 -0.9009
vt 0.9434 -0.7803
vt 0.9807 -0.8481
vt 0.9961 -0.6909
vt 0.7974 -0.2329
vt 0.8325 -0.2344
vt 0.7876 -0.2476
vt 0.8262 -0.2705
vt 0.7712 -0.2490
vt 0.7419 -0.2002
vt 0.7312 -0.0845
vt 0.7620 -0.0039
vt 0.7949 -0.0737
vt 0.7817 -0.6987
vt 0.7935 -0.4897
vt 0.7949 -0.3701
vt 0.6255 -0.4043
vt 0.5769 -0.3589
vt 0.5669 -0.3735
vt 0.5591 -0.3574
vt 0.5537 -0.3530
vt 0.5205 -0.3369
vt 0.5095 -0.3428
vt 0.4194 -0.9761
vt 0.4194 -0.8267
vt 0.3096 -0.9839
vt 0.3096 -0.8423
vt 0.2822 -0.8735
vt 0.3198 -0.5000
vt 0.2986 -0.4819
vt 0.2878 -0.4893
vt 0.3025 -0.4941
vt 0.3472 -0.5215
vt 0.3748 -0.5894
vt 0.3269 -0.5952
vt 0.2996 -0.5742
vt 0.2583 -0.5410
vt 0.2739 -0.4927
vt 0.2773 -0.4824
vt 0.2708 -0.4624
vt 0.3059 -0.5498
vt 0.3379 -0.5664
vt 0.3403 -0.5459
vt 0.9124 -0.2554
vt 0.9065 -0.3008
vt 0.8608 -0.2871
vt 0.9060 -0.3345
vt 0.9048 -0.4019
vt 0.8594 -0.4023
vt 0.8569 -0.3350
vt 0.3923 -0.2837
vt 0.3918 -0.3301
vt 0.4063 -0.2920
vt 0.4063 -0.3345
vt 0.2078 -0.3149
vt 0.3137 -0.2676
vt 0.9060 -0.3345
vt 0.8611 -0.2891
vt 0.8608 -0.2871
vt 0.8767 -0.2827
vt 0.9065 -0.3008
vt 0.9124 -0.2554
vt 0.8721 -0.2480
vt 0.8386 -0.2314
vt 0.8298 -0.2319
vt 0.8452 -0.2324
vt 0.3696 -0.7378
vt 0.3843 -0.7407
vt 0.9431 -0.3730
vt 0.9048 -0.4019
vt 0.8594 -0.4023
vt 0.9324 -0.5425
vt 0.9697 -0.5415
vt 0.9163 -0.6963
vt 0.8572 -0.5532
vt 0.8516 -0.6826
vt 0.7952 -0.8081
vt 0.7876 -0.9028
vt 0.2393 -0.0513
vt 0.2942 -0.0898
vt 0.2932 -0.0459
vt 0.3450 -0.1245
vt 0.3450 -0.0859
vt 0.5037 -0.2949
vt 0.4875 -0.2080
vt 0.1018 -0.2202
vt 0.1018 -0.2676
vt 0.2078 -0.2202
vt 0.2078 -0.2676
vt 0.3137 -0.2202
vt 0.1018 -0.3149
vt 0.0039 -0.2676
vt 0.3940 -0.7529
vt 0.4163 -0.6929
vt 0.3979 -0.7231
vt 0.3960 -0.6768
vt 0.3921 -0.7217
vt 0.3809 -0.7568
vt 0.3484 -0.2544
vt 0.3721 -0.2324
vt 0.3708 -0.2705
vt 0.4512 -0.6172
vt 0.4473 -0.5811
vt 0.3521 -0.6230
vt 0.3398 -0.6177
vt 0.3418 -0.6104
vt 0.3301 -0.6216
vt 0.3398 -0.6177
vt 0.3337 -0.6313
vt 0.5037 -0.2998
vt 0.5366 -0.2861
vt 0.3044 -0.4658
vt 0.3198 -0.5000
vt 0.2986 -0.4819
vt 0.2583 -0.5410
vt 0.2617 -0.4917
vt 0.2739 -0.4927
vt 0.2617 -0.4917
vt 0.2878 -0.4893
vt 0.3418 -0.6104
vt 0.3269 -0.5952
vt 0.3289 -0.6211
vt 0.3357 -0.6357
vt 0.3059 -0.5498
vt 0.2996 -0.5742
vt 0.3379 -0.5664
vt 0.3403 -0.5459
vt 0.3401 -0.1455
vt 0.3804 -0.1323
vt 0.3279 -0.1240
vt 0.3792 -0.1055
vt 0.4370 -0.2358
vt 0.4370 -0.2363
vt 0.4514 -0.2329
vt 0.4468 -0.2671
vt 0.4260 -0.2456
vt 0.9961 -0.6162
vt 0.9773 -0.3867
vt 0.1567 -0.0469
vt 0.1567 -0.0942
vt 0.1567 -0.1416
vt 0.1567 -0.1890
vt 0.8921 -0.7759
vt 0.8501 -0.7935
vt 0.3604 -0.6533
vt 0.3682 -0.6812
vt 0.3696 -0.7378
vt 0.3809 -0.7568
vt 0.3843 -0.7407
vt 0.3921 -0.7217
vt 0.8440 -0.3774
vt 0.8196 -0.3174
vt 0.8569 -0.3350
vt 0.8044 -0.3774
vt 0.8311 -0.3398
vt 0.8276 -0.2856
vt 0.8501 -0.7935
vt 0.8516 -0.6826
vt 0.8921 -0.7759
vt 0.9163 -0.6963
vt 0.9324 -0.5425
vt 0.7952 -0.8081
vt 0.7817 -0.6987
vt 0.3066 -0.1592
vt 0.2979 -0.1406
vt 0.3132 -0.1216
vt 0.3005 -0.1040
vt 0.2654 -0.0820
vt 0.2656 -0.0444
vt 0.2393 -0.0513
vt 0.5903 -0.2896
vt 0.5500 -0.2173
vt 0.4875 -0.2080
vt 0.4800 -0.2383
vt 0.4858 -0.2690
vt 0.4744 -0.2900
vt 0.4900 -0.3184
vt 0.4995 -0.3667
vt 0.4832 -0.2681
vt 0.4800 -0.2393
vt 0.5154 -0.3911
vt 0.4016 -0.2642
vt 0.3835 -0.2329
vt 0.3813 -0.2744
vt 0.3708 -0.2705
vt 0.3721 -0.2324
vt 0.3484 -0.2544
vt 0.3923 -0.2837
vt 0.3774 -0.3223
vt 0.3774 -0.2925
vt 0.3477 -0.3096
vt 0.5537 -0.3530
vt 0.8079 -0.0684
vt 0.8130 -0.0430
vt 0.8882 -0.0352
vt 0.9343 -0.0435
vt 0.9915 -0.0928
vt 0.9900 -0.0605
vt 0.5261 -0.3755
vt 0.5139 -0.4688
vt 0.3450 -0.0859
vt 0.3450 -0.1245
vt 0.2932 -0.0459
vt 0.2942 -0.0898
vt 0.7412 -0.5439
vt 0.7419 -0.4038
vt 0.7949 -0.3701
vt 0.5769 -0.1079
vt 0.6243 -0.1040
vt 0.6255 -0.1665
vt 0.6882 -0.1929
vt 0.6819 -0.0967
vt 0.2388 -0.8359
vt 0.2515 -0.8101
vt 0.2781 -0.8203
vt 0.2737 -0.7505
vt 0.2820 -0.7178
vt 0.2791 -0.6758
vt 0.2625 -0.7231
vt 0.2629 -0.6709
vt 0.2432 -0.7407
vt 0.2271 -0.6812
vt 0.2227 -0.6235
vt 0.2734 -0.6504
vt 0.3477 -0.3096
vt 0.3774 -0.3223
vt 0.3774 -0.2925
vt 0.8176 -0.4565
vt 0.2654 -0.0820
vt 0.2656 -0.0444
vt 0.7976 -0.2329
vn 0.5764 -0.7388 -0.3492
vn 0.7858 -0.5597 -0.2632
vn -0.0057 -0.9458 -0.3247
vn -0.4298 -0.8996 -0.0776
vn 0.6502 -0.7582 -0.0495
vn 0.6620 -0.7481 -0.0468
vn 0.9980 -0.0292 -0.0565
vn 0.9825 -0.0340 0.1829
vn 0.8760 0.4781 -0.0640
vn 0.7286 0.6601 -0.1830
vn 0.2407 0.9706 -0.0085
vn 0.9826 0.1440 0.1175
vn 0.8841 0.4281 0.1872
vn 0.9017 0.4324 0.0031
vn 0.7046 0.7022 0.1023
vn 0.6043 0.7585 0.2440
vn 0.4120 0.7510 0.5161
vn 0.7198 0.5122 0.4685
vn 0.9219 0.2926 0.2541
vn 0.8237 -0.5578 0.1019
vn 0.1498 -0.7906 0.5937
vn 0.4891 -0.7904 0.3689
vn 0.0169 -0.9070 0.4209
vn 0.0000 -0.9200 0.3920
vn -0.5677 -0.7099 0.4168
vn 0.0496 -0.8259 0.5617
vn 0.9211 0.3269 0.2113
vn 0.9882 -0.1530 0.0088
vn 0.9504 0.0810 0.3004
vn 0.5360 -0.6087 0.5849
vn 0.6218 -0.7819 0.0448
vn 0.9408 -0.0918 0.3263
vn 0.8849 0.3795 0.2701
vn 0.7313 0.6209 0.2823
vn -0.7645 -0.5680 0.3048
vn -0.4379 -0.8860 0.1526
vn 0.0000 -0.9257 0.3782
vn -0.1080 -0.0271 0.9938
vn 0.0969 -0.6975 0.7100
vn 0.0000 0.1691 0.9856
vn -0.0000 -0.9787 0.2055
vn -0.5504 -0.4806 0.6827
vn 0.1753 0.2074 0.9624
vn -0.0000 0.4813 0.8765
vn -0.2076 0.2128 0.9548
vn 0.1733 -0.3396 0.9245
vn -0.1900 -0.9255 0.3277
vn 0.2345 -0.9580 0.1649
vn 0.2896 -0.9466 -0.1416
vn -0.1992 -0.9794 -0.0316
vn 0.1582 -0.9412 0.2984
vn 0.0000 -0.9980 -0.0625
vn 0.0001 -0.9992 -0.0396
vn -0.5899 -0.7416 -0.3193
vn -0.9028 -0.0643 0.4253
vn -0.9124 -0.3630 0.1890
vn -0.9946 -0.0969 0.0382
vn -0.7772 -0.4744 -0.4134
vn 0.9639 -0.1665 0.2079
vn 0.8556 -0.4759 0.2037
vn 0.8186 -0.5707 0.0646
vn 0.8926 0.2725 -0.3592
vn 0.9213 -0.3887 -0.0070
vn 0.4626 0.1646 -0.8711
vn 0.9466 -0.2649 -0.1838
vn 0.9769 -0.2055 0.0592
vn 0.8572 0.4498 -0.2507
vn 0.6414 -0.3415 0.6871
vn 0.5760 0.0615 0.8151
vn 0.7972 0.0369 0.6026
vn 0.9960 0.0844 0.0278
vn 0.9320 0.2697 -0.2420
vn 0.7205 -0.6715 -0.1733
vn 0.6171 -0.4774 0.6255
vn -0.2342 0.8729 0.4281
vn -0.2021 0.9562 -0.2117
vn -0.6895 0.7192 -0.0855
vn -0.3710 0.3508 -0.8598
vn -0.8346 0.4349 -0.3381
vn -0.9841 0.1757 0.0272
vn -0.7457 -0.5386 0.3922
vn -0.5796 0.0964 0.8092
vn -0.4108 -0.4098 0.8144
vn -0.2913 0.0371 0.9559
vn -0.4680 0.4879 0.7369
vn -0.9391 0.0876 0.3321
vn -0.6910 -0.6127 0.3835
vn -0.5919 -0.7530 0.2875
vn -0.9639 0.2151 0.1567
vn 0.2431 0.0546 0.9685
vn -0.5229 0.7016 0.4841
vn -0.9430 -0.1697 0.2863
vn -0.2764 -0.7572 0.5919
vn 0.5543 -0.2448 0.7955
vn -0.7117 -0.3254 0.6226
vn -0.9512 -0.2434 -0.1898
vn 0.5061 0.7725 0.3836
vn 0.2449 0.7912 0.5604
vn 0.8018 0.5783 -0.1507
vn -0.1638 -0.5090 0.8450
vn 0.7860 -0.5558 0.2707
vn 0.8262 0.2413 0.5091
vn 0.2593 0.8569 0.4456
vn 0.0743 0.2563 0.9637
vn -0.7026 0.4892 0.5168
vn -0.3757 0.9189 -0.1207
vn -0.9955 -0.0908 0.0278
vn -0.5959 -0.6492 0.4727
vn -0.0310 0.9681 -0.2485
vn -0.6484 0.7613 -0.0014
vn -0.5456 0.8352 -0.0689
vn -0.9867 0.1076 0.1222
vn -0.9358 0.3480 -0.0566
vn -0.6667 -0.7451 -0.0183
vn 0.0000 -1.0000 0.0007
vn -0.3376 -0.9321 -0.1312
vn -0.0000 -0.8804 -0.4742
vn -0.8077 0.1912 -0.5577
vn -0.6417 0.7309 -0.2322
vn -0.0488 0.8674 -0.4953
vn 0.4262 0.9011 -0.0800
vn 0.6759 0.6954 -0.2440
vn 0.8167 0.5702 -0.0886
vn 0.8196 -0.5709 -0.0487
vn 0.6698 -0.5570 -0.4910
vn 0.7561 -0.2568 -0.6019
vn 0.6217 -0.4307 -0.6542
vn 0.3260 -0.8805 -0.3442
vn 0.6676 -0.6111 -0.4252
vn 0.6747 -0.7319 -0.0954
vn 0.5402 -0.6989 -0.4687
vn 0.2179 -0.9756 -0.0273
vn 0.0721 -0.9939 0.0837
vn 0.1237 -0.9249 -0.3595
vn 0.0436 -0.9114 -0.4092
vn 0.5680 -0.3125 -0.7614
vn -0.8902 -0.2854 -0.3551
vn -0.3821 -0.9014 -0.2038
vn 0.7564 0.6405 0.1324
vn 0.7966 0.5784 -0.1758
vn 0.9696 -0.1013 -0.2228
vn -0.4600 0.8780 0.1326
vn -0.9776 -0.1185 -0.1741
vn -0.7448 0.6632 -0.0739
vn -0.9466 0.1196 0.2995
vn -0.8316 0.3864 0.3989
vn -0.8732 0.3397 0.3494
vn -0.4561 0.7869 0.4157
vn -0.4580 0.8132 0.3590
vn -0.0738 0.9264 0.3694
vn 0.0000 0.9812 0.1932
vn -0.5314 0.8417 0.0953
vn 0.0000 0.9994 0.0344
vn -0.6376 0.7642 0.0975
vn 0.0000 0.9926 -0.1217
vn -0.5258 0.8364 0.1546
vn -0.7899 0.6032 0.1107
vn -0.8836 0.4113 0.2239
vn -0.9814 0.0826 0.1735
vn -0.9421 -0.0584 0.3302
vn -0.8281 -0.5511 0.1031
vn -0.7547 -0.6553 -0.0327
vn -0.8765 -0.4681 0.1125
vn 0.1097 -0.9805 0.1629
vn 0.2802 -0.9422 0.1835
vn 0.0013 0.0013 -1.0000
vn -0.1839 -0.9373 0.2961
vn -0.8785 -0.4565 0.1405
vn -0.8886 -0.1968 0.4143
vn 0.9899 -0.1404 0.0194
vn 0.7667 -0.5685 -0.2984
vn 0.8755 -0.3795 0.2991
vn 0.9037 0.0219 0.4276
vn 0.7306 -0.6809 0.0508
vn -0.1549 -0.9850 0.0754
vn 0.4298 -0.8996 -0.0776
vn -0.9156 -0.3932 -0.0842
vn -0.6147 -0.7344 -0.2878
vn -0.7258 -0.6333 -0.2685
vn -0.4446 -0.5589 -0.7000
vn 0.3276 -0.4328 -0.8398
vn 0.5495 -0.5623 -0.6180
vn 0.0140 -0.7489 -0.6626
vn 0.6829 -0.6184 -0.3888
vn 0.6711 -0.6782 0.2995
vn -0.3525 -0.5228 0.7762
vn 0.1377 -0.9881 -0.0685
vn -0.5815 -0.2486 0.7746
vn 0.5702 -0.3132 0.7595
vn 0.9585 -0.2609 -0.1146
vn 0.6167 -0.7852 0.0561
vn 0.9267 -0.0106 0.3757
vn 0.7852 -0.4180 -0.4569
vn 0.8677 -0.4149 -0.2736
vn 0.9954 0.0469 0.0839
vn 0.7073 -0.2228 -0.6709
vn 0.3914 -0.6890 -0.6100
vn 0.5972 -0.6768 -0.4305
vn -0.0000 -0.9555 0.2950
vn -0.3551 -0.9257 0.1307
vn -0.0817 -0.9886 -0.1269
vn 0.0000 -0.9991 0.0423
vn 0.0483 -0.9923 0.1142
vn -0.2054 -0.9784 -0.0232
vn 0.6465 -0.7097 -0.2801
vn 0.9911 -0.1066 -0.0798
vn -0.8547 0.4255 0.2974
vn -0.9755 0.1824 0.1230
vn -0.9445 0.3223 -0.0627
vn 0.4021 0.8700 0.2853
vn 0.3517 0.9167 0.1895
vn 0.6815 0.7098 0.1782
vn -0.9709 -0.0545 -0.2333
vn -0.9661 -0.2549 0.0409
vn -0.8391 0.5432 -0.0279
vn -0.6690 0.7266 0.1565
vn 0.0000 0.8992 -0.4375
vn 0.5897 0.8029 0.0873
vn 0.2017 0.9560 -0.2131
vn -0.3625 -0.9259 0.1057
vn -0.2966 -0.9502 0.0962
vn -0.0198 -0.9858 0.1670
vn -0.0000 -0.9997 -0.0256
vn -0.2637 -0.9543 -0.1405
vn -0.2493 0.7492 0.6137
vn -0.3570 0.2910 0.8876
vn -0.1583 0.8701 0.4668
vn 0.0000 0.7719 0.6357
vn 0.0994 0.6624 0.7425
vn 0.6580 0.0945 0.7471
vn 0.5988 0.7129 0.3650
vn -0.5626 0.4486 0.6945
vn -0.5519 -0.4716 0.6877
vn -0.6378 -0.1165 0.7613
vn -0.6499 -0.0840 0.7554
vn -0.4816 0.4725 0.7381
vn -0.3689 0.8305 0.4173
vn 0.0595 0.8481 0.5265
vn 0.4306 0.9025 -0.0032
vn 0.8035 0.0376 0.5941
vn -0.9139 0.0738 0.3991
vn -0.9459 -0.1209 0.3011
vn -0.4437 -0.8179 0.3663
vn -0.6350 0.2472 0.7319
vn -0.6209 -0.7445 0.2454
vn -0.9628 -0.1494 0.2251
vn -0.5524 0.6712 0.4943
vn -0.9438 -0.2006 -0.2627
vn -0.7492 -0.5805 -0.3190
vn -0.8877 -0.4375 0.1437
vn -0.8793 -0.4170 -0.2301
vn 0.0916 0.4941 0.8646
vn 0.4388 -0.0570 0.8968
vn 0.7196 0.5549 -0.4175
vn 0.1845 -0.9293 0.3200
vn -0.8077 0.1845 0.5600
vn 0.0626 0.9634 0.2608
vn 0.5237 -0.7775 -0.3483
vn 0.6308 0.7531 0.1867
vn -0.4166 -0.9070 -0.0618
vn -0.8246 -0.3565 -0.4392
vn -0.1451 0.3503 0.9253
vn 0.6897 -0.6444 0.3304
vn -0.5941 -0.7791 0.2001
vn -0.7368 -0.3699 -0.5660
vn -0.6423 0.7639 -0.0628
vn 0.3697 -0.7732 -0.5152
vn 0.9548 -0.2428 0.1712
vn 0.4008 -0.5375 0.7419
vn 0.0000 0.9972 -0.0742
vn -0.0000 0.9960 0.0891
vn 0.0000 0.9609 -0.2770
vn 0.6387 0.7677 -0.0522
vn 0.8234 -0.1917 0.5341
vn 0.7471 -0.1786 0.6402
vn -0.2593 0.8569 0.4456
vn 0.0285 0.9784 -0.2047
vn -0.6680 0.7419 -0.0587
vn -0.4142 -0.6194 0.6669
vn -0.1749 -0.9101 -0.3757
vn -0.2202 -0.9747 -0.0385
vn 0.3761 -0.8447 -0.3808
vn 0.8183 -0.4424 -0.3670
vn -0.5387 -0.2434 -0.8066
vn -0.4840 -0.3078 -0.8192
vn 0.1168 -0.8295 -0.5462
vn -0.5689 -0.6194 -0.5410
vn -0.7126 -0.5338 -0.4553
vn 0.4015 -0.8237 -0.4004
vn 0.6827 -0.2527 -0.6856
vn 0.6507 0.6018 -0.4631
vn 0.5402 0.4469 -0.7131
vn -0.1574 -0.9775 0.1404
vn 0.3932 -0.7570 0.5218
vn -0.2975 -0.9211 0.2510
vn 0.5833 -0.5681 0.5806
vn -0.1852 -0.7033 0.6863
vn -0.7964 -0.4356 0.4196
vn -0.1839 -0.4650 0.8660
vn 0.8720 0.0472 0.4873
vn 0.9274 0.1755 0.3304
vn -0.7169 -0.6466 -0.2606
vn -0.9151 0.2318 0.3300
vn -0.9845 0.1699 0.0435
vn -0.8543 -0.1359 -0.5016
vn -0.8337 -0.0899 -0.5449
vn -0.4155 -0.7277 -0.5457
vn -0.6861 -0.3768 -0.6224
vn 0.0120 0.8330 -0.5532
vn -0.5884 0.6506 -0.4801
vn -0.7096 0.6620 0.2415
vn 0.1370 0.9265 -0.3504
vn 0.4090 0.8159 -0.4088
vn 0.1004 0.9932 -0.0585
vn -0.2638 0.9553 -0.1332
vn -0.5054 0.6925 -0.5147
vn 0.2706 0.5572 -0.7850
vn 0.5948 -0.7572 0.2699
vn 0.9890 -0.1065 0.1028
vn 0.5670 0.7770 0.2735
vn 0.3197 0.1077 0.9414
vn 0.6578 -0.7394 -0.1436
vn 0.4308 -0.8847 -0.1780
vn 0.1076 -0.9489 -0.2966
vn -0.5573 -0.7079 -0.4340
vn -0.9042 -0.0267 0.4263
vn -0.9269 -0.3076 0.2149
vn 0.7946 -0.5879 -0.1514
vn 0.7531 -0.6347 0.1731
vn 0.8873 -0.4351 -0.1530
vn -0.9447 -0.3223 -0.0602
vn -0.8497 -0.4089 0.3329
vn -0.0707 -0.1516 0.9859
vn -0.5020 -0.7771 0.3796
vn -0.3897 -0.5327 0.7512
vn -0.1491 -0.9874 -0.0529
vn -0.0330 -0.5444 0.8381
vn -0.4835 -0.8754 -0.0034
vn -0.9930 0.0686 0.0963
vn -0.4586 0.8883 0.0268
vn -0.7922 0.3610 0.4920
vn -0.7634 0.3841 0.5194
vn -0.2730 -0.5570 0.7844
vn 0.2712 -0.8795 -0.3911
vn -0.8637 -0.1232 0.4886
vn -0.8409 0.2328 0.4885
vn -0.8178 -0.2182 0.5325
vn 0.7307 -0.5592 -0.3918
vn 0.8554 -0.4079 -0.3194
vn 0.8902 -0.4546 -0.0293
vn -0.9468 -0.2952 0.1281
vn 0.5960 -0.7094 0.3762
vn -0.5676 -0.8229 0.0256
vn -0.9963 0.0001 0.0864
vn -0.4237 -0.5836 -0.6927
vn -0.6343 -0.7702 -0.0672
vn 0.1733 -0.9749 0.1399
vn 0.9759 -0.0389 0.2145
vn 0.3946 -0.4025 0.8260
vn -0.4371 -0.7452 -0.5036
vn -0.8830 -0.3221 -0.3415
vn -0.9361 -0.3439 -0.0737
vn -0.8989 -0.1226 -0.4206
vn -0.6823 -0.2610 -0.6829
vn -0.7768 0.1931 -0.5995
vn -0.9651 -0.0132 -0.2616
vn -0.8767 0.2009 -0.4372
vn -0.8259 0.5627 -0.0348
vn -0.5638 0.8160 0.1271
vn -0.6084 0.1473 0.7798
vn -0.2502 -0.9627 -0.1027
vn -0.6314 -0.7345 -0.2487
vn 0.0000 -0.9998 -0.0176
vn -0.6492 -0.7591 -0.0481
vn -0.9653 -0.0574 -0.2547
vn -0.7332 -0.4692 -0.4922
vn -0.9772 0.1516 0.1487
vn 0.9368 0.3430 0.0689
vn 0.9787 0.1755 0.1067
vn 0.7711 -0.3537 0.5294
vn 0.3165 -0.9335 -0.1684
vn 0.5843 0.3905 0.7114
vn 0.4799 -0.7171 0.5054
vn 0.9975 -0.0262 0.0660
vn 0.9514 0.2683 -0.1509
vn -0.9914 0.0288 0.1275
vn -0.6566 -0.6916 -0.3009
vn 0.7677 -0.6409 -0.0000
vn 0.4523 -0.7859 0.4217
vn 0.2204 -0.9599 0.1735
vn 0.7981 0.1945 0.5703
vn 0.5287 -0.7385 0.4184
vn 0.5576 -0.0957 0.8246
vn 0.2318 -0.9461 0.2262
vn 0.7605 0.6452 0.0731
vn 0.5760 0.7988 0.1737
vn 0.9021 -0.3845 0.1958
vn 0.7918 -0.2643 0.5506
vn 0.9153 -0.2065 0.3459
vn 0.7781 0.3217 0.5396
vn 0.8595 0.2098 0.4660
vn 0.8615 0.1030 0.4972
vn -0.2082 -0.9571 -0.2016
vn -0.9345 -0.0104 0.3557
vn -0.2832 -0.4997 0.8186
vn -0.5732 -0.6453 0.5050
vn -0.5731 0.2886 0.7670
vn -0.9186 -0.0560 0.3911
vn 0.6450 -0.7553 -0.1161
vn 0.9722 -0.0505 -0.2287
vn 0.7905 0.6016 -0.1153
vn 0.6125 0.7783 -0.1383
vn -0.7612 0.4630 -0.4541
vn -0.7336 0.6007 -0.3179
vn 0.6125 0.7892 -0.0456
vn 0.8069 -0.4671 0.3616
vn 0.9230 0.3064 -0.2329
vn 0.4613 0.7200 0.5184
vn 0.8163 -0.3022 0.4922
vn 0.9498 -0.2074 0.2342
vn 0.4951 -0.7219 0.4834
vn 0.9546 -0.2564 0.1518
vn -0.5833 -0.5681 0.5806
vn 0.6567 0.6881 -0.3086
vn 0.9058 0.2908 -0.3083
vn 0.7068 0.6166 -0.3468
vn 0.7869 0.4135 -0.4580
vn 0.8905 0.1447 -0.4313
vn 0.7483 0.6442 -0.1584
vn 0.9588 0.1480 -0.2426
vn 0.8427 0.2970 0.4490
vn -0.0765 0.2374 0.9684
vn 0.2582 -0.5939 0.7620
vn -0.8565 0.3811 0.3481
vn -0.7685 -0.5465 -0.3327
vn -0.4994 -0.8605 -0.1004
vn -0.5637 -0.7258 -0.3944
vn -0.8294 -0.1345 0.5422
vn -0.9474 -0.1132 0.2993
vn 0.9976 0.0684 0.0089
vn 0.4056 -0.9068 0.1154
vn 0.3934 -0.9149 0.0898
vn 0.7087 0.0867 0.7002
vn -0.7011 -0.7050 0.1069
usemtl Tex_0078_0_png
s 1
f 1/1/1 2/2/2 3/3/3
f 2/2/2 4/4/4 3/3/3
f 5/5/5 6/6/6 7/7/7
f 6/6/6 8/8/8 7/7/7
f 8/8/8 9/9/9 7/7/7
f 7/7/7 9/9/9 10/10/10
f 9/9/9 11/11/11 10/10/10
f 12/12/12 14/13/13 13/14/14
f 13/14/14 14/13/13 15/15/15
f 15/15/15 14/13/13 16/16/16
f 16/16/16 14/13/13 17/17/17
f 17/17/17 14/13/13 18/18/18
f 18/18/18 14/13/13 19/19/19
f 14/13/13 12/12/12 19/19/19
f 19/19/19 12/12/12 20/20/20
f 21/21/21 22/22/22 23/23/23
f 22/22/22 24/24/24 23/23/23
f 24/24/24 25/25/25 23/23/23
f 25/25/25 26/26/26 23/23/23
f 27/27/27 29/28/28 28/29/29
f 28/29/29 29/28/28 30/30/30
f 29/28/28 31/31/31 30/30/30
f 30/30/30 31/31/31 21/32/21
f 21/32/21 31/31/31 22/33/22
f 22/33/22 31/31/31 32/34/32
f 31/31/31 29/28/28 32/34/32
f 32/34/32 29/28/28 33/35/33
f 29/28/28 27/27/27 33/35/33
f 27/27/27 34/36/34 33/35/33
f 35/37/35 37/38/36 36/39/37
f 38/40/38 39/41/39 40/42/40
f 39/41/39 41/43/41 40/42/40
f 41/43/41 42/44/42 40/42/40
f 40/42/40 42/44/42 38/40/38
f 42/44/42 43/45/43 38/40/38
f 43/45/43 44/46/44 38/40/38
f 44/46/44 45/47/45 38/40/38
f 38/40/38 45/47/45 39/41/39
f 45/47/45 46/48/46 39/41/39
f 46/48/46 47/49/47 39/41/39
f 39/41/39 47/49/47 41/43/41
f 48/50/48 50/51/49 49/52/50
f 41/53/41 48/54/48 51/55/51
f 48/54/48 49/56/50 51/55/51
f 49/56/50 50/51/49 51/55/51
f 6/57/6 52/58/52 53/59/53
f 52/58/52 54/60/54 53/59/53
f 55/61/55 56/62/56 57/63/57
f 56/62/56 58/64/58 57/63/57
f 32/34/32 60/65/59 59/66/60
f 59/66/60 60/65/59 61/67/61
f 60/65/59 62/68/62 61/67/61
f 61/67/61 62/68/62 63/69/63
f 62/68/62 64/70/64 63/69/63
f 63/69/63 64/70/64 65/71/65
f 65/71/65 64/70/64 66/72/66
f 64/70/64 67/73/67 66/72/66
f 67/73/67 68/74/68 66/72/66
f 66/72/66 68/74/68 65/75/65
f 68/74/68 69/76/69 65/75/65
f 65/75/65 69/76/69 63/69/63
f 69/76/69 70/77/70 63/69/63
f 70/77/70 71/78/71 63/69/63
f 63/69/63 71/78/71 61/67/61
f 71/78/71 72/79/72 61/67/61
f 61/67/61 72/79/72 59/66/60
f 72/79/72 73/80/73 59/66/60
f 73/80/73 36/39/37 59/66/60
f 36/39/37 74/81/74 59/66/60
f 59/66/60 74/81/74 32/34/32
f 74/81/74 22/33/22 32/34/32
f 75/82/75 77/83/76 76/84/77
f 76/84/77 77/83/76 78/85/78
f 77/83/76 79/86/79 78/85/78
f 80/87/80 81/88/81 82/89/82
f 81/88/81 83/90/83 82/89/82
f 83/90/83 84/91/84 82/89/82
f 84/91/84 85/92/85 82/89/82
f 85/92/85 86/93/86 82/89/82
f 87/94/87 88/95/88 89/96/89
f 88/95/88 90/97/90 89/96/89
f 90/97/90 91/98/91 89/96/89
f 89/96/89 91/98/91 87/94/87
f 91/98/91 92/99/92 87/94/87
f 87/94/87 92/99/92 93/100/93
f 93/100/93 92/99/92 94/101/94
f 94/101/94 92/99/92 95/102/95
f 92/99/92 96/103/96 95/102/95
f 97/104/97 98/105/98 99/106/99
f 98/105/98 100/107/100 99/106/99
f 100/107/100 101/108/101 99/106/99
f 99/106/99 101/108/101 97/104/97
f 101/108/101 102/109/102 97/104/97
f 97/104/97 102/109/102 103/110/103
f 102/109/102 104/111/104 103/110/103
f 104/111/104 105/112/105 103/110/103
f 103/110/103 105/112/105 106/113/106
f 106/113/106 105/112/105 107/114/107
f 107/114/107 105/112/105 108/115/108
f 109/116/109 110/117/110 111/118/111
f 110/117/110 112/119/112 111/118/111
f 111/118/111 112/119/112 113/120/113
f 112/119/112 114/121/114 113/120/113
f 113/120/113 114/121/114 54/60/54
f 54/60/54 114/121/114 53/59/53
f 53/59/53 114/121/114 115/122/115
f 114/121/114 116/123/116 115/122/115
f 115/122/115 116/123/116 117/124/117
f 116/123/116 118/125/118 117/124/117
f 117/124/117 118/125/118 119/126/119
f 118/125/118 110/117/110 119/126/119
f 119/126/119 110/117/110 120/127/120
f 110/117/110 109/116/109 120/127/120
f 120/127/120 109/116/109 121/128/121
f 109/116/109 122/129/122 121/128/121
f 121/128/121 122/129/122 123/130/123
f 122/129/122 8/131/8 123/130/123
f 123/130/123 8/131/8 124/132/124
f 8/131/8 6/57/6 124/132/124
f 125/133/125 126/134/126 127/135/127
f 126/134/126 128/136/128 127/135/127
f 127/135/127 128/136/128 129/137/129
f 129/137/129 128/136/128 130/138/130
f 128/136/128 131/139/131 130/138/130
f 131/139/131 132/140/132 130/138/130
f 132/140/132 133/141/133 130/138/130
f 130/138/130 133/141/133 129/137/129
f 133/141/133 134/142/134 129/137/129
f 129/137/129 134/142/134 127/135/127
f 134/142/134 135/143/135 127/135/127
f 127/135/127 135/143/135 125/133/125
f 136/144/136 138/145/137 137/146/138
f 139/147/139 141/148/140 140/149/141
f 142/150/142 144/151/143 143/152/144
f 145/153/145 146/154/146 147/155/147
f 146/154/146 148/156/148 147/155/147
f 147/155/147 148/156/148 149/157/149
f 149/157/149 148/156/148 150/158/150
f 150/158/150 148/156/148 151/159/151
f 148/156/148 152/160/152 151/159/151
f 151/159/151 152/160/152 153/161/153
f 152/160/152 154/162/154 153/161/153
f 153/161/153 154/162/154 155/163/155
f 155/163/155 154/162/154 156/164/156
f 156/164/156 154/162/154 157/165/157
f 154/162/154 158/166/158 157/165/157
f 157/165/157 158/166/158 159/167/159
f 159/167/159 158/166/158 160/168/160
f 158/166/158 146/154/146 160/168/160
f 146/154/146 145/153/145 160/168/160
f 160/168/160 145/153/145 161/169/161
f 145/153/145 162/170/162 161/169/161
f 160/168/160 161/169/161 159/167/159
f 161/169/161 163/171/163 159/167/159
f 21/21/21 165/172/164 164/173/165
f 164/173/165 165/172/164 166/174/166
f 167/175/167 169/176/168 168/177/169
f 170/178/170 172/179/171 171/180/172
f 173/181/173 28/29/29 30/30/30
f 1/182/1 140/149/141 2/183/2
f 140/149/141 141/148/140 2/183/2
f 2/183/2 141/148/140 4/184/4
f 141/148/140 139/147/139 4/184/4
f 4/184/4 139/147/139 3/185/3
f 3/185/3 139/147/139 174/186/174
f 139/147/139 90/97/90 174/186/174
f 175/187/175 142/150/142 176/188/176
f 142/150/142 143/152/144 176/188/176
f 176/188/176 143/152/144 177/189/177
f 143/152/144 144/151/143 177/189/177
f 177/189/177 144/151/143 178/190/178
f 178/190/178 144/151/143 179/191/179
f 144/151/143 180/192/180 179/191/179
f 179/191/179 180/192/180 181/193/181
f 181/193/181 180/192/180 182/194/182
f 180/192/180 183/195/183 182/194/182
f 182/194/182 183/195/183 184/196/184
f 176/197/176 177/198/177 175/199/175
f 177/198/177 178/200/178 175/199/175
f 175/199/175 178/200/178 185/201/185
f 185/201/185 178/200/178 186/202/186
f 178/200/178 187/203/187 186/202/186
f 186/202/186 187/203/187 188/204/188
f 188/204/188 187/203/187 189/205/189
f 189/205/189 187/203/187 190/206/190
f 190/206/190 187/203/187 181/207/181
f 187/203/187 178/200/178 181/207/181
f 181/207/181 178/200/178 179/208/179
f 101/209/101 108/210/108 191/211/191
f 192/212/192 193/213/193 173/181/173
f 193/213/193 194/214/194 173/181/173
f 173/181/173 194/214/194 28/29/29
f 194/214/194 195/215/195 28/29/29
f 28/29/29 195/215/195 27/27/27
f 27/27/27 195/215/195 13/14/14
f 13/14/14 195/215/195 12/12/12
f 12/12/12 195/215/195 196/216/196
f 195/215/195 194/214/194 196/216/196
f 196/216/196 194/214/194 197/217/197
f 194/214/194 193/213/193 197/217/197
f 198/218/198 102/109/102 191/219/191
f 191/219/191 102/109/102 101/108/101
f 165/172/164 21/21/21 199/220/199
f 21/21/21 23/23/23 199/220/199
f 23/23/23 26/26/26 199/220/199
f 199/220/199 26/26/26 165/172/164
f 26/26/26 200/221/200 165/172/164
f 200/221/200 201/222/201 165/172/164
f 201/222/201 202/223/202 165/172/164
f 165/172/164 202/223/202 166/174/166
f 166/174/166 202/223/202 203/224/203
f 202/223/202 201/222/201 203/224/203
f 203/224/203 201/222/201 204/225/204
f 205/226/205 5/5/5 206/227/206
f 5/5/5 7/7/7 206/227/206
f 7/7/7 10/10/10 206/227/206
f 10/10/10 126/228/126 206/227/206
f 126/228/126 125/229/125 206/227/206
f 206/227/206 125/229/125 205/226/205
f 125/229/125 135/230/135 205/226/205
f 207/231/207 209/232/208 208/233/209
f 208/233/209 209/232/208 57/63/57
f 57/63/57 209/232/208 55/61/55
f 55/61/55 209/232/208 207/231/207
f 150/158/150 211/234/210 210/235/211
f 210/235/211 211/234/210 212/236/212
f 83/237/83 213/238/213 84/239/84
f 213/238/213 214/240/214 84/239/84
f 84/239/84 214/240/214 85/241/85
f 85/241/85 214/240/214 86/242/86
f 86/242/86 214/240/214 58/64/58
f 214/240/214 79/243/79 58/64/58
f 58/64/58 79/243/79 57/63/57
f 57/63/57 79/243/79 208/233/209
f 79/243/79 215/244/215 208/233/209
f 208/233/209 215/244/215 207/231/207
f 215/244/215 216/245/216 207/231/207
f 207/231/207 216/245/216 156/164/156
f 156/164/156 216/245/216 155/163/155
f 216/245/216 217/246/217 155/163/155
f 155/163/155 217/246/217 218/247/218
f 218/247/218 217/246/217 219/248/219
f 217/246/217 216/245/216 219/248/219
f 216/245/216 215/244/215 219/248/219
f 219/248/219 215/244/215 77/249/76
f 215/244/215 79/243/79 77/249/76
f 220/250/220 222/251/221 221/252/222
f 221/252/222 222/251/221 223/253/223
f 223/253/223 222/251/221 224/254/224
f 224/254/224 222/251/221 162/255/162
f 162/255/162 222/251/221 161/256/161
f 222/251/221 220/250/220 161/256/161
f 161/256/161 220/250/220 163/257/163
f 163/257/163 220/250/220 204/225/204
f 204/225/204 220/250/220 203/224/203
f 203/224/203 220/250/220 221/252/222
f 225/258/225 226/259/226 227/260/227
f 226/259/226 228/261/228 227/260/227
f 227/260/227 228/261/228 229/262/229
f 229/262/229 228/261/228 230/263/230
f 230/263/230 228/261/228 231/264/231
f 231/264/231 228/261/228 44/265/44
f 44/265/44 228/261/228 232/266/232
f 232/266/232 228/261/228 233/267/233
f 228/261/228 226/259/226 233/267/233
f 233/267/233 226/259/226 234/268/234
f 226/259/226 225/258/225 234/268/234
f 234/268/234 225/258/225 235/269/235
f 235/269/235 225/258/225 236/270/236
f 225/258/225 227/260/227 236/270/236
f 236/270/236 227/260/227 237/271/237
f 237/271/237 227/260/227 238/272/238
f 238/272/238 227/260/227 239/273/239
f 227/260/227 229/262/229 239/273/239
f 239/273/239 229/262/229 240/274/240
f 241/275/241 243/276/242 242/277/243
f 242/277/243 243/276/242 244/278/244
f 244/278/244 243/276/242 245/279/245
f 243/276/242 246/280/246 245/279/245
f 245/279/245 246/280/246 235/269/235
f 235/269/235 246/280/246 234/268/234
f 234/268/234 246/280/246 233/267/233
f 233/267/233 246/280/246 232/266/232
f 232/266/232 246/280/246 247/281/247
f 246/280/246 243/276/242 247/281/247
f 243/276/242 241/275/241 247/281/247
f 247/281/247 241/275/241 86/242/86
f 86/242/86 241/275/241 248/282/248
f 248/282/248 241/275/241 249/283/249
f 241/275/241 242/277/243 249/283/249
f 249/283/249 242/277/243 250/284/250
f 242/277/243 244/278/244 250/284/250
f 250/284/250 244/278/244 248/282/248
f 244/278/244 245/279/245 248/282/248
f 248/282/248 245/279/245 86/242/86
f 245/279/245 235/269/235 86/242/86
f 86/242/86 235/269/235 251/285/251
f 235/269/235 236/270/236 251/285/251
f 236/270/236 80/286/80 251/285/251
f 80/286/80 86/242/86 251/285/251
f 252/287/252 253/288/253 254/289/254
f 253/288/253 255/290/255 254/289/254
f 254/289/254 255/290/255 252/287/252
f 255/290/255 256/291/256 252/287/252
f 252/287/252 256/291/256 257/292/257
f 256/291/256 258/293/258 257/292/257
f 257/292/257 258/293/258 259/294/259
f 260/295/260 253/288/253 261/296/261
f 253/288/253 262/297/262 261/296/261
f 261/296/261 262/297/262 260/295/260
f 262/297/262 263/298/263 260/295/260
f 260/295/260 263/298/263 264/299/264
f 263/298/263 265/300/265 264/299/264
f 264/299/264 265/300/265 266/301/266
f 266/301/266 265/300/265 262/297/262
f 265/300/265 263/298/263 262/297/262
f 101/108/101 100/107/100 267/302/267
f 100/107/100 98/105/98 267/302/267
f 98/105/98 268/303/268 267/302/267
f 267/302/267 268/303/268 269/304/269
f 269/304/269 268/303/268 98/105/98
f 219/248/219 77/249/76 270/305/270
f 77/249/76 271/306/271 270/305/270
f 271/306/271 272/307/272 270/305/270
f 270/305/270 272/307/272 219/248/219
f 272/307/272 273/308/273 219/248/219
f 219/248/219 273/308/273 218/247/218
f 273/308/273 33/35/33 218/247/218
f 33/35/33 34/36/34 218/247/218
f 34/36/34 155/163/155 218/247/218
f 231/264/231 274/309/274 230/263/230
f 230/263/230 274/309/274 240/274/240
f 274/309/274 275/310/275 240/274/240
f 240/274/240 275/310/275 239/273/239
f 275/310/275 238/272/238 239/273/239
f 240/274/240 229/262/229 230/263/230
f 259/311/259 276/312/276 266/313/266
f 122/314/122 109/315/109 277/316/277
f 109/315/109 111/317/111 277/316/277
f 277/316/277 111/317/111 278/318/278
f 111/317/111 113/319/113 278/318/278
f 36/39/37 56/62/56 279/320/279
f 56/62/56 55/61/55 279/320/279
f 279/320/279 55/61/55 25/321/25
f 22/22/22 74/322/74 24/24/24
f 74/322/74 36/323/37 24/24/24
f 36/323/37 279/324/279 24/24/24
f 279/324/279 25/25/25 24/24/24
f 41/53/41 47/325/47 48/54/48
f 48/54/48 47/325/47 280/326/280
f 280/326/280 47/325/47 281/327/281
f 1/182/1 282/328/282 140/149/141
f 140/149/141 282/328/282 283/329/283
f 282/328/282 284/330/284 283/329/283
f 284/330/284 285/331/285 283/329/283
f 283/329/283 285/331/285 286/332/286
f 285/331/285 287/333/287 286/332/286
f 287/333/287 288/334/288 286/332/286
f 286/332/286 288/334/288 289/335/289
f 288/334/288 126/336/126 289/335/289
f 289/335/289 126/336/126 290/337/290
f 126/336/126 291/338/291 290/337/290
f 291/338/291 292/339/292 290/337/290
f 293/340/293 294/341/294 295/342/295
f 294/341/294 296/343/296 295/342/295
f 296/343/296 297/344/297 295/342/295
f 295/342/295 297/344/297 298/345/298
f 297/344/297 128/346/128 298/345/298
f 298/345/298 128/346/128 288/347/288
f 288/347/288 128/346/128 126/336/126
f 167/348/167 299/349/299 300/350/300
f 299/349/299 104/111/104 300/350/300
f 300/350/300 104/111/104 301/351/301
f 104/111/104 102/109/102 301/351/301
f 102/109/102 198/218/198 301/351/301
f 301/351/301 198/218/198 300/350/300
f 198/218/198 302/352/302 300/350/300
f 302/352/302 200/353/200 300/350/300
f 300/350/300 200/353/200 167/175/167
f 200/353/200 26/354/26 167/175/167
f 167/175/167 26/354/26 169/176/168
f 26/354/26 25/321/25 169/176/168
f 25/321/25 55/61/55 169/176/168
f 169/176/168 55/61/55 168/177/169
f 55/61/55 207/231/207 168/177/169
f 168/177/169 207/231/207 303/355/303
f 207/231/207 156/164/156 303/355/303
f 156/164/156 157/165/157 303/355/303
f 303/355/303 157/165/157 304/356/304
f 157/165/157 159/167/159 304/356/304
f 159/167/159 305/357/305 304/356/304
f 304/356/304 305/357/305 306/358/306
f 305/357/305 307/359/307 306/358/306
f 306/358/306 307/359/307 308/360/308
f 308/360/308 307/359/307 198/361/198
f 307/359/307 302/362/302 198/361/198
f 159/167/159 163/171/163 305/357/305
f 163/171/163 204/363/204 305/357/305
f 305/357/305 204/363/204 307/364/307
f 307/364/307 204/363/204 302/352/302
f 171/365/172 172/366/171 297/367/297
f 297/367/297 172/366/171 128/368/128
f 172/366/171 131/369/131 128/368/128
f 291/370/291 11/11/11 309/371/309
f 309/371/309 11/11/11 310/372/310
f 11/11/11 311/373/311 310/372/310
f 311/373/311 138/374/137 310/372/310
f 292/339/292 313/375/312 312/376/313
f 312/376/313 313/375/312 314/377/314
f 314/377/314 313/375/312 315/378/315
f 315/378/315 313/375/312 316/379/316
f 316/379/316 313/375/312 317/380/317
f 313/375/312 292/339/292 317/380/317
f 317/380/317 292/339/292 309/381/309
f 309/381/309 292/339/292 291/338/291
f 318/382/318 185/383/185 319/384/319
f 185/383/185 320/385/320 319/384/319
f 320/385/320 321/386/321 319/384/319
f 319/384/319 321/386/321 318/382/318
f 322/387/322 323/388/323 131/139/131
f 323/388/323 324/389/324 131/139/131
f 131/139/131 324/389/324 132/140/132
f 132/140/132 324/389/324 325/390/325
f 324/389/324 224/254/224 325/390/325
f 224/254/224 162/255/162 325/390/325
f 147/155/147 326/391/326 145/153/145
f 326/391/326 327/392/327 145/153/145
f 145/153/145 327/392/327 162/170/162
f 162/170/162 327/392/327 325/393/325
f 20/20/20 12/12/12 328/394/328
f 12/12/12 196/216/196 328/394/328
f 328/394/328 196/216/196 329/395/329
f 196/216/196 197/396/197 329/395/329
f 197/396/197 330/397/330 329/395/329
f 329/395/329 330/397/330 166/398/166
f 166/398/166 330/397/330 164/399/165
f 330/397/330 331/400/331 164/399/165
f 164/399/165 331/400/331 30/30/30
f 332/401/332 333/402/333 327/403/327
f 333/402/333 137/404/138 327/403/327
f 137/404/138 325/405/325 327/403/327
f 334/406/334 336/407/335 335/408/336
f 335/408/336 336/407/335 337/409/337
f 337/409/337 336/407/335 35/37/35
f 35/37/35 336/407/335 37/38/36
f 336/407/335 334/406/334 37/38/36
f 37/38/36 334/406/334 36/39/37
f 334/406/334 338/410/338 36/39/37
f 36/39/37 338/410/338 56/62/56
f 338/410/338 339/411/339 56/62/56
f 56/62/56 339/411/339 58/64/58
f 58/64/58 339/411/339 86/242/86
f 86/242/86 339/411/339 247/281/247
f 339/411/339 340/412/340 247/281/247
f 247/281/247 340/412/340 232/266/232
f 340/412/340 341/413/341 232/266/232
f 341/413/341 342/414/342 232/266/232
f 232/266/232 342/414/342 44/265/44
f 44/265/44 342/414/342 45/47/45
f 45/47/45 342/414/342 46/48/46
f 342/414/342 343/415/343 46/48/46
f 46/48/46 343/415/343 47/49/47
f 343/415/343 335/408/336 47/49/47
f 47/49/47 335/408/336 281/327/281
f 335/408/336 337/409/337 281/327/281
f 281/327/281 337/409/337 344/416/344
f 337/409/337 50/51/49 344/416/344
f 50/51/49 48/50/48 344/416/344
f 344/416/344 48/50/48 281/327/281
f 48/50/48 280/417/280 281/327/281
f 343/415/343 342/414/342 345/418/345
f 342/414/342 341/413/341 345/418/345
f 341/413/341 346/419/346 345/418/345
f 345/418/345 346/419/346 347/420/347
f 346/419/346 339/411/339 347/420/347
f 339/411/339 338/410/338 347/420/347
f 347/420/347 338/410/338 345/418/345
f 338/410/338 334/406/334 345/418/345
f 345/418/345 334/406/334 343/415/343
f 334/406/334 335/408/336 343/415/343
f 339/411/339 346/419/346 340/412/340
f 346/419/346 341/413/341 340/412/340
f 252/287/252 257/292/257 259/294/259
f 96/103/96 92/99/92 284/421/284
f 284/421/284 92/99/92 285/422/285
f 285/422/285 92/99/92 287/333/287
f 287/333/287 92/99/92 293/423/293
f 92/99/92 140/149/141 293/423/293
f 293/423/293 140/149/141 294/341/294
f 294/341/294 140/149/141 348/424/348
f 140/149/141 283/329/283 348/424/348
f 283/329/283 286/332/286 348/424/348
f 286/332/286 289/335/289 348/424/348
f 289/335/289 349/425/349 348/424/348
f 348/424/348 349/425/349 294/341/294
f 349/425/349 350/426/350 294/341/294
f 294/341/294 350/426/350 296/343/296
f 296/343/296 350/426/350 171/180/172
f 350/426/350 170/178/170 171/180/172
f 288/347/288 351/427/351 298/345/298
f 298/345/298 351/427/351 295/342/295
f 295/342/295 351/427/351 293/423/293
f 293/423/293 351/427/351 287/333/287
f 287/333/287 351/427/351 288/347/288
f 258/428/258 264/429/264 352/430/352
f 264/429/264 353/431/353 352/430/352
f 8/8/8 122/314/122 9/9/9
f 122/314/122 277/316/277 9/9/9
f 9/9/9 277/316/277 11/11/11
f 277/316/277 278/318/278 11/11/11
f 11/11/11 278/318/278 311/373/311
f 311/373/311 278/318/278 354/432/354
f 278/318/278 113/319/113 354/432/354
f 113/319/113 54/433/54 354/432/354
f 183/195/183 180/192/180 355/434/355
f 180/192/180 144/151/143 355/434/355
f 355/434/355 144/151/143 356/435/356
f 356/435/356 144/151/143 357/436/357
f 144/151/143 358/437/358 357/436/357
f 357/436/357 358/437/358 184/196/184
f 184/196/184 358/437/358 182/438/182
f 182/438/182 358/437/358 181/439/181
f 181/439/181 358/437/358 190/440/190
f 190/440/190 358/437/358 189/441/189
f 189/441/189 358/437/358 188/442/188
f 188/442/188 358/437/358 186/443/186
f 186/443/186 358/437/358 185/383/185
f 358/437/358 320/385/320 185/383/185
f 82/89/82 86/93/86 80/87/80
f 272/307/272 271/306/271 238/272/238
f 238/272/238 271/306/271 237/271/237
f 237/271/237 271/306/271 236/270/236
f 271/306/271 77/249/76 236/270/236
f 77/249/76 359/444/359 236/270/236
f 236/270/236 359/444/359 80/286/80
f 359/444/359 81/445/81 80/286/80
f 53/59/53 124/132/124 6/57/6
f 183/195/183 355/434/355 360/446/360
f 360/446/360 355/434/355 361/447/361
f 355/434/355 356/435/356 361/447/361
f 356/435/356 362/448/362 361/447/361
f 362/448/362 363/449/363 361/447/361
f 361/447/361 363/449/363 360/446/360
f 360/446/360 363/449/363 364/450/364
f 364/450/364 363/449/363 365/451/365
f 363/449/363 366/452/366 365/451/365
f 365/451/365 366/452/366 367/453/367
f 366/452/366 327/392/327 367/453/367
f 327/392/327 326/391/326 367/453/367
f 367/453/367 326/391/326 368/454/368
f 326/391/326 147/155/147 368/454/368
f 147/155/147 369/455/369 368/454/368
f 368/454/368 369/455/369 315/378/315
f 369/455/369 314/377/314 315/378/315
f 321/456/321 320/457/320 142/458/142
f 320/457/320 358/459/358 142/458/142
f 142/458/142 358/459/358 144/460/143
f 299/349/299 370/461/370 104/111/104
f 104/111/104 370/461/370 105/112/105
f 105/112/105 370/461/370 108/115/108
f 370/461/370 308/360/308 108/115/108
f 108/115/108 308/360/308 191/462/191
f 308/360/308 198/361/198 191/462/191
f 371/463/371 372/464/372 373/465/373
f 372/464/372 374/466/374 373/465/373
f 373/465/373 374/466/374 52/467/52
f 52/467/52 374/466/374 54/433/54
f 54/433/54 374/466/374 354/432/354
f 374/466/374 375/468/375 354/432/354
f 354/432/354 375/468/375 311/373/311
f 311/373/311 375/468/375 138/374/137
f 138/374/137 375/468/375 376/469/376
f 375/468/375 372/464/372 376/469/376
f 376/469/376 372/464/372 135/230/135
f 372/464/372 371/463/371 135/230/135
f 135/230/135 371/463/371 205/226/205
f 371/463/371 373/465/373 205/226/205
f 205/226/205 373/465/373 5/5/5
f 373/465/373 52/467/52 5/5/5
f 52/467/52 6/6/6 5/5/5
f 76/470/77 78/471/78 377/472/377
f 78/471/78 213/473/213 377/472/377
f 213/473/213 83/474/83 377/472/377
f 377/472/377 83/474/83 76/470/77
f 83/474/83 81/445/81 76/470/77
f 76/470/77 81/445/81 75/475/75
f 81/445/81 359/444/359 75/475/75
f 359/444/359 77/249/76 75/475/75
f 164/399/165 30/30/30 21/32/21
f 253/476/253 252/477/252 262/478/262
f 252/477/252 259/311/259 262/478/262
f 273/308/273 378/479/378 33/35/33
f 378/479/378 379/480/379 33/35/33
f 33/35/33 379/480/379 32/34/32
f 32/34/32 379/480/379 60/65/59
f 379/480/379 378/479/378 60/65/59
f 60/65/59 378/479/378 62/68/62
f 378/479/378 273/308/273 62/68/62
f 273/308/273 272/307/272 62/68/62
f 380/481/380 382/482/381 381/483/382
f 381/483/382 382/482/381 383/484/383
f 383/484/383 382/482/381 384/485/384
f 382/482/381 380/481/380 384/485/384
f 384/485/384 380/481/380 385/486/385
f 386/487/386 331/400/331 387/488/387
f 387/488/387 331/400/331 330/397/330
f 213/473/213 78/471/78 214/240/214
f 78/471/78 79/243/79 214/240/214
f 388/489/388 390/490/389 389/491/390
f 391/492/391 392/493/392 393/494/393
f 392/493/392 51/495/51 393/494/393
f 393/494/393 51/495/51 394/496/394
f 51/495/51 50/51/49 394/496/394
f 50/51/49 337/409/337 394/496/394
f 71/78/71 395/497/395 72/79/72
f 72/79/72 395/497/395 396/498/396
f 396/498/396 395/497/395 231/264/231
f 231/264/231 395/497/395 274/309/274
f 395/497/395 397/499/397 274/309/274
f 397/499/397 398/500/398 274/309/274
f 274/309/274 398/500/398 275/310/275
f 398/500/398 71/78/71 275/310/275
f 399/501/399 390/490/389 73/80/73
f 73/80/73 390/490/389 36/39/37
f 390/490/389 388/489/388 36/39/37
f 36/39/37 388/489/388 35/37/35
f 388/489/388 389/491/390 35/37/35
f 35/37/35 389/491/390 337/409/337
f 337/409/337 389/491/390 394/496/394
f 389/491/390 390/490/389 394/496/394
f 394/496/394 390/490/389 393/494/393
f 390/490/389 399/501/399 393/494/393
f 393/494/393 399/501/399 391/492/391
f 391/492/391 399/501/399 400/502/400
f 400/502/400 399/501/399 401/503/401
f 401/503/401 399/501/399 402/504/402
f 399/501/399 73/80/73 402/504/402
f 73/80/73 72/79/72 402/504/402
f 402/504/402 72/79/72 401/503/401
f 72/79/72 396/498/396 401/503/401
f 401/503/401 396/498/396 400/502/400
f 396/498/396 231/264/231 400/502/400
f 400/502/400 231/264/231 391/492/391
f 231/264/231 44/265/44 391/492/391
f 44/265/44 43/45/43 391/492/391
f 391/492/391 43/45/43 392/493/392
f 43/45/43 42/44/42 392/493/392
f 392/493/392 42/44/42 51/495/51
f 42/44/42 41/43/41 51/495/51
f 383/484/383 397/499/397 381/483/382
f 397/499/397 395/497/395 381/483/382
f 395/497/395 71/78/71 381/483/382
f 381/483/382 71/78/71 380/481/380
f 71/78/71 398/500/398 380/481/380
f 380/481/380 398/500/398 385/486/385
f 398/500/398 397/499/397 385/486/385
f 397/499/397 383/484/383 385/486/385
f 385/486/385 383/484/383 384/485/384
f 256/291/256 255/290/255 258/293/258
f 96/505/96 284/506/284 403/507/403
f 403/507/403 284/506/284 1/1/1
f 284/506/284 282/508/282 1/1/1
f 106/113/106 107/114/107 404/509/404
f 404/509/404 107/114/107 405/510/405
f 107/114/107 406/511/406 405/510/405
f 406/511/406 407/512/407 405/510/405
f 405/510/405 407/512/407 404/509/404
f 407/512/407 106/113/106 404/509/404
f 269/304/269 408/513/408 406/511/406
f 406/511/406 408/513/408 407/512/407
f 407/512/407 408/513/408 269/304/269
f 317/380/317 309/381/309 316/379/316
f 309/381/309 310/514/310 316/379/316
f 316/379/316 310/514/310 364/450/364
f 310/514/310 138/145/137 364/450/364
f 364/450/364 138/145/137 360/446/360
f 138/145/137 136/515/136 360/446/360
f 360/446/360 136/515/136 183/195/183
f 136/515/136 184/196/184 183/195/183
f 115/122/115 117/124/117 409/516/409
f 409/516/409 117/124/117 410/517/410
f 410/517/410 117/124/117 411/518/411
f 411/518/411 117/124/117 412/519/412
f 117/124/117 119/126/119 412/519/412
f 119/126/119 120/127/120 412/519/412
f 412/519/412 120/127/120 411/518/411
f 120/127/120 121/128/121 411/518/411
f 411/518/411 121/128/121 410/517/410
f 121/128/121 123/130/123 410/517/410
f 410/517/410 123/130/123 409/516/409
f 123/130/123 124/132/124 409/516/409
f 409/516/409 124/132/124 115/122/115
f 124/132/124 53/59/53 115/122/115
f 110/117/110 118/125/118 112/119/112
f 118/125/118 116/123/116 112/119/112
f 116/123/116 114/121/114 112/119/112
f 366/452/366 363/449/363 362/448/362
f 365/451/365 367/453/367 413/520/413
f 413/520/413 367/453/367 414/521/414
f 367/453/367 368/454/368 414/521/414
f 368/454/368 315/378/315 414/521/414
f 414/521/414 315/378/315 413/520/413
f 315/378/315 316/379/316 413/520/413
f 413/520/413 316/379/316 365/451/365
f 316/379/316 364/450/364 365/451/365
f 126/228/126 10/10/10 291/370/291
f 10/10/10 11/11/11 291/370/291
f 238/272/238 275/310/275 415/522/415
f 275/310/275 71/78/71 415/522/415
f 71/78/71 416/523/416 415/522/415
f 415/522/415 416/523/416 238/272/238
f 416/523/416 417/524/417 238/272/238
f 238/272/238 417/524/417 272/307/272
f 272/307/272 417/524/417 418/525/418
f 417/524/417 419/526/419 418/525/418
f 418/525/418 419/526/419 67/73/67
f 419/526/419 68/527/68 67/73/67
f 419/526/419 417/524/417 416/523/416
f 420/528/420 421/529/421 422/530/422
f 421/529/421 357/436/357 422/530/422
f 357/436/357 184/196/184 422/530/422
f 184/196/184 136/144/136 422/530/422
f 422/530/422 136/144/136 420/528/420
f 136/144/136 137/146/138 420/528/420
f 137/146/138 333/531/333 420/528/420
f 420/528/420 333/531/333 421/529/421
f 333/531/333 423/532/423 421/529/421
f 423/532/423 356/435/356 421/529/421
f 356/435/356 357/533/357 421/529/421
f 424/534/424 426/535/425 425/536/426
f 425/536/426 426/535/425 427/537/427
f 426/535/425 170/178/170 427/537/427
f 427/537/427 170/178/170 428/538/428
f 170/178/170 350/426/350 428/538/428
f 350/426/350 349/425/349 428/538/428
f 349/425/349 289/335/289 428/538/428
f 289/335/289 290/337/290 428/538/428
f 428/538/428 290/337/290 427/537/427
f 290/337/290 292/339/292 427/537/427
f 427/537/427 292/339/292 425/536/426
f 292/339/292 312/376/313 425/536/426
f 425/536/426 312/376/313 424/534/424
f 312/376/313 429/539/429 424/534/424
f 424/534/424 429/539/429 426/535/425
f 429/539/429 430/540/430 426/535/425
f 430/540/430 172/179/171 426/535/425
f 426/535/425 172/179/171 170/178/170
f 96/505/96 403/507/403 95/541/95
f 95/541/95 403/507/403 94/542/94
f 94/542/94 403/507/403 93/543/93
f 403/507/403 1/1/1 93/543/93
f 93/543/93 1/1/1 87/544/87
f 1/1/1 3/3/3 87/544/87
f 87/544/87 3/3/3 88/545/88
f 3/3/3 174/546/174 88/545/88
f 174/546/174 90/547/90 88/545/88
f 330/548/330 197/217/197 387/549/387
f 197/217/197 193/213/193 387/549/387
f 387/549/387 193/213/193 353/550/353
f 353/550/353 193/213/193 352/551/352
f 193/213/193 192/212/192 352/551/352
f 192/212/192 431/552/431 352/551/352
f 352/551/352 431/552/431 258/293/258
f 258/293/258 431/552/431 259/294/259
f 259/294/259 431/552/431 276/553/276
f 276/553/276 431/552/431 432/554/432
f 431/552/431 192/212/192 432/554/432
f 432/554/432 192/212/192 433/555/433
f 192/212/192 173/181/173 433/555/433
f 173/181/173 30/30/30 433/555/433
f 432/554/432 434/556/434 276/553/276
f 276/553/276 434/556/434 266/301/266
f 266/301/266 434/556/434 264/299/264
f 264/299/264 434/556/434 353/557/353
f 353/557/353 434/556/434 387/488/387
f 387/488/387 434/556/434 386/487/386
f 434/556/434 432/554/432 386/487/386
f 386/487/386 432/554/432 331/400/331
f 432/554/432 433/555/433 331/400/331
f 433/555/433 30/558/30 331/400/331
f 103/559/103 106/560/106 97/561/97
f 97/561/97 106/560/106 98/562/98
f 106/560/106 407/563/407 98/562/98
f 98/562/98 407/563/407 269/564/269
f 108/210/108 101/209/101 107/565/107
f 101/209/101 267/566/267 107/565/107
f 107/565/107 267/566/267 406/567/406
f 406/567/406 267/566/267 269/568/269
f 204/363/204 201/569/201 302/352/302
f 302/352/302 201/569/201 200/353/200
f 137/570/138 435/571/435 325/390/325
f 325/390/325 435/571/435 132/140/132
f 132/140/132 435/571/435 133/141/133
f 133/141/133 435/571/435 436/572/436
f 435/571/435 137/570/138 436/572/436
f 436/572/436 137/570/138 437/573/437
f 137/570/138 138/574/137 437/573/437
f 138/574/137 376/575/376 437/573/437
f 376/575/376 135/143/135 437/573/437
f 135/143/135 134/142/134 437/573/437
f 437/573/437 134/142/134 436/572/436
f 134/142/134 133/141/133 436/572/436
f 372/464/372 375/468/375 374/466/374
f 438/576/438 167/175/167 439/577/439
f 167/175/167 168/177/169 439/577/439
f 168/177/169 303/355/303 439/577/439
f 303/355/303 304/356/304 439/577/439
f 304/356/304 306/358/306 439/577/439
f 439/577/439 306/358/306 438/576/438
f 306/358/306 308/360/308 438/576/438
f 308/360/308 370/461/370 438/576/438
f 370/461/370 299/349/299 438/576/438
f 438/576/438 299/349/299 167/175/167
f 140/578/141 92/579/92 139/580/139
f 92/579/92 91/581/91 139/580/139
f 91/581/91 90/547/90 139/580/139
f 147/155/147 149/157/149 369/455/369
f 149/157/149 150/158/150 369/455/369
f 369/455/369 150/158/150 314/377/314
f 150/158/150 210/235/211 314/377/314
f 314/377/314 210/235/211 312/376/313
f 312/376/313 210/235/211 429/539/429
f 210/235/211 212/236/212 429/539/429
f 429/539/429 212/236/212 430/540/430
f 212/236/212 440/582/440 430/540/430
f 430/540/430 440/582/440 172/179/171
f 440/582/440 322/583/322 172/179/171
f 322/583/322 131/584/131 172/179/171
f 323/388/323 223/253/223 324/389/324
f 223/253/223 224/254/224 324/389/324
f 27/27/27 13/14/14 34/36/34
f 13/14/14 15/15/15 34/36/34
f 34/36/34 15/15/15 155/163/155
f 155/163/155 15/15/15 153/161/153
f 15/15/15 16/16/16 153/161/153
f 153/161/153 16/16/16 151/159/151
f 16/16/16 17/17/17 151/159/151
f 151/159/151 17/17/17 150/158/150
f 150/158/150 17/17/17 211/234/210
f 211/234/210 17/17/17 212/236/212
f 17/17/17 18/18/18 212/236/212
f 212/236/212 18/18/18 440/582/440
f 18/18/18 19/19/19 440/582/440
f 19/19/19 20/20/20 440/582/440
f 440/582/440 20/20/20 322/583/322
f 329/585/329 441/586/441 328/587/328
f 328/587/328 441/586/441 20/588/20
f 441/586/441 442/589/442 20/588/20
f 20/588/20 442/589/442 322/387/322
f 322/387/322 442/589/442 323/388/323
f 323/388/323 442/589/442 223/253/223
f 223/253/223 442/589/442 221/252/222
f 442/589/442 441/586/441 221/252/222
f 221/252/222 441/586/441 203/224/203
f 441/586/441 329/585/329 203/224/203
f 203/224/203 329/585/329 166/174/166
f 154/162/154 152/160/152 158/166/158
f 152/160/152 148/156/148 158/166/158
f 148/156/148 146/154/146 158/166/158
f 418/590/418 67/591/67 272/592/272
f 67/591/67 64/593/64 272/592/272
f 64/593/64 62/594/62 272/592/272
f 69/595/69 68/596/68 443/597/443
f 68/596/68 419/598/419 443/597/443
f 419/598/419 416/599/416 443/597/443
f 416/599/416 71/600/71 443/597/443
f 71/600/71 70/601/70 443/597/443
f 443/597/443 70/601/70 69/595/69
f 259/311/259 266/313/266 262/478/262
f 253/602/253 260/603/260 255/604/255
f 255/604/255 260/603/260 258/428/258
f 260/603/260 264/429/264 258/428/258
f 356/435/356 423/532/423 362/448/362
f 362/448/362 423/532/423 332/605/332
f 332/605/332 423/532/423 333/531/333
f 362/448/362 332/605/332 366/452/366
f 366/452/366 332/605/332 327/392/327
f 248/282/248 249/283/249 250/284/250
f 185/201/185 318/606/318 175/199/175
f 175/199/175 318/606/318 444/607/444
f 444/607/444 318/606/318 321/456/321
f 175/187/175 444/608/444 142/150/142
f 142/150/142 444/608/444 321/386/321
f 171/180/172 297/344/297 296/343/296
