# Wavefront OBJ exported by MilkShape 3D

mtllib skSortingHatMesh.mtl

v -4.908113 11.296715 2.792588
v -4.908113 11.296715 2.792588
v -4.908113 11.296715 2.792588
v -9.503046 0.950830 -5.754265
v -9.503046 0.950830 -5.754265
v -9.503046 0.950830 -5.754265
v 1.023969 2.164707 -11.683536
v 1.023969 2.164707 -11.683536
v 1.023969 2.164707 -11.683536
v 1.023969 2.164707 -11.683536
v 1.030078 6.786749 7.501298
v 1.030078 6.786749 7.501298
v 1.030078 6.786749 7.501298
v -2.972463 11.906883 -4.129514
v -2.972463 11.906883 -4.129514
v 1.536105 18.239149 4.413124
v 1.536105 18.239149 4.413124
v 9.286396 2.602895 4.907941
v 9.286396 2.602895 4.907941
v 9.286396 2.602895 4.907941
v 6.116928 10.662776 3.321660
v -6.695303 7.269855 -0.022530
v -4.640887 7.549417 5.161576
v -4.640887 7.549417 5.161576
v 0.940511 2.002922 11.954637
v 0.940511 2.002922 11.954637
v 0.940511 2.002922 11.954637
v 0.940511 2.002922 11.954637
v 13.022512 0.266240 0.102695
v 13.022512 0.266240 0.102695
v 13.022512 0.266240 0.102695
v 1.598309 15.718596 -4.686490
v 1.598309 15.718596 -4.686490
v -9.631735 1.088758 5.880454
v -9.631735 1.088758 5.880454
v -9.631735 1.088758 5.880454
v 4.970465 18.891762 2.234176
v -1.771002 21.429724 -2.157677
v -1.771002 21.429724 -2.157677
v -1.041908 27.978317 1.739241
v -1.041908 27.978317 1.739241
v 6.877063 1.520562 10.386387
v 6.877063 1.520562 10.386387
v 6.877063 1.520562 10.386387
v 15.810331 0.836781 8.233296
v 15.810331 0.836781 8.233296
v 0.452696 3.453917 0.000000
v 1.076527 6.681728 -6.294983
v 1.076527 6.681728 -6.294983
v -5.958549 13.163075 -0.797423
v -4.940629 1.945946 -10.128190
v -4.940629 1.945946 -10.128190
v -4.940629 1.945946 -10.128190
v 11.559498 0.728121 -5.870683
v 11.559498 0.728121 -5.870683
v 11.559498 0.728121 -5.870683
v 7.017069 1.805526 -10.277309
v 7.017069 1.805526 -10.277309
v 7.017069 1.805526 -10.277309
v -4.984698 1.730242 10.309978
v -4.984698 1.730242 10.309978
v -4.984698 1.730242 10.309978
v -11.079351 0.361804 0.017721
v -11.079351 0.361804 0.017721
v -11.079351 0.361804 0.017721
v -16.065575 -0.007651 -0.008250
v -16.065575 -0.007651 -0.008250
v 1.355970 11.648534 6.423601
v 1.355970 11.648534 6.423601
v 17.940340 0.166445 0.111512
v 17.940340 0.166445 0.111512
v 7.640804 5.745007 -1.225214
v -6.396629 6.165411 -2.155240
v 15.867502 0.836724 -7.959867
v 15.867502 0.836724 -7.959867
v 11.395374 0.739508 6.060533
v 11.395374 0.739508 6.060533
v 11.395374 0.739508 6.060533
v 0.926519 2.916616 16.277428
v 0.926519 2.916616 16.277428
v 9.030758 2.372701 14.136542
v 9.030758 2.372701 14.136542
v -13.485500 0.990253 7.881819
v -13.485500 0.990253 7.881819
v -0.000615 22.084824 3.121212
v -0.000615 22.084824 3.121212
v -13.387383 0.755423 -7.580980
v -13.387383 0.755423 -7.580980
v 9.129782 2.662887 -13.910836
v 9.129782 2.662887 -13.910836
v 1.018213 3.261504 -9.341127
v 1.018213 3.261504 -9.341127
v 1.018213 3.261504 -9.341127
v 0.951048 3.210176 9.682348
v 0.951048 3.210176 9.682348
v 0.951048 3.210176 9.682348
v -7.160056 2.427983 13.416451
v -7.160056 2.427983 13.416451
v 1.038437 3.045197 -15.421134
v 1.038437 3.045197 -15.421134
v -7.066235 2.372604 -13.157530
v -7.066235 2.372604 -13.157530
v 1.800647 21.869362 -3.044686
v 1.800647 21.869362 -3.044686
v -4.592927 11.224846 -2.506028
v 6.032210 15.531874 2.907704
v -1.741643 18.161263 4.020980
v 1.593336 15.201346 5.664393
v 1.593336 15.201346 5.664393
v 9.319640 2.602861 -4.507980
v 9.319640 2.602861 -4.507980
v -4.701183 7.505787 -4.463405
v 10.590212 2.271723 0.079043
v 10.590212 2.271723 0.079043
v 1.391759 18.791536 -4.056598
v 1.391759 18.791536 -4.056598
v 6.471403 10.525321 -1.056731
v -8.552940 2.193051 0.019538
v -8.552940 2.193051 0.019538
v 1.547528 12.796588 -5.508760
v 1.547528 12.796588 -5.508760
v -7.316678 2.765628 -4.695858
v -7.316678 2.765628 -4.695858
v -7.350376 2.765663 4.849203
v -7.350376 2.765663 4.849203
v -2.892501 11.978268 4.790959
v 5.816288 3.225274 -8.037004
v 5.816288 3.225274 -8.037004
v 5.758214 3.311176 8.412136
v 5.758214 3.311176 8.412136
v 6.397197 15.472728 -1.067719
v -3.788953 3.549962 -8.070916
v -3.788953 3.549962 -8.070916
v 7.261629 5.701252 3.712953
v -3.415887 18.648623 -0.088637
v -3.847030 3.300849 8.378225
v -3.847030 3.300849 8.378225
v -6.374340 6.213490 2.426851
v -3.623308 29.463980 5.883150
v -3.623308 29.463980 5.883150
v -1.148180 26.426802 3.927845
v -1.148180 26.426802 3.927845
v 4.586035 6.553001 6.395823
v -4.351566 13.798470 3.203096
v 4.494445 6.300544 -5.241353
v -4.282493 13.963545 -2.549163
v 3.423381 22.494879 2.188729
v -1.943151 18.243244 -3.663166
v 5.393888 19.085400 -1.075864
v 4.203140 22.323086 -0.956041
v -6.559681 10.660195 -1.471913
v -2.458553 21.601517 0.897888
v -6.456843 7.812058 2.100818
v -6.023646 13.224565 1.300810
v 4.019715 11.489367 -4.632007
v 4.404585 11.163739 5.481908
v -5.835728 15.709694 0.072955
v 4.259481 15.209582 4.891499
v 4.150822 15.601472 -3.976052
v -6.701609 8.020272 -1.729661
v -3.568062 5.718291 -5.783481
v -3.082278 9.212079 5.981553
v -3.264295 9.636324 -4.584503
v -3.371204 18.395733 2.368840
v -4.826609 5.470937 4.253379
v -5.724848 5.471329 -4.212194
v -5.777387 15.298272 3.470905
v -7.954041 8.860973 -0.181311
v 3.349630 19.103527 -3.757621
v -3.145735 13.719367 5.601401
v -6.554312 10.697196 1.968452
v -5.616347 15.307150 -2.929171
v -3.542061 6.218049 6.007252
v -7.358075 10.741359 0.186163
v -3.450790 13.499332 -4.845021
v -7.099955 6.130343 -0.026074
v -6.370768 12.927219 0.191537
v -3.563843 12.647285 -2.440717
v -5.652940 11.888706 1.223402
v 0.044796 27.835854 2.514421
v -2.181745 27.345028 2.058361
v -2.234881 26.569267 3.152665
v -0.008344 27.060089 3.608725
v -3.711719 12.688025 3.040693
v -5.576680 11.944832 -0.770426
v -5.369357 10.440260 3.546121
v -6.194452 7.395549 2.230073
v -6.450551 11.822757 0.165126
v -5.156020 10.519064 -3.093161
v -6.571581 6.904260 -2.220813
v -2.105282 11.740318 5.453351
v -7.248826 8.087244 -0.110611
v -5.280396 14.050721 3.372504
v -5.085948 14.253160 -2.687821
v -7.235713 8.654220 -1.801682
v -2.445161 11.434439 -4.514267
v -6.641190 5.534058 -0.015241
v -6.136658 5.502485 2.427029
v -6.477149 8.511433 2.345767
v -6.120684 5.502693 -2.097169
v -6.479707 13.639970 -0.790811
v -6.533368 13.688992 1.337528
v -6.207241 7.425407 -2.144862
v -6.151900 7.580920 -0.083164
v -6.300457 6.823575 2.441828
v -6.747571 13.399077 0.132105
v -7.117640 6.726626 -0.035350
# 207 vertices

vt 0.223529 0.098039
vt 0.172549 0.113725
vt 0.227451 0.203922
vt 0.325490 0.203922
vt 0.333333 0.141176
vt 0.309804 0.152941
vt 0.286275 0.090196
vt 0.274510 0.113725
vt 0.223529 0.070588
vt 0.160784 0.086275
vt 0.137255 0.152941
vt 0.109804 0.137255
vt 0.121569 0.203922
vt 0.098039 0.203922
vt 0.113725 0.274510
vt 0.137255 0.258824
vt 0.160784 0.321569
vt 0.172549 0.298039
vt 0.223529 0.341176
vt 0.223529 0.313725
vt 0.274510 0.298039
vt 0.286275 0.321569
vt 0.309804 0.258824
vt 0.337255 0.270588
vt 0.349020 0.203922
vt 0.741176 0.094118
vt 0.807843 0.098039
vt 0.760784 0.164706
vt 0.882353 0.109804
vt 0.843137 0.172549
vt 0.882353 0.180392
vt 0.925490 0.101961
vt 0.082353 0.490196
vt 0.149020 0.494118
vt 0.113725 0.549020
vt 0.168627 0.537255
vt 0.227451 0.533333
vt 0.219608 0.482353
vt 0.298039 0.533333
vt 0.270588 0.533333
vt 0.298039 0.474510
vt 0.301961 0.635294
vt 0.325490 0.619608
vt 0.313726 0.635294
vt 0.329412 0.533333
vt 0.368627 0.533333
vt 0.380392 0.572549
vt 0.400000 0.545098
vt 0.403922 0.600000
vt 0.486275 0.552941
vt 0.486275 0.631373
vt 0.568627 0.180392
vt 0.647059 0.247059
vt 0.584314 0.254902
vt 0.635294 0.176471
vt 0.686275 0.164706
vt 0.694118 0.239216
vt 0.756863 0.239216
vt 0.831373 0.250980
vt 0.870588 0.270588
vt 0.200000 0.603922
vt 0.125490 0.650980
vt 0.223529 0.572549
vt 0.274510 0.596078
vt 0.235294 0.615686
vt 0.301961 0.650980
vt 0.286275 0.654902
vt 0.286275 0.639216
vt 0.298039 0.701961
vt 0.337255 0.737255
vt 0.286275 0.741176
vt 0.360784 0.694118
vt 0.396078 0.737255
vt 0.407843 0.662745
vt 0.478431 0.694118
vt 0.647059 0.294118
vt 0.592157 0.305882
vt 0.698039 0.298039
vt 0.756863 0.313725
vt 0.823529 0.313725
vt 0.858824 0.313725
vt 0.203922 0.737255
vt 0.133333 0.701961
vt 0.188235 0.658824
vt 0.235294 0.694118
vt 0.301961 0.776471
vt 0.400000 0.784314
vt 0.466667 0.733333
vt 0.611765 0.333333
vt 0.698039 0.388235
vt 0.709804 0.349020
vt 0.756863 0.400000
vt 0.756863 0.360784
vt 0.819608 0.364706
vt 0.850980 0.360784
vt 0.149020 0.741176
vt 0.164706 0.780392
vt 0.243137 0.772549
vt 0.349020 0.870588
vt 0.376471 0.870588
vt 0.631373 0.396078
vt 0.690196 0.505882
vt 0.643137 0.482353
vt 0.713726 0.505882
vt 0.745098 0.505882
vt 0.819608 0.392157
vt 0.266667 0.890196
vt 0.325490 0.882353
vt 0.376471 0.968627
vt 0.654902 0.584314
vt 0.270588 0.541176
vt 0.298039 0.556863
vt 0.329412 0.560784
vt 0.298039 0.572549
vt 0.368627 0.482353
vt 0.670588 0.098039
vt 0.603922 0.109804
vt 0.533333 0.101961
vt 0.431373 0.490196
vt 0.486275 0.486274
vt 0.376471 0.117647
vt 0.309804 0.054902
vt 0.223529 0.031373
vt 0.137255 0.047059
vt 0.066667 0.113725
vt 0.043137 0.203922
vt 0.066667 0.298039
vt 0.400000 0.635294
vt 0.392157 0.639216
vt 0.356863 0.662745
vt 0.356863 0.678431
vt 0.313726 0.654902
vt 0.329412 0.545098
vt 0.349020 0.627451
vt 0.298039 0.541176
vt 0.286275 0.670588
vt 0.239216 0.682353
vt 0.243137 0.666667
vt 0.243137 0.647059
vt 0.211765 0.635294
vt 0.243137 0.627451
vt 0.200000 0.631373
vt 0.317647 0.674510
vt 0.301961 0.619608
vt 0.360784 0.615686
vt 0.352941 0.647059
vt 0.301961 0.670588
vt 0.278431 0.619608
vt 0.294118 0.600000
vt 0.298039 0.549020
vt 0.298039 0.588235
vt 0.329412 0.552941
vt 0.274510 0.588235
vt 0.270588 0.560784
vt 0.329412 0.596078
vt 0.325490 0.584314
vt 0.270588 0.552941
vt 0.227451 0.431373
vt 0.298039 0.423529
vt 0.141176 0.443137
vt 0.043137 0.447059
vt 0.960784 0.062745
vt 0.913725 0.062745
vt 0.827451 0.047059
vt 0.741176 0.039216
vt 0.650980 0.047059
vt 0.576471 0.058824
vt 0.501961 0.058824
vt 0.513726 0.443137
vt 0.458824 0.443137
vt 0.376471 0.431373
vt 0.403922 0.203922
vt 0.376471 0.294118
vt 0.309804 0.356863
vt 0.223529 0.388235
vt 0.137255 0.364706
vt 0.870588 0.623529
vt 0.898039 0.709804
vt 0.847059 0.658824
vt 0.784314 0.639216
vt 0.784314 0.600000
vt 0.721569 0.658824
vt 0.698039 0.615686
vt 0.627451 0.682353
vt 0.674510 0.705882
vt 0.658824 0.776471
vt 0.603922 0.776471
vt 0.674510 0.843137
vt 0.627451 0.866667
vt 0.721569 0.894118
vt 0.698039 0.937255
vt 0.788235 0.960784
vt 0.784314 0.909804
vt 0.870588 0.929412
vt 0.850980 0.894118
vt 0.898039 0.843137
vt 0.941176 0.862745
vt 0.968627 0.772549
vt 0.913725 0.776471
vt 0.937255 0.686274
# 200 texture coordinates

vn -0.033753 -0.973613 0.225696
vn -0.179333 -0.954594 0.237888
vn -0.002141 -0.999989 -0.004141
vn 0.453939 -0.890989 0.008841
vn 0.343568 -0.939014 0.014580
vn 0.396348 -0.910141 0.120631
vn 0.262847 -0.944755 0.195829
vn 0.171690 -0.949861 0.261318
vn -0.006200 -0.981460 0.191568
vn -0.185035 -0.982345 0.027580
vn -0.368712 -0.920601 0.128630
vn -0.380919 -0.922941 0.055505
vn -0.471015 -0.882115 -0.004314
vn -0.279300 -0.959997 -0.019949
vn -0.324509 -0.944241 -0.055711
vn -0.398041 -0.903122 -0.161041
vn -0.208572 -0.974313 -0.084925
vn -0.206210 -0.932843 -0.295435
vn -0.011658 -0.974544 -0.223895
vn 0.001815 -0.967380 -0.253322
vn 0.185791 -0.940107 -0.285797
vn 0.231409 -0.954663 -0.187265
vn 0.367205 -0.920623 -0.132720
vn 0.273048 -0.961894 0.014308
vn 0.292354 -0.956306 -0.002882
vn 0.674155 0.738590 -0.000282
vn 0.583196 0.768010 -0.264656
vn 0.849298 0.484701 -0.209183
vn 0.354490 0.789823 -0.500516
vn 0.523320 0.378586 -0.763419
vn 0.275143 0.509840 -0.815083
vn 0.166100 0.790775 -0.589140
vn -0.108659 0.798212 -0.592495
vn -0.335334 0.748800 -0.571707
vn -0.213084 0.473569 -0.854592
vn -0.412570 0.453372 -0.790088
vn -0.732476 0.484429 -0.478339
vn -0.705152 0.653848 -0.274304
vn -0.985023 0.171804 -0.014595
vn -0.942738 0.034294 -0.331765
vn -0.697229 0.716768 -0.010742
vn -0.836924 0.546400 -0.031704
vn -0.736334 0.462128 0.494216
vn -0.764977 0.271983 0.583811
vn -0.902537 -0.028487 0.429670
vn -0.776002 0.294596 0.557704
vn -0.799980 0.002375 0.600022
vn -0.593532 0.212776 0.776174
vn -0.434064 0.218704 0.873932
vn -0.274404 0.364396 0.889898
vn -0.209314 0.132241 0.968865
vn 0.305977 0.295381 0.905057
vn 0.588889 0.164625 0.791270
vn 0.301193 0.172275 0.937872
vn 0.460884 0.415830 0.784010
vn 0.809258 0.410684 0.420048
vn 0.955543 0.138285 0.260412
vn 0.961132 0.127913 -0.244669
vn 0.695551 0.124714 -0.707570
vn 0.341961 0.158147 -0.926311
vn -0.380533 0.247204 -0.891114
vn -0.184454 0.126838 -0.974622
vn -0.748357 0.102752 -0.655289
vn -0.839399 -0.196645 -0.506695
vn -0.576933 0.458810 -0.675752
vn -0.947453 -0.317485 -0.039204
vn -0.660893 -0.459863 -0.593082
vn -0.719273 0.267458 -0.641180
vn -0.875779 0.482386 -0.017724
vn -0.754856 0.541815 0.369632
vn -0.852082 0.495732 -0.167946
vn -0.803974 0.263042 0.533324
vn -0.329249 0.427588 0.841881
vn -0.575640 -0.231867 0.784141
vn -0.108984 0.320272 0.941036
vn 0.475639 0.274396 0.835748
vn 0.266561 0.279202 0.922492
vn 0.895290 0.202432 0.396834
vn 0.938543 0.125543 -0.321521
vn 0.523766 0.166838 -0.835365
vn 0.219895 0.195859 -0.955660
vn -0.368905 0.375845 -0.850088
vn -0.114829 0.230578 -0.966255
vn -0.686681 -0.366554 -0.627779
vn -0.842481 0.214761 -0.494069
vn -0.966908 0.182976 0.177786
vn -0.562457 0.122820 0.817653
vn -0.119955 0.324838 0.938132
vn 0.233955 0.372402 0.898099
vn 0.639002 0.379509 0.669066
vn 0.860901 0.354098 0.365329
vn 0.778686 0.546088 -0.308926
vn 0.935164 0.309203 -0.172804
vn 0.507130 0.279817 -0.815182
vn 0.106459 0.253326 -0.961505
vn -0.155072 0.259148 -0.953307
vn -0.233399 0.424133 -0.875006
vn -0.696810 0.391583 -0.600931
vn -0.838275 -0.352436 0.416034
vn -0.539870 -0.521097 0.661058
vn 0.269714 0.067606 0.960564
vn 0.554150 0.142259 0.820171
vn 0.353718 -0.173492 0.919121
vn 0.682874 0.727688 0.064452
vn 0.391269 0.797424 -0.459373
vn 0.357211 0.501938 -0.787692
vn -0.425894 0.559450 -0.711077
vn -0.887545 0.235465 -0.396004
vn -0.979076 -0.157295 -0.129107
vn 0.606548 0.591545 0.531200
vn -0.853994 -0.253726 -0.454222
vn -0.654823 0.755773 0.003693
vn -0.714916 0.664365 0.217978
vn -0.999393 -0.000963 -0.034818
vn -0.646599 0.702434 0.297483
vn 0.651080 0.708738 0.271636
vn 0.408274 0.719100 0.562323
vn 0.203288 0.666924 0.716858
vn -0.408421 0.707445 0.576813
vn -0.169187 0.720446 0.672557
vn 0.093448 -0.990551 -0.100382
vn 0.046353 -0.983839 -0.172951
vn 0.003136 -0.973205 -0.229918
vn -0.021420 -0.970194 -0.241380
vn -0.033149 -0.988789 -0.145594
vn -0.019004 -0.999514 0.024730
vn -0.026295 -0.988651 0.147914
vn -0.553652 0.109629 0.825500
vn -0.794362 -0.093352 0.600229
vn -0.488346 -0.764339 0.421075
vn -0.538080 -0.700802 0.468345
vn -0.645306 -0.571962 0.506399
vn -0.910549 -0.078529 0.405874
vn -0.636737 0.518730 0.570513
vn -0.937235 -0.348436 -0.013497
vn -0.784445 -0.374788 -0.494147
vn -0.541473 -0.746612 -0.386493
vn -0.552350 -0.702891 -0.448167
vn -0.822041 -0.073551 -0.564658
vn -0.847241 -0.116409 -0.518297
vn -0.612157 0.542661 -0.575138
vn -0.548246 0.069585 -0.833417
vn -0.909853 -0.239261 0.339002
vn -0.874589 0.484683 -0.013306
vn -0.676834 0.386856 0.626289
vn -0.803309 -0.082171 0.589866
vn -0.926957 -0.372483 -0.044794
vn -0.677940 0.550711 -0.486944
vn -0.991535 -0.095613 0.087840
vn -0.966133 0.257013 0.023041
vn -0.622200 -0.779813 -0.068977
vn -0.900362 0.200081 0.386414
vn -0.571815 -0.792682 -0.211380
vn -0.623353 0.761086 -0.179386
vn -0.843907 -0.028191 0.535748
vn -0.701127 -0.655276 0.281130
vn -0.886882 0.187000 -0.422460
vn -0.572476 0.803673 -0.162421
vn -0.586796 0.809567 -0.016493
vn -0.397442 0.818769 -0.414315
vn -0.115311 0.866405 -0.485846
vn 0.141298 0.885237 -0.443160
vn 0.372403 0.854736 -0.361583
vn 0.578911 0.796977 -0.172305
vn 0.636098 0.771568 0.007869
vn 0.587432 0.783831 0.201326
vn 0.420293 0.786001 0.453382
vn 0.162209 0.833377 0.528367
vn -0.150348 0.847611 0.508872
vn -0.379101 0.821609 0.425723
vn -0.543745 0.825918 0.149002
vn 0.075056 -0.996214 0.043856
vn 0.088296 -0.988674 0.121358
vn 0.006773 -0.982249 0.187460
vn -0.014969 -0.976990 0.212761
vn -0.012301 -0.973519 0.228275
vn -0.046353 0.983839 0.172951
vn -0.085077 0.987402 0.133410
vn -0.024423 0.987422 0.156207
vn -0.004064 0.979887 0.199513
vn -0.003136 0.973205 0.229918
vn 0.027144 0.974571 0.222430
vn 0.021420 0.970194 0.241380
vn 0.033149 0.988789 0.145594
vn 0.036107 0.991374 0.125990
vn 0.017178 0.999509 0.026198
vn 0.019004 0.999514 -0.024730
vn 0.026837 0.995120 -0.094955
vn 0.026295 0.988651 -0.147914
vn 0.023317 0.979670 -0.199257
vn 0.012301 0.973519 -0.228275
vn 0.014969 0.976990 -0.212761
vn 0.017423 0.978001 -0.207871
vn -0.006773 0.982249 -0.187460
vn 0.029057 0.979438 -0.199643
vn -0.051299 0.989591 -0.134454
vn -0.088296 0.988674 -0.121358
vn -0.075056 0.996214 -0.043856
vn -0.078130 0.996820 0.015649
vn -0.093448 0.990551 0.100382
# 200 normals

g skSortingHatTex0
usemtl skSortingHatTex0
s 1
f 93/1/1 127/2/2 47/3/3
f 119/4/4 6/5/5 123/6/6
f 6/5/5 53/7/7 123/6/6
f 123/6/6 53/7/7 133/8/8
f 53/7/7 9/9/9 133/8/8
f 133/8/8 9/9/9 93/1/1
f 9/9/9 127/2/2 93/1/1
f 9/9/9 58/10/10 127/2/2
f 58/10/10 110/11/11 127/2/2
f 58/10/10 55/12/12 110/11/11
f 55/12/12 113/13/13 110/11/11
f 55/12/12 30/14/14 113/13/13
f 30/14/14 77/15/15 113/13/13
f 113/13/13 77/15/15 19/16/16
f 77/15/15 43/17/17 19/16/16
f 19/16/16 43/17/17 129/18/18
f 43/17/17 27/19/19 129/18/18
f 129/18/18 27/19/19 95/20/20
f 27/19/19 137/21/21 95/20/20
f 27/19/19 62/22/22 137/21/21
f 62/22/22 125/23/23 137/21/21
f 62/22/22 36/24/24 125/23/23
f 36/24/24 119/4/4 125/23/23
f 36/24/24 65/25/25 119/4/4
f 127/2/2 110/11/11 47/3/3
f 110/11/11 113/13/13 47/3/3
f 113/13/13 19/16/16 47/3/3
f 19/16/16 129/18/18 47/3/3
f 129/18/18 95/20/20 47/3/3
f 95/20/20 137/21/21 47/3/3
f 137/21/21 125/23/23 47/3/3
f 125/23/23 119/4/4 47/3/3
f 119/4/4 123/6/6 47/3/3
f 123/6/6 133/8/8 47/3/3
f 133/8/8 93/1/1 47/3/3
f 65/25/25 6/5/5 119/4/4
f 114/26/26 111/27/27 72/28/28
f 111/27/27 128/29/29 72/28/28
f 72/28/28 128/29/29 145/30/30
f 128/29/29 49/31/31 145/30/30
f 128/29/29 92/32/32 49/31/31
f 91/33/33 132/34/34 48/35/35
f 48/35/35 132/34/34 161/36/36
f 132/34/34 166/37/37 161/36/36
f 132/34/34 122/38/38 166/37/37
f 122/38/38 197/39/39 200/40/40
f 122/38/38 118/41/41 197/39/39
f 188/42/42 171/43/43 179/44/44
f 198/45/45 165/46/46 23/47/47
f 165/46/46 173/48/48 23/47/47
f 23/47/47 173/48/48 162/49/49
f 173/48/48 11/50/50 162/49/49
f 162/49/49 11/50/50 68/51/51
f 13/52/52 156/53/53 69/54/54
f 13/52/52 143/55/55 156/53/53
f 143/55/55 134/56/56 156/53/53
f 156/53/53 134/56/56 21/57/57
f 134/56/56 72/28/28 21/57/57
f 72/28/28 117/58/58 21/57/57
f 72/28/28 155/59/59 117/58/58
f 72/28/28 145/30/30 155/59/59
f 145/30/30 121/60/60 155/59/59
f 145/30/30 49/31/31 121/60/60
f 48/35/35 163/61/61 120/62/62
f 48/35/35 161/36/36 163/61/61
f 161/36/36 112/63/63 163/61/61
f 161/36/36 166/37/37 112/63/63
f 112/63/63 195/64/64 189/65/65
f 177/66/66 50/67/67 185/68/68
f 157/69/69 164/70/70 135/71/71
f 157/69/69 167/72/72 164/70/70
f 167/72/72 107/73/73 164/70/70
f 167/72/72 170/74/74 107/73/73
f 170/74/74 108/75/75 107/73/73
f 170/74/74 68/51/51 108/75/75
f 69/54/54 158/76/76 109/77/77
f 69/54/54 156/53/53 158/76/76
f 156/53/53 106/78/78 158/76/76
f 156/53/53 21/57/57 106/78/78
f 21/57/57 131/79/79 106/78/78
f 21/57/57 117/58/58 131/79/79
f 117/58/58 155/59/59 131/79/79
f 131/79/79 155/59/59 159/80/80
f 155/59/59 121/60/60 159/80/80
f 159/80/80 121/60/60 33/81/81
f 120/62/62 148/82/82 32/83/83
f 120/62/62 175/84/84 148/82/82
f 175/84/84 172/85/85 148/82/82
f 148/82/82 172/85/85 135/71/71
f 172/85/85 157/69/69 135/71/71
f 135/71/71 164/70/70 152/86/86
f 152/86/86 164/70/70 85/87/87
f 164/70/70 107/73/73 85/87/87
f 107/73/73 16/88/88 85/87/87
f 107/73/73 108/75/75 16/88/88
f 17/89/89 158/76/76 147/90/90
f 158/76/76 37/91/91 147/90/90
f 37/91/91 150/92/92 147/90/90
f 37/91/91 106/78/78 149/93/93
f 37/91/91 149/93/93 150/92/92
f 106/78/78 131/79/79 149/93/93
f 131/79/79 169/94/94 149/93/93
f 131/79/79 159/80/80 169/94/94
f 169/94/94 33/81/81 116/95/95
f 32/83/83 148/82/82 115/96/96
f 103/97/97 148/82/82 38/98/98
f 148/82/82 135/71/71 38/98/98
f 135/71/71 152/86/86 38/98/98
f 152/86/86 85/87/87 182/99/99
f 85/87/87 141/100/100 182/99/99
f 86/101/101 183/102/102 142/103/103
f 86/101/101 147/90/90 183/102/102
f 147/90/90 180/104/104 183/102/102
f 147/90/90 150/92/92 180/104/104
f 150/92/92 41/105/105 180/104/104
f 150/92/92 104/106/106 41/105/105
f 103/97/97 38/98/98 40/107/107
f 40/107/107 38/98/98 181/108/108
f 38/98/98 152/86/86 181/108/108
f 181/108/108 152/86/86 182/99/99
f 182/99/99 141/100/100 139/109/109
f 142/103/103 183/102/102 140/110/110
f 183/102/102 180/104/104 140/110/110
f 180/104/104 41/105/105 140/110/110
f 40/107/107 181/108/108 139/109/109
f 181/108/108 182/99/99 139/109/109
f 112/63/63 200/40/40 73/111/111
f 122/38/38 200/40/40 166/37/37
f 22/112/112 187/113/113 204/114/114
f 118/41/41 124/115/115 197/39/39
f 20/116/116 72/28/28 134/56/56
f 130/117/117 20/116/116 134/56/56
f 130/117/117 134/56/56 143/55/55
f 96/118/118 130/117/117 143/55/55
f 96/118/118 143/55/55 13/52/52
f 136/119/119 94/120/120 11/50/50
f 136/119/119 11/50/50 173/48/48
f 165/46/46 136/119/119 173/48/48
f 124/115/115 136/119/119 165/46/46
f 198/45/45 124/115/115 165/46/46
f 197/39/39 124/115/115 198/45/45
f 6/5/5 88/121/121 102/122/122
f 6/5/5 102/122/122 53/7/7
f 53/7/7 102/122/122 9/9/9
f 9/9/9 102/122/122 100/123/123
f 9/9/9 100/123/123 58/10/10
f 58/10/10 100/123/123 90/124/124
f 58/10/10 90/124/124 75/125/125
f 58/10/10 75/125/125 55/12/12
f 55/12/12 75/125/125 30/14/14
f 30/14/14 75/125/125 71/126/126
f 30/14/14 71/126/126 77/15/15
f 77/15/15 71/126/126 46/127/127
f 77/15/15 46/127/127 43/17/17
f 191/128/128 68/51/51 170/74/74
f 170/74/74 126/129/129 191/128/128
f 144/130/130 170/74/74 193/131/131
f 154/132/132 144/130/130 193/131/131
f 138/133/133 198/45/45 23/47/47
f 171/43/43 1/134/134 179/44/44
f 200/40/40 197/39/39 176/135/135
f 197/39/39 198/45/45 176/135/135
f 73/111/111 200/40/40 176/135/135
f 201/136/136 157/69/69 172/85/85
f 194/137/137 146/138/138 201/136/136
f 178/139/139 14/140/140 105/141/141
f 196/142/142 14/140/140 175/84/84
f 120/62/62 163/61/61 196/142/142
f 175/84/84 120/62/62 196/142/142
f 175/84/84 194/137/137 172/85/85
f 202/143/143 167/72/72 157/69/69
f 174/144/144 171/43/43 188/42/42
f 194/137/137 201/136/136 172/85/85
f 177/66/66 185/68/68 188/42/42
f 193/131/131 170/74/74 167/72/72
f 202/143/143 193/131/131 167/72/72
f 171/43/43 186/145/145 1/134/134
f 126/129/129 170/74/74 184/146/146
f 184/146/146 170/74/74 144/130/130
f 154/132/132 184/146/146 144/130/130
f 1/134/134 126/129/129 184/146/146
f 179/44/44 1/134/134 184/146/146
f 186/145/145 191/128/128 1/134/134
f 126/129/129 1/134/134 191/128/128
f 154/132/132 193/131/131 202/143/143
f 206/147/147 154/132/132 202/143/143
f 179/44/44 184/146/146 154/132/132
f 177/66/66 179/44/44 154/132/132
f 206/147/147 202/143/143 157/69/69
f 201/136/136 206/147/147 157/69/69
f 177/66/66 154/132/132 206/147/147
f 201/136/136 50/67/67 206/147/147
f 188/42/42 179/44/44 177/66/66
f 206/147/147 50/67/67 177/66/66
f 196/142/142 189/65/65 105/141/141
f 189/65/65 151/148/148 105/141/141
f 146/138/138 178/139/139 50/67/67
f 175/84/84 146/138/138 194/137/137
f 146/138/138 50/67/67 201/136/136
f 175/84/84 178/139/139 146/138/138
f 105/141/141 151/148/148 185/68/68
f 175/84/84 14/140/140 178/139/139
f 178/139/139 105/141/141 185/68/68
f 151/148/148 174/144/144 188/42/42
f 185/68/68 151/148/148 188/42/42
f 178/139/139 185/68/68 50/67/67
f 196/142/142 163/61/61 189/65/65
f 14/140/140 196/142/142 105/141/141
f 168/149/149 171/43/43 174/144/144
f 151/148/148 168/149/149 174/144/144
f 207/150/150 187/113/113 22/112/112
f 195/64/64 192/151/151 168/149/149
f 205/152/152 187/113/113 207/150/150
f 160/153/153 204/114/114 192/151/151
f 205/152/152 207/150/150 138/133/133
f 203/154/154 22/112/112 204/114/114
f 207/150/150 176/135/135 138/133/133
f 203/154/154 207/150/150 22/112/112
f 176/135/135 198/45/45 138/133/133
f 73/111/111 176/135/135 207/150/150
f 171/43/43 199/155/155 186/145/145
f 168/149/149 199/155/155 171/43/43
f 199/155/155 153/156/156 23/47/47
f 168/149/149 153/156/156 199/155/155
f 153/156/156 204/114/114 23/47/47
f 168/149/149 192/151/151 153/156/156
f 187/113/113 205/152/152 23/47/47
f 153/156/156 192/151/151 204/114/114
f 205/152/152 138/133/133 23/47/47
f 187/113/113 23/47/47 204/114/114
f 162/49/49 68/51/51 191/128/128
f 186/145/145 162/49/49 191/128/128
f 186/145/145 23/47/47 162/49/49
f 199/155/155 23/47/47 186/145/145
f 112/63/63 166/37/37 200/40/40
f 112/63/63 189/65/65 163/61/61
f 151/148/148 195/64/64 168/149/149
f 189/65/65 195/64/64 151/148/148
f 195/64/64 160/153/153 192/151/151
f 112/63/63 203/154/154 204/114/114
f 203/154/154 190/157/157 207/150/150
f 112/63/63 190/157/157 203/154/154
f 190/157/157 73/111/111 207/150/150
f 112/63/63 73/111/111 190/157/157
f 195/64/64 112/63/63 160/153/153
f 160/153/153 112/63/63 204/114/114
f 115/96/96 148/82/82 103/97/97
f 169/94/94 116/95/95 104/106/106
f 150/92/92 169/94/94 104/106/106
f 159/80/80 33/81/81 169/94/94
f 149/93/93 169/94/94 150/92/92
f 158/76/76 106/78/78 37/91/91
f 86/101/101 17/89/89 147/90/90
f 109/77/77 158/76/76 17/89/89
f 5/158/158 64/159/159 118/41/41
f 5/158/158 118/41/41 122/38/38
f 52/160/160 5/158/158 122/38/38
f 52/160/160 122/38/38 132/34/34
f 8/161/161 52/160/160 132/34/34
f 8/161/161 132/34/34 91/33/33
f 128/29/29 10/162/162 92/32/32
f 59/163/163 10/162/162 128/29/29
f 111/27/27 59/163/163 128/29/29
f 56/164/164 59/163/163 111/27/27
f 114/26/26 56/164/164 111/27/27
f 31/165/165 56/164/164 114/26/26
f 78/166/166 31/165/165 114/26/26
f 78/166/166 114/26/26 20/116/116
f 44/167/167 78/166/166 20/116/116
f 44/167/167 20/116/116 130/117/117
f 28/168/168 44/167/167 130/117/117
f 28/168/168 130/117/117 96/118/118
f 136/119/119 26/169/169 94/120/120
f 61/170/170 26/169/169 136/119/119
f 124/115/115 61/170/170 136/119/119
f 35/171/171 61/170/170 124/115/115
f 118/41/41 35/171/171 124/115/115
f 20/116/116 114/26/26 72/28/28
f 6/5/5 65/25/25 88/121/121
f 88/121/121 65/25/25 67/172/172
f 67/172/172 65/25/25 36/24/24
f 67/172/172 36/24/24 84/173/173
f 98/174/174 84/173/173 36/24/24
f 62/22/22 98/174/174 36/24/24
f 27/19/19 98/174/174 62/22/22
f 27/19/19 80/175/175 98/174/174
f 43/17/17 80/175/175 27/19/19
f 43/17/17 82/176/176 80/175/175
f 43/17/17 46/127/127 82/176/176
f 64/159/159 35/171/171 118/41/41
f 101/177/177 4/178/178 51/179/179
f 101/177/177 51/179/179 7/180/180
f 101/177/177 7/180/180 99/181/181
f 99/181/181 7/180/180 57/182/182
f 99/181/181 57/182/182 89/183/183
f 89/183/183 57/182/182 74/184/184
f 74/184/184 57/182/182 54/185/185
f 74/184/184 54/185/185 29/186/186
f 74/184/184 29/186/186 70/187/187
f 70/187/187 29/186/186 76/188/188
f 70/187/187 76/188/188 45/189/189
f 45/189/189 76/188/188 42/190/190
f 45/189/189 42/190/190 81/191/191
f 81/191/191 42/190/190 79/192/192
f 79/192/192 42/190/190 25/193/193
f 79/192/192 25/193/193 97/194/194
f 97/194/194 25/193/193 60/195/195
f 97/194/194 60/195/195 34/196/196
f 83/197/197 97/194/194 34/196/196
f 34/196/196 66/198/198 83/197/197
f 63/199/199 66/198/198 34/196/196
f 63/199/199 87/200/200 66/198/198
f 63/199/199 4/178/178 87/200/200
f 87/200/200 4/178/178 101/177/177
# 314 triangles in group

# 314 triangles total

