<?xml version="1.0"?>
<COLLADA xmlns="http://www.collada.org/2005/11/COLLADASchema" version="1.4.1">
    <asset>
        <contributor>
            <authoring_tool>J3D Ripoff Exporter</authoring_tool>
        </contributor>
        <created>2025-05-17T15:18:56.365Z</created>
        <modified>2025-05-17T15:18:56.365Z</modified>
		<unit meter="0.01" name="centimeter" ></unit>
        <up_axis>Y_UP</up_axis>
    </asset>
    <library_images>
        <image id="tex0">
            <init_from>kinoko02_s3tc.png</init_from>
        </image>
        <image id="tex1">
            <init_from>bonyari__ia8.png</init_from>
        </image>
    </library_images>
    <library_effects>
        <effect id="effect0">
            <profile_COMMON>
                <newparam sid="surface0">
                    <surface type="2D">
                        <init_from>tex1</init_from>
                    </surface>
                </newparam>
                <newparam sid="sampler0">
                    <sampler2D>
                        <source>surface0</source>
                    </sampler2D>
                </newparam>
                <technique sid="COMMON">
                    <blinn>
                        <diffuse>
                            <texture texture="sampler0" texcoord="UVSET0"></texture>
                        </diffuse>
                    </blinn>
                </technique>
            </profile_COMMON>
        </effect>
        <effect id="effect1">
            <profile_COMMON>
                <newparam sid="surface1">
                    <surface type="2D">
                        <init_from>tex0</init_from>
                    </surface>
                </newparam>
                <newparam sid="sampler1">
                    <sampler2D>
                        <source>surface1</source>
                    </sampler2D>
                </newparam>
                <technique sid="COMMON">
                    <blinn>
                        <diffuse>
                            <texture texture="sampler1" texcoord="UVSET0"></texture>
                        </diffuse>
                    </blinn>
                </technique>
            </profile_COMMON>
        </effect>
    </library_effects>
    <library_materials>
        <material id="mat0" name="bill">
            <instance_effect url="#effect0"></instance_effect>
        </material>
        <material id="mat1" name="e_v_x">
            <instance_effect url="#effect1"></instance_effect>
        </material>
    </library_materials>
    <library_geometries>
        <geometry id="mesh0">
            <mesh>
                <source id="points0">
                    <float_array id="pointarray0" count="12">-36.453123576240614 78.47517138235526 0.20392000979065905 26.548000409424276 78.47517138235526 0.20392000979065905 -36.453123576240614 15.474047396690366 0.20392000979065905 26.548000409424276 15.474047396690366 0.20392000979065905</float_array>
                    <technique_common>
                        <accessor count="4" source="#pointarray0" stride="3">
                            <param name="X" type="float"/>
                            <param name="Y" type="float"/>
                            <param name="Z" type="float"/>
                        </accessor>
                    </technique_common>
                </source>
                <source id="uvs0">
                    <float_array id="uvarray0" count="8">0 1 2 1 0 -1 2 -1</float_array>
                    <technique_common>
                        <accessor count="4" source="#uvarray0" stride="2">
                            <param name="S" type="float"/>
                            <param name="T" type="float"/>
                        </accessor>
                    </technique_common>
                </source>
                <vertices id="vertices0">
                    <input semantic="POSITION" source="#points0"/>
                </vertices>
                <polylist count="2" material="Material1">
                    <input offset="0" semantic="VERTEX" source="#vertices0"/>
                    <input offset="1" semantic="TEXCOORD" source="#uvs0" set="0"/>
                    <vcount>3 3</vcount>
                    <p>2 2 1 1 0 0 3 3 1 1 2 2</p>
                </polylist>
            </mesh>
        </geometry>
        <geometry id="mesh1">
            <mesh>
                <source id="points1">
                    <float_array id="pointarray1" count="705">-4.339428308812979 55.807484164465244 0.19634200632572174 -5.6849606576577045 54.43311884239615 -1.772871971130371 -3.8772069807745115 54.44312345516452 -2.1492950916290283 -3.4907319861635946 51.428835962263726 -4.075957775115967 -0.6684635528809173 51.489288445303345 -2.2266271114349365 1.5296565450634916 48.51202632412387 -3.6206610202789307 2.623937575211152 48.61900538505442 1.637410044670105 3.513853241218296 45.63863290129476 1.8558419942855835 0.2009031404633201 45.70057968058216 6.909717082977295 -0.2804847357587923 44.35764504327834 6.209150791168213 -5.539403427515439 44.32854127684847 7.304200172424316 -4.721353842559916 44.48966727822166 2.9782140254974365 -6.397797822202656 44.453760081655915 1.879701018333435 -5.280454609674614 40.716928350157396 1.2112009525299072 -5.484635161130585 40.696969357233606 0.23011299967765808 -4.357628227748625 34.85619467437857 0.725907027721405 -3.8256486900580455 34.83301787899798 0.05255499854683876 -3.2741237829794207 10.372290223056087 -0.3370330035686493 -2.0045820690721303 10.530856873558115 -0.4827840030193329 -1.145684003829956 2.4999890327453613 -1.7666150331497192 -6.794558192334295 51.410552708980426 -3.388011932373047 -8.22165120631051 48.38669707953343 -5.469314098358154 -2.9627327542177375 48.41580274194613 -6.5643630027771 -2.77115051820677 45.410031695486026 -7.371151924133301 2.282787380518702 45.518279572914096 -4.059487819671631 1.5700790431614249 44.195601583705944 -3.5412540435791016 2.664359136466706 44.302580466251904 1.716817021369934 -1.659922673625777 44.479979227881486 0.8931480050086975 -2.7588625525537913 44.5005297024989 2.569571018218994 -3.4609875100039393 40.74031597110603 1.5561350584030151 -4.44223429951029 40.73488551185068 1.7604570388793945 -3.6838957533081653 34.88105819412141 1.2573299407958984 -3.062822316890602 10.360271426603797 0.9836130142211914 -3.081821918487549 2.0411810874938965 -0.448637992143631 -2.3329483289295987 54.47619949042761 -1.137397050857544 0.018999656548677097 51.55649387292025 1.0766669511795044 -0.32090770227791454 48.67406969450397 6.129744052886963 -5.71538060869866 45.667838386684416 8.141647338867188 -10.031793546533748 44.23231753858421 4.360497951507568 -6.806154575858759 44.41383709910012 -0.08247499912977219 -4.935164375379812 40.68669525187543 -0.6080989837646484 -0.19541508908279476 28.618224961676056 -5.944585800170898 -0.73563687502932 27.747151385977098 -6.478745937347412 -0.15113544102499596 27.776431685060874 -6.735382080078125 -0.03483057496549774 25.958850652795643 -7.114245891571045 0.8961196469335003 26.04697702991666 -6.750531196594238 1.3651108434897161 24.257281693627704 -7.20966911315918 1.914088558477427 24.37626248726738 -5.7476887702941895 2.1740667823823583 22.524666541374497 -5.650355815887451 1.6416099653271106 22.57064581714563 -4.064114093780518 1.2306148506982628 20.18861023424861 -4.632070064544678 0.45434704115880975 20.151683030709975 -4.254814147949219 0.563363316400296 16.026954365460515 -4.923335075378418 -0.33434964214995194 20.075093108126286 -4.598857879638672 0.3892573757280158 15.986582233862558 -5.436112880706787 -0.6734700552935808 20.003705861503608 -5.46266508102417 -1.9567892755474279 54.51297595998443 0.6700649857521057 -1.8310495553666017 51.59108852692207 3.898900032043457 -5.579825920160092 48.64496407668741 7.224792003631592 -10.769318384865555 45.55958859097543 4.829983234405518 -11.126072702996652 44.12533883442285 -0.8975729942321777 -5.707215586127035 44.3932903384051 -1.7588969469070435 -0.9693311401290834 27.761873968919307 -5.884160995483398 -0.9525677567337998 25.912877954445346 -6.711297988891602 0.09053584824780589 24.132039526089418 -7.793017864227295 1.587347729456528 22.39750693869723 -7.21284818649292 1.5397246820976227 20.164244296006324 -5.5096330642700195 1.0761826530308838 16.055265353062815 -5.099685192108154 -1.7552770376205444 2.1361429691314697 1.5331449508666992 -1.8142037199139989 10.51927109459162 0.7336310148239136 -3.151917609974592 34.857877250005984 0.583977997303009 -2.911518431464859 40.730039599059545 0.7179239988327026 -3.1156964816609025 40.710079140784465 -0.2631640136241913 -2.068279427281881 44.44005624532569 -1.0690280199050903 -3.744722572549378 44.40414920763372 -2.167541027069092 -2.922310320125734 44.09937993095814 -6.484954833984375 -8.181228830771154 44.07027425739641 -5.389906883239746 -8.687433676388983 45.37728857249967 -6.139223098754883 -2.969079418666717 54.53190433584832 2.2143049240112305 -5.134876808165895 51.57280507434974 4.5868449211120605 -10.0722161562837 48.548740316125084 4.281091213226318 -12.000383308722771 45.43923544097936 -1.085347056388855 5.805661813289431 38.76539101430774 3.212785005569458 6.625904051482299 37.65950399966044 2.458846092224121 6.894602498962503 37.63695349181892 3.2837939262390137 7.726359395900982 35.160731634440644 3.318408966064453 7.007956120820137 35.166426697120706 4.732538223266602 7.724560627696722 32.6899596904416 5.6280598640441895 5.325692807846786 32.768385340210344 6.411552906036377 5.23239706476566 30.753209201885486 6.607292175292969 2.828800991554906 30.862050888802127 5.385779857635498 3.3265931784114766 28.889471969739724 4.871166229248047 2.66519684157165 28.796507978836694 2.855436086654663 5.852817085273582 37.69451026478867 2.065962076187134 7.235289576254272 35.20194204103094 1.8107450008392334 8.868093253506302 32.680896542124565 3.3770980834960938 7.796186402053477 30.669394141408834 5.769934177398682 5.220923298382238 28.908568934651655 5.830544948577881 5.02820697824025 37.72146800282325 2.3352880477905273 5.822406045822015 35.26592394326299 1.0927150249481201 8.0864246694925 32.74649719825735 0.9772499799728394 9.01833718165819 30.659703214265146 3.36421799659729 7.238513845232009 28.842608787386816 5.171579837799072 4.635116587200266 37.72458706734171 3.109055995941162 4.315358416928421 35.315194247143424 1.5849319696426392 5.837445438712586 32.848339760128134 -0.1656849980354309 8.182929666606139 30.7298150871932 0.7993810176849365 8.19748662971299 28.730234058597905 3.280284881591797 0.4417802372025857 27.832559420165882 -6.503733158111572 0.6957896507475074 27.882657106709335 -5.919497966766357 1.2949444144604976 26.12563604210425 -5.8332109451293945 0.9280165275064178 26.148751623996255 -4.899641036987305 1.4158836471970657 24.419283730673975 -4.263484954833984 0.16233883766771445 24.361142987311098 -3.6264851093292236 0.30188402379537393 22.50850758772887 -3.3833200931549072 -1.060318392915833 22.374654127121378 -4.006773948669434 6.501514405109016 37.64006813970238 4.057561874389648 5.50090780020132 35.21569298605474 5.2247538566589355 3.076713666259165 32.870227433659934 5.268618106842041 1.993392071239289 30.932162494153307 2.8209431171417236 -4.776832672909008 54.52189786193785 2.5907270908355713 -7.957145014557059 51.512352634512645 2.7375149726867676 -11.166496606358152 48.441763307263884 -0.9769799709320068 -1.3194957033839592 25.935991628991573 -5.777728080749512 -1.1630089313877878 24.073900690073742 -7.156017780303955 0.2251442845651998 22.263653478139027 -7.836301803588867 1.2006051631150996 20.09285895668942 -6.373439788818359 0.4620953557539866 27.89737778230434 -5.324913024902344 0.01027932440913185 26.10278083299561 -4.496692180633545 -1.1122372006554782 24.235900819822813 -4.209834098815918 -1.6470374458416634 22.247494524444114 -5.569264888763428 0.2920701460298539 7.387326075940941 -5.094340801239014 -0.029219078332265738 7.5080213335056305 -4.484488010406494 0.6299218511587487 7.589404911853886 -4.189109802246094 0.8978957547045665 7.462653040362129 -4.82037878036499 0.9020767421609257 16.01489322146343 -5.612462043762207 3.59695373658401 35.320889042246606 2.999061107635498 3.4385774847509096 32.92676101572159 0.6178079843521118 5.779331887188657 30.83865936165624 -0.4221310019493103 7.53609223329049 28.637267524744626 1.2645549774169922 1.1241559982299805 2.999140977859497 -0.549530029296875 3.1552100863782457 8.366673857768346 0.5298529863357544 2.4945643293041897 8.43561421952964 1.6329920291900635 4.302302874137798 21.48592544742403 2.6730239391326904 4.469658797778802 21.444243764328874 3.3900909423828125 4.393042481137433 25.26386154094643 3.779542922973633 5.157791489637539 25.193961987126745 4.169126033782959 -6.321092676918118 54.48882351082589 1.5788300037384033 -8.644606227743319 51.445145645384 -0.5657789707183838 -0.12240604835657998 27.868099390567767 -5.068277835845947 -0.9206708761608822 26.01465254852494 -4.860407829284668 -1.6612138427595842 24.116920026131705 -5.67181396484375 5.676902424390929 37.66702552096779 4.326888084411621 4.088024269769064 35.279674888286806 4.506723880767822 2.295044758842476 32.93582851361776 2.868769884109497 3.600737141974873 8.013108264295065 2.2548999786376953 5.181256668080752 21.35367925588029 3.2187459468841553 4.17150738707922 7.9778931812112095 1.1060750484466553 5.013899790765433 21.395360939021167 2.501678943634033 0.41190755593434497 20.016269034150017 -6.717483997344971 -0.3643592106152611 19.97933992321275 -6.340228080749512 -1.1145817015785853 22.201517156073045 -7.155508041381836 4.12688440282648 25.291177846992948 2.961060047149658 4.515227908843016 25.259910545837425 2.1931331157684326 5.330587695259996 25.188373873012267 1.9256019592285156 6.095335778066761 25.11847408225535 2.3151841163635254 5.641761979531289 28.618171262464475 0.3051759898662567 0.19282600283622742 0 -2.2745420932769775 0.6629869937896729 0 -2.4632320404052734 0.2493859976530075 2.3977959156036377 -3.9579110145568848 1.1384190320968628 0 -2.276305913925171 1.0616990327835083 2.6275670528411865 -3.627376079559326 1.3342089653015137 0 -1.7437770366668701 1.144731044769287 0 -1.290004014968872 2.8155980110168457 1.9550739526748657 1.5612519979476929 1.824044942855835 2.2838399410247803 1.9351940155029297 0.9179189801216125 2.7258191108703613 1.4718530178070068 0.6280159950256348 3.022106885910034 0.44264599680900574 -0.08142399787902832 2.6424930095672607 -1.0486849546432495 0.1808609962463379 2.5949509143829346 0.21516799926757812 -0.5124719738960266 2.38521409034729 1.2845970392227173 2.115709066390991 2.6703760623931885 -0.923471987247467 3.021836042404175 2.228395938873291 -0.4601300060749054 3.311738967895508 1.932108998298645 0.5690760016441345 2.8155980110168457 1.9550739526748657 1.5612519979476929 3.2155425499008397 30.922474422132893 0.4152269959449768 3.624170451242993 28.68413146555533 0.9641410112380981 -3.9539175565971374 40.692125716705284 -0.8124200105667114 4.903816149907434 37.702035801042406 3.934004068374634 -0.715322769665444 27.811971655512764 -5.299925804138184 -6.697250394495932 54.452051178854866 -0.22863200306892395 6.361494977179195 25.09115698847471 3.1336679458618164 5.973151465588141 25.122424318906564 3.901595115661621 0.6894450187683105 2.9374940395355225 -2.816098928451538 0.6745700240135193 0 -1.1013139486312866 0.19913800060749054 0 -1.2882390022277832 0.346655011177063 0 -0.6426699757575989 1.0342869758605957 0 -0.8678600192070007 1.1241559982299805 2.999140977859497 -0.549530029296875 2.115709066390991 2.6703760623931885 -0.923471987247467 1.6600899696350098 0 -0.5436570048332214 3.021836042404175 2.228395938873291 -0.4601300060749054 1.8574780225753784 0 0.1400260031223297 3.311738967895508 1.932108998298645 0.5690760016441345 1.5108230113983154 0 0.7826970219612122 0.8231909871101379 0 1.0078870058059692 1.824044942855835 2.2838399410247803 1.9351940155029297 0.19738799333572388 0 0.6836829781532288 0.9179189801216125 2.7258191108703613 1.4718530178070068 -2.8195369243621826 1.9936389923095703 0.8152160048484802 0 0 0 0.6280159950256348 3.022106885910034 0.44264599680900574 -3.081821918487549 2.0411810874938965 -0.448637992143631 -2.8195369243621826 1.9936389923095703 0.8152160048484802 -2.367603063583374 0 -0.4320569932460785 -2.1927459239959717 0 0.4105120003223419 -1.7552770376205444 2.1361429691314697 1.5331449508666992 -1.4769539833068848 0 0.8862490057945251 -0.5124719738960266 2.38521409034729 1.2845970392227173 -0.6395270228385925 0 0.7164750099182129 0.1808609962463379 2.5949509143829346 0.21516799926757812 -0.17101900279521942 0 0.0006399999838322401 -0.08142399787902832 2.6424930095672607 -1.0486849546432495 -0.345876008272171 0 -0.8419280052185059 -1.145684003829956 2.4999890327453613 -1.7666150331497192 -1.061668038368225 0 -1.3176660537719727 -2.388489007949829 2.250917911529541 -1.5180670022964478 -2.388489007949829 2.250917911529541 -1.5180670022964478 -1.899095058441162 0 -1.1478919982910156 0.6894450187683105 2.9374940395355225 -2.816098928451538 -0.19440299272537231 2.6889750957489014 -3.172295093536377 0.2493859976530075 2.3977959156036377 -3.9579110145568848 1.0616990327835083 2.6275670528411865 -3.627376079559326 -0.19440299272537231 2.6889750957489014 -3.172295093536377 -0.0030620000325143337 0 -1.7412819862365723</float_array>
                    <technique_common>
                        <accessor count="235" source="#pointarray1" stride="3">
                            <param name="X" type="float"/>
                            <param name="Y" type="float"/>
                            <param name="Z" type="float"/>
                        </accessor>
                    </technique_common>
                </source>
                <source id="uvs1">
                    <float_array id="uvarray1" count="252">2.2578125 0.99609375 2.5234375 0.97265625 2.0234375 0.97265625 2.0234375 0.91796875 1.52734375 0.91796875 1.5234375 0.8671875 1.0234375 0.8671875 1.0234375 0.8125 0.5234375 0.8125 0.5234375 0.7890625 0.0234375 0.7890625 0.0234375 0.79296875 -0.47265625 0.79296875 -0.47265625 0.73046875 -0.97265625 0.73046875 -0.72265625 0.546875 -1.73046875 0.546875 -0.72265625 0.140625 -1.73046875 0.140625 -1.47265625 0.03515625 2.5234375 0.91796875 2.5234375 0.8671875 2.0234375 0.8671875 2.0234375 0.8125 1.5234375 0.8125 1.5234375 0.7890625 1.0234375 0.7890625 1.0234375 0.79296875 0.5234375 0.79296875 0.5234375 0.73046875 0.0234375 0.73046875 0.2734375 0.546875 0.2734375 0.140625 -0.47265625 0.03515625 1.7734375 0.99609375 1.5234375 0.97265625 1.0234375 0.91796875 0.5234375 0.8671875 0.0234375 0.8125 -0.47265625 0.7890625 -0.97265625 0.79296875 -1.47265625 0.73046875 0.0234375 0.7578125 -0.47265625 0.7578125 -0.97265625 0.7578125 -1.73828125 0.546875 -1.47265625 0.7578125 1.2734375 0.99609375 1.0234375 0.97265625 0.5234375 0.91796875 0.0234375 0.8671875 -0.47265625 0.8125 -0.97265625 0.7890625 -1.47265625 0.79296875 2.28515625 0.99609375 0.5234375 0.7578125 0.5234375 0.03515625 1.2734375 0.140625 1.2734375 0.546875 1.0234375 0.73046875 1.5234375 0.73046875 1.5234375 0.79296875 2.0234375 0.79296875 2.0234375 0.7890625 2.5234375 0.7890625 2.5234375 0.8125 0.7734375 0.99609375 0.5234375 0.97265625 0.01953125 0.91796875 -0.47265625 0.8671875 -0.97265625 0.8125 -1.47265625 0.7890625 2.27734375 0.99609375 0.2734375 0.99609375 0.0234375 0.97265625 -0.4765625 0.91796875 -0.97265625 0.8671875 -1.47265625 0.8125 1.0234375 0.7578125 -1.73828125 0.26953125 -0.72265625 0.26953125 0.2734375 0.26953125 1.2734375 0.26953125 2.2578125 0.26953125 2.2578125 0.546875 -1.71875 0.140625 -1.71875 0.546875 -0.22265625 0.99609375 -0.47265625 0.97265625 -0.9765625 0.91796875 -1.47265625 0.8671875 2.27734375 0.140625 2.27734375 0.546875 1.5234375 0.7578125 2.0234375 0.7578125 2.5234375 0.73046875 2.0234375 0.73046875 2.5234375 0.03515625 2.0234375 0.03515625 2.2578125 0.13671875 1.5234375 0.03515625 1.2734375 0.13671875 1.0234375 0.03515625 0.0234375 0.03515625 -0.97265625 0.03515625 2.265625 0.140625 2.5234375 0.79296875 -0.72265625 0.99609375 -0.97265625 0.97265625 -1.47265625 0.91796875 2.265625 0.546875 0.2734375 0.13671875 -1.22265625 0.99609375 -1.47265625 0.97265625 2.5234375 0.7578125 2.5234375 0 2.0234375 0 1.5234375 0 1.0234375 0 0.5234375 0 0.0234375 0 -0.47265625 0 -0.97265625 0 -1.47265625 0 -0.72265625 0.13671875 -1.73828125 0.13671875</float_array>
                    <technique_common>
                        <accessor count="126" source="#uvarray1" stride="2">
                            <param name="S" type="float"/>
                            <param name="T" type="float"/>
                        </accessor>
                    </technique_common>
                </source>
                <source id="colors1">
                    <float_array id="colorarray1" count="56">0.25882352941176473 0.3176470588235294 0.34901960784313724 0.3411764705882353 0.4745098039215686 0.6431372549019608 0.6745098039215687 0.3411764705882353 1 1 1 1 0.8549019607843137 0.8941176470588236 0.8901960784313725 1 0.4745098039215686 0.6431372549019608 0.6745098039215687 0 1 1 1 0 0.30980392156862746 0.403921568627451 0.45098039215686275 0.27058823529411763 0.6352941176470588 0.8 0.8 0.1607843137254902 0.4745098039215686 0.6431372549019608 0.6745098039215687 0.12156862745098039 0.30980392156862746 0.403921568627451 0.45098039215686275 0.2784313725490196 0.6352941176470588 0.8 0.8 0.6392156862745098 0.8549019607843137 0.8941176470588236 0.8901960784313725 0.7333333333333333 0.6352941176470588 0.8 0.8 0.3803921568627451 0.4745098039215686 0.6431372549019608 0.6745098039215687 0.38823529411764707</float_array>
                    <technique_common>
                        <accessor count="14" source="#colorarray1" stride="4">
                            <param name="R" type="float"/>
                            <param name="G" type="float"/>
                            <param name="B" type="float"/>
                            <param name="A" type="float"/>
                        </accessor>
                    </technique_common>
                </source>
                <vertices id="vertices1">
                    <input semantic="POSITION" source="#points1"/>
                </vertices>
                <polylist count="400" material="Material1">
                    <input offset="0" semantic="VERTEX" source="#vertices1"/>
                    <input offset="1" semantic="TEXCOORD" source="#uvs1" set="0"/>
                    <input offset="2" semantic="COLOR" source="#colors1" set="0"/>
                    <vcount>3 3 3 3 3 3 3 3 3 3 3 3 3 3 3 3 3 3 3 3 3 3 3 3 3 3 3 3 3 3 3 3 3 3 3 3 3 3 3 3 3 3 3 3 3 3 3 3 3 3 3 3 3 3 3 3 3 3 3 3 3 3 3 3 3 3 3 3 3 3 3 3 3 3 3 3 3 3 3 3 3 3 3 3 3 3 3 3 3 3 3 3 3 3 3 3 3 3 3 3 3 3 3 3 3 3 3 3 3 3 3 3 3 3 3 3 3 3 3 3 3 3 3 3 3 3 3 3 3 3 3 3 3 3 3 3 3 3 3 3 3 3 3 3 3 3 3 3 3 3 3 3 3 3 3 3 3 3 3 3 3 3 3 3 3 3 3 3 3 3 3 3 3 3 3 3 3 3 3 3 3 3 3 3 3 3 3 3 3 3 3 3 3 3 3 3 3 3 3 3 3 3 3 3 3 3 3 3 3 3 3 3 3 3 3 3 3 3 3 3 3 3 3 3 3 3 3 3 3 3 3 3 3 3 3 3 3 3 3 3 3 3 3 3 3 3 3 3 3 3 3 3 3 3 3 3 3 3 3 3 3 3 3 3 3 3 3 3 3 3 3 3 3 3 3 3 3 3 3 3 3 3 3 3 3 3 3 3 3 3 3 3 3 3 3 3 3 3 3 3 3 3 3 3 3 3 3 3 3 3 3 3 3 3 3 3 3 3 3 3 3 3 3 3 3 3 3 3 3 3 3 3 3 3 3 3 3 3 3 3 3 3 3 3 3 3 3 3 3 3 3 3 3 3 3 3 3 3 3 3 3 3 3 3 3 3 3 3 3 3 3 3 3 3 3 3 3 3 3 3 3 3 3 3 3 3 3 3 3 3 3 3 3 3 3 3 3 3 3 3</vcount>
                    <p>2 2 0 1 1 0 0 0 0 3 3 1 1 1 0 2 2 0 4 4 1 3 3 1 2 2 0 5 5 2 3 3 1 4 4 1 6 6 2 5 5 2 4 4 1 7 7 2 5 5 2 6 6 2 8 8 2 7 7 2 6 6 2 9 9 3 7 7 2 8 8 2 10 10 3 9 9 3 8 8 2 11 11 2 9 9 3 10 10 3 12 12 2 11 11 2 10 10 3 13 13 3 11 11 2 12 12 2 14 14 3 13 13 3 12 12 2 15 15 4 13 13 3 14 14 3 16 16 4 15 15 4 14 14 3 17 17 5 15 15 4 16 16 4 18 18 5 17 17 5 16 16 4 19 19 5 17 17 5 18 18 5 22 22 2 21 21 2 20 20 1 23 23 2 21 21 2 22 22 2 24 24 2 23 23 2 22 22 2 25 25 3 23 23 2 24 24 2 26 26 3 25 25 3 24 24 2 27 27 2 25 25 3 26 26 3 28 28 2 27 27 2 26 26 3 29 29 3 27 27 2 28 28 2 30 30 3 29 29 3 28 28 2 31 31 4 29 29 3 30 30 3 15 15 4 31 31 4 30 30 3 32 32 5 31 31 4 15 15 4 17 17 5 32 32 5 15 15 4 33 33 5 32 32 5 17 17 5 34 35 0 2 2 0 0 34 0 4 4 1 2 2 0 34 35 0 35 36 1 4 4 1 34 35 0 6 6 2 4 4 1 35 36 1 36 37 2 6 6 2 35 36 1 8 8 2 6 6 2 36 37 2 37 38 2 8 8 2 36 37 2 10 10 3 8 8 2 37 38 2 38 39 3 10 10 3 37 38 2 12 12 2 10 10 3 38 39 3 39 40 2 12 12 2 38 39 3 14 14 3 12 12 2 39 40 2 40 41 3 14 14 3 39 40 2 16 16 4 14 14 3 40 41 3 43 35 0 42 2 0 41 34 0 44 4 6 42 2 0 43 35 0 45 36 6 44 4 6 43 35 0 46 6 7 44 4 6 45 36 6 47 37 7 46 6 7 45 36 6 48 8 7 46 6 7 47 37 7 49 38 7 48 8 7 47 37 7 50 42 8 48 8 7 49 38 7 51 43 8 50 42 8 49 38 7 52 15 4 50 42 8 51 43 8 53 44 8 52 15 4 51 43 8 54 45 4 52 15 4 53 44 8 55 46 8 54 45 4 53 44 8 3 3 1 20 20 1 1 1 0 22 22 2 20 20 1 3 3 1 5 5 2 22 22 2 3 3 1 24 24 2 22 22 2 5 5 2 7 7 2 24 24 2 5 5 2 26 26 3 24 24 2 7 7 2 9 9 3 26 26 3 7 7 2 28 28 2 26 26 3 9 9 3 11 11 2 28 28 2 9 9 3 30 30 3 28 28 2 11 11 2 13 13 3 30 30 3 11 11 2 15 15 4 30 30 3 13 13 3 56 48 0 34 35 0 0 47 0 35 36 1 34 35 0 56 48 0 57 49 1 35 36 1 56 48 0 36 37 2 35 36 1 57 49 1 58 50 2 36 37 2 57 49 1 37 38 2 36 37 2 58 50 2 59 51 2 37 38 2 58 50 2 38 39 3 37 38 2 59 51 2 60 52 3 38 39 3 59 51 2 39 40 2 38 39 3 60 52 3 61 53 2 39 40 2 60 52 3 40 41 3 39 40 2 61 53 2 42 2 0 62 1 0 41 54 0 63 3 6 62 1 0 42 2 0 44 4 6 63 3 6 42 2 0 64 5 7 63 3 6 44 4 6 46 6 7 64 5 7 44 4 6 65 7 7 64 5 7 46 6 7 48 8 7 65 7 7 46 6 7 66 55 8 65 7 7 48 8 7 50 42 8 66 55 8 48 8 7 67 31 4 66 55 8 50 42 8 52 15 4 67 31 4 50 42 8 69 57 5 32 32 5 68 56 5 31 31 4 32 32 5 69 57 5 70 58 4 31 31 4 69 57 5 71 59 3 31 31 4 70 58 4 72 60 3 71 59 3 70 58 4 73 61 2 71 59 3 72 60 3 74 62 2 73 61 2 72 60 3 75 63 3 73 61 2 74 62 2 76 64 3 75 63 3 74 62 2 77 65 2 75 63 3 76 64 3 78 67 0 56 48 0 0 66 0 57 49 1 56 48 0 78 67 0 79 68 1 57 49 1 78 67 0 58 50 2 57 49 1 79 68 1 80 69 2 58 50 2 79 68 1 59 51 2 58 50 2 80 69 2 81 70 2 59 51 2 80 69 2 60 52 3 59 51 2 81 70 2 76 71 3 60 52 3 81 70 2 61 53 2 60 52 3 76 71 3 84 67 0 83 48 0 82 66 0 85 49 9 83 48 0 84 67 0 86 68 9 85 49 9 84 67 0 87 50 10 85 49 9 86 68 9 88 69 10 87 50 10 86 68 9 89 51 11 87 50 10 88 69 10 90 70 11 89 51 11 88 69 10 91 52 12 89 51 11 90 70 11 92 71 12 91 52 12 90 70 11 83 48 0 93 35 0 82 47 0 94 36 9 93 35 0 83 48 0 85 49 9 94 36 9 83 48 0 95 37 10 94 36 9 85 49 9 87 50 10 95 37 10 85 49 9 96 38 11 95 37 10 87 50 10 89 51 11 96 38 11 87 50 10 97 39 12 96 38 11 89 51 11 91 52 12 97 39 12 89 51 11 93 35 0 98 2 0 82 34 0 99 4 9 98 2 0 93 35 0 94 36 9 99 4 9 93 35 0 100 6 10 99 4 9 94 36 9 95 37 10 100 6 10 94 36 9 101 8 11 100 6 10 95 37 10 96 38 11 101 8 11 95 37 10 102 10 12 101 8 11 96 38 11 97 39 12 102 10 12 96 38 11 98 2 0 103 1 0 82 72 0 104 3 9 103 1 0 98 2 0 99 4 9 104 3 9 98 2 0 105 5 10 104 3 9 99 4 9 100 6 10 105 5 10 99 4 9 106 7 11 105 5 10 100 6 10 101 8 11 106 7 11 100 6 10 107 9 12 106 7 11 101 8 11 102 10 12 107 9 12 101 8 11 109 67 0 108 48 0 41 66 0 110 49 6 108 48 0 109 67 0 111 68 6 110 49 6 109 67 0 112 50 7 110 49 6 111 68 6 113 69 7 112 50 7 111 68 6 114 51 7 112 50 7 113 69 7 115 70 7 114 51 7 113 69 7 53 44 8 114 51 7 115 70 7 55 46 8 53 44 8 115 70 7 108 48 0 43 35 0 41 47 0 45 36 6 43 35 0 108 48 0 110 49 6 45 36 6 108 48 0 47 37 7 45 36 6 110 49 6 112 50 7 47 37 7 110 49 6 49 38 7 47 37 7 112 50 7 114 51 7 49 38 7 112 50 7 51 43 8 49 38 7 114 51 7 53 44 8 51 43 8 114 51 7 116 74 0 84 67 0 82 73 0 86 68 9 84 67 0 116 74 0 117 75 9 86 68 9 116 74 0 88 69 10 86 68 9 117 75 9 118 76 10 88 69 10 117 75 9 90 70 11 88 69 10 118 76 10 119 77 11 90 70 11 118 76 10 92 71 12 90 70 11 119 77 11 120 74 0 78 67 0 0 73 0 79 68 1 78 67 0 120 74 0 121 75 1 79 68 1 120 74 0 80 69 2 79 68 1 121 75 1 122 76 2 80 69 2 121 75 1 81 70 2 80 69 2 122 76 2 77 77 2 81 70 2 122 76 2 76 71 3 81 70 2 77 77 2 63 3 6 123 20 6 62 1 0 124 22 7 123 20 6 63 3 6 64 5 7 124 22 7 63 3 6 125 24 7 124 22 7 64 5 7 65 7 7 125 24 7 64 5 7 126 78 8 125 24 7 65 7 7 66 55 8 126 78 8 65 7 7 67 31 4 126 78 8 66 55 8 23 23 2 77 65 2 21 21 2 75 63 3 77 65 2 23 23 2 25 25 3 75 63 3 23 23 2 73 61 2 75 63 3 25 25 3 27 27 2 73 61 2 25 25 3 71 59 3 73 61 2 27 27 2 29 29 3 71 59 3 27 27 2 31 31 4 71 59 3 29 29 3 127 74 0 109 67 0 41 73 0 111 68 6 109 67 0 127 74 0 128 75 6 111 68 6 127 74 0 113 69 7 111 68 6 128 75 6 129 76 7 113 69 7 128 75 6 115 70 7 113 69 7 129 76 7 130 77 7 115 70 7 129 76 7 55 46 8 115 70 7 130 77 7 132 80 5 54 45 4 131 79 5 52 15 4 54 45 4 132 80 5 133 81 5 52 15 4 132 80 5 67 31 4 52 15 4 133 81 5 134 82 5 67 31 4 133 81 5 135 58 4 67 31 4 134 82 5 131 83 5 135 58 4 134 82 5 54 84 4 135 58 4 131 83 5 104 3 9 136 20 9 103 1 0 137 22 10 136 20 9 104 3 9 105 5 10 137 22 10 104 3 9 138 24 11 137 22 10 105 5 10 106 7 11 138 24 11 105 5 10 139 26 12 138 24 11 106 7 11 107 9 12 139 26 12 106 7 11 142 17 5 141 85 5 140 19 5 143 86 4 141 85 5 142 17 5 144 15 4 143 86 4 142 17 5 145 14 13 143 86 4 144 15 4 146 13 13 145 14 13 144 15 4 97 12 12 145 14 13 146 13 13 102 11 12 97 12 12 146 13 13 147 88 0 120 74 0 0 87 0 121 75 1 120 74 0 147 88 0 148 89 1 121 75 1 147 88 0 122 76 2 121 75 1 148 89 1 21 90 2 122 76 2 148 89 1 77 77 2 122 76 2 21 90 2 149 88 0 127 74 0 41 87 0 128 75 6 127 74 0 149 88 0 150 89 6 128 75 6 149 88 0 129 76 7 128 75 6 150 89 6 151 90 7 129 76 7 150 89 6 130 77 7 129 76 7 151 90 7 152 88 0 116 74 0 82 87 0 117 75 9 116 74 0 152 88 0 153 89 9 117 75 9 152 88 0 118 76 10 117 75 9 153 89 9 154 90 10 118 76 10 153 89 9 119 77 11 118 76 10 154 90 10 155 32 5 144 15 4 142 17 5 156 31 4 144 15 4 155 32 5 157 57 5 156 31 4 155 32 5 158 58 4 156 31 4 157 57 5 141 91 5 158 58 4 157 57 5 143 92 4 158 58 4 141 91 5 135 58 4 126 78 8 67 31 4 159 93 8 126 78 8 135 58 4 160 94 8 159 93 8 135 58 4 161 23 7 159 93 8 160 94 8 130 65 7 161 23 7 160 94 8 151 21 7 161 23 7 130 65 7 163 96 13 143 92 4 162 95 13 158 58 4 143 92 4 163 96 13 164 60 13 158 58 4 163 96 13 165 59 13 158 58 4 164 60 13 166 61 12 165 59 13 164 60 13 139 27 12 165 59 13 166 61 12 169 99 2 168 98 5 167 97 5 170 100 5 168 98 5 169 99 2 171 101 2 170 100 5 169 99 2 172 102 5 170 100 5 171 101 2 173 56 5 172 102 5 171 101 2 155 32 5 175 103 5 174 56 2 176 33 5 175 103 5 155 32 5 142 17 5 176 33 5 155 32 5 177 104 5 176 33 5 142 17 5 140 19 5 177 104 5 142 17 5 18 105 5 178 98 5 19 97 5 179 100 5 178 98 5 18 105 5 69 57 5 179 100 5 18 105 5 180 102 5 179 100 5 69 57 5 68 56 5 180 102 5 69 57 5 141 91 5 181 98 5 140 97 5 182 100 5 181 98 5 141 91 5 157 57 5 182 100 5 141 91 5 183 102 5 182 100 5 157 57 5 184 56 5 183 102 5 157 57 5 124 22 7 151 21 7 123 20 6 161 23 7 151 21 7 124 22 7 125 24 7 161 23 7 124 22 7 159 93 8 161 23 7 125 24 7 126 78 8 159 93 8 125 24 7 166 25 12 138 24 11 139 26 12 185 23 11 138 24 11 166 25 12 186 63 12 185 23 11 166 25 12 119 65 11 185 23 11 186 63 12 92 64 12 119 65 11 186 63 12 74 62 2 61 106 2 76 64 3 187 96 3 61 106 2 74 62 2 72 60 3 187 96 3 74 62 2 70 58 4 187 96 3 72 60 3 188 108 0 152 88 0 82 107 0 153 89 9 152 88 0 188 108 0 136 109 9 153 89 9 188 108 0 154 90 10 153 89 9 136 109 9 189 108 0 149 88 0 41 107 0 150 89 6 149 88 0 189 108 0 123 109 6 150 89 6 189 108 0 151 90 7 150 89 6 123 109 6 190 108 0 147 88 0 0 107 0 148 89 1 147 88 0 190 108 0 20 109 1 148 89 1 190 108 0 21 90 2 148 89 1 20 109 1 165 59 13 156 31 4 158 58 4 191 29 13 156 31 4 165 59 13 139 27 12 191 29 13 165 59 13 107 28 12 191 29 13 139 27 12 145 14 13 162 41 13 143 86 4 91 40 12 162 41 13 145 14 13 97 12 12 91 40 12 145 14 13 137 22 10 154 21 10 136 20 9 185 23 11 154 21 10 137 22 10 138 24 11 185 23 11 137 22 10 187 96 3 40 95 3 61 106 2 16 110 4 40 95 3 187 96 3 70 58 4 16 110 4 187 96 3 192 30 13 102 11 12 146 13 13 107 28 12 102 11 12 192 30 13 191 29 13 107 28 12 192 30 13 192 30 13 156 31 4 191 29 13 144 15 4 156 31 4 192 30 13 146 13 13 144 15 4 192 30 13 193 111 2 173 56 5 171 101 2 194 103 5 173 56 5 193 111 2 195 33 5 194 103 5 193 111 2 62 113 0 189 108 0 41 112 0 123 109 6 189 108 0 62 113 0 103 113 0 188 108 0 82 112 0 136 109 9 188 108 0 103 113 0 164 60 13 186 62 12 166 61 12 163 96 13 186 62 12 164 60 13 92 106 12 163 96 13 162 95 13 186 62 12 163 96 13 92 106 12 1 113 0 190 108 0 0 112 0 20 109 1 190 108 0 1 113 0 54 84 4 160 94 8 135 58 4 55 114 8 160 94 8 54 84 4 198 97 2 197 116 5 196 115 5 199 98 2 197 116 5 198 97 2 199 98 2 200 117 5 197 116 5 201 100 2 200 117 5 199 98 2 201 100 2 202 118 5 200 117 5 203 102 2 202 118 5 201 100 2 203 102 2 204 119 5 202 118 5 174 56 2 204 119 5 203 102 2 174 56 2 205 120 5 204 119 5 206 103 2 205 120 5 174 56 2 18 105 5 70 58 4 69 57 5 16 110 4 70 58 4 18 105 5 206 103 2 207 121 5 205 120 5 208 33 2 207 121 5 206 103 2 209 103 5 32 32 5 33 33 5 68 56 5 32 32 5 209 103 5 208 33 2 210 122 5 207 121 5 211 104 2 210 122 5 208 33 2 214 121 5 213 103 2 212 33 2 215 120 5 213 103 2 214 121 5 215 120 5 216 56 2 213 103 2 217 119 5 216 56 2 215 120 5 217 119 5 218 102 2 216 56 2 219 118 5 218 102 2 217 119 5 219 118 5 220 100 2 218 102 2 221 117 5 220 100 2 219 118 5 221 117 5 222 98 2 220 100 2 223 116 5 222 98 2 221 117 5 223 116 5 224 97 2 222 98 2 225 115 5 224 97 2 223 116 5 226 104 5 17 17 5 19 19 5 33 33 5 17 17 5 226 104 5 228 122 5 212 33 2 227 104 2 214 121 5 212 33 2 228 122 5 225 123 5 227 104 2 224 19 2 228 122 5 227 104 2 225 123 5 133 80 5 230 111 5 229 124 5 132 81 5 230 111 5 133 80 5 231 124 5 132 79 5 131 80 5 230 125 5 132 79 5 231 124 5 131 83 5 232 101 5 231 99 5 134 82 5 232 101 5 131 83 5 229 111 5 134 82 5 133 81 5 232 101 5 134 82 5 229 111 5 167 19 5 233 124 2 169 125 2 234 104 5 233 124 2 167 19 5 195 33 5 233 124 2 234 104 5 193 111 2 233 124 2 195 33 5 196 123 5 211 104 2 198 19 2 210 122 5 211 104 2 196 123 5 91 40 12 92 53 12 162 41 13 157 57 5 155 32 5 184 56 5 130 65 7 160 94 8 55 114 8 154 21 10 185 23 11 119 65 11</p>
                </polylist>
            </mesh>
        </geometry>
    </library_geometries>
    <library_controllers>
        <controller id="controller0">
            <skin source="#mesh0">
                <bind_shape_matrix>1 0 0 0 0 1 0 0 0 0 1 0 0 0 0 1</bind_shape_matrix>
                <source id="joints0">
                    <Name_array id="JointArr0" count="6">jointnode-1 jointnode0 jointnode1 jointnode2 jointnode3 jointnode4</Name_array>
                    <technique_common>
                        <accessor source="#JointArr0" count="6">
                            <param name="JOINT" type="Name" />
                        </accessor>
                    </technique_common>
                </source>
                <source id="matrices0">
                    <float_array id="MatArr0" count="96">1 0 0 0 0 1 0 0 0 0 1 0 0 0 0 1 1 0 0 0 0 1 0 0 0 0 1 0 0 0 0 1 1.2499999813735487 0 0 4.99999754130844 0 1.2499999813735487 0 -57.499999143183246 0 0 1.2499999813735487 0 0 0 0 1 1 0 0 0 0 1 0 0 0 0 1 0 0 0 0 1 0.00004793836256566929 0.9999999988509566 0 0 -0.9999999988509566 0.00004793836256566929 0 0 0 0 1 0 0 0 0 1 -0.18704979565454108 0.9823504333717139 0 -24.55853663455072 -0.9823504333717139 -0.18704979565454108 0 4.677422192771357 0 0 1 0 0 0 0 1</float_array>
                    <technique_common>
                        <accessor source="#MatArr0" count="6" stride="16">
                            <param type="float4x4" />
                        </accessor>
                    </technique_common>
                </source>
                <source id="weights0">
                    <float_array id="WeightArr0" count="1">1</float_array>
                    <technique_common>
                        <accessor source="#WeightArr0" count="1">
                            <param type="float" />
                        </accessor>
                    </technique_common>
                </source>
                <joints>
                    <input semantic="JOINT" source="#joints0" />
                    <input semantic="INV_BIND_MATRIX" source="#matrices0" />
                </joints>
                <vertex_weights count="4">
                    <input semantic="JOINT" offset="0" source="#joints0" />
                    <input semantic="WEIGHT" offset="1" source="#weights0" />
                    <vcount>1 1 1 1</vcount>
                    <v>2 0 2 0 2 0 2 0</v>
                </vertex_weights>
            </skin>
        </controller>
        <controller id="controller1">
            <skin source="#mesh1">
                <bind_shape_matrix>1 0 0 0 0 1 0 0 0 0 1 0 0 0 0 1</bind_shape_matrix>
                <source id="joints1">
                    <Name_array id="JointArr1" count="6">jointnode-1 jointnode0 jointnode1 jointnode2 jointnode3 jointnode4</Name_array>
                    <technique_common>
                        <accessor source="#JointArr1" count="6">
                            <param name="JOINT" type="Name" />
                        </accessor>
                    </technique_common>
                </source>
                <source id="matrices1">
                    <float_array id="MatArr1" count="96">1 0 0 0 0 1 0 0 0 0 1 0 0 0 0 1 1 0 0 0 0 1 0 0 0 0 1 0 0 0 0 1 1.2499999813735487 0 0 4.99999754130844 0 1.2499999813735487 0 -57.499999143183246 0 0 1.2499999813735487 0 0 0 0 1 1 0 0 0 0 1 0 0 0 0 1 0 0 0 0 1 0.00004793836256566929 0.9999999988509566 0 0 -0.9999999988509566 0.00004793836256566929 0 0 0 0 1 0 0 0 0 1 -0.18704979565454108 0.9823504333717139 0 -24.55853663455072 -0.9823504333717139 -0.18704979565454108 0 4.677422192771357 0 0 1 0 0 0 0 1</float_array>
                    <technique_common>
                        <accessor source="#MatArr1" count="6" stride="16">
                            <param type="float4x4" />
                        </accessor>
                    </technique_common>
                </source>
                <source id="weights1">
                    <float_array id="WeightArr1" count="1">1</float_array>
                    <technique_common>
                        <accessor source="#WeightArr1" count="1">
                            <param type="float" />
                        </accessor>
                    </technique_common>
                </source>
                <joints>
                    <input semantic="JOINT" source="#joints1" />
                    <input semantic="INV_BIND_MATRIX" source="#matrices1" />
                </joints>
                <vertex_weights count="235">
                    <input semantic="JOINT" offset="0" source="#joints1" />
                    <input semantic="WEIGHT" offset="1" source="#weights1" />
                    <vcount>1 1 1 1 1 1 1 1 1 1 1 1 1 1 1 1 1 1 1 1 1 1 1 1 1 1 1 1 1 1 1 1 1 1 1 1 1 1 1 1 1 1 1 1 1 1 1 1 1 1 1 1 1 1 1 1 1 1 1 1 1 1 1 1 1 1 1 1 1 1 1 1 1 1 1 1 1 1 1 1 1 1 1 1 1 1 1 1 1 1 1 1 1 1 1 1 1 1 1 1 1 1 1 1 1 1 1 1 1 1 1 1 1 1 1 1 1 1 1 1 1 1 1 1 1 1 1 1 1 1 1 1 1 1 1 1 1 1 1 1 1 1 1 1 1 1 1 1 1 1 1 1 1 1 1 1 1 1 1 1 1 1 1 1 1 1 1 1 1 1 1 1 1 1 1 1 1 1 1 1 1 1 1 1 1 1 1 1 1 1 1 1 1 1 1 1 1 1 1 1 1 1 1 1 1 1 1 1 1 1 1 1 1 1 1 1 1 1 1 1 1 1 1 1 1 1 1 1 1 1 1 1 1 1 1</vcount>
                    <v>5 0 5 0 5 0 5 0 5 0 5 0 5 0 5 0 5 0 5 0 5 0 5 0 5 0 5 0 5 0 5 0 5 0 4 0 4 0 3 0 5 0 5 0 5 0 5 0 5 0 5 0 5 0 5 0 5 0 5 0 5 0 5 0 4 0 3 0 5 0 5 0 5 0 5 0 5 0 5 0 5 0 4 0 4 0 4 0 4 0 4 0 4 0 4 0 4 0 4 0 4 0 4 0 4 0 4 0 4 0 4 0 5 0 5 0 5 0 5 0 5 0 5 0 4 0 4 0 4 0 4 0 4 0 4 0 3 0 4 0 5 0 5 0 5 0 5 0 5 0 5 0 5 0 5 0 5 0 5 0 5 0 5 0 5 0 5 0 5 0 5 0 5 0 5 0 5 0 5 0 5 0 5 0 5 0 5 0 5 0 5 0 5 0 5 0 5 0 5 0 5 0 5 0 5 0 5 0 5 0 5 0 5 0 5 0 4 0 4 0 4 0 4 0 4 0 4 0 4 0 4 0 5 0 5 0 5 0 5 0 5 0 5 0 5 0 4 0 4 0 4 0 4 0 4 0 4 0 4 0 4 0 4 0 4 0 4 0 4 0 4 0 5 0 5 0 5 0 5 0 3 0 4 0 4 0 4 0 4 0 5 0 5 0 5 0 5 0 4 0 4 0 4 0 5 0 5 0 5 0 4 0 4 0 4 0 4 0 4 0 4 0 4 0 5 0 5 0 5 0 5 0 5 0 3 0 3 0 3 0 3 0 3 0 3 0 3 0 3 0 3 0 3 0 3 0 3 0 3 0 3 0 3 0 3 0 3 0 3 0 5 0 5 0 5 0 5 0 4 0 5 0 5 0 5 0 3 0 3 0 3 0 3 0 3 0 3 0 3 0 3 0 3 0 3 0 3 0 3 0 3 0 3 0 3 0 3 0 3 0 3 0 3 0 3 0 3 0 3 0 3 0 3 0 3 0 3 0 3 0 3 0 3 0 3 0 3 0 3 0 3 0 3 0 3 0 3 0 3 0 3 0 3 0 3 0 3 0 3 0</v>
                </vertex_weights>
            </skin>
        </controller>
    </library_controllers>
    <library_visual_scenes>
        <visual_scene id="VisualSceneNode">
            <node id="node0" name="m0" type="NODE">
                <instance_controller url="#controller0">
                    <skeleton>#jointnode-1</skeleton>
                    <bind_material>
                        <technique_common>
                            <instance_material symbol="Material1" target="#mat0">
                                <bind_vertex_input semantic="UVSET0" input_semantic="TEXCOORD" input_set="0"></bind_vertex_input>
                            </instance_material>
                        </technique_common>
                    </bind_material>
                </instance_controller>
            </node>
            <node id="node1" name="m1" type="NODE">
                <instance_controller url="#controller1">
                    <skeleton>#jointnode-1</skeleton>
                    <bind_material>
                        <technique_common>
                            <instance_material symbol="Material1" target="#mat1">
                                <bind_vertex_input semantic="UVSET0" input_semantic="TEXCOORD" input_set="0"></bind_vertex_input>
                            </instance_material>
                        </technique_common>
                    </bind_material>
                </instance_controller>
            </node>
            <node id="jointnode-1" name="root" sid="jointnode-1" type="JOINT">
                <node id="jointnode0" name="world_root" sid="jointnode0" type="JOINT">
                    <node id="jointnode1" name="hikari1" sid="jointnode1" type="JOINT">
                        <translate>-3.999998092651367 46 0</translate>
                        <scale>0.800000011920929 0.800000011920929 0.800000011920929</scale>
                    </node>
                    <node id="jointnode2" name="kinoko_light5" sid="jointnode2" type="JOINT">
                        <node id="jointnode3" name="jnt1" sid="jointnode3" type="JOINT">
                            <rotate>0 0 1 89.99725333414716</rotate>
                            <node id="jointnode4" name="jnt5" sid="jointnode4" type="JOINT">
                                <translate>25 0 0</translate>
                                <rotate>0 0 1 10.783410138248847</rotate>
                            </node>
                        </node>
                    </node>
                </node>
            </node>
        </visual_scene>
    </library_visual_scenes>
    <scene>
        <instance_visual_scene url="#VisualSceneNode"></instance_visual_scene>
    </scene>
</COLLADA>
