<?xml version="1.0"?>
<COLLADA xmlns="http://www.collada.org/2005/11/COLLADASchema" version="1.4.1">
    <asset>
        <contributor>
            <authoring_tool>J3D Ripoff Exporter</authoring_tool>
        </contributor>
        <created>2025-05-17T15:18:45.541Z</created>
        <modified>2025-05-17T15:18:45.541Z</modified>
		<unit meter="0.01" name="centimeter" ></unit>
        <up_axis>Y_UP</up_axis>
    </asset>
    <library_images>
        <image id="tex0">
            <init_from>kinoko02_s3tc.png</init_from>
        </image>
        <image id="tex1">
            <init_from>bonyari__ia8.png</init_from>
        </image>
        <image id="tex_vc">
            <init_from>vertexColors.png</init_from>
        </image>
    </library_images>
    <library_effects>
        <effect id="effect0">
            <profile_COMMON>
                <newparam sid="surface0">
                    <surface type="2D">
                        <init_from>tex1</init_from>
                    </surface>
                </newparam>
                <newparam sid="sampler0">
                    <sampler2D>
                        <source>surface0</source>
                    </sampler2D>
                </newparam>
                <technique sid="COMMON">
                    <blinn>
                        <diffuse>
                            <texture texture="sampler0" texcoord="UVSET0"></texture>
                        </diffuse>
                    </blinn>
                </technique>
            </profile_COMMON>
        </effect>
        <effect id="effect1">
            <profile_COMMON>
                <newparam sid="surface1">
                    <surface type="2D">
                        <init_from>tex0</init_from>
                    </surface>
                </newparam>
                <newparam sid="sampler1">
                    <sampler2D>
                        <source>surface1</source>
                    </sampler2D>
                </newparam>
                <technique sid="COMMON">
                    <blinn>
                        <diffuse>
                            <texture texture="sampler1" texcoord="UVSET0"></texture>
                        </diffuse>
                    </blinn>
                </technique>
            </profile_COMMON>
        </effect>
        <effect id="effect_vc">
            <profile_COMMON>
                <newparam sid="surface_vc">
                    <surface type="2D">
                        <init_from>tex_vc</init_from>
                    </surface>
                </newparam>
                <newparam sid="sampler_vc">
                    <sampler2D>
                        <source>surface_vc</source>
                    </sampler2D>
                </newparam>
                <technique sid="COMMON">
                    <blinn>
                        <diffuse>
                            <texture texture="sampler_vc" texcoord="UVSET0"></texture>
                        </diffuse>
                    </blinn>
                </technique>
            </profile_COMMON>
        </effect>
    </library_effects>
    <library_materials>
        <material id="mat0" name="bill">
            <instance_effect url="#effect0"></instance_effect>
        </material>
        <material id="mat1" name="e_v_x">
            <instance_effect url="#effect1"></instance_effect>
        </material>
        <material id="mat_vc" name="vertexColors">
            <instance_effect url="#effect_vc"></instance_effect>
        </material>
    </library_materials>
    <library_geometries>
        <geometry id="mesh0">
            <mesh>
                <source id="points0">
                    <float_array id="pointarray0" count="12">-36.453123576240614 78.47517138235526 0.20392000979065905 26.548000409424276 78.47517138235526 0.20392000979065905 -36.453123576240614 15.474047396690366 0.20392000979065905 26.548000409424276 15.474047396690366 0.20392000979065905</float_array>
                    <technique_common>
                        <accessor count="4" source="#pointarray0" stride="3">
                            <param name="X" type="float"/>
                            <param name="Y" type="float"/>
                            <param name="Z" type="float"/>
                        </accessor>
                    </technique_common>
                </source>
                <source id="uvs0">
                    <float_array id="uvarray0" count="8">0 1 2 1 0 -1 2 -1</float_array>
                    <technique_common>
                        <accessor count="4" source="#uvarray0" stride="2">
                            <param name="S" type="float"/>
                            <param name="T" type="float"/>
                        </accessor>
                    </technique_common>
                </source>
                <vertices id="vertices0">
                    <input semantic="POSITION" source="#points0"/>
                </vertices>
                <polylist count="2" material="Material1">
                    <input offset="0" semantic="VERTEX" source="#vertices0"/>
                    <input offset="1" semantic="TEXCOORD" source="#uvs0" set="0"/>
                    <vcount>3 3</vcount>
                    <p>2 2 1 1 0 0 3 3 1 1 2 2</p>
                </polylist>
            </mesh>
        </geometry>
        <geometry id="mesh1">
            <mesh>
                <source id="points1">
                    <float_array id="pointarray1" count="705">-4.339428308812979 55.807484164465244 0.19634200632572174 -5.6849606576577045 54.43311884239615 -1.772871971130371 -3.8772069807745115 54.44312345516452 -2.1492950916290283 -3.4907319861635946 51.428835962263726 -4.075957775115967 -0.6684635528809173 51.489288445303345 -2.2266271114349365 1.5296565450634916 48.51202632412387 -3.6206610202789307 2.623937575211152 48.61900538505442 1.637410044670105 3.513853241218296 45.63863290129476 1.8558419942855835 0.2009031404633201 45.70057968058216 6.909717082977295 -0.2804847357587923 44.35764504327834 6.209150791168213 -5.539403427515439 44.32854127684847 7.304200172424316 -4.721353842559916 44.48966727822166 2.9782140254974365 -6.397797822202656 44.453760081655915 1.879701018333435 -5.280454609674614 40.716928350157396 1.2112009525299072 -5.484635161130585 40.696969357233606 0.23011299967765808 -4.357628227748625 34.85619467437857 0.725907027721405 -3.8256486900580455 34.83301787899798 0.05255499854683876 -3.2741237829794207 10.372290223056087 -0.3370330035686493 -2.0045820690721303 10.530856873558115 -0.4827840030193329 -1.145684003829956 2.4999890327453613 -1.7666150331497192 -6.794558192334295 51.410552708980426 -3.388011932373047 -8.22165120631051 48.38669707953343 -5.469314098358154 -2.9627327542177375 48.41580274194613 -6.5643630027771 -2.77115051820677 45.410031695486026 -7.371151924133301 2.282787380518702 45.518279572914096 -4.059487819671631 1.5700790431614249 44.195601583705944 -3.5412540435791016 2.664359136466706 44.302580466251904 1.716817021369934 -1.659922673625777 44.479979227881486 0.8931480050086975 -2.7588625525537913 44.5005297024989 2.569571018218994 -3.4609875100039393 40.74031597110603 1.5561350584030151 -4.44223429951029 40.73488551185068 1.7604570388793945 -3.6838957533081653 34.88105819412141 1.2573299407958984 -3.062822316890602 10.360271426603797 0.9836130142211914 -3.081821918487549 2.0411810874938965 -0.448637992143631 -2.3329483289295987 54.47619949042761 -1.137397050857544 0.018999656548677097 51.55649387292025 1.0766669511795044 -0.32090770227791454 48.67406969450397 6.129744052886963 -5.71538060869866 45.667838386684416 8.141647338867188 -10.031793546533748 44.23231753858421 4.360497951507568 -6.806154575858759 44.41383709910012 -0.08247499912977219 -4.935164375379812 40.68669525187543 -0.6080989837646484 -0.19541508908279476 28.618224961676056 -5.944585800170898 -0.73563687502932 27.747151385977098 -6.478745937347412 -0.15113544102499596 27.776431685060874 -6.735382080078125 -0.03483057496549774 25.958850652795643 -7.114245891571045 0.8961196469335003 26.04697702991666 -6.750531196594238 1.3651108434897161 24.257281693627704 -7.20966911315918 1.914088558477427 24.37626248726738 -5.7476887702941895 2.1740667823823583 22.524666541374497 -5.650355815887451 1.6416099653271106 22.57064581714563 -4.064114093780518 1.2306148506982628 20.18861023424861 -4.632070064544678 0.45434704115880975 20.151683030709975 -4.254814147949219 0.563363316400296 16.026954365460515 -4.923335075378418 -0.33434964214995194 20.075093108126286 -4.598857879638672 0.3892573757280158 15.986582233862558 -5.436112880706787 -0.6734700552935808 20.003705861503608 -5.46266508102417 -1.9567892755474279 54.51297595998443 0.6700649857521057 -1.8310495553666017 51.59108852692207 3.898900032043457 -5.579825920160092 48.64496407668741 7.224792003631592 -10.769318384865555 45.55958859097543 4.829983234405518 -11.126072702996652 44.12533883442285 -0.8975729942321777 -5.707215586127035 44.3932903384051 -1.7588969469070435 -0.9693311401290834 27.761873968919307 -5.884160995483398 -0.9525677567337998 25.912877954445346 -6.711297988891602 0.09053584824780589 24.132039526089418 -7.793017864227295 1.587347729456528 22.39750693869723 -7.21284818649292 1.5397246820976227 20.164244296006324 -5.5096330642700195 1.0761826530308838 16.055265353062815 -5.099685192108154 -1.7552770376205444 2.1361429691314697 1.5331449508666992 -1.8142037199139989 10.51927109459162 0.7336310148239136 -3.151917609974592 34.857877250005984 0.583977997303009 -2.911518431464859 40.730039599059545 0.7179239988327026 -3.1156964816609025 40.710079140784465 -0.2631640136241913 -2.068279427281881 44.44005624532569 -1.0690280199050903 -3.744722572549378 44.40414920763372 -2.167541027069092 -2.922310320125734 44.09937993095814 -6.484954833984375 -8.181228830771154 44.07027425739641 -5.389906883239746 -8.687433676388983 45.37728857249967 -6.139223098754883 -2.969079418666717 54.53190433584832 2.2143049240112305 -5.134876808165895 51.57280507434974 4.5868449211120605 -10.0722161562837 48.548740316125084 4.281091213226318 -12.000383308722771 45.43923544097936 -1.085347056388855 5.805661813289431 38.76539101430774 3.212785005569458 6.625904051482299 37.65950399966044 2.458846092224121 6.894602498962503 37.63695349181892 3.2837939262390137 7.726359395900982 35.160731634440644 3.318408966064453 7.007956120820137 35.166426697120706 4.732538223266602 7.724560627696722 32.6899596904416 5.6280598640441895 5.325692807846786 32.768385340210344 6.411552906036377 5.23239706476566 30.753209201885486 6.607292175292969 2.828800991554906 30.862050888802127 5.385779857635498 3.3265931784114766 28.889471969739724 4.871166229248047 2.66519684157165 28.796507978836694 2.855436086654663 5.852817085273582 37.69451026478867 2.065962076187134 7.235289576254272 35.20194204103094 1.8107450008392334 8.868093253506302 32.680896542124565 3.3770980834960938 7.796186402053477 30.669394141408834 5.769934177398682 5.220923298382238 28.908568934651655 5.830544948577881 5.02820697824025 37.72146800282325 2.3352880477905273 5.822406045822015 35.26592394326299 1.0927150249481201 8.0864246694925 32.74649719825735 0.9772499799728394 9.01833718165819 30.659703214265146 3.36421799659729 7.238513845232009 28.842608787386816 5.171579837799072 4.635116587200266 37.72458706734171 3.109055995941162 4.315358416928421 35.315194247143424 1.5849319696426392 5.837445438712586 32.848339760128134 -0.1656849980354309 8.182929666606139 30.7298150871932 0.7993810176849365 8.19748662971299 28.730234058597905 3.280284881591797 0.4417802372025857 27.832559420165882 -6.503733158111572 0.6957896507475074 27.882657106709335 -5.919497966766357 1.2949444144604976 26.12563604210425 -5.8332109451293945 0.9280165275064178 26.148751623996255 -4.899641036987305 1.4158836471970657 24.419283730673975 -4.263484954833984 0.16233883766771445 24.361142987311098 -3.6264851093292236 0.30188402379537393 22.50850758772887 -3.3833200931549072 -1.060318392915833 22.374654127121378 -4.006773948669434 6.501514405109016 37.64006813970238 4.057561874389648 5.50090780020132 35.21569298605474 5.2247538566589355 3.076713666259165 32.870227433659934 5.268618106842041 1.993392071239289 30.932162494153307 2.8209431171417236 -4.776832672909008 54.52189786193785 2.5907270908355713 -7.957145014557059 51.512352634512645 2.7375149726867676 -11.166496606358152 48.441763307263884 -0.9769799709320068 -1.3194957033839592 25.935991628991573 -5.777728080749512 -1.1630089313877878 24.073900690073742 -7.156017780303955 0.2251442845651998 22.263653478139027 -7.836301803588867 1.2006051631150996 20.09285895668942 -6.373439788818359 0.4620953557539866 27.89737778230434 -5.324913024902344 0.01027932440913185 26.10278083299561 -4.496692180633545 -1.1122372006554782 24.235900819822813 -4.209834098815918 -1.6470374458416634 22.247494524444114 -5.569264888763428 0.2920701460298539 7.387326075940941 -5.094340801239014 -0.029219078332265738 7.5080213335056305 -4.484488010406494 0.6299218511587487 7.589404911853886 -4.189109802246094 0.8978957547045665 7.462653040362129 -4.82037878036499 0.9020767421609257 16.01489322146343 -5.612462043762207 3.59695373658401 35.320889042246606 2.999061107635498 3.4385774847509096 32.92676101572159 0.6178079843521118 5.779331887188657 30.83865936165624 -0.4221310019493103 7.53609223329049 28.637267524744626 1.2645549774169922 1.1241559982299805 2.999140977859497 -0.549530029296875 3.1552100863782457 8.366673857768346 0.5298529863357544 2.4945643293041897 8.43561421952964 1.6329920291900635 4.302302874137798 21.48592544742403 2.6730239391326904 4.469658797778802 21.444243764328874 3.3900909423828125 4.393042481137433 25.26386154094643 3.779542922973633 5.157791489637539 25.193961987126745 4.169126033782959 -6.321092676918118 54.48882351082589 1.5788300037384033 -8.644606227743319 51.445145645384 -0.5657789707183838 -0.12240604835657998 27.868099390567767 -5.068277835845947 -0.9206708761608822 26.01465254852494 -4.860407829284668 -1.6612138427595842 24.116920026131705 -5.67181396484375 5.676902424390929 37.66702552096779 4.326888084411621 4.088024269769064 35.279674888286806 4.506723880767822 2.295044758842476 32.93582851361776 2.868769884109497 3.600737141974873 8.013108264295065 2.2548999786376953 5.181256668080752 21.35367925588029 3.2187459468841553 4.17150738707922 7.9778931812112095 1.1060750484466553 5.013899790765433 21.395360939021167 2.501678943634033 0.41190755593434497 20.016269034150017 -6.717483997344971 -0.3643592106152611 19.97933992321275 -6.340228080749512 -1.1145817015785853 22.201517156073045 -7.155508041381836 4.12688440282648 25.291177846992948 2.961060047149658 4.515227908843016 25.259910545837425 2.1931331157684326 5.330587695259996 25.188373873012267 1.9256019592285156 6.095335778066761 25.11847408225535 2.3151841163635254 5.641761979531289 28.618171262464475 0.3051759898662567 0.19282600283622742 0 -2.2745420932769775 0.6629869937896729 0 -2.4632320404052734 0.2493859976530075 2.3977959156036377 -3.9579110145568848 1.1384190320968628 0 -2.276305913925171 1.0616990327835083 2.6275670528411865 -3.627376079559326 1.3342089653015137 0 -1.7437770366668701 1.144731044769287 0 -1.290004014968872 2.8155980110168457 1.9550739526748657 1.5612519979476929 1.824044942855835 2.2838399410247803 1.9351940155029297 0.9179189801216125 2.7258191108703613 1.4718530178070068 0.6280159950256348 3.022106885910034 0.44264599680900574 -0.08142399787902832 2.6424930095672607 -1.0486849546432495 0.1808609962463379 2.5949509143829346 0.21516799926757812 -0.5124719738960266 2.38521409034729 1.2845970392227173 2.115709066390991 2.6703760623931885 -0.923471987247467 3.021836042404175 2.228395938873291 -0.4601300060749054 3.311738967895508 1.932108998298645 0.5690760016441345 2.8155980110168457 1.9550739526748657 1.5612519979476929 3.2155425499008397 30.922474422132893 0.4152269959449768 3.624170451242993 28.68413146555533 0.9641410112380981 -3.9539175565971374 40.692125716705284 -0.8124200105667114 4.903816149907434 37.702035801042406 3.934004068374634 -0.715322769665444 27.811971655512764 -5.299925804138184 -6.697250394495932 54.452051178854866 -0.22863200306892395 6.361494977179195 25.09115698847471 3.1336679458618164 5.973151465588141 25.122424318906564 3.901595115661621 0.6894450187683105 2.9374940395355225 -2.816098928451538 0.6745700240135193 0 -1.1013139486312866 0.19913800060749054 0 -1.2882390022277832 0.346655011177063 0 -0.6426699757575989 1.0342869758605957 0 -0.8678600192070007 1.1241559982299805 2.999140977859497 -0.549530029296875 2.115709066390991 2.6703760623931885 -0.923471987247467 1.6600899696350098 0 -0.5436570048332214 3.021836042404175 2.228395938873291 -0.4601300060749054 1.8574780225753784 0 0.1400260031223297 3.311738967895508 1.932108998298645 0.5690760016441345 1.5108230113983154 0 0.7826970219612122 0.8231909871101379 0 1.0078870058059692 1.824044942855835 2.2838399410247803 1.9351940155029297 0.19738799333572388 0 0.6836829781532288 0.9179189801216125 2.7258191108703613 1.4718530178070068 -2.8195369243621826 1.9936389923095703 0.8152160048484802 0 0 0 0.6280159950256348 3.022106885910034 0.44264599680900574 -3.081821918487549 2.0411810874938965 -0.448637992143631 -2.8195369243621826 1.9936389923095703 0.8152160048484802 -2.367603063583374 0 -0.4320569932460785 -2.1927459239959717 0 0.4105120003223419 -1.7552770376205444 2.1361429691314697 1.5331449508666992 -1.4769539833068848 0 0.8862490057945251 -0.5124719738960266 2.38521409034729 1.2845970392227173 -0.6395270228385925 0 0.7164750099182129 0.1808609962463379 2.5949509143829346 0.21516799926757812 -0.17101900279521942 0 0.0006399999838322401 -0.08142399787902832 2.6424930095672607 -1.0486849546432495 -0.345876008272171 0 -0.8419280052185059 -1.145684003829956 2.4999890327453613 -1.7666150331497192 -1.061668038368225 0 -1.3176660537719727 -2.388489007949829 2.250917911529541 -1.5180670022964478 -2.388489007949829 2.250917911529541 -1.5180670022964478 -1.899095058441162 0 -1.1478919982910156 0.6894450187683105 2.9374940395355225 -2.816098928451538 -0.19440299272537231 2.6889750957489014 -3.172295093536377 0.2493859976530075 2.3977959156036377 -3.9579110145568848 1.0616990327835083 2.6275670528411865 -3.627376079559326 -0.19440299272537231 2.6889750957489014 -3.172295093536377 -0.0030620000325143337 0 -1.7412819862365723</float_array>
                    <technique_common>
                        <accessor count="235" source="#pointarray1" stride="3">
                            <param name="X" type="float"/>
                            <param name="Y" type="float"/>
                            <param name="Z" type="float"/>
                        </accessor>
                    </technique_common>
                </source>
                <source id="uvs1">
                    <float_array id="uvarray1" count="252">2.2578125 0.99609375 2.5234375 0.97265625 2.0234375 0.97265625 2.0234375 0.91796875 1.52734375 0.91796875 1.5234375 0.8671875 1.0234375 0.8671875 1.0234375 0.8125 0.5234375 0.8125 0.5234375 0.7890625 0.0234375 0.7890625 0.0234375 0.79296875 -0.47265625 0.79296875 -0.47265625 0.73046875 -0.97265625 0.73046875 -0.72265625 0.546875 -1.73046875 0.546875 -0.72265625 0.140625 -1.73046875 0.140625 -1.47265625 0.03515625 2.5234375 0.91796875 2.5234375 0.8671875 2.0234375 0.8671875 2.0234375 0.8125 1.5234375 0.8125 1.5234375 0.7890625 1.0234375 0.7890625 1.0234375 0.79296875 0.5234375 0.79296875 0.5234375 0.73046875 0.0234375 0.73046875 0.2734375 0.546875 0.2734375 0.140625 -0.47265625 0.03515625 1.7734375 0.99609375 1.5234375 0.97265625 1.0234375 0.91796875 0.5234375 0.8671875 0.0234375 0.8125 -0.47265625 0.7890625 -0.97265625 0.79296875 -1.47265625 0.73046875 0.0234375 0.7578125 -0.47265625 0.7578125 -0.97265625 0.7578125 -1.73828125 0.546875 -1.47265625 0.7578125 1.2734375 0.99609375 1.0234375 0.97265625 0.5234375 0.91796875 0.0234375 0.8671875 -0.47265625 0.8125 -0.97265625 0.7890625 -1.47265625 0.79296875 2.28515625 0.99609375 0.5234375 0.7578125 0.5234375 0.03515625 1.2734375 0.140625 1.2734375 0.546875 1.0234375 0.73046875 1.5234375 0.73046875 1.5234375 0.79296875 2.0234375 0.79296875 2.0234375 0.7890625 2.5234375 0.7890625 2.5234375 0.8125 0.7734375 0.99609375 0.5234375 0.97265625 0.01953125 0.91796875 -0.47265625 0.8671875 -0.97265625 0.8125 -1.47265625 0.7890625 2.27734375 0.99609375 0.2734375 0.99609375 0.0234375 0.97265625 -0.4765625 0.91796875 -0.97265625 0.8671875 -1.47265625 0.8125 1.0234375 0.7578125 -1.73828125 0.26953125 -0.72265625 0.26953125 0.2734375 0.26953125 1.2734375 0.26953125 2.2578125 0.26953125 2.2578125 0.546875 -1.71875 0.140625 -1.71875 0.546875 -0.22265625 0.99609375 -0.47265625 0.97265625 -0.9765625 0.91796875 -1.47265625 0.8671875 2.27734375 0.140625 2.27734375 0.546875 1.5234375 0.7578125 2.0234375 0.7578125 2.5234375 0.73046875 2.0234375 0.73046875 2.5234375 0.03515625 2.0234375 0.03515625 2.2578125 0.13671875 1.5234375 0.03515625 1.2734375 0.13671875 1.0234375 0.03515625 0.0234375 0.03515625 -0.97265625 0.03515625 2.265625 0.140625 2.5234375 0.79296875 -0.72265625 0.99609375 -0.97265625 0.97265625 -1.47265625 0.91796875 2.265625 0.546875 0.2734375 0.13671875 -1.22265625 0.99609375 -1.47265625 0.97265625 2.5234375 0.7578125 2.5234375 0 2.0234375 0 1.5234375 0 1.0234375 0 0.5234375 0 0.0234375 0 -0.47265625 0 -0.97265625 0 -1.47265625 0 -0.72265625 0.13671875 -1.73828125 0.13671875</float_array>
                    <technique_common>
                        <accessor count="126" source="#uvarray1" stride="2">
                            <param name="S" type="float"/>
                            <param name="T" type="float"/>
                        </accessor>
                    </technique_common>
                </source>
                <vertices id="vertices1">
                    <input semantic="POSITION" source="#points1"/>
                </vertices>
                <polylist count="400" material="Material1">
                    <input offset="0" semantic="VERTEX" source="#vertices1"/>
                    <input offset="1" semantic="TEXCOORD" source="#uvs1" set="0"/>
                    <vcount>3 3 3 3 3 3 3 3 3 3 3 3 3 3 3 3 3 3 3 3 3 3 3 3 3 3 3 3 3 3 3 3 3 3 3 3 3 3 3 3 3 3 3 3 3 3 3 3 3 3 3 3 3 3 3 3 3 3 3 3 3 3 3 3 3 3 3 3 3 3 3 3 3 3 3 3 3 3 3 3 3 3 3 3 3 3 3 3 3 3 3 3 3 3 3 3 3 3 3 3 3 3 3 3 3 3 3 3 3 3 3 3 3 3 3 3 3 3 3 3 3 3 3 3 3 3 3 3 3 3 3 3 3 3 3 3 3 3 3 3 3 3 3 3 3 3 3 3 3 3 3 3 3 3 3 3 3 3 3 3 3 3 3 3 3 3 3 3 3 3 3 3 3 3 3 3 3 3 3 3 3 3 3 3 3 3 3 3 3 3 3 3 3 3 3 3 3 3 3 3 3 3 3 3 3 3 3 3 3 3 3 3 3 3 3 3 3 3 3 3 3 3 3 3 3 3 3 3 3 3 3 3 3 3 3 3 3 3 3 3 3 3 3 3 3 3 3 3 3 3 3 3 3 3 3 3 3 3 3 3 3 3 3 3 3 3 3 3 3 3 3 3 3 3 3 3 3 3 3 3 3 3 3 3 3 3 3 3 3 3 3 3 3 3 3 3 3 3 3 3 3 3 3 3 3 3 3 3 3 3 3 3 3 3 3 3 3 3 3 3 3 3 3 3 3 3 3 3 3 3 3 3 3 3 3 3 3 3 3 3 3 3 3 3 3 3 3 3 3 3 3 3 3 3 3 3 3 3 3 3 3 3 3 3 3 3 3 3 3 3 3 3 3 3 3 3 3 3 3 3 3 3 3 3 3 3 3 3 3 3 3 3 3 3 3 3 3 3 3 3</vcount>
                    <p>2 2 1 1 0 0 3 3 1 1 2 2 4 4 3 3 2 2 5 5 3 3 4 4 6 6 5 5 4 4 7 7 5 5 6 6 8 8 7 7 6 6 9 9 7 7 8 8 10 10 9 9 8 8 11 11 9 9 10 10 12 12 11 11 10 10 13 13 11 11 12 12 14 14 13 13 12 12 15 15 13 13 14 14 16 16 15 15 14 14 17 17 15 15 16 16 18 18 17 17 16 16 19 19 17 17 18 18 22 22 21 21 20 20 23 23 21 21 22 22 24 24 23 23 22 22 25 25 23 23 24 24 26 26 25 25 24 24 27 27 25 25 26 26 28 28 27 27 26 26 29 29 27 27 28 28 30 30 29 29 28 28 31 31 29 29 30 30 15 15 31 31 30 30 32 32 31 31 15 15 17 17 32 32 15 15 33 33 32 32 17 17 34 35 2 2 0 34 4 4 2 2 34 35 35 36 4 4 34 35 6 6 4 4 35 36 36 37 6 6 35 36 8 8 6 6 36 37 37 38 8 8 36 37 10 10 8 8 37 38 38 39 10 10 37 38 12 12 10 10 38 39 39 40 12 12 38 39 14 14 12 12 39 40 40 41 14 14 39 40 16 16 14 14 40 41 43 35 42 2 41 34 44 4 42 2 43 35 45 36 44 4 43 35 46 6 44 4 45 36 47 37 46 6 45 36 48 8 46 6 47 37 49 38 48 8 47 37 50 42 48 8 49 38 51 43 50 42 49 38 52 15 50 42 51 43 53 44 52 15 51 43 54 45 52 15 53 44 55 46 54 45 53 44 3 3 20 20 1 1 22 22 20 20 3 3 5 5 22 22 3 3 24 24 22 22 5 5 7 7 24 24 5 5 26 26 24 24 7 7 9 9 26 26 7 7 28 28 26 26 9 9 11 11 28 28 9 9 30 30 28 28 11 11 13 13 30 30 11 11 15 15 30 30 13 13 56 48 34 35 0 47 35 36 34 35 56 48 57 49 35 36 56 48 36 37 35 36 57 49 58 50 36 37 57 49 37 38 36 37 58 50 59 51 37 38 58 50 38 39 37 38 59 51 60 52 38 39 59 51 39 40 38 39 60 52 61 53 39 40 60 52 40 41 39 40 61 53 42 2 62 1 41 54 63 3 62 1 42 2 44 4 63 3 42 2 64 5 63 3 44 4 46 6 64 5 44 4 65 7 64 5 46 6 48 8 65 7 46 6 66 55 65 7 48 8 50 42 66 55 48 8 67 31 66 55 50 42 52 15 67 31 50 42 69 57 32 32 68 56 31 31 32 32 69 57 70 58 31 31 69 57 71 59 31 31 70 58 72 60 71 59 70 58 73 61 71 59 72 60 74 62 73 61 72 60 75 63 73 61 74 62 76 64 75 63 74 62 77 65 75 63 76 64 78 67 56 48 0 66 57 49 56 48 78 67 79 68 57 49 78 67 58 50 57 49 79 68 80 69 58 50 79 68 59 51 58 50 80 69 81 70 59 51 80 69 60 52 59 51 81 70 76 71 60 52 81 70 61 53 60 52 76 71 84 67 83 48 82 66 85 49 83 48 84 67 86 68 85 49 84 67 87 50 85 49 86 68 88 69 87 50 86 68 89 51 87 50 88 69 90 70 89 51 88 69 91 52 89 51 90 70 92 71 91 52 90 70 83 48 93 35 82 47 94 36 93 35 83 48 85 49 94 36 83 48 95 37 94 36 85 49 87 50 95 37 85 49 96 38 95 37 87 50 89 51 96 38 87 50 97 39 96 38 89 51 91 52 97 39 89 51 93 35 98 2 82 34 99 4 98 2 93 35 94 36 99 4 93 35 100 6 99 4 94 36 95 37 100 6 94 36 101 8 100 6 95 37 96 38 101 8 95 37 102 10 101 8 96 38 97 39 102 10 96 38 98 2 103 1 82 72 104 3 103 1 98 2 99 4 104 3 98 2 105 5 104 3 99 4 100 6 105 5 99 4 106 7 105 5 100 6 101 8 106 7 100 6 107 9 106 7 101 8 102 10 107 9 101 8 109 67 108 48 41 66 110 49 108 48 109 67 111 68 110 49 109 67 112 50 110 49 111 68 113 69 112 50 111 68 114 51 112 50 113 69 115 70 114 51 113 69 53 44 114 51 115 70 55 46 53 44 115 70 108 48 43 35 41 47 45 36 43 35 108 48 110 49 45 36 108 48 47 37 45 36 110 49 112 50 47 37 110 49 49 38 47 37 112 50 114 51 49 38 112 50 51 43 49 38 114 51 53 44 51 43 114 51 116 74 84 67 82 73 86 68 84 67 116 74 117 75 86 68 116 74 88 69 86 68 117 75 118 76 88 69 117 75 90 70 88 69 118 76 119 77 90 70 118 76 92 71 90 70 119 77 120 74 78 67 0 73 79 68 78 67 120 74 121 75 79 68 120 74 80 69 79 68 121 75 122 76 80 69 121 75 81 70 80 69 122 76 77 77 81 70 122 76 76 71 81 70 77 77 63 3 123 20 62 1 124 22 123 20 63 3 64 5 124 22 63 3 125 24 124 22 64 5 65 7 125 24 64 5 126 78 125 24 65 7 66 55 126 78 65 7 67 31 126 78 66 55 23 23 77 65 21 21 75 63 77 65 23 23 25 25 75 63 23 23 73 61 75 63 25 25 27 27 73 61 25 25 71 59 73 61 27 27 29 29 71 59 27 27 31 31 71 59 29 29 127 74 109 67 41 73 111 68 109 67 127 74 128 75 111 68 127 74 113 69 111 68 128 75 129 76 113 69 128 75 115 70 113 69 129 76 130 77 115 70 129 76 55 46 115 70 130 77 132 80 54 45 131 79 52 15 54 45 132 80 133 81 52 15 132 80 67 31 52 15 133 81 134 82 67 31 133 81 135 58 67 31 134 82 131 83 135 58 134 82 54 84 135 58 131 83 104 3 136 20 103 1 137 22 136 20 104 3 105 5 137 22 104 3 138 24 137 22 105 5 106 7 138 24 105 5 139 26 138 24 106 7 107 9 139 26 106 7 142 17 141 85 140 19 143 86 141 85 142 17 144 15 143 86 142 17 145 14 143 86 144 15 146 13 145 14 144 15 97 12 145 14 146 13 102 11 97 12 146 13 147 88 120 74 0 87 121 75 120 74 147 88 148 89 121 75 147 88 122 76 121 75 148 89 21 90 122 76 148 89 77 77 122 76 21 90 149 88 127 74 41 87 128 75 127 74 149 88 150 89 128 75 149 88 129 76 128 75 150 89 151 90 129 76 150 89 130 77 129 76 151 90 152 88 116 74 82 87 117 75 116 74 152 88 153 89 117 75 152 88 118 76 117 75 153 89 154 90 118 76 153 89 119 77 118 76 154 90 155 32 144 15 142 17 156 31 144 15 155 32 157 57 156 31 155 32 158 58 156 31 157 57 141 91 158 58 157 57 143 92 158 58 141 91 135 58 126 78 67 31 159 93 126 78 135 58 160 94 159 93 135 58 161 23 159 93 160 94 130 65 161 23 160 94 151 21 161 23 130 65 163 96 143 92 162 95 158 58 143 92 163 96 164 60 158 58 163 96 165 59 158 58 164 60 166 61 165 59 164 60 139 27 165 59 166 61 169 99 168 98 167 97 170 100 168 98 169 99 171 101 170 100 169 99 172 102 170 100 171 101 173 56 172 102 171 101 155 32 175 103 174 56 176 33 175 103 155 32 142 17 176 33 155 32 177 104 176 33 142 17 140 19 177 104 142 17 18 105 178 98 19 97 179 100 178 98 18 105 69 57 179 100 18 105 180 102 179 100 69 57 68 56 180 102 69 57 141 91 181 98 140 97 182 100 181 98 141 91 157 57 182 100 141 91 183 102 182 100 157 57 184 56 183 102 157 57 124 22 151 21 123 20 161 23 151 21 124 22 125 24 161 23 124 22 159 93 161 23 125 24 126 78 159 93 125 24 166 25 138 24 139 26 185 23 138 24 166 25 186 63 185 23 166 25 119 65 185 23 186 63 92 64 119 65 186 63 74 62 61 106 76 64 187 96 61 106 74 62 72 60 187 96 74 62 70 58 187 96 72 60 188 108 152 88 82 107 153 89 152 88 188 108 136 109 153 89 188 108 154 90 153 89 136 109 189 108 149 88 41 107 150 89 149 88 189 108 123 109 150 89 189 108 151 90 150 89 123 109 190 108 147 88 0 107 148 89 147 88 190 108 20 109 148 89 190 108 21 90 148 89 20 109 165 59 156 31 158 58 191 29 156 31 165 59 139 27 191 29 165 59 107 28 191 29 139 27 145 14 162 41 143 86 91 40 162 41 145 14 97 12 91 40 145 14 137 22 154 21 136 20 185 23 154 21 137 22 138 24 185 23 137 22 187 96 40 95 61 106 16 110 40 95 187 96 70 58 16 110 187 96 192 30 102 11 146 13 107 28 102 11 192 30 191 29 107 28 192 30 192 30 156 31 191 29 144 15 156 31 192 30 146 13 144 15 192 30 193 111 173 56 171 101 194 103 173 56 193 111 195 33 194 103 193 111 62 113 189 108 41 112 123 109 189 108 62 113 103 113 188 108 82 112 136 109 188 108 103 113 164 60 186 62 166 61 163 96 186 62 164 60 92 106 163 96 162 95 186 62 163 96 92 106 1 113 190 108 0 112 20 109 190 108 1 113 54 84 160 94 135 58 55 114 160 94 54 84 198 97 197 116 196 115 199 98 197 116 198 97 199 98 200 117 197 116 201 100 200 117 199 98 201 100 202 118 200 117 203 102 202 118 201 100 203 102 204 119 202 118 174 56 204 119 203 102 174 56 205 120 204 119 206 103 205 120 174 56 18 105 70 58 69 57 16 110 70 58 18 105 206 103 207 121 205 120 208 33 207 121 206 103 209 103 32 32 33 33 68 56 32 32 209 103 208 33 210 122 207 121 211 104 210 122 208 33 214 121 213 103 212 33 215 120 213 103 214 121 215 120 216 56 213 103 217 119 216 56 215 120 217 119 218 102 216 56 219 118 218 102 217 119 219 118 220 100 218 102 221 117 220 100 219 118 221 117 222 98 220 100 223 116 222 98 221 117 223 116 224 97 222 98 225 115 224 97 223 116 226 104 17 17 19 19 33 33 17 17 226 104 228 122 212 33 227 104 214 121 212 33 228 122 225 123 227 104 224 19 228 122 227 104 225 123 133 80 230 111 229 124 132 81 230 111 133 80 231 124 132 79 131 80 230 125 132 79 231 124 131 83 232 101 231 99 134 82 232 101 131 83 229 111 134 82 133 81 232 101 134 82 229 111 167 19 233 124 169 125 234 104 233 124 167 19 195 33 233 124 234 104 193 111 233 124 195 33 196 123 211 104 198 19 210 122 211 104 196 123 91 40 92 53 162 41 157 57 155 32 184 56 130 65 160 94 55 114 154 21 185 23 119 65</p>
                </polylist>
            </mesh>
        </geometry>
        <geometry id="mesh1_VC">
            <mesh>
                <source id="points1_VC">
                    <float_array id="pointarray1_VC" count="705">-4.339428308812979 55.807484164465244 0.19634200632572174 -5.6849606576577045 54.43311884239615 -1.772871971130371 -3.8772069807745115 54.44312345516452 -2.1492950916290283 -3.4907319861635946 51.428835962263726 -4.075957775115967 -0.6684635528809173 51.489288445303345 -2.2266271114349365 1.5296565450634916 48.51202632412387 -3.6206610202789307 2.623937575211152 48.61900538505442 1.637410044670105 3.513853241218296 45.63863290129476 1.8558419942855835 0.2009031404633201 45.70057968058216 6.909717082977295 -0.2804847357587923 44.35764504327834 6.209150791168213 -5.539403427515439 44.32854127684847 7.304200172424316 -4.721353842559916 44.48966727822166 2.9782140254974365 -6.397797822202656 44.453760081655915 1.879701018333435 -5.280454609674614 40.716928350157396 1.2112009525299072 -5.484635161130585 40.696969357233606 0.23011299967765808 -4.357628227748625 34.85619467437857 0.725907027721405 -3.8256486900580455 34.83301787899798 0.05255499854683876 -3.2741237829794207 10.372290223056087 -0.3370330035686493 -2.0045820690721303 10.530856873558115 -0.4827840030193329 -1.145684003829956 2.4999890327453613 -1.7666150331497192 -6.794558192334295 51.410552708980426 -3.388011932373047 -8.22165120631051 48.38669707953343 -5.469314098358154 -2.9627327542177375 48.41580274194613 -6.5643630027771 -2.77115051820677 45.410031695486026 -7.371151924133301 2.282787380518702 45.518279572914096 -4.059487819671631 1.5700790431614249 44.195601583705944 -3.5412540435791016 2.664359136466706 44.302580466251904 1.716817021369934 -1.659922673625777 44.479979227881486 0.8931480050086975 -2.7588625525537913 44.5005297024989 2.569571018218994 -3.4609875100039393 40.74031597110603 1.5561350584030151 -4.44223429951029 40.73488551185068 1.7604570388793945 -3.6838957533081653 34.88105819412141 1.2573299407958984 -3.062822316890602 10.360271426603797 0.9836130142211914 -3.081821918487549 2.0411810874938965 -0.448637992143631 -2.3329483289295987 54.47619949042761 -1.137397050857544 0.018999656548677097 51.55649387292025 1.0766669511795044 -0.32090770227791454 48.67406969450397 6.129744052886963 -5.71538060869866 45.667838386684416 8.141647338867188 -10.031793546533748 44.23231753858421 4.360497951507568 -6.806154575858759 44.41383709910012 -0.08247499912977219 -4.935164375379812 40.68669525187543 -0.6080989837646484 -0.19541508908279476 28.618224961676056 -5.944585800170898 -0.73563687502932 27.747151385977098 -6.478745937347412 -0.15113544102499596 27.776431685060874 -6.735382080078125 -0.03483057496549774 25.958850652795643 -7.114245891571045 0.8961196469335003 26.04697702991666 -6.750531196594238 1.3651108434897161 24.257281693627704 -7.20966911315918 1.914088558477427 24.37626248726738 -5.7476887702941895 2.1740667823823583 22.524666541374497 -5.650355815887451 1.6416099653271106 22.57064581714563 -4.064114093780518 1.2306148506982628 20.18861023424861 -4.632070064544678 0.45434704115880975 20.151683030709975 -4.254814147949219 0.563363316400296 16.026954365460515 -4.923335075378418 -0.33434964214995194 20.075093108126286 -4.598857879638672 0.3892573757280158 15.986582233862558 -5.436112880706787 -0.6734700552935808 20.003705861503608 -5.46266508102417 -1.9567892755474279 54.51297595998443 0.6700649857521057 -1.8310495553666017 51.59108852692207 3.898900032043457 -5.579825920160092 48.64496407668741 7.224792003631592 -10.769318384865555 45.55958859097543 4.829983234405518 -11.126072702996652 44.12533883442285 -0.8975729942321777 -5.707215586127035 44.3932903384051 -1.7588969469070435 -0.9693311401290834 27.761873968919307 -5.884160995483398 -0.9525677567337998 25.912877954445346 -6.711297988891602 0.09053584824780589 24.132039526089418 -7.793017864227295 1.587347729456528 22.39750693869723 -7.21284818649292 1.5397246820976227 20.164244296006324 -5.5096330642700195 1.0761826530308838 16.055265353062815 -5.099685192108154 -1.7552770376205444 2.1361429691314697 1.5331449508666992 -1.8142037199139989 10.51927109459162 0.7336310148239136 -3.151917609974592 34.857877250005984 0.583977997303009 -2.911518431464859 40.730039599059545 0.7179239988327026 -3.1156964816609025 40.710079140784465 -0.2631640136241913 -2.068279427281881 44.44005624532569 -1.0690280199050903 -3.744722572549378 44.40414920763372 -2.167541027069092 -2.922310320125734 44.09937993095814 -6.484954833984375 -8.181228830771154 44.07027425739641 -5.389906883239746 -8.687433676388983 45.37728857249967 -6.139223098754883 -2.969079418666717 54.53190433584832 2.2143049240112305 -5.134876808165895 51.57280507434974 4.5868449211120605 -10.0722161562837 48.548740316125084 4.281091213226318 -12.000383308722771 45.43923544097936 -1.085347056388855 5.805661813289431 38.76539101430774 3.212785005569458 6.625904051482299 37.65950399966044 2.458846092224121 6.894602498962503 37.63695349181892 3.2837939262390137 7.726359395900982 35.160731634440644 3.318408966064453 7.007956120820137 35.166426697120706 4.732538223266602 7.724560627696722 32.6899596904416 5.6280598640441895 5.325692807846786 32.768385340210344 6.411552906036377 5.23239706476566 30.753209201885486 6.607292175292969 2.828800991554906 30.862050888802127 5.385779857635498 3.3265931784114766 28.889471969739724 4.871166229248047 2.66519684157165 28.796507978836694 2.855436086654663 5.852817085273582 37.69451026478867 2.065962076187134 7.235289576254272 35.20194204103094 1.8107450008392334 8.868093253506302 32.680896542124565 3.3770980834960938 7.796186402053477 30.669394141408834 5.769934177398682 5.220923298382238 28.908568934651655 5.830544948577881 5.02820697824025 37.72146800282325 2.3352880477905273 5.822406045822015 35.26592394326299 1.0927150249481201 8.0864246694925 32.74649719825735 0.9772499799728394 9.01833718165819 30.659703214265146 3.36421799659729 7.238513845232009 28.842608787386816 5.171579837799072 4.635116587200266 37.72458706734171 3.109055995941162 4.315358416928421 35.315194247143424 1.5849319696426392 5.837445438712586 32.848339760128134 -0.1656849980354309 8.182929666606139 30.7298150871932 0.7993810176849365 8.19748662971299 28.730234058597905 3.280284881591797 0.4417802372025857 27.832559420165882 -6.503733158111572 0.6957896507475074 27.882657106709335 -5.919497966766357 1.2949444144604976 26.12563604210425 -5.8332109451293945 0.9280165275064178 26.148751623996255 -4.899641036987305 1.4158836471970657 24.419283730673975 -4.263484954833984 0.16233883766771445 24.361142987311098 -3.6264851093292236 0.30188402379537393 22.50850758772887 -3.3833200931549072 -1.060318392915833 22.374654127121378 -4.006773948669434 6.501514405109016 37.64006813970238 4.057561874389648 5.50090780020132 35.21569298605474 5.2247538566589355 3.076713666259165 32.870227433659934 5.268618106842041 1.993392071239289 30.932162494153307 2.8209431171417236 -4.776832672909008 54.52189786193785 2.5907270908355713 -7.957145014557059 51.512352634512645 2.7375149726867676 -11.166496606358152 48.441763307263884 -0.9769799709320068 -1.3194957033839592 25.935991628991573 -5.777728080749512 -1.1630089313877878 24.073900690073742 -7.156017780303955 0.2251442845651998 22.263653478139027 -7.836301803588867 1.2006051631150996 20.09285895668942 -6.373439788818359 0.4620953557539866 27.89737778230434 -5.324913024902344 0.01027932440913185 26.10278083299561 -4.496692180633545 -1.1122372006554782 24.235900819822813 -4.209834098815918 -1.6470374458416634 22.247494524444114 -5.569264888763428 0.2920701460298539 7.387326075940941 -5.094340801239014 -0.029219078332265738 7.5080213335056305 -4.484488010406494 0.6299218511587487 7.589404911853886 -4.189109802246094 0.8978957547045665 7.462653040362129 -4.82037878036499 0.9020767421609257 16.01489322146343 -5.612462043762207 3.59695373658401 35.320889042246606 2.999061107635498 3.4385774847509096 32.92676101572159 0.6178079843521118 5.779331887188657 30.83865936165624 -0.4221310019493103 7.53609223329049 28.637267524744626 1.2645549774169922 1.1241559982299805 2.999140977859497 -0.549530029296875 3.1552100863782457 8.366673857768346 0.5298529863357544 2.4945643293041897 8.43561421952964 1.6329920291900635 4.302302874137798 21.48592544742403 2.6730239391326904 4.469658797778802 21.444243764328874 3.3900909423828125 4.393042481137433 25.26386154094643 3.779542922973633 5.157791489637539 25.193961987126745 4.169126033782959 -6.321092676918118 54.48882351082589 1.5788300037384033 -8.644606227743319 51.445145645384 -0.5657789707183838 -0.12240604835657998 27.868099390567767 -5.068277835845947 -0.9206708761608822 26.01465254852494 -4.860407829284668 -1.6612138427595842 24.116920026131705 -5.67181396484375 5.676902424390929 37.66702552096779 4.326888084411621 4.088024269769064 35.279674888286806 4.506723880767822 2.295044758842476 32.93582851361776 2.868769884109497 3.600737141974873 8.013108264295065 2.2548999786376953 5.181256668080752 21.35367925588029 3.2187459468841553 4.17150738707922 7.9778931812112095 1.1060750484466553 5.013899790765433 21.395360939021167 2.501678943634033 0.41190755593434497 20.016269034150017 -6.717483997344971 -0.3643592106152611 19.97933992321275 -6.340228080749512 -1.1145817015785853 22.201517156073045 -7.155508041381836 4.12688440282648 25.291177846992948 2.961060047149658 4.515227908843016 25.259910545837425 2.1931331157684326 5.330587695259996 25.188373873012267 1.9256019592285156 6.095335778066761 25.11847408225535 2.3151841163635254 5.641761979531289 28.618171262464475 0.3051759898662567 0.19282600283622742 0 -2.2745420932769775 0.6629869937896729 0 -2.4632320404052734 0.2493859976530075 2.3977959156036377 -3.9579110145568848 1.1384190320968628 0 -2.276305913925171 1.0616990327835083 2.6275670528411865 -3.627376079559326 1.3342089653015137 0 -1.7437770366668701 1.144731044769287 0 -1.290004014968872 2.8155980110168457 1.9550739526748657 1.5612519979476929 1.824044942855835 2.2838399410247803 1.9351940155029297 0.9179189801216125 2.7258191108703613 1.4718530178070068 0.6280159950256348 3.022106885910034 0.44264599680900574 -0.08142399787902832 2.6424930095672607 -1.0486849546432495 0.1808609962463379 2.5949509143829346 0.21516799926757812 -0.5124719738960266 2.38521409034729 1.2845970392227173 2.115709066390991 2.6703760623931885 -0.923471987247467 3.021836042404175 2.228395938873291 -0.4601300060749054 3.311738967895508 1.932108998298645 0.5690760016441345 2.8155980110168457 1.9550739526748657 1.5612519979476929 3.2155425499008397 30.922474422132893 0.4152269959449768 3.624170451242993 28.68413146555533 0.9641410112380981 -3.9539175565971374 40.692125716705284 -0.8124200105667114 4.903816149907434 37.702035801042406 3.934004068374634 -0.715322769665444 27.811971655512764 -5.299925804138184 -6.697250394495932 54.452051178854866 -0.22863200306892395 6.361494977179195 25.09115698847471 3.1336679458618164 5.973151465588141 25.122424318906564 3.901595115661621 0.6894450187683105 2.9374940395355225 -2.816098928451538 0.6745700240135193 0 -1.1013139486312866 0.19913800060749054 0 -1.2882390022277832 0.346655011177063 0 -0.6426699757575989 1.0342869758605957 0 -0.8678600192070007 1.1241559982299805 2.999140977859497 -0.549530029296875 2.115709066390991 2.6703760623931885 -0.923471987247467 1.6600899696350098 0 -0.5436570048332214 3.021836042404175 2.228395938873291 -0.4601300060749054 1.8574780225753784 0 0.1400260031223297 3.311738967895508 1.932108998298645 0.5690760016441345 1.5108230113983154 0 0.7826970219612122 0.8231909871101379 0 1.0078870058059692 1.824044942855835 2.2838399410247803 1.9351940155029297 0.19738799333572388 0 0.6836829781532288 0.9179189801216125 2.7258191108703613 1.4718530178070068 -2.8195369243621826 1.9936389923095703 0.8152160048484802 0 0 0 0.6280159950256348 3.022106885910034 0.44264599680900574 -3.081821918487549 2.0411810874938965 -0.448637992143631 -2.8195369243621826 1.9936389923095703 0.8152160048484802 -2.367603063583374 0 -0.4320569932460785 -2.1927459239959717 0 0.4105120003223419 -1.7552770376205444 2.1361429691314697 1.5331449508666992 -1.4769539833068848 0 0.8862490057945251 -0.5124719738960266 2.38521409034729 1.2845970392227173 -0.6395270228385925 0 0.7164750099182129 0.1808609962463379 2.5949509143829346 0.21516799926757812 -0.17101900279521942 0 0.0006399999838322401 -0.08142399787902832 2.6424930095672607 -1.0486849546432495 -0.345876008272171 0 -0.8419280052185059 -1.145684003829956 2.4999890327453613 -1.7666150331497192 -1.061668038368225 0 -1.3176660537719727 -2.388489007949829 2.250917911529541 -1.5180670022964478 -2.388489007949829 2.250917911529541 -1.5180670022964478 -1.899095058441162 0 -1.1478919982910156 0.6894450187683105 2.9374940395355225 -2.816098928451538 -0.19440299272537231 2.6889750957489014 -3.172295093536377 0.2493859976530075 2.3977959156036377 -3.9579110145568848 1.0616990327835083 2.6275670528411865 -3.627376079559326 -0.19440299272537231 2.6889750957489014 -3.172295093536377 -0.0030620000325143337 0 -1.7412819862365723</float_array>
                    <technique_common>
                        <accessor count="235" source="#pointarray1_VC" stride="3">
                            <param name="X" type="float"/>
                            <param name="Y" type="float"/>
                            <param name="Z" type="float"/>
                        </accessor>
                    </technique_common>
                </source>
                <source id="uvs1_VC">
                    <float_array id="uvarray1_VC" count="64">0.265625 0.50390625 0.265625 0.99609375 0.015625 0.99609375 0.015625 0.00390625 0.578125 0.99609375 0.578125 0.75390625 0.078125 0.99609375 0.078125 0.00390625 0.140625 0.99609375 0.140625 0.00390625 0.890625 0.99609375 0.890625 0.87890625 0.328125 0.99609375 0.328125 0.50390625 0.640625 0.99609375 0.640625 0.75390625 0.703125 0.99609375 0.703125 0.75390625 0.953125 0.99609375 0.953125 0.87890625 0.390625 0.99609375 0.390625 0.50390625 0.765625 0.99609375 0.765625 0.75390625 0.453125 0.99609375 0.453125 0.50390625 0.515625 0.99609375 0.515625 0.50390625 0.828125 0.99609375 0.828125 0.75390625 0.203125 0.99609375 0.203125 0.00390625</float_array>
                    <technique_common>
                        <accessor count="32" source="#uvarray1_VC" stride="2">
                            <param name="S" type="float"/>
                            <param name="T" type="float"/>
                        </accessor>
                    </technique_common>
                </source>
                <vertices id="vertices1_VC">
                    <input semantic="POSITION" source="#points1_VC"/>
                </vertices>
                <polylist count="400" material="Material1">
                    <input offset="0" semantic="VERTEX" source="#vertices1_VC"/>
                    <input offset="1" semantic="TEXCOORD" source="#uvs1_VC" set="0"/>
                    <vcount>3 3 3 3 3 3 3 3 3 3 3 3 3 3 3 3 3 3 3 3 3 3 3 3 3 3 3 3 3 3 3 3 3 3 3 3 3 3 3 3 3 3 3 3 3 3 3 3 3 3 3 3 3 3 3 3 3 3 3 3 3 3 3 3 3 3 3 3 3 3 3 3 3 3 3 3 3 3 3 3 3 3 3 3 3 3 3 3 3 3 3 3 3 3 3 3 3 3 3 3 3 3 3 3 3 3 3 3 3 3 3 3 3 3 3 3 3 3 3 3 3 3 3 3 3 3 3 3 3 3 3 3 3 3 3 3 3 3 3 3 3 3 3 3 3 3 3 3 3 3 3 3 3 3 3 3 3 3 3 3 3 3 3 3 3 3 3 3 3 3 3 3 3 3 3 3 3 3 3 3 3 3 3 3 3 3 3 3 3 3 3 3 3 3 3 3 3 3 3 3 3 3 3 3 3 3 3 3 3 3 3 3 3 3 3 3 3 3 3 3 3 3 3 3 3 3 3 3 3 3 3 3 3 3 3 3 3 3 3 3 3 3 3 3 3 3 3 3 3 3 3 3 3 3 3 3 3 3 3 3 3 3 3 3 3 3 3 3 3 3 3 3 3 3 3 3 3 3 3 3 3 3 3 3 3 3 3 3 3 3 3 3 3 3 3 3 3 3 3 3 3 3 3 3 3 3 3 3 3 3 3 3 3 3 3 3 3 3 3 3 3 3 3 3 3 3 3 3 3 3 3 3 3 3 3 3 3 3 3 3 3 3 3 3 3 3 3 3 3 3 3 3 3 3 3 3 3 3 3 3 3 3 3 3 3 3 3 3 3 3 3 3 3 3 3 3 3 3 3 3 3 3 3 3 3 3 3 3 3 3 3 3 3 3 3 3 3 3 3 3</vcount>
                    <p>2 0 1 0 0 0 3 1 1 0 2 0 4 1 3 1 2 0 5 2 3 3 4 3 6 2 5 2 4 3 7 2 5 2 6 2 8 2 7 2 6 2 9 4 7 5 8 5 10 4 9 4 8 5 11 5 9 4 10 4 12 5 11 5 10 4 13 4 11 5 12 5 14 4 13 4 12 5 15 6 13 7 14 7 16 6 15 6 14 7 17 8 15 9 16 9 18 8 17 8 16 9 19 8 17 8 18 8 22 2 21 2 20 3 23 2 21 2 22 2 24 2 23 2 22 2 25 4 23 5 24 5 26 4 25 4 24 5 27 5 25 4 26 4 28 5 27 5 26 4 29 4 27 5 28 5 30 4 29 4 28 5 31 6 29 7 30 7 15 6 31 6 30 7 32 8 31 9 15 9 17 8 32 8 15 9 33 8 32 8 17 8 34 0 2 0 0 0 4 1 2 0 34 0 35 1 4 1 34 0 6 2 4 3 35 3 36 2 6 2 35 3 8 2 6 2 36 2 37 2 8 2 36 2 10 4 8 5 37 5 38 4 10 4 37 5 12 5 10 4 38 4 39 5 12 5 38 4 14 4 12 5 39 5 40 4 14 4 39 5 16 6 14 7 40 7 43 0 42 0 41 0 44 10 42 11 43 11 45 10 44 10 43 11 46 12 44 13 45 13 47 12 46 12 45 13 48 12 46 12 47 12 49 12 48 12 47 12 50 14 48 15 49 15 51 14 50 14 49 15 52 16 50 17 51 17 53 17 52 16 51 17 54 16 52 16 53 17 55 17 54 16 53 17 3 1 20 1 1 0 22 2 20 3 3 3 5 2 22 2 3 3 24 2 22 2 5 2 7 2 24 2 5 2 26 4 24 5 7 5 9 4 26 4 7 5 28 5 26 4 9 4 11 5 28 5 9 4 30 4 28 5 11 5 13 4 30 4 11 5 15 6 30 7 13 7 56 0 34 0 0 0 35 1 34 0 56 0 57 1 35 1 56 0 36 2 35 3 57 3 58 2 36 2 57 3 37 2 36 2 58 2 59 2 37 2 58 2 38 4 37 5 59 5 60 4 38 4 59 5 39 5 38 4 60 4 61 5 39 5 60 4 40 4 39 5 61 5 42 0 62 0 41 0 63 10 62 11 42 11 44 10 63 10 42 11 64 12 63 13 44 13 46 12 64 12 44 13 65 12 64 12 46 12 48 12 65 12 46 12 66 14 65 15 48 15 50 14 66 14 48 15 67 16 66 17 50 17 52 16 67 16 50 17 69 8 32 8 68 8 31 9 32 8 69 8 70 9 31 9 69 8 71 7 31 6 70 6 72 7 71 7 70 6 73 5 71 4 72 4 74 5 73 5 72 4 75 4 73 5 74 5 76 4 75 4 74 5 77 5 75 4 76 4 78 0 56 0 0 0 57 1 56 0 78 0 79 1 57 1 78 0 58 2 57 3 79 3 80 2 58 2 79 3 59 2 58 2 80 2 81 2 59 2 80 2 60 4 59 5 81 5 76 4 60 4 81 5 61 5 60 4 76 4 84 0 83 0 82 0 85 18 83 19 84 19 86 18 85 18 84 19 87 20 85 21 86 21 88 20 87 20 86 21 89 22 87 23 88 23 90 22 89 22 88 23 91 24 89 25 90 25 92 24 91 24 90 25 83 0 93 0 82 0 94 18 93 19 83 19 85 18 94 18 83 19 95 20 94 21 85 21 87 20 95 20 85 21 96 22 95 23 87 23 89 22 96 22 87 23 97 24 96 25 89 25 91 24 97 24 89 25 93 0 98 0 82 0 99 18 98 19 93 19 94 18 99 18 93 19 100 20 99 21 94 21 95 20 100 20 94 21 101 22 100 23 95 23 96 22 101 22 95 23 102 24 101 25 96 25 97 24 102 24 96 25 98 0 103 0 82 0 104 18 103 19 98 19 99 18 104 18 98 19 105 20 104 21 99 21 100 20 105 20 99 21 106 22 105 23 100 23 101 22 106 22 100 23 107 24 106 25 101 25 102 24 107 24 101 25 109 0 108 0 41 0 110 10 108 11 109 11 111 10 110 10 109 11 112 12 110 13 111 13 113 12 112 12 111 13 114 12 112 12 113 12 115 12 114 12 113 12 53 14 114 15 115 15 55 14 53 14 115 15 108 0 43 0 41 0 45 10 43 11 108 11 110 10 45 10 108 11 47 12 45 13 110 13 112 12 47 12 110 13 49 12 47 12 112 12 114 12 49 12 112 12 51 14 49 15 114 15 53 14 51 14 114 15 116 0 84 0 82 0 86 18 84 19 116 19 117 18 86 18 116 19 88 20 86 21 117 21 118 20 88 20 117 21 90 22 88 23 118 23 119 22 90 22 118 23 92 24 90 25 119 25 120 0 78 0 0 0 79 1 78 0 120 0 121 1 79 1 120 0 80 2 79 3 121 3 122 2 80 2 121 3 81 2 80 2 122 2 77 2 81 2 122 2 76 4 81 5 77 5 63 10 123 10 62 11 124 12 123 13 63 13 64 12 124 12 63 13 125 12 124 12 64 12 65 12 125 12 64 12 126 14 125 15 65 15 66 14 126 14 65 15 67 16 126 17 66 17 23 2 77 2 21 2 75 4 77 5 23 5 25 4 75 4 23 5 73 5 75 4 25 4 27 5 73 5 25 4 71 4 73 5 27 5 29 4 71 4 27 5 31 6 71 7 29 7 127 0 109 0 41 0 111 10 109 11 127 11 128 10 111 10 127 11 113 12 111 13 128 13 129 12 113 12 128 13 115 12 113 12 129 12 130 12 115 12 129 12 55 14 115 15 130 15 132 8 54 9 131 8 52 9 54 9 132 8 133 8 52 9 132 8 67 9 52 9 133 8 134 8 67 9 133 8 135 9 67 9 134 8 131 8 135 9 134 8 54 9 135 9 131 8 104 18 136 18 103 19 137 20 136 21 104 21 105 20 137 20 104 21 138 22 137 23 105 23 106 22 138 22 105 23 139 24 138 25 106 25 107 24 139 24 106 25 142 8 141 8 140 8 143 9 141 8 142 8 144 9 143 9 142 8 145 26 143 27 144 27 146 26 145 26 144 27 97 28 145 29 146 29 102 28 97 28 146 29 147 0 120 0 0 0 121 1 120 0 147 0 148 1 121 1 147 0 122 2 121 3 148 3 21 2 122 2 148 3 77 2 122 2 21 2 149 0 127 0 41 0 128 10 127 11 149 11 150 10 128 10 149 11 129 12 128 13 150 13 151 12 129 12 150 13 130 12 129 12 151 12 152 0 116 0 82 0 117 18 116 19 152 19 153 18 117 18 152 19 118 20 117 21 153 21 154 20 118 20 153 21 119 22 118 23 154 23 155 8 144 9 142 8 156 9 144 9 155 8 157 8 156 9 155 8 158 9 156 9 157 8 141 8 158 9 157 8 143 9 158 9 141 8 135 16 126 17 67 16 159 17 126 17 135 16 160 17 159 17 135 16 161 15 159 14 160 14 130 15 161 15 160 14 151 12 161 12 130 12 163 26 143 27 162 26 158 27 143 27 163 26 164 26 158 27 163 26 165 26 158 27 164 26 166 28 165 29 164 29 139 28 165 29 166 28 169 30 168 31 167 31 170 31 168 31 169 30 171 30 170 31 169 30 172 31 170 31 171 30 173 31 172 31 171 30 155 31 175 31 174 30 176 8 175 8 155 8 142 8 176 8 155 8 177 8 176 8 142 8 140 8 177 8 142 8 18 8 178 8 19 8 179 8 178 8 18 8 69 8 179 8 18 8 180 8 179 8 69 8 68 8 180 8 69 8 141 8 181 8 140 8 182 8 181 8 141 8 157 8 182 8 141 8 183 8 182 8 157 8 184 8 183 8 157 8 124 12 151 12 123 13 161 12 151 12 124 12 125 12 161 12 124 12 159 14 161 15 125 15 126 14 159 14 125 15 166 24 138 25 139 24 185 25 138 25 166 24 186 24 185 25 166 24 119 25 185 25 186 24 92 24 119 25 186 24 74 5 61 5 76 4 187 4 61 5 74 5 72 4 187 4 74 5 70 6 187 7 72 7 188 0 152 0 82 0 153 18 152 19 188 19 136 18 153 18 188 19 154 20 153 21 136 21 189 0 149 0 41 0 150 10 149 11 189 11 123 10 150 10 189 11 151 12 150 13 123 13 190 0 147 0 0 0 148 1 147 0 190 0 20 1 148 1 190 0 21 2 148 3 20 3 165 26 156 27 158 27 191 26 156 27 165 26 139 28 191 29 165 29 107 28 191 29 139 28 145 26 162 26 143 27 91 28 162 29 145 29 97 28 91 28 145 29 137 20 154 20 136 21 185 22 154 23 137 23 138 22 185 22 137 23 187 4 40 4 61 5 16 6 40 7 187 7 70 6 16 6 187 7 192 29 102 28 146 29 107 28 102 28 192 29 191 29 107 28 192 29 192 26 156 27 191 26 144 27 156 27 192 26 146 26 144 27 192 26 193 30 173 31 171 30 194 31 173 31 193 30 195 31 194 31 193 30 62 0 189 0 41 0 123 10 189 11 62 11 103 0 188 0 82 0 136 18 188 19 103 19 164 29 186 28 166 28 163 29 186 28 164 29 92 28 163 29 162 29 186 28 163 29 92 28 1 0 190 0 0 0 20 1 190 0 1 0 54 16 160 17 135 16 55 17 160 17 54 16 198 30 197 31 196 31 199 30 197 31 198 30 199 30 200 31 197 31 201 30 200 31 199 30 201 30 202 31 200 31 203 30 202 31 201 30 203 30 204 31 202 31 174 30 204 31 203 30 174 30 205 31 204 31 206 30 205 31 174 30 18 8 70 9 69 8 16 9 70 9 18 8 206 30 207 31 205 31 208 30 207 31 206 30 209 8 32 8 33 8 68 8 32 8 209 8 208 30 210 31 207 31 211 30 210 31 208 30 214 31 213 30 212 30 215 31 213 30 214 31 215 31 216 30 213 30 217 31 216 30 215 31 217 31 218 30 216 30 219 31 218 30 217 31 219 31 220 30 218 30 221 31 220 30 219 31 221 31 222 30 220 30 223 31 222 30 221 31 223 31 224 30 222 30 225 31 224 30 223 31 226 8 17 8 19 8 33 8 17 8 226 8 228 31 212 30 227 30 214 31 212 30 228 31 225 31 227 30 224 30 228 31 227 30 225 31 133 8 230 8 229 8 132 8 230 8 133 8 231 8 132 8 131 8 230 8 132 8 231 8 131 8 232 8 231 8 134 8 232 8 131 8 229 8 134 8 133 8 232 8 134 8 229 8 167 31 233 30 169 30 234 31 233 30 167 31 195 31 233 30 234 31 193 30 233 30 195 31 196 31 211 30 198 30 210 31 211 30 196 31 91 28 92 28 162 29 157 8 155 8 184 8 130 15 160 14 55 14 154 23 185 22 119 22</p>
                </polylist>
            </mesh>
        </geometry>
    </library_geometries>
    <library_controllers>
        <controller id="controller0">
            <skin source="#mesh0">
                <bind_shape_matrix>1 0 0 0 0 1 0 0 0 0 1 0 0 0 0 1</bind_shape_matrix>
                <source id="joints0">
                    <Name_array id="JointArr0" count="6">jointnode-1 jointnode0 jointnode1 jointnode2 jointnode3 jointnode4</Name_array>
                    <technique_common>
                        <accessor source="#JointArr0" count="6">
                            <param name="JOINT" type="Name" />
                        </accessor>
                    </technique_common>
                </source>
                <source id="matrices0">
                    <float_array id="MatArr0" count="96">1 0 0 0 0 1 0 0 0 0 1 0 0 0 0 1 1 0 0 0 0 1 0 0 0 0 1 0 0 0 0 1 1.2499999813735487 0 0 4.99999754130844 0 1.2499999813735487 0 -57.499999143183246 0 0 1.2499999813735487 0 0 0 0 1 1 0 0 0 0 1 0 0 0 0 1 0 0 0 0 1 0.00004793836256566929 0.9999999988509566 0 0 -0.9999999988509566 0.00004793836256566929 0 0 0 0 1 0 0 0 0 1 -0.18704979565454108 0.9823504333717139 0 -24.55853663455072 -0.9823504333717139 -0.18704979565454108 0 4.677422192771357 0 0 1 0 0 0 0 1</float_array>
                    <technique_common>
                        <accessor source="#MatArr0" count="6" stride="16">
                            <param type="float4x4" />
                        </accessor>
                    </technique_common>
                </source>
                <source id="weights0">
                    <float_array id="WeightArr0" count="1">1</float_array>
                    <technique_common>
                        <accessor source="#WeightArr0" count="1">
                            <param type="float" />
                        </accessor>
                    </technique_common>
                </source>
                <joints>
                    <input semantic="JOINT" source="#joints0" />
                    <input semantic="INV_BIND_MATRIX" source="#matrices0" />
                </joints>
                <vertex_weights count="4">
                    <input semantic="JOINT" offset="0" source="#joints0" />
                    <input semantic="WEIGHT" offset="1" source="#weights0" />
                    <vcount>1 1 1 1</vcount>
                    <v>2 0 2 0 2 0 2 0</v>
                </vertex_weights>
            </skin>
        </controller>
        <controller id="controller1">
            <skin source="#mesh1">
                <bind_shape_matrix>1 0 0 0 0 1 0 0 0 0 1 0 0 0 0 1</bind_shape_matrix>
                <source id="joints1">
                    <Name_array id="JointArr1" count="6">jointnode-1 jointnode0 jointnode1 jointnode2 jointnode3 jointnode4</Name_array>
                    <technique_common>
                        <accessor source="#JointArr1" count="6">
                            <param name="JOINT" type="Name" />
                        </accessor>
                    </technique_common>
                </source>
                <source id="matrices1">
                    <float_array id="MatArr1" count="96">1 0 0 0 0 1 0 0 0 0 1 0 0 0 0 1 1 0 0 0 0 1 0 0 0 0 1 0 0 0 0 1 1.2499999813735487 0 0 4.99999754130844 0 1.2499999813735487 0 -57.499999143183246 0 0 1.2499999813735487 0 0 0 0 1 1 0 0 0 0 1 0 0 0 0 1 0 0 0 0 1 0.00004793836256566929 0.9999999988509566 0 0 -0.9999999988509566 0.00004793836256566929 0 0 0 0 1 0 0 0 0 1 -0.18704979565454108 0.9823504333717139 0 -24.55853663455072 -0.9823504333717139 -0.18704979565454108 0 4.677422192771357 0 0 1 0 0 0 0 1</float_array>
                    <technique_common>
                        <accessor source="#MatArr1" count="6" stride="16">
                            <param type="float4x4" />
                        </accessor>
                    </technique_common>
                </source>
                <source id="weights1">
                    <float_array id="WeightArr1" count="1">1</float_array>
                    <technique_common>
                        <accessor source="#WeightArr1" count="1">
                            <param type="float" />
                        </accessor>
                    </technique_common>
                </source>
                <joints>
                    <input semantic="JOINT" source="#joints1" />
                    <input semantic="INV_BIND_MATRIX" source="#matrices1" />
                </joints>
                <vertex_weights count="235">
                    <input semantic="JOINT" offset="0" source="#joints1" />
                    <input semantic="WEIGHT" offset="1" source="#weights1" />
                    <vcount>1 1 1 1 1 1 1 1 1 1 1 1 1 1 1 1 1 1 1 1 1 1 1 1 1 1 1 1 1 1 1 1 1 1 1 1 1 1 1 1 1 1 1 1 1 1 1 1 1 1 1 1 1 1 1 1 1 1 1 1 1 1 1 1 1 1 1 1 1 1 1 1 1 1 1 1 1 1 1 1 1 1 1 1 1 1 1 1 1 1 1 1 1 1 1 1 1 1 1 1 1 1 1 1 1 1 1 1 1 1 1 1 1 1 1 1 1 1 1 1 1 1 1 1 1 1 1 1 1 1 1 1 1 1 1 1 1 1 1 1 1 1 1 1 1 1 1 1 1 1 1 1 1 1 1 1 1 1 1 1 1 1 1 1 1 1 1 1 1 1 1 1 1 1 1 1 1 1 1 1 1 1 1 1 1 1 1 1 1 1 1 1 1 1 1 1 1 1 1 1 1 1 1 1 1 1 1 1 1 1 1 1 1 1 1 1 1 1 1 1 1 1 1 1 1 1 1 1 1 1 1 1 1 1 1</vcount>
                    <v>5 0 5 0 5 0 5 0 5 0 5 0 5 0 5 0 5 0 5 0 5 0 5 0 5 0 5 0 5 0 5 0 5 0 4 0 4 0 3 0 5 0 5 0 5 0 5 0 5 0 5 0 5 0 5 0 5 0 5 0 5 0 5 0 4 0 3 0 5 0 5 0 5 0 5 0 5 0 5 0 5 0 4 0 4 0 4 0 4 0 4 0 4 0 4 0 4 0 4 0 4 0 4 0 4 0 4 0 4 0 4 0 5 0 5 0 5 0 5 0 5 0 5 0 4 0 4 0 4 0 4 0 4 0 4 0 3 0 4 0 5 0 5 0 5 0 5 0 5 0 5 0 5 0 5 0 5 0 5 0 5 0 5 0 5 0 5 0 5 0 5 0 5 0 5 0 5 0 5 0 5 0 5 0 5 0 5 0 5 0 5 0 5 0 5 0 5 0 5 0 5 0 5 0 5 0 5 0 5 0 5 0 5 0 5 0 4 0 4 0 4 0 4 0 4 0 4 0 4 0 4 0 5 0 5 0 5 0 5 0 5 0 5 0 5 0 4 0 4 0 4 0 4 0 4 0 4 0 4 0 4 0 4 0 4 0 4 0 4 0 4 0 5 0 5 0 5 0 5 0 3 0 4 0 4 0 4 0 4 0 5 0 5 0 5 0 5 0 4 0 4 0 4 0 5 0 5 0 5 0 4 0 4 0 4 0 4 0 4 0 4 0 4 0 5 0 5 0 5 0 5 0 5 0 3 0 3 0 3 0 3 0 3 0 3 0 3 0 3 0 3 0 3 0 3 0 3 0 3 0 3 0 3 0 3 0 3 0 3 0 5 0 5 0 5 0 5 0 4 0 5 0 5 0 5 0 3 0 3 0 3 0 3 0 3 0 3 0 3 0 3 0 3 0 3 0 3 0 3 0 3 0 3 0 3 0 3 0 3 0 3 0 3 0 3 0 3 0 3 0 3 0 3 0 3 0 3 0 3 0 3 0 3 0 3 0 3 0 3 0 3 0 3 0 3 0 3 0 3 0 3 0 3 0 3 0 3 0 3 0</v>
                </vertex_weights>
            </skin>
        </controller>
        <controller id="controller1_VC">
            <skin source="#mesh1_VC">
                <bind_shape_matrix>1 0 0 0 0 1 0 0 0 0 1 0 0 0 0 1</bind_shape_matrix>
                <source id="joints1_VC">
                    <Name_array id="JointArr1_VC" count="6">jointnode-1 jointnode0 jointnode1 jointnode2 jointnode3 jointnode4</Name_array>
                    <technique_common>
                        <accessor source="#JointArr1_VC" count="6">
                            <param name="JOINT" type="Name" />
                        </accessor>
                    </technique_common>
                </source>
                <source id="matrices1_VC">
                    <float_array id="MatArr1_VC" count="96">1 0 0 0 0 1 0 0 0 0 1 0 0 0 0 1 1 0 0 0 0 1 0 0 0 0 1 0 0 0 0 1 1.2499999813735487 0 0 4.99999754130844 0 1.2499999813735487 0 -57.499999143183246 0 0 1.2499999813735487 0 0 0 0 1 1 0 0 0 0 1 0 0 0 0 1 0 0 0 0 1 0.00004793836256566929 0.9999999988509566 0 0 -0.9999999988509566 0.00004793836256566929 0 0 0 0 1 0 0 0 0 1 -0.18704979565454108 0.9823504333717139 0 -24.55853663455072 -0.9823504333717139 -0.18704979565454108 0 4.677422192771357 0 0 1 0 0 0 0 1</float_array>
                    <technique_common>
                        <accessor source="#MatArr1_VC" count="6" stride="16">
                            <param type="float4x4" />
                        </accessor>
                    </technique_common>
                </source>
                <source id="weights1_VC">
                    <float_array id="WeightArr1_VC" count="1">1</float_array>
                    <technique_common>
                        <accessor source="#WeightArr1_VC" count="1">
                            <param type="float" />
                        </accessor>
                    </technique_common>
                </source>
                <joints>
                    <input semantic="JOINT" source="#joints1_VC" />
                    <input semantic="INV_BIND_MATRIX" source="#matrices1_VC" />
                </joints>
                <vertex_weights count="235">
                    <input semantic="JOINT" offset="0" source="#joints1_VC" />
                    <input semantic="WEIGHT" offset="1" source="#weights1_VC" />
                    <vcount>1 1 1 1 1 1 1 1 1 1 1 1 1 1 1 1 1 1 1 1 1 1 1 1 1 1 1 1 1 1 1 1 1 1 1 1 1 1 1 1 1 1 1 1 1 1 1 1 1 1 1 1 1 1 1 1 1 1 1 1 1 1 1 1 1 1 1 1 1 1 1 1 1 1 1 1 1 1 1 1 1 1 1 1 1 1 1 1 1 1 1 1 1 1 1 1 1 1 1 1 1 1 1 1 1 1 1 1 1 1 1 1 1 1 1 1 1 1 1 1 1 1 1 1 1 1 1 1 1 1 1 1 1 1 1 1 1 1 1 1 1 1 1 1 1 1 1 1 1 1 1 1 1 1 1 1 1 1 1 1 1 1 1 1 1 1 1 1 1 1 1 1 1 1 1 1 1 1 1 1 1 1 1 1 1 1 1 1 1 1 1 1 1 1 1 1 1 1 1 1 1 1 1 1 1 1 1 1 1 1 1 1 1 1 1 1 1 1 1 1 1 1 1 1 1 1 1 1 1 1 1 1 1 1 1</vcount>
                    <v>5 0 5 0 5 0 5 0 5 0 5 0 5 0 5 0 5 0 5 0 5 0 5 0 5 0 5 0 5 0 5 0 5 0 4 0 4 0 3 0 5 0 5 0 5 0 5 0 5 0 5 0 5 0 5 0 5 0 5 0 5 0 5 0 4 0 3 0 5 0 5 0 5 0 5 0 5 0 5 0 5 0 4 0 4 0 4 0 4 0 4 0 4 0 4 0 4 0 4 0 4 0 4 0 4 0 4 0 4 0 4 0 5 0 5 0 5 0 5 0 5 0 5 0 4 0 4 0 4 0 4 0 4 0 4 0 3 0 4 0 5 0 5 0 5 0 5 0 5 0 5 0 5 0 5 0 5 0 5 0 5 0 5 0 5 0 5 0 5 0 5 0 5 0 5 0 5 0 5 0 5 0 5 0 5 0 5 0 5 0 5 0 5 0 5 0 5 0 5 0 5 0 5 0 5 0 5 0 5 0 5 0 5 0 5 0 4 0 4 0 4 0 4 0 4 0 4 0 4 0 4 0 5 0 5 0 5 0 5 0 5 0 5 0 5 0 4 0 4 0 4 0 4 0 4 0 4 0 4 0 4 0 4 0 4 0 4 0 4 0 4 0 5 0 5 0 5 0 5 0 3 0 4 0 4 0 4 0 4 0 5 0 5 0 5 0 5 0 4 0 4 0 4 0 5 0 5 0 5 0 4 0 4 0 4 0 4 0 4 0 4 0 4 0 5 0 5 0 5 0 5 0 5 0 3 0 3 0 3 0 3 0 3 0 3 0 3 0 3 0 3 0 3 0 3 0 3 0 3 0 3 0 3 0 3 0 3 0 3 0 5 0 5 0 5 0 5 0 4 0 5 0 5 0 5 0 3 0 3 0 3 0 3 0 3 0 3 0 3 0 3 0 3 0 3 0 3 0 3 0 3 0 3 0 3 0 3 0 3 0 3 0 3 0 3 0 3 0 3 0 3 0 3 0 3 0 3 0 3 0 3 0 3 0 3 0 3 0 3 0 3 0 3 0 3 0 3 0 3 0 3 0 3 0 3 0 3 0 3 0</v>
                </vertex_weights>
            </skin>
        </controller>
    </library_controllers>
    <library_visual_scenes>
        <visual_scene id="VisualSceneNode">
            <node id="node0" name="m0" type="NODE">
                <instance_controller url="#controller0">
                    <skeleton>#jointnode-1</skeleton>
                    <bind_material>
                        <technique_common>
                            <instance_material symbol="Material1" target="#mat0">
                                <bind_vertex_input semantic="UVSET0" input_semantic="TEXCOORD" input_set="0"></bind_vertex_input>
                            </instance_material>
                        </technique_common>
                    </bind_material>
                </instance_controller>
            </node>
            <node id="node1" name="m1" type="NODE">
                <instance_controller url="#controller1">
                    <skeleton>#jointnode-1</skeleton>
                    <bind_material>
                        <technique_common>
                            <instance_material symbol="Material1" target="#mat1">
                                <bind_vertex_input semantic="UVSET0" input_semantic="TEXCOORD" input_set="0"></bind_vertex_input>
                            </instance_material>
                        </technique_common>
                    </bind_material>
                </instance_controller>
            </node>
            <node id="node1_VC" name="m1_VC" type="NODE">
                <instance_controller url="#controller1_VC">
                    <skeleton>#jointnode-1</skeleton>
                    <bind_material>
                        <technique_common>
                            <instance_material symbol="Material1" target="#mat_vc">
                                <bind_vertex_input semantic="UVSET0" input_semantic="TEXCOORD" input_set="0"></bind_vertex_input>
                            </instance_material>
                        </technique_common>
                    </bind_material>
                </instance_controller>
            </node>
            <node id="jointnode-1" name="root" sid="jointnode-1" type="JOINT">
                <node id="jointnode0" name="world_root" sid="jointnode0" type="JOINT">
                    <node id="jointnode1" name="hikari1" sid="jointnode1" type="JOINT">
                        <translate>-3.999998092651367 46 0</translate>
                        <scale>0.800000011920929 0.800000011920929 0.800000011920929</scale>
                    </node>
                    <node id="jointnode2" name="kinoko_light5" sid="jointnode2" type="JOINT">
                        <node id="jointnode3" name="jnt1" sid="jointnode3" type="JOINT">
                            <rotate>0 0 1 89.99725333414716</rotate>
                            <node id="jointnode4" name="jnt5" sid="jointnode4" type="JOINT">
                                <translate>25 0 0</translate>
                                <rotate>0 0 1 10.783410138248847</rotate>
                            </node>
                        </node>
                    </node>
                </node>
            </node>
        </visual_scene>
    </library_visual_scenes>
    <scene>
        <instance_visual_scene url="#VisualSceneNode"></instance_visual_scene>
    </scene>
</COLLADA>
