# Wavefront OBJ file
# Exported by Misfit Model 3D 1.3.8
# Mon Aug 10 10:12:15 2015

mtllib strawhat.mtl

# 98 Vertices
v 0.0 0.0 0.0
v -1.5527 0.0 0.416
v -1.6075 0.0 0.0
v -1.392099 0.0 0.803699
v -1.1366 0.0 1.1366
v -0.803699 0.0 1.392099
v -0.416 0.0 1.5527
v 0.0 0.0 1.6075
v 0.416 0.0 1.5527
v 0.803699 0.0 1.392099
v 1.1366 0.0 1.1366
v 1.392099 0.0 0.803699
v 1.5527 0.0 0.416
v 1.6075 0.0 0.0
v 1.5527 0.0 -0.416
v 1.392099 0.0 -0.803699
v 1.1366 0.0 -1.1366
v 0.803699 0.0 -1.392099
v 0.416 0.0 -1.5527
v 0.0 0.0 -1.6075
v -0.416 0.0 -1.5527
v -0.803699 0.0 -1.392099
v -1.1366 0.0 -1.1366
v -1.392099 0.0 -0.803699
v -1.5527 0.0 -0.416
v -1.6075 0.0 0.0
v -0.1159 0.975 0.031099
v -0.120001 0.975 0.0
v -1.5527 0.0 0.416
v -0.103901 0.975 0.059999
v -1.392099 0.0 0.803699
v -0.0849 0.975 0.0849
v -1.1366 0.0 1.1366
v -0.059999 0.975 0.103901
v -0.803699 0.0 1.392099
v -0.031099 0.975 0.1159
v -0.416 0.0 1.5527
v 0.0 0.975 0.120001
v 0.0 0.0 1.6075
v 0.031099 0.975 0.1159
v 0.416 0.0 1.5527
v 0.059999 0.975 0.103901
v 0.803699 0.0 1.392099
v 0.0849 0.975 0.0849
v 1.1366 0.0 1.1366
v 0.103901 0.975 0.059999
v 1.392099 0.0 0.803699
v 0.1159 0.975 0.031099
v 1.5527 0.0 0.416
v 0.120001 0.975 0.0
v 1.6075 0.0 0.0
v 0.1159 0.975 -0.031099
v 1.5527 0.0 -0.416
v 0.103901 0.975 -0.059999
v 1.392099 0.0 -0.803699
v 0.0849 0.975 -0.0849
v 1.1366 0.0 -1.1366
v 0.059999 0.975 -0.103901
v 0.803699 0.0 -1.392099
v 0.031099 0.975 -0.1159
v 0.416 0.0 -1.5527
v 0.0 0.975 -0.120001
v 0.0 0.0 -1.6075
v -0.031099 0.975 -0.1159
v -0.416 0.0 -1.5527
v -0.059999 0.975 -0.103901
v -0.803699 0.0 -1.392099
v -0.0849 0.975 -0.0849
v -1.1366 0.0 -1.1366
v -0.103901 0.975 -0.059999
v -1.392099 0.0 -0.803699
v -0.1159 0.975 -0.031099
v -1.5527 0.0 -0.416
v 0.0 0.975 0.0
v -0.120001 0.975 0.0
v -0.1159 0.975 0.031099
v -0.103901 0.975 0.059999
v -0.0849 0.975 0.0849
v -0.059999 0.975 0.103901
v -0.031099 0.975 0.1159
v 0.0 0.975 0.120001
v 0.031099 0.975 0.1159
v 0.059999 0.975 0.103901
v 0.0849 0.975 0.0849
v 0.103901 0.975 0.059999
v 0.1159 0.975 0.031099
v 0.120001 0.975 0.0
v 0.1159 0.975 -0.031099
v 0.103901 0.975 -0.059999
v 0.0849 0.975 -0.0849
v 0.059999 0.975 -0.103901
v 0.031099 0.975 -0.1159
v 0.0 0.975 -0.120001
v -0.031099 0.975 -0.1159
v -0.059999 0.975 -0.103901
v -0.0849 0.975 -0.0849
v -0.103901 0.975 -0.059999
v -0.1159 0.975 -0.031099

# 288 Texture Coordinates
vt 0.064045 0.935955
vt 0.125909 0.952531
vt 0.128091 0.935955
vt 0.064045 0.935955
vt 0.119511 0.967977
vt 0.125909 0.952531
vt 0.064045 0.935955
vt 0.109333 0.981242
vt 0.119511 0.967977
vt 0.064045 0.935955
vt 0.096068 0.99142
vt 0.109333 0.981242
vt 0.064045 0.935955
vt 0.080622 0.997818
vt 0.096068 0.99142
vt 0.064045 0.935955
vt 0.064045 1.0
vt 0.080622 0.997818
vt 0.064045 0.935955
vt 0.047469 0.997818
vt 0.064045 1.0
vt 0.064045 0.935955
vt 0.032023 0.99142
vt 0.047469 0.997818
vt 0.064045 0.935955
vt 0.018758 0.981241
vt 0.032023 0.99142
vt 0.064045 0.935955
vt 0.00858 0.967977
vt 0.018758 0.981241
vt 0.064045 0.935955
vt 0.002182 0.952531
vt 0.00858 0.967977
vt 0.064045 0.935955
vt 0.0 0.935955
vt 0.002182 0.952531
vt 0.064045 0.935955
vt 0.002182 0.919378
vt 0.0 0.935955
vt 0.064045 0.935955
vt 0.00858 0.903932
vt 0.002182 0.919378
vt 0.064045 0.935955
vt 0.018758 0.890668
vt 0.00858 0.903932
vt 0.064045 0.935955
vt 0.032023 0.88049
vt 0.018758 0.890668
vt 0.064045 0.935955
vt 0.047469 0.874091
vt 0.032023 0.88049
vt 0.064045 0.935955
vt 0.064045 0.871909
vt 0.047469 0.874091
vt 0.064045 0.935955
vt 0.080622 0.874091
vt 0.064045 0.871909
vt 0.064045 0.935955
vt 0.096068 0.880489
vt 0.080622 0.874091
vt 0.064045 0.935955
vt 0.109332 0.890667
vt 0.096068 0.880489
vt 0.064045 0.935955
vt 0.119511 0.903932
vt 0.109332 0.890667
vt 0.064045 0.935955
vt 0.125909 0.919378
vt 0.119511 0.903932
vt 0.064045 0.935955
vt 0.128091 0.935955
vt 0.125909 0.919378
vt 0.162689 0.754765
vt 0.393986 0.438217
vt 0.399823 0.444023
vt 0.162689 0.754765
vt 0.084506 0.676996
vt 0.393986 0.438217
vt 0.084506 0.676996
vt 0.389851 0.431099
vt 0.393986 0.438217
vt 0.084506 0.676996
vt 0.029116 0.581642
vt 0.389851 0.431099
vt 0.029116 0.581642
vt 0.3877 0.423153
vt 0.389851 0.431099
vt 0.029116 0.581642
vt 0.000292 0.475201
vt 0.3877 0.423153
vt 0.000292 0.475201
vt 0.387678 0.41492
vt 0.3877 0.423153
vt 0.000292 0.475201
vt 0.0 0.364927
vt 0.387678 0.41492
vt 0.0 0.364927
vt 0.389787 0.406963
vt 0.387678 0.41492
vt 0.0 0.364927
vt 0.028259 0.258335
vt 0.389787 0.406963
vt 0.028259 0.258335
vt 0.393885 0.399823
vt 0.389787 0.406963
vt 0.028259 0.258335
vt 0.083142 0.162688
vt 0.393885 0.399823
vt 0.083142 0.162688
vt 0.39969 0.393986
vt 0.393885 0.399823
vt 0.083142 0.162688
vt 0.160911 0.084506
vt 0.39969 0.393986
vt 0.160911 0.084506
vt 0.406809 0.389851
vt 0.39969 0.393986
vt 0.160911 0.084506
vt 0.256265 0.029116
vt 0.406809 0.389851
vt 0.256265 0.029116
vt 0.414755 0.3877
vt 0.406809 0.389851
vt 0.256265 0.029116
vt 0.362706 0.000292
vt 0.414755 0.3877
vt 0.362706 0.000292
vt 0.422987 0.387678
vt 0.414755 0.3877
vt 0.362706 0.000292
vt 0.47298 0.0
vt 0.422987 0.387678
vt 0.47298 0.0
vt 0.430944 0.389787
vt 0.422987 0.387678
vt 0.47298 0.0
vt 0.579572 0.028259
vt 0.430944 0.389787
vt 0.579572 0.028259
vt 0.438084 0.393885
vt 0.430944 0.389787
vt 0.579572 0.028259
vt 0.675219 0.083142
vt 0.438084 0.393885
vt 0.675219 0.083142
vt 0.443921 0.39969
vt 0.438084 0.393885
vt 0.675219 0.083142
vt 0.753401 0.160911
vt 0.443921 0.39969
vt 0.753401 0.160911
vt 0.448056 0.406809
vt 0.443921 0.39969
vt 0.753401 0.160911
vt 0.808791 0.256265
vt 0.448056 0.406809
vt 0.808791 0.256265
vt 0.450208 0.414755
vt 0.448056 0.406809
vt 0.808791 0.256265
vt 0.837615 0.362706
vt 0.450208 0.414755
vt 0.837615 0.362706
vt 0.450229 0.422987
vt 0.450208 0.414755
vt 0.837615 0.362706
vt 0.837907 0.47298
vt 0.450229 0.422987
vt 0.837907 0.47298
vt 0.44812 0.430944
vt 0.450229 0.422987
vt 0.837907 0.47298
vt 0.809649 0.579572
vt 0.44812 0.430944
vt 0.809649 0.579572
vt 0.444023 0.438084
vt 0.44812 0.430944
vt 0.809649 0.579572
vt 0.754765 0.675219
vt 0.444023 0.438084
vt 0.754765 0.675219
vt 0.438217 0.443921
vt 0.444023 0.438084
vt 0.754765 0.675219
vt 0.676996 0.753401
vt 0.438217 0.443921
vt 0.676996 0.753401
vt 0.431099 0.448056
vt 0.438217 0.443921
vt 0.676996 0.753401
vt 0.581642 0.808791
vt 0.431099 0.448056
vt 0.581642 0.808791
vt 0.423153 0.450208
vt 0.431099 0.448056
vt 0.581642 0.808791
vt 0.475202 0.837615
vt 0.423153 0.450208
vt 0.475202 0.837615
vt 0.414921 0.450229
vt 0.423153 0.450208
vt 0.475202 0.837615
vt 0.364927 0.837907
vt 0.414921 0.450229
vt 0.364927 0.837907
vt 0.406963 0.44812
vt 0.414921 0.450229
vt 0.364927 0.837907
vt 0.258335 0.809649
vt 0.406963 0.44812
vt 0.258335 0.809649
vt 0.399823 0.444023
vt 0.406963 0.44812
vt 0.258335 0.809649
vt 0.162689 0.754765
vt 0.399823 0.444023
vt 0.903823 0.031914
vt 0.871909 0.031914
vt 0.872997 0.023654
vt 0.903823 0.031914
vt 0.872997 0.023654
vt 0.876185 0.015957
vt 0.903823 0.031914
vt 0.876185 0.015957
vt 0.881257 0.009347
vt 0.903823 0.031914
vt 0.881257 0.009347
vt 0.887866 0.004276
vt 0.903823 0.031914
vt 0.887866 0.004276
vt 0.895563 0.001087
vt 0.903823 0.031914
vt 0.895563 0.001087
vt 0.903823 0.0
vt 0.903823 0.031914
vt 0.903823 0.0
vt 0.912083 0.001087
vt 0.903823 0.031914
vt 0.912083 0.001087
vt 0.91978 0.004276
vt 0.903823 0.031914
vt 0.91978 0.004276
vt 0.92639 0.009347
vt 0.903823 0.031914
vt 0.92639 0.009347
vt 0.931462 0.015957
vt 0.903823 0.031914
vt 0.931462 0.015957
vt 0.93465 0.023654
vt 0.903823 0.031914
vt 0.93465 0.023654
vt 0.935737 0.031914
vt 0.903823 0.031914
vt 0.935737 0.031914
vt 0.93465 0.040174
vt 0.903823 0.031914
vt 0.93465 0.040174
vt 0.931462 0.047871
vt 0.903823 0.031914
vt 0.931462 0.047871
vt 0.92639 0.054481
vt 0.903823 0.031914
vt 0.92639 0.054481
vt 0.91978 0.059552
vt 0.903823 0.031914
vt 0.91978 0.059552
vt 0.912083 0.06274
vt 0.903823 0.031914
vt 0.912083 0.06274
vt 0.903823 0.063828
vt 0.903823 0.031914
vt 0.903823 0.063828
vt 0.895563 0.06274
vt 0.903823 0.031914
vt 0.895563 0.06274
vt 0.887866 0.059552
vt 0.903823 0.031914
vt 0.887866 0.059552
vt 0.881257 0.054481
vt 0.903823 0.031914
vt 0.881257 0.054481
vt 0.876185 0.047871
vt 0.903823 0.031914
vt 0.876185 0.047871
vt 0.872997 0.040174
vt 0.903823 0.031914
vt 0.872997 0.040174
vt 0.871909 0.031914

# 288 Vertex Normals
vn 0.0 -1.0 0.0
vn 0.0 -1.0 0.0
vn 0.0 -1.0 0.0
vn 0.0 -1.0 0.0
vn 0.0 -1.0 0.0
vn 0.0 -1.0 0.0
vn 0.0 -1.0 0.0
vn 0.0 -1.0 0.0
vn 0.0 -1.0 0.0
vn 0.0 -1.0 0.0
vn 0.0 -1.0 0.0
vn 0.0 -1.0 0.0
vn 0.0 -1.0 0.0
vn 0.0 -1.0 0.0
vn 0.0 -1.0 0.0
vn 0.0 -1.0 0.0
vn 0.0 -1.0 0.0
vn 0.0 -1.0 0.0
vn 0.0 -1.0 0.0
vn 0.0 -1.0 0.0
vn 0.0 -1.0 0.0
vn 0.0 -1.0 0.0
vn 0.0 -1.0 0.0
vn 0.0 -1.0 0.0
vn 0.0 -1.0 0.0
vn 0.0 -1.0 0.0
vn 0.0 -1.0 0.0
vn 0.0 -1.0 0.0
vn 0.0 -1.0 0.0
vn 0.0 -1.0 0.0
vn 0.0 -1.0 0.0
vn 0.0 -1.0 0.0
vn 0.0 -1.0 0.0
vn 0.0 -1.0 0.0
vn 0.0 -1.0 0.0
vn 0.0 -1.0 0.0
vn 0.0 -1.0 0.0
vn 0.0 -1.0 0.0
vn 0.0 -1.0 0.0
vn 0.0 -1.0 0.0
vn 0.0 -1.0 0.0
vn 0.0 -1.0 0.0
vn 0.0 -1.0 0.0
vn 0.0 -1.0 0.0
vn 0.0 -1.0 0.0
vn 0.0 -1.0 0.0
vn 0.0 -1.0 0.0
vn 0.0 -1.0 0.0
vn 0.0 -1.0 0.0
vn 0.0 -1.0 0.0
vn 0.0 -1.0 0.0
vn 0.0 -1.0 0.0
vn 0.0 -1.0 0.0
vn 0.0 -1.0 0.0
vn 0.0 -1.0 0.0
vn 0.0 -1.0 0.0
vn 0.0 -1.0 0.0
vn 0.0 -1.0 0.0
vn 0.0 -1.0 0.0
vn 0.0 -1.0 0.0
vn 0.0 -1.0 0.0
vn 0.0 -1.0 0.0
vn 0.0 -1.0 0.0
vn 0.0 -1.0 0.0
vn 0.0 -1.0 0.0
vn 0.0 -1.0 0.0
vn 0.0 -1.0 0.0
vn 0.0 -1.0 0.0
vn 0.0 -1.0 0.0
vn 0.0 -1.0 0.0
vn 0.0 -1.0 0.0
vn 0.0 -1.0 0.0
vn -0.548037 0.836107 0.02409
vn -0.53555 0.836103 0.118816
vn -0.548032 0.836111 -0.024064
vn -0.548037 0.836107 0.02409
vn -0.5231 0.836099 0.165242
vn -0.53555 0.836103 0.118816
vn -0.5231 0.836099 0.165242
vn -0.48684 0.836076 0.252912
vn -0.53555 0.836103 0.118816
vn -0.5231 0.836099 0.165242
vn -0.462846 0.836106 0.294449
vn -0.48684 0.836076 0.252912
vn -0.462846 0.836106 0.294449
vn -0.404466 0.836146 0.370495
vn -0.48684 0.836076 0.252912
vn -0.462846 0.836106 0.294449
vn -0.370183 0.836074 0.404901
vn -0.404466 0.836146 0.370495
vn -0.370183 0.836074 0.404901
vn -0.294635 0.836041 0.462845
vn -0.404466 0.836146 0.370495
vn -0.370183 0.836074 0.404901
vn -0.253351 0.836104 0.486563
vn -0.294635 0.836041 0.462845
vn -0.253351 0.836104 0.486563
vn -0.165256 0.836116 0.523068
vn -0.294635 0.836041 0.462845
vn -0.253351 0.836104 0.486563
vn -0.11867 0.836103 0.535583
vn -0.165256 0.836116 0.523068
vn -0.11867 0.836103 0.535583
vn -0.024064 0.836111 0.548032
vn -0.165256 0.836116 0.523068
vn -0.11867 0.836103 0.535583
vn 0.024089 0.836107 0.548037
vn -0.024064 0.836111 0.548032
vn 0.024089 0.836107 0.548037
vn 0.118815 0.836103 0.53555
vn -0.024064 0.836111 0.548032
vn 0.024089 0.836107 0.548037
vn 0.165242 0.836099 0.5231
vn 0.118815 0.836103 0.53555
vn 0.165242 0.836099 0.5231
vn 0.252912 0.836076 0.48684
vn 0.118815 0.836103 0.53555
vn 0.165242 0.836099 0.5231
vn 0.294449 0.836106 0.462846
vn 0.252912 0.836076 0.48684
vn 0.294449 0.836106 0.462846
vn 0.370495 0.836146 0.404466
vn 0.252912 0.836076 0.48684
vn 0.294449 0.836106 0.462846
vn 0.404901 0.836074 0.370183
vn 0.370495 0.836146 0.404466
vn 0.404901 0.836074 0.370183
vn 0.462845 0.836041 0.294635
vn 0.370495 0.836146 0.404466
vn 0.404901 0.836074 0.370183
vn 0.486563 0.836104 0.253351
vn 0.462845 0.836041 0.294635
vn 0.486563 0.836104 0.253351
vn 0.523068 0.836116 0.165256
vn 0.462845 0.836041 0.294635
vn 0.486563 0.836104 0.253351
vn 0.535583 0.836103 0.11867
vn 0.523068 0.836116 0.165256
vn 0.535583 0.836103 0.11867
vn 0.548032 0.836111 0.024064
vn 0.523068 0.836116 0.165256
vn 0.535583 0.836103 0.11867
vn 0.548037 0.836107 -0.02409
vn 0.548032 0.836111 0.024064
vn 0.548037 0.836107 -0.02409
vn 0.53555 0.836103 -0.118816
vn 0.548032 0.836111 0.024064
vn 0.548037 0.836107 -0.02409
vn 0.5231 0.836099 -0.165242
vn 0.53555 0.836103 -0.118816
vn 0.5231 0.836099 -0.165242
vn 0.48684 0.836076 -0.252912
vn 0.53555 0.836103 -0.118816
vn 0.5231 0.836099 -0.165242
vn 0.462846 0.836106 -0.294449
vn 0.48684 0.836076 -0.252912
vn 0.462846 0.836106 -0.294449
vn 0.404466 0.836146 -0.370495
vn 0.48684 0.836076 -0.252912
vn 0.462846 0.836106 -0.294449
vn 0.370183 0.836074 -0.404901
vn 0.404466 0.836146 -0.370495
vn 0.370183 0.836074 -0.404901
vn 0.294635 0.836041 -0.462845
vn 0.404466 0.836146 -0.370495
vn 0.370183 0.836074 -0.404901
vn 0.253351 0.836104 -0.486563
vn 0.294635 0.836041 -0.462845
vn 0.253351 0.836104 -0.486563
vn 0.165256 0.836116 -0.523068
vn 0.294635 0.836041 -0.462845
vn 0.253351 0.836104 -0.486563
vn 0.11867 0.836103 -0.535583
vn 0.165256 0.836116 -0.523068
vn 0.11867 0.836103 -0.535583
vn 0.024064 0.836111 -0.548032
vn 0.165256 0.836116 -0.523068
vn 0.11867 0.836103 -0.535583
vn -0.024089 0.836107 -0.548037
vn 0.024064 0.836111 -0.548032
vn -0.024089 0.836107 -0.548037
vn -0.118815 0.836103 -0.53555
vn 0.024064 0.836111 -0.548032
vn -0.024089 0.836107 -0.548037
vn -0.165242 0.836099 -0.5231
vn -0.118815 0.836103 -0.53555
vn -0.165242 0.836099 -0.5231
vn -0.252912 0.836076 -0.48684
vn -0.118815 0.836103 -0.53555
vn -0.165242 0.836099 -0.5231
vn -0.294449 0.836106 -0.462846
vn -0.252912 0.836076 -0.48684
vn -0.294449 0.836106 -0.462846
vn -0.370495 0.836146 -0.404466
vn -0.252912 0.836076 -0.48684
vn -0.294449 0.836106 -0.462846
vn -0.404901 0.836074 -0.370183
vn -0.370495 0.836146 -0.404466
vn -0.404901 0.836074 -0.370183
vn -0.462845 0.836041 -0.294635
vn -0.370495 0.836146 -0.404466
vn -0.404901 0.836074 -0.370183
vn -0.486563 0.836104 -0.253351
vn -0.462845 0.836041 -0.294635
vn -0.486563 0.836104 -0.253351
vn -0.523068 0.836116 -0.165256
vn -0.462845 0.836041 -0.294635
vn -0.486563 0.836104 -0.253351
vn -0.535583 0.836103 -0.11867
vn -0.523068 0.836116 -0.165256
vn -0.535583 0.836103 -0.11867
vn -0.548032 0.836111 -0.024064
vn -0.523068 0.836116 -0.165256
vn -0.535583 0.836103 -0.11867
vn -0.548037 0.836107 0.02409
vn -0.548032 0.836111 -0.024064
vn -0.0 1.0 0.0
vn -0.0 1.0 0.0
vn 0.0 1.0 0.0
vn -0.0 1.0 0.0
vn 0.0 1.0 0.0
vn 0.0 1.0 0.0
vn -0.0 1.0 0.0
vn 0.0 1.0 0.0
vn -0.0 1.0 0.0
vn -0.0 1.0 0.0
vn -0.0 1.0 0.0
vn -0.000001 1.0 0.0
vn -0.0 1.0 0.0
vn -0.000001 1.0 0.0
vn 0.0 1.0 0.0
vn -0.0 1.0 0.0
vn 0.0 1.0 0.0
vn 0.000001 1.0 0.0
vn -0.0 1.0 0.0
vn 0.000001 1.0 0.0
vn 0.000001 1.0 0.0
vn -0.0 1.0 0.0
vn 0.000001 1.0 0.0
vn 0.0 1.0 0.0
vn -0.0 1.0 0.0
vn 0.0 1.0 0.0
vn -0.000001 1.0 0.0
vn -0.0 1.0 0.0
vn -0.000001 1.0 0.0
vn -0.0 1.0 0.0
vn -0.0 1.0 0.0
vn -0.0 1.0 0.0
vn 0.0 1.0 0.0
vn -0.0 1.0 0.0
vn 0.0 1.0 0.0
vn 0.0 1.0 0.0
vn -0.0 1.0 0.0
vn 0.0 1.0 0.0
vn -0.0 1.0 0.0
vn -0.0 1.0 0.0
vn -0.0 1.0 0.0
vn -0.0 1.0 0.0
vn -0.0 1.0 0.0
vn -0.0 1.0 0.0
vn 0.0 1.0 0.0
vn -0.0 1.0 0.0
vn 0.0 1.0 0.0
vn 0.000001 1.0 0.0
vn -0.0 1.0 0.0
vn 0.000001 1.0 0.0
vn -0.0 1.0 0.0
vn -0.0 1.0 0.0
vn -0.0 1.0 0.0
vn -0.000001 1.0 0.0
vn -0.0 1.0 0.0
vn -0.000001 1.0 0.0
vn -0.000001 1.0 0.0
vn -0.0 1.0 0.0
vn -0.000001 1.0 0.0
vn -0.0 1.0 0.0
vn -0.0 1.0 0.0
vn -0.0 1.0 0.0
vn 0.000001 1.0 0.0
vn -0.0 1.0 0.0
vn 0.000001 1.0 0.0
vn 0.0 1.0 0.0
vn -0.0 1.0 0.0
vn 0.0 1.0 0.0
vn -0.0 1.0 0.0
vn -0.0 1.0 0.0
vn -0.0 1.0 0.0
vn -0.0 1.0 0.0

# Handle32, 96 grouped triangles

usemtl Handle3Mtl
o Handle32
g Handle32

f 1/1/1 2/2/2 3/3/3
f 1/4/4 4/5/5 2/6/6
f 1/7/7 5/8/8 4/9/9
f 1/10/10 6/11/11 5/12/12
f 1/13/13 7/14/14 6/15/15
f 1/16/16 8/17/17 7/18/18
f 1/19/19 9/20/20 8/21/21
f 1/22/22 10/23/23 9/24/24
f 1/25/25 11/26/26 10/27/27
f 1/28/28 12/29/29 11/30/30
f 1/31/31 13/32/32 12/33/33
f 1/34/34 14/35/35 13/36/36
f 1/37/37 15/38/38 14/39/39
f 1/40/40 16/41/41 15/42/42
f 1/43/43 17/44/44 16/45/45
f 1/46/46 18/47/47 17/48/48
f 1/49/49 19/50/50 18/51/51
f 1/52/52 20/53/53 19/54/54
f 1/55/55 21/56/56 20/57/57
f 1/58/58 22/59/59 21/60/60
f 1/61/61 23/62/62 22/63/63
f 1/64/64 24/65/65 23/66/66
f 1/67/67 25/68/68 24/69/69
f 1/70/70 3/71/71 25/72/72
f 26/73/73 27/74/74 28/75/75
f 26/76/76 29/77/77 27/78/78
f 29/79/79 30/80/80 27/81/81
f 29/82/82 31/83/83 30/84/84
f 31/85/85 32/86/86 30/87/87
f 31/88/88 33/89/89 32/90/90
f 33/91/91 34/92/92 32/93/93
f 33/94/94 35/95/95 34/96/96
f 35/97/97 36/98/98 34/99/99
f 35/100/100 37/101/101 36/102/102
f 37/103/103 38/104/104 36/105/105
f 37/106/106 39/107/107 38/108/108
f 39/109/109 40/110/110 38/111/111
f 39/112/112 41/113/113 40/114/114
f 41/115/115 42/116/116 40/117/117
f 41/118/118 43/119/119 42/120/120
f 43/121/121 44/122/122 42/123/123
f 43/124/124 45/125/125 44/126/126
f 45/127/127 46/128/128 44/129/129
f 45/130/130 47/131/131 46/132/132
f 47/133/133 48/134/134 46/135/135
f 47/136/136 49/137/137 48/138/138
f 49/139/139 50/140/140 48/141/141
f 49/142/142 51/143/143 50/144/144
f 51/145/145 52/146/146 50/147/147
f 51/148/148 53/149/149 52/150/150
f 53/151/151 54/152/152 52/153/153
f 53/154/154 55/155/155 54/156/156
f 55/157/157 56/158/158 54/159/159
f 55/160/160 57/161/161 56/162/162
f 57/163/163 58/164/164 56/165/165
f 57/166/166 59/167/167 58/168/168
f 59/169/169 60/170/170 58/171/171
f 59/172/172 61/173/173 60/174/174
f 61/175/175 62/176/176 60/177/177
f 61/178/178 63/179/179 62/180/180
f 63/181/181 64/182/182 62/183/183
f 63/184/184 65/185/185 64/186/186
f 65/187/187 66/188/188 64/189/189
f 65/190/190 67/191/191 66/192/192
f 67/193/193 68/194/194 66/195/195
f 67/196/196 69/197/197 68/198/198
f 69/199/199 70/200/200 68/201/201
f 69/202/202 71/203/203 70/204/204
f 71/205/205 72/206/206 70/207/207
f 71/208/208 73/209/209 72/210/210
f 73/211/211 28/212/212 72/213/213
f 73/214/214 26/215/215 28/216/216
f 74/217/217 75/218/218 76/219/219
f 74/220/220 76/221/221 77/222/222
f 74/223/223 77/224/224 78/225/225
f 74/226/226 78/227/227 79/228/228
f 74/229/229 79/230/230 80/231/231
f 74/232/232 80/233/233 81/234/234
f 74/235/235 81/236/236 82/237/237
f 74/238/238 82/239/239 83/240/240
f 74/241/241 83/242/242 84/243/243
f 74/244/244 84/245/245 85/246/246
f 74/247/247 85/248/248 86/249/249
f 74/250/250 86/251/251 87/252/252
f 74/253/253 87/254/254 88/255/255
f 74/256/256 88/257/257 89/258/258
f 74/259/259 89/260/260 90/261/261
f 74/262/262 90/263/263 91/264/264
f 74/265/265 91/266/266 92/267/267
f 74/268/268 92/269/269 93/270/270
f 74/271/271 93/272/272 94/273/273
f 74/274/274 94/275/275 95/276/276
f 74/277/277 95/278/278 96/279/279
f 74/280/280 96/281/281 97/282/282
f 74/283/283 97/284/284 98/285/285
f 74/286/286 98/287/287 75/288/288
