# Blender v2.80 (sub 74) OBJ File: ''
# www.blender.org
mtllib Surfs Up.mtl
o Surfs_Up
v -74.992203 1.429699 7.343800
v -73.796898 -1.773399 -6.984400
v -73.796898 -1.773401 6.984399
v -30.359400 -3.656296 -26.835899
v -55.851601 -4.117197 -18.757799
v -55.156300 -1.257797 -19.734400
v -67.390602 -3.085898 -12.250001
v -67.890602 0.023402 -13.375000
v -74.992203 1.429701 -7.343800
v -72.992203 2.999999 6.984400
v -72.992203 3.000001 -6.984399
v -0.890600 0.000005 -30.171900
v -28.554701 -0.210896 -25.523399
v -54.710899 0.929703 -17.007799
v -67.578102 1.968802 -11.414100
v -29.640600 -6.882796 -25.507801
v -1.773400 -4.914095 -31.726601
v 28.859400 -4.882795 -33.390598
v 28.750000 0.000005 -31.765600
v 55.406300 -3.351595 -31.726601
v 54.429699 0.421905 -30.171900
v 81.945297 -0.539096 -25.906300
v 80.117203 2.351604 -24.640600
v 108.492203 3.984403 -16.546900
v 105.804703 6.000002 -15.742199
v 121.015602 7.515602 -9.867199
v -1.351600 -8.148396 -30.148401
v 28.953100 -8.124995 -31.734402
v 55.218800 -6.609395 -30.148401
v 81.484398 -3.804696 -24.625000
v 107.750000 0.710903 -15.726600
v 122.109398 5.367201 -7.570299
v 132.531296 9.882800 0.000002
v 133.546906 12.375000 -0.742198
v -29.640600 -6.882804 25.507797
v -1.351600 -8.148405 30.148397
v -1.773400 -4.914105 31.726601
v 28.953100 -8.125005 31.734398
v 28.859400 -4.882805 33.390598
v 55.218800 -6.609405 30.148397
v 55.406300 -3.351605 31.726601
v 81.484398 -3.804704 24.625000
v 81.945297 -0.539104 25.906300
v 107.750000 0.710897 15.726600
v 108.492203 3.984397 16.546900
v 122.109398 5.367198 7.570301
v 121.015602 7.515599 9.867201
v 133.546906 12.375000 0.742202
v 131.484406 13.070300 0.000002
v 120.937500 9.507801 -7.421898
v 120.937500 9.507799 7.421901
v 105.804703 5.999998 15.742201
v 80.117203 2.351596 24.640600
v 54.429699 0.421895 30.171900
v 28.750000 -0.000005 31.765600
v -0.890600 -0.000005 30.171900
v -30.359400 -3.656304 26.835899
v -55.851601 -4.117203 18.757799
v -28.554701 -0.210904 25.523399
v -55.156300 -1.257803 19.734400
v -67.390602 -3.085902 12.249999
v -54.710899 0.929697 17.007799
v -67.890602 0.023398 13.375000
v -67.578102 1.968798 11.414100
v -47.609402 -4.937498 -10.867201
v -33.296902 -6.289098 -15.289101
v -46.382801 -8.445298 -12.484401
v -38.289101 -12.039097 -16.671902
v -47.187500 -12.828098 -14.164102
v -43.273399 -15.835897 -17.234402
v -46.484402 -17.312498 -17.195301
v -48.976601 -17.796898 -16.875004
v -50.093800 -16.789099 -16.218801
v -61.703098 -3.148400 -1.046901
v -46.804699 -4.851600 -0.000001
v -60.210899 -6.656300 -1.046901
v -51.484402 -11.015600 -0.000002
v -60.718800 -11.398400 -1.046902
v -56.296902 -15.070300 -0.000002
v -59.468800 -16.632799 -0.000003
v -61.976601 -17.125000 -0.000003
v -63.187500 -16.023399 -0.000003
v -61.703098 -3.148400 1.054700
v -60.210899 -6.656300 1.054699
v -60.718800 -11.398400 1.054698
v -47.531300 -12.140597 -15.796902
v -46.718800 -7.757798 -14.585901
v -47.953098 -4.523397 -14.257801
v -46.484402 -17.312502 17.195297
v -43.273399 -15.835903 17.234398
v -47.531300 -12.140603 15.796898
v -38.289101 -12.039103 16.671898
v -46.718800 -7.757802 14.585899
v -33.296902 -6.289103 15.289099
v -47.953098 -4.523402 14.257799
v -48.976601 -17.796902 16.874996
v -50.093800 -16.789103 16.218798
v -47.609402 -4.937502 10.867199
v -46.382801 -8.445302 12.484399
v -47.187500 -12.828102 14.164098
vt 0.999000 -0.906000
vt 0.962600 -0.942200
vt 0.993700 -0.930800
vt 0.763300 -0.956800
vt 0.892900 -0.960300
vt 0.889700 -0.938200
vt 0.933200 -0.952300
vt 0.935500 -0.928200
vt 0.968100 -0.917300
vt 0.990000 -0.893900
vt 0.958900 -0.905200
vt 0.628100 -0.928400
vt 0.755000 -0.930100
vt 0.887600 -0.921200
vt 0.934100 -0.913200
vt 0.760000 -0.981700
vt 0.632100 -0.966500
vt 0.491500 -0.966200
vt 0.492100 -0.928400
vt 0.369800 -0.954400
vt 0.374200 -0.925100
vt 0.247900 -0.932600
vt 0.256300 -0.910200
vt 0.126100 -0.897600
vt 0.138500 -0.882000
vt 0.068700 -0.870200
vt 0.630200 -0.991500
vt 0.491100 -0.991400
vt 0.370600 -0.979600
vt 0.250100 -0.957900
vt 0.129600 -0.922900
vt 0.063700 -0.886900
vt 0.015900 -0.851900
vt 0.011200 -0.832700
vt 0.760000 -0.981700
vt 0.630200 -0.991500
vt 0.632100 -0.966500
vt 0.491100 -0.991400
vt 0.491500 -0.966200
vt 0.370600 -0.979600
vt 0.369800 -0.954400
vt 0.250100 -0.957900
vt 0.247900 -0.932600
vt 0.129600 -0.922900
vt 0.126100 -0.897600
vt 0.063700 -0.886900
vt 0.068700 -0.870200
vt 0.011200 -0.832700
vt 0.020600 -0.827200
vt 0.069000 -0.854800
vt 0.069000 -0.854800
vt 0.138500 -0.882000
vt 0.256300 -0.910200
vt 0.374200 -0.925100
vt 0.492100 -0.928400
vt 0.628100 -0.928400
vt 0.763300 -0.956800
vt 0.892900 -0.960300
vt 0.755000 -0.930100
vt 0.889700 -0.938200
vt 0.933200 -0.952300
vt 0.887600 -0.921200
vt 0.935500 -0.928200
vt 0.962600 -0.942200
vt 0.968100 -0.917300
vt 0.958900 -0.905200
vt 0.934100 -0.913200
vt 0.016200 -0.688600
vt 0.066500 -0.741000
vt 0.066500 -0.636100
vt 0.138800 -0.799800
vt 0.138800 -0.577300
vt 0.261400 -0.862700
vt 0.261400 -0.514400
vt 0.384000 -0.901800
vt 0.384000 -0.475300
vt 0.506700 -0.913000
vt 0.506700 -0.464100
vt 0.648200 -0.901800
vt 0.648200 -0.475300
vt 0.780300 -0.868900
vt 0.780300 -0.508100
vt 0.901900 -0.809100
vt 0.901900 -0.568100
vt 0.966600 -0.769200
vt 0.966600 -0.607900
vt 0.992400 -0.737900
vt 0.992400 -0.639100
vt 0.907400 -0.364600
vt 0.785400 -0.051400
vt 0.785400 -0.411900
vt 0.650400 -0.444700
vt 0.650400 -0.018600
vt 0.505600 -0.455900
vt 0.505600 -0.007400
vt 0.380300 -0.444700
vt 0.380300 -0.018600
vt 0.254900 -0.405700
vt 0.254900 -0.057600
vt 0.129500 -0.342800
vt 0.129500 -0.120500
vt 0.060900 -0.285200
vt 0.060900 -0.178100
vt 0.011200 -0.231700
vt 0.996200 -0.182300
vt 0.965600 -0.145100
vt 0.996200 -0.281000
vt 0.965600 -0.318200
vt 0.907400 -0.098800
vt 0.053100 -0.384300
vt 0.092000 -0.416400
vt 0.017200 -0.553600
vt 0.113700 -0.530800
vt 0.154200 -0.432400
vt 0.183900 -0.497000
vt 0.216000 -0.469600
vt 0.231900 -0.444600
vt 0.222600 -0.426500
vt 0.934100 -0.379400
vt 0.773800 -0.444700
vt 0.929400 -0.429600
vt 0.846900 -0.511800
vt 0.951000 -0.490100
vt 0.914200 -0.550900
vt 0.954800 -0.562100
vt 0.984500 -0.561300
vt 0.994300 -0.543400
vt 0.934100 -0.379400
vt 0.929400 -0.429600
vt 0.951000 -0.490100
vt 0.158700 -0.419800
vt 0.154200 -0.432400
vt 0.096500 -0.403800
vt 0.092000 -0.416400
vt 0.057600 -0.371700
vt 0.053100 -0.384300
vt 0.216000 -0.469600
vt 0.183900 -0.497000
vt 0.154200 -0.432400
vt 0.113700 -0.530800
vt 0.092000 -0.416400
vt 0.017200 -0.553600
vt 0.053100 -0.384300
vt 0.231900 -0.444600
vt 0.222600 -0.426500
vt 0.053100 -0.384300
vt 0.092000 -0.416400
vt 0.154200 -0.432400
vt 0.964000 -0.486700
vt 0.942300 -0.426300
vt 0.947100 -0.376100
vt 0.057600 -0.371700
vt 0.096500 -0.403800
vt 0.158700 -0.419800
vn -0.9369 -0.3496 -0.0000
vn -0.2888 -0.2458 -0.9253
vn -0.3753 -0.2302 -0.8979
vn -0.4956 -0.1704 -0.8517
vn -0.5455 -0.3489 -0.7620
vn -0.5492 -0.3575 -0.7554
vn -0.8301 -0.3618 -0.4243
vn -0.8938 -0.3009 -0.3326
vn -0.7265 0.6872 0.0000
vn -0.8938 -0.3009 -0.3325
vn -0.6175 0.7865 0.0000
vn -0.5435 0.7692 -0.3361
vn -0.5484 0.7720 -0.3213
vn -0.4054 0.6609 -0.6315
vn -0.1534 0.4209 -0.8940
vn -0.1878 0.4340 -0.8811
vn -0.1738 0.4443 -0.8789
vn -0.1878 0.7679 -0.6124
vn -0.1738 0.4443 -0.8788
vn -0.1932 0.7765 -0.5998
vn -0.2757 0.7107 -0.6472
vn -0.3209 0.6975 -0.6408
vn -0.3774 0.6868 -0.6212
vn -0.2677 -0.4171 -0.8685
vn -0.2226 -0.3783 -0.8985
vn -0.2158 -0.4124 -0.8851
vn -0.1062 0.2917 -0.9506
vn -0.0927 0.3157 -0.9443
vn -0.0052 0.3154 -0.9489
vn -0.0048 0.3193 -0.9476
vn 0.1053 0.3974 -0.9116
vn 0.0978 0.4032 -0.9099
vn 0.1867 0.4875 -0.8529
vn 0.1748 0.4880 -0.8551
vn 0.2199 0.5966 -0.7718
vn 0.2051 0.5864 -0.7836
vn 0.2315 0.6110 -0.7571
vn -0.1641 -0.4498 -0.8779
vn -0.1065 -0.4477 -0.8878
vn -0.1022 -0.4469 -0.8887
vn 0.0161 -0.4540 -0.8908
vn 0.0160 -0.4539 -0.8909
vn 0.1527 -0.4385 -0.8857
vn 0.1592 -0.4357 -0.8859
vn 0.1527 -0.4385 -0.8856
vn 0.2901 -0.3870 -0.8753
vn 0.3021 -0.3818 -0.8735
vn 0.4373 -0.3140 -0.8427
vn 0.4714 -0.3239 -0.8203
vn 0.6024 -0.4102 -0.6847
vn 0.5574 -0.4571 -0.6930
vn 0.6348 -0.4399 -0.6353
vn 0.6334 -0.4464 -0.6321
vn -0.1641 -0.4498 0.8779
vn -0.1022 -0.4469 0.8887
vn -0.1065 -0.4477 0.8878
vn 0.0161 -0.4540 0.8908
vn 0.0160 -0.4539 0.8909
vn 0.1527 -0.4385 0.8856
vn 0.1527 -0.4385 0.8857
vn 0.1592 -0.4357 0.8859
vn 0.2901 -0.3870 0.8753
vn 0.3021 -0.3818 0.8735
vn 0.4373 -0.3140 0.8427
vn 0.4714 -0.3239 0.8203
vn 0.6024 -0.4102 0.6847
vn 0.5616 -0.4567 0.6899
vn 0.7267 -0.4453 0.5230
vn 0.9519 0.0682 0.2988
vn 0.6963 0.6696 -0.2584
vn 0.9519 0.0682 0.2987
vn 0.6963 0.6696 -0.2583
vn 0.1505 0.8864 -0.4377
vn 0.1629 0.7703 -0.6165
vn 0.1504 0.8864 -0.4377
vn 0.1720 0.7664 -0.6189
vn 0.1630 0.7674 -0.6200
vn 0.0808 0.8295 0.5526
vn 0.1764 0.7659 0.6183
vn 0.1720 0.7664 0.6189
vn 0.1715 0.7576 0.6297
vn 0.2033 0.5966 0.7763
vn 0.2199 0.5966 0.7718
vn 0.1748 0.4880 0.8551
vn 0.1867 0.4875 0.8529
vn 0.0978 0.4032 0.9099
vn 0.1053 0.3974 0.9116
vn -0.0048 0.3193 0.9476
vn -0.0052 0.3154 0.9489
vn -0.0927 0.3157 0.9443
vn -0.1062 0.2917 0.9506
vn -0.2226 -0.3783 0.8985
vn -0.2158 -0.4124 0.8851
vn -0.2677 -0.4171 0.8685
vn -0.1534 0.4209 0.8940
vn -0.1736 0.4287 0.8866
vn -0.1933 0.4118 0.8905
vn -0.3651 -0.1886 0.9117
vn -0.4153 -0.2019 0.8870
vn -0.4956 -0.1704 0.8517
vn -0.1617 0.7825 0.6013
vn -0.1906 0.7807 0.5952
vn -0.2165 0.7322 0.6458
vn -0.5386 -0.2826 0.7938
vn -0.5482 -0.3611 0.7544
vn -0.6365 -0.3509 0.6869
vn -0.6493 -0.3197 0.6900
vn -0.4054 0.6609 0.6315
vn -0.2945 0.6995 0.6511
vn -0.4015 0.6647 0.6301
vn -0.3209 0.6975 0.6408
vn -0.2323 0.7087 0.6661
vn -0.3200 0.9474 0.0000
vn -0.2565 0.9665 0.0000
vn -0.1716 0.9852 -0.0000
vn -0.1019 0.9948 0.0000
vn -0.0430 0.9991 0.0000
vn -0.0082 1.0000 0.0000
vn -0.0035 1.0000 0.0000
vn 0.0139 0.9999 0.0000
vn 0.0577 0.9983 0.0000
vn 0.1138 0.9935 -0.0000
vn 0.1871 0.9823 0.0000
vn -0.1049 -0.9945 -0.0000
vn -0.0590 -0.9983 0.0000
vn -0.0708 -0.9975 0.0000
vn -0.0204 -0.9998 0.0000
vn 0.0291 -0.9996 0.0000
vn 0.0798 -0.9968 0.0000
vn 0.1323 -0.9912 -0.0000
vn 0.2203 -0.9754 0.0000
vn 0.3375 -0.9413 -0.0000
vn 0.3976 -0.9176 -0.0000
vn -0.2007 -0.9797 -0.0000
vn -0.1227 -0.9924 0.0000
vn -0.0991 -0.9951 -0.0000
vn -0.0944 -0.9955 -0.0000
vn 0.2497 -0.3321 0.9096
vn 0.2618 -0.3674 0.8925
vn 0.2550 -0.4064 0.8774
vn 0.2656 -0.4363 0.8597
vn 0.2618 -0.3674 0.8924
vn 0.2731 -0.4437 0.8536
vn 0.2650 -0.4980 0.8257
vn 0.2472 -0.5157 0.8203
vn 0.2081 -0.5251 0.8252
vn 0.1533 -0.5152 0.8432
vn 0.1392 -0.5124 0.8474
vn 0.0623 -0.4952 0.8665
vn 0.0736 0.0313 -0.9968
vn 0.0835 -0.0426 -0.9956
vn 0.0890 0.0010 -0.9960
vn 0.0982 -0.0733 -0.9925
vn 0.1085 -0.0827 -0.9907
vn 0.1050 -0.1537 -0.9825
vn 0.0864 -0.1755 -0.9807
vn 0.0368 -0.1875 -0.9816
vn -0.0454 -0.1700 -0.9844
vn -0.0286 -0.1737 -0.9844
vn -0.1358 -0.1492 -0.9794
vn 0.0742 0.0316 0.9967
vn 0.0896 0.0010 0.9960
vn 0.0841 -0.0429 0.9955
vn 0.0989 -0.0738 0.9924
vn 0.1092 -0.0833 0.9905
vn 0.1057 -0.1548 0.9823
vn 0.0871 -0.1768 0.9804
vn 0.0371 -0.1889 0.9813
vn -0.0289 -0.1749 0.9842
vn -0.0457 -0.1712 0.9842
vn -0.1367 -0.1503 0.9791
vn -0.8320 0.4265 0.3548
vn -0.9205 0.2509 0.2994
vn -0.9229 0.2521 0.2912
vn -0.9205 0.2508 0.2996
vn -0.9842 -0.1285 0.1221
vn -0.9228 0.2521 0.2912
vn -0.9835 -0.1368 0.1180
vn -0.9338 -0.3548 0.0454
vn -0.9837 -0.1366 0.1173
vn -0.9314 -0.3605 0.0504
vn -0.1204 0.2363 0.9642
vn -0.1044 0.2538 0.9616
vn -0.0998 0.2668 0.9586
vn -0.0870 0.2891 0.9533
vn -0.0758 0.1839 0.9800
vn -0.0780 0.2508 0.9649
vn -0.0606 0.0778 0.9951
vn -0.1672 0.2257 0.9598
vn -0.2217 0.2369 0.9459
vn -0.2355 0.2397 0.9418
vn -0.3094 0.2537 0.9165
vn 0.2497 -0.3321 -0.9096
vn 0.2550 -0.4064 -0.8774
vn 0.2618 -0.3674 -0.8925
vn 0.2656 -0.4363 -0.8597
vn 0.2618 -0.3674 -0.8924
vn 0.2731 -0.4437 -0.8536
vn 0.2650 -0.4980 -0.8257
vn 0.2472 -0.5157 -0.8203
vn 0.2081 -0.5251 -0.8252
vn 0.1392 -0.5124 -0.8474
vn 0.1533 -0.5152 -0.8432
vn 0.0623 -0.4952 -0.8665
vn -0.8822 0.4709 0.0000
vn -0.9596 0.2815 0.0000
vn -0.9595 0.2816 0.0000
vn -0.9891 -0.1472 -0.0000
vn -0.9202 -0.3914 0.0000
vn -0.0606 0.0778 -0.9951
vn -0.0780 0.2508 -0.9649
vn -0.0758 0.1839 -0.9800
vn -0.0870 0.2891 -0.9533
vn -0.0998 0.2668 -0.9586
vn -0.1044 0.2538 -0.9616
vn -0.1204 0.2363 -0.9642
vn -0.1672 0.2257 -0.9598
vn -0.2355 0.2397 -0.9418
vn -0.2217 0.2369 -0.9459
vn -0.3094 0.2537 -0.9165
vn -0.9314 -0.3605 -0.0504
vn -0.9338 -0.3548 -0.0454
vn -0.9837 -0.1366 -0.1173
vn -0.9842 -0.1285 -0.1221
vn -0.9229 0.2521 -0.2912
vn -0.9205 0.2509 -0.2994
vn -0.9228 0.2521 -0.2912
vn -0.8320 0.4265 -0.3548
usemtl Tex_0007_0_dds.005
s 1
f 1/1/1 2/2/1 3/3/1
f 4/4/2 5/5/2 6/6/3
f 5/5/4 7/7/5 6/6/3
f 6/6/3 7/7/5 8/8/6
f 7/7/5 2/2/7 8/8/6
f 8/8/6 2/2/7 9/9/8
f 2/2/7 1/1/9 9/9/8
f 9/9/10 1/1/9 10/10/11
f 10/10/11 11/11/12 9/9/13
f 9/9/13 11/11/12 8/8/14
f 12/12/15 4/4/16 13/13/17
f 4/4/16 6/6/18 13/13/19
f 13/13/19 6/6/18 14/14/20
f 6/6/18 8/8/21 14/14/20
f 14/14/20 8/8/21 15/15/22
f 8/8/21 11/11/23 15/15/22
f 5/5/24 4/4/25 16/16/26
f 16/16/26 4/4/25 17/17/27
f 4/4/25 12/12/28 17/17/27
f 17/17/27 12/12/28 18/18/29
f 12/12/28 19/19/30 18/18/29
f 18/18/29 19/19/30 20/20/31
f 19/19/30 21/21/32 20/20/31
f 20/20/31 21/21/32 22/22/33
f 21/21/32 23/23/34 22/22/33
f 22/22/33 23/23/34 24/24/35
f 23/23/34 25/25/36 24/24/35
f 24/24/35 25/25/36 26/26/37
f 16/16/38 17/17/39 27/27/40
f 27/27/40 17/17/39 28/28/41
f 17/17/39 18/18/42 28/28/41
f 28/28/41 18/18/42 29/29/43
f 18/18/42 20/20/44 29/29/43
f 29/29/45 20/20/44 30/30/46
f 20/20/44 22/22/47 30/30/46
f 30/30/46 22/22/47 31/31/48
f 22/22/47 24/24/49 31/31/48
f 31/31/48 24/24/49 32/32/50
f 24/24/49 26/26/51 32/32/50
f 32/32/50 26/26/51 33/33/52
f 26/26/53 34/34/53 33/33/52
f 35/35/54 36/36/55 37/37/56
f 36/36/55 38/38/57 37/37/56
f 37/37/56 38/38/57 39/39/58
f 38/38/57 40/40/59 39/39/58
f 39/39/58 40/40/60 41/41/61
f 40/40/59 42/42/62 41/41/61
f 41/41/61 42/42/62 43/43/63
f 42/42/62 44/44/64 43/43/63
f 43/43/63 44/44/64 45/45/65
f 44/44/64 46/46/66 45/45/65
f 45/45/65 46/46/66 47/47/67
f 46/46/66 33/33/68 47/47/67
f 47/47/67 33/33/68 48/48/69
f 33/33/68 34/34/70 48/48/69
f 48/48/71 34/34/72 49/49/73
f 34/34/72 26/26/74 49/49/75
f 49/49/75 26/26/74 50/50/76
f 26/26/74 25/25/77 50/50/76
f 48/48/78 49/49/78 47/47/78
f 49/49/79 51/51/80 47/47/81
f 51/51/80 52/52/82 47/47/81
f 47/47/81 52/52/82 45/45/83
f 52/52/82 53/53/84 45/45/83
f 45/45/83 53/53/84 43/43/85
f 53/53/84 54/54/86 43/43/85
f 43/43/85 54/54/86 41/41/87
f 54/54/86 55/55/88 41/41/87
f 41/41/87 55/55/88 39/39/89
f 55/55/88 56/56/90 39/39/89
f 39/39/89 56/56/90 37/37/91
f 56/56/90 57/57/92 37/37/91
f 37/37/91 57/57/92 35/35/93
f 57/57/92 58/58/94 35/35/93
f 56/56/95 59/59/96 57/57/97
f 59/59/96 60/60/98 57/57/97
f 57/57/97 60/60/98 58/58/99
f 60/60/98 61/61/100 58/58/99
f 59/59/101 62/62/102 60/60/103
f 62/62/102 63/63/104 60/60/103
f 60/60/103 63/63/104 61/61/105
f 63/63/104 3/64/106 61/61/105
f 1/65/107 3/64/107 63/63/107
f 1/65/108 63/63/109 10/66/110
f 10/66/110 63/63/109 64/67/111
f 63/63/109 62/62/112 64/67/111
f 49/68/113 50/69/114 51/70/114
f 50/69/114 25/71/115 51/70/114
f 51/70/114 25/71/115 52/72/115
f 25/71/115 23/73/116 52/72/115
f 52/72/115 23/73/116 53/74/116
f 23/73/116 21/75/117 53/74/116
f 53/74/116 21/75/117 54/76/117
f 21/75/117 19/77/118 54/76/117
f 54/76/117 19/77/118 55/78/118
f 19/77/118 12/79/119 55/78/118
f 55/78/118 12/79/119 56/80/119
f 12/79/119 13/81/120 56/80/119
f 56/80/119 13/81/120 59/82/120
f 13/81/120 14/83/121 59/82/120
f 59/82/120 14/83/121 62/84/121
f 14/83/121 15/85/122 62/84/121
f 62/84/121 15/85/122 64/86/122
f 15/85/122 11/87/123 64/86/122
f 64/86/122 11/87/123 10/88/123
f 58/89/124 16/90/125 35/91/126
f 35/91/126 16/90/125 36/92/127
f 16/90/125 27/93/127 36/92/127
f 36/92/127 27/93/127 38/94/128
f 27/93/127 28/95/128 38/94/128
f 38/94/128 28/95/128 40/96/129
f 28/95/128 29/97/129 40/96/129
f 40/96/129 29/97/129 42/98/130
f 29/97/129 30/99/130 42/98/130
f 42/98/130 30/99/130 44/100/131
f 30/99/130 31/101/131 44/100/131
f 44/100/131 31/101/131 46/102/132
f 31/101/131 32/103/132 46/102/132
f 46/102/132 32/103/132 33/104/133
f 2/105/134 7/106/135 3/107/134
f 3/107/134 7/106/135 61/108/135
f 7/106/135 5/109/136 61/108/135
f 61/108/135 5/109/136 58/89/137
f 5/109/136 16/90/124 58/89/137
f 65/110/138 67/111/139 66/112/140
f 66/112/140 67/111/139 68/113/141
f 67/111/142 69/114/143 68/113/141
f 68/113/141 69/114/143 70/115/144
f 69/114/143 71/116/145 70/115/144
f 71/116/146 69/114/147 72/117/148
f 69/114/147 73/118/149 72/117/148
f 74/119/150 75/120/151 76/121/152
f 75/120/151 77/122/153 76/121/152
f 76/121/152 77/122/153 78/123/154
f 77/122/153 79/124/155 78/123/154
f 78/123/154 79/124/155 80/125/156
f 80/125/157 81/126/158 78/123/159
f 81/126/158 82/127/160 78/123/159
f 83/128/161 84/129/162 75/120/163
f 75/120/163 84/129/162 77/122/164
f 84/129/162 85/130/165 77/122/164
f 77/122/164 85/130/165 79/124/166
f 85/130/165 80/125/167 79/124/166
f 80/125/168 85/130/169 81/126/170
f 85/130/169 82/127/171 81/126/170
f 73/118/172 69/131/173 86/132/174
f 69/131/175 67/133/176 86/132/177
f 86/132/174 67/133/176 87/134/178
f 67/133/176 65/135/179 87/134/180
f 87/134/180 65/135/179 88/136/181
f 89/137/182 90/138/183 91/139/184
f 90/138/183 92/140/185 91/139/184
f 91/139/184 92/140/185 93/141/186
f 92/140/185 94/142/187 93/141/186
f 93/141/186 94/142/187 95/143/188
f 89/137/189 91/139/190 96/144/191
f 91/139/190 97/145/192 96/144/191
f 98/146/193 94/142/194 99/147/195
f 94/142/194 92/140/196 99/147/195
f 99/147/197 92/140/196 100/148/198
f 92/140/196 90/138/199 100/148/198
f 100/148/198 90/138/199 89/137/200
f 89/137/201 96/144/202 100/148/203
f 96/144/202 97/145/204 100/148/203
f 82/127/205 85/149/206 78/123/207
f 85/149/206 84/150/208 78/123/207
f 78/123/207 84/150/208 76/121/208
f 84/150/208 83/151/209 76/121/208
f 76/121/208 83/151/209 74/119/209
f 88/136/210 66/112/211 87/134/212
f 66/112/211 68/113/213 87/134/212
f 87/134/212 68/113/213 86/132/214
f 68/113/213 70/115/215 86/132/214
f 86/132/214 70/115/215 71/116/216
f 71/116/217 72/117/218 86/132/219
f 72/117/218 73/118/220 86/132/219
f 95/143/221 98/152/222 93/141/223
f 98/152/222 99/153/224 93/141/223
f 93/141/223 99/153/224 91/139/225
f 99/153/224 100/154/226 91/139/227
f 91/139/225 100/154/226 97/145/228
