mtllib ROOM10C0_model01_emdui.mtl
usemtl main
o part_00
v -0.226000 -3.035000 0.132000
v 0.162000 -3.040000 0.111000
v -0.226000 -3.035000 -0.135000
v 0.162000 -3.040000 -0.117000
v -0.055000 -3.292000 0.002000
v -0.309000 -2.674000 -0.001000
v 0.141000 -2.997000 -0.028000
v -0.025000 -2.549000 -0.076000
v -0.025000 -2.549000 0.071000
v -0.194000 -2.600000 0.132000
v 0.141000 -2.996000 0.025000
v 0.195000 -3.011000 -0.011000
v 0.140000 -2.821000 0.000000
v -0.114000 -2.867000 -0.121000
v -0.114000 -2.867000 0.118000
v 0.020000 -2.763000 -0.061000
v 0.020000 -2.763000 0.059000
v -0.080000 -3.033000 -0.196000
v -0.080000 -3.033000 0.193000
v -0.054000 -2.872000 -0.168000
v -0.054000 -2.872000 0.165000
v 0.102000 -2.764000 -0.066000
v 0.111000 -2.764000 0.063000
v 0.162000 -3.228000 -0.001000
v -0.234000 -3.141000 -0.146000
v 0.084000 -3.274000 -0.002000
v -0.234000 -3.140000 0.133000
v 0.182000 -3.132000 -0.002000
v 0.144000 -3.019000 -0.107000
v 0.133000 -3.217000 0.085000
v -0.206000 -3.255000 -0.003000
v 0.096000 -3.032000 0.168000
v -0.076000 -3.223000 0.141000
v -0.194000 -2.600000 -0.137000
v -0.321000 -3.036000 -0.001000
v -0.231000 -2.868000 -0.001000
v 0.174000 -2.894000 -0.018000
v 0.215000 -2.906000 0.016000
v -0.310000 -3.157000 0.003000
v 0.174000 -2.894000 0.017000
v 0.144000 -3.019000 0.101000
v 0.153000 -2.780000 0.000000
v 0.133000 -3.217000 -0.087000
v 0.195000 -3.011000 0.008000
v -0.076000 -3.223000 -0.146000
v 0.096000 -3.033000 -0.167000
v 0.072000 -3.008000 -0.169000
v 0.065000 -2.873000 -0.156000
v 0.065000 -2.872000 0.151000
v 0.072000 -3.008000 0.166000
v 0.150000 -3.132000 -0.111000
v 0.150000 -3.131000 0.107000
v 0.074000 -3.134000 -0.183000
v 0.074000 -3.134000 0.187000
v 0.158000 -2.897000 -0.054000
v 0.158000 -2.897000 0.050000
v 0.215000 -2.906000 -0.016000
v 0.165000 -2.915000 0.045000
v 0.165000 -2.915000 -0.050000
v 0.183000 -1.998000 0.000000
v 0.183000 -2.139000 0.000000
v 0.057000 -1.998000 0.174000
v 0.057000 -2.139000 0.174000
v -0.148000 -1.998000 0.108000
v -0.148000 -2.139000 0.108000
v -0.148000 -1.998000 -0.108000
v -0.148000 -2.139000 -0.108000
v 0.057000 -1.998000 -0.174000
v 0.057000 -2.139000 -0.174000
v -0.217000 -1.815000 0.286000
v -0.217000 -1.815000 -0.286000
v -0.217000 -1.998000 0.286000
v -0.217000 -1.998000 -0.286000
v 0.217000 -1.815000 0.286000
v 0.217000 -1.815000 -0.286000
v 0.217000 -1.998000 0.286000
v 0.217000 -1.998000 -0.286000
v -0.429000 0.000000 0.429000
v -0.429000 0.000000 -0.429000
v -0.429000 -1.817000 0.429000
v -0.429000 -1.817000 -0.429000
v 0.429000 0.000000 0.429000
v 0.429000 0.000000 -0.429000
v 0.429000 -1.817000 0.429000
v 0.429000 -1.817000 -0.429000
v -0.216000 -2.139000 0.270000
v -0.216000 -2.139000 -0.270000
v -0.132000 -2.635000 0.408000
v -0.132000 -2.635000 -0.408000
v 0.240000 -2.139000 0.270000
v 0.240000 -2.139000 -0.270000
v -0.005000 -2.567000 0.423000
v -0.005000 -2.567000 -0.423000
v -0.329000 -2.689000 -0.257000
v 0.094000 -2.455000 -0.133000
v -0.329000 -2.689000 0.257000
v 0.094000 -2.455000 0.133000
v -0.085000 -3.128000 -0.190000
v -0.085000 -3.128000 0.186000
vn -0.765600 -0.291400 0.001600
vn -0.787200 0.226800 0.000200
vn -0.316200 0.165000 0.737400
vn -0.765600 -0.291400 0.001600
vn -0.316200 0.165000 0.737400
vn -0.164600 -0.091200 0.797200
vn 0.663800 0.122200 0.464200
vn -0.164600 -0.091200 0.797200
vn -0.316200 0.165000 0.737400
vn 0.663800 0.122200 0.464200
vn -0.316200 0.165000 0.737400
vn 0.184000 0.689200 0.402800
vn 0.663800 0.122200 0.464200
vn 0.184000 0.689200 0.402800
vn 0.391000 0.577800 -0.429400
vn 0.663800 0.122200 0.464200
vn 0.391000 0.577800 -0.429400
vn 0.549800 0.085200 -0.601200
vn -0.119400 0.101600 -0.804000
vn -0.503400 0.246600 -0.597400
vn -0.315400 0.162800 -0.738200
vn 0.353200 0.209600 0.708800
vn 0.434600 0.198200 0.665600
vn -0.090400 0.385200 0.717200
vn -0.507600 0.223000 0.603200
vn -0.316200 0.165000 0.737400
vn -0.787200 0.226800 0.000200
vn 0.419600 0.589400 -0.384200
vn 0.391000 0.577800 -0.429400
vn 0.184000 0.689200 0.402800
vn 0.419600 0.589400 -0.384200
vn 0.184000 0.689200 0.402800
vn 0.484600 0.513200 0.415800
vn 0.391000 0.577800 -0.429400
vn -0.096000 0.387200 -0.715400
vn -0.315400 0.162800 -0.738200
vn -0.090400 0.385200 0.717200
vn 0.484600 0.513200 0.415800
vn 0.184000 0.689200 0.402800
vn -0.315400 0.162800 -0.738200
vn -0.096000 0.387200 -0.715400
vn -0.119400 0.101600 -0.804000
vn 0.350200 0.187600 -0.716400
vn -0.096000 0.387200 -0.715400
vn 0.430600 0.215600 -0.662600
vn 0.430600 0.215600 -0.662600
vn -0.096000 0.387200 -0.715400
vn 0.419600 0.589400 -0.384200
vn 0.484600 0.513200 0.415800
vn -0.090400 0.385200 0.717200
vn 0.434600 0.198200 0.665600
vn 0.793000 0.203200 -0.031200
vn 0.419600 0.589400 -0.384200
vn 0.484600 0.513200 0.415800
vn -0.039600 -0.614400 -0.540400
vn 0.233200 -0.785200 0.002800
vn -0.120000 -0.803000 0.109000
vn -0.455600 -0.313200 0.604600
vn -0.393200 -0.716800 -0.051600
vn -0.120000 -0.803000 0.109000
vn -0.455600 -0.313200 0.604600
vn -0.120000 -0.803000 0.109000
vn -0.037600 -0.607000 0.548800
vn 0.525800 0.583400 0.232600
vn 0.636200 0.103400 0.505800
vn 0.647200 0.171400 0.472200
vn -0.135400 0.102800 0.801400
vn 0.353200 0.209600 0.708800
vn -0.090400 0.385200 0.717200
vn 0.391000 0.577800 -0.429400
vn 0.419600 0.589400 -0.384200
vn -0.096000 0.387200 -0.715400
vn -0.316200 0.165000 0.737400
vn -0.090400 0.385200 0.717200
vn 0.184000 0.689200 0.402800
vn -0.315400 0.162800 -0.738200
vn -0.787200 0.226800 0.000200
vn -0.765600 -0.291400 0.001600
vn 0.534600 0.413200 -0.463400
vn 0.620600 0.480200 -0.235200
vn 0.525800 0.583400 0.232600
vn 0.534600 0.413200 -0.463400
vn 0.525800 0.583400 0.232600
vn 0.647200 0.171400 0.472200
vn -0.807200 0.139800 0.009400
vn -0.734000 -0.363200 0.022600
vn -0.455600 -0.313200 0.604600
vn -0.807200 0.139800 0.009400
vn -0.455600 -0.313200 0.604600
vn -0.507600 0.223000 0.603200
vn 0.549800 0.085200 -0.601200
vn 0.391000 0.577800 -0.429400
vn -0.315400 0.162800 -0.738200
vn 0.549800 0.085200 -0.601200
vn -0.315400 0.162800 -0.738200
vn -0.166600 -0.098800 -0.796000
vn 0.618600 0.057200 -0.534000
vn 0.534600 0.413200 -0.463400
vn 0.760400 0.132400 -0.274600
vn 0.305600 -0.192000 -0.735400
vn 0.683400 -0.182400 -0.413400
vn 0.515800 -0.476800 -0.421400
vn 0.574400 0.450200 -0.372200
vn 0.663200 0.148200 -0.457400
vn 0.359600 0.258200 -0.689400
vn 0.644200 0.117800 -0.492200
vn 0.350200 0.187600 -0.716400
vn 0.430600 0.215600 -0.662600
vn 0.430600 0.215600 -0.662600
vn 0.419600 0.589400 -0.384200
vn 0.666600 0.193800 -0.434800
vn 0.525800 0.583400 0.232600
vn 0.795400 0.186400 0.061200
vn 0.484600 0.513200 0.415800
vn 0.577200 0.456200 0.360200
vn 0.353200 0.209600 0.708800
vn 0.366200 0.295000 0.670800
vn 0.673600 0.151200 0.441000
vn 0.366200 0.295000 0.670800
vn 0.310400 -0.191800 0.733400
vn -0.807200 0.139800 0.009400
vn -0.503400 0.246600 -0.597400
vn -0.479200 -0.229800 -0.623400
vn -0.807200 0.139800 0.009400
vn -0.479200 -0.229800 -0.623400
vn -0.734000 -0.363200 0.022600
vn -0.787200 0.226800 0.000200
vn -0.315400 0.162800 -0.738200
vn -0.503400 0.246600 -0.597400
vn 0.419600 0.589400 -0.384200
vn 0.793000 0.203200 -0.031200
vn 0.795400 0.186400 0.061200
vn -0.316200 0.165000 0.737400
vn -0.507600 0.223000 0.603200
vn -0.135400 0.102800 0.801400
vn 0.515800 -0.476800 -0.421400
vn 0.683400 -0.182400 -0.413400
vn 0.806200 -0.145200 0.001000
vn 0.806200 -0.145200 0.001000
vn 0.695800 -0.173000 0.396200
vn 0.519200 -0.479600 0.414000
vn 0.519200 -0.479600 0.414000
vn 0.695800 -0.173000 0.396200
vn 0.310400 -0.191800 0.733400
vn 0.305600 -0.192000 -0.735400
vn 0.359600 0.258200 -0.689400
vn 0.663200 0.148200 -0.457400
vn -0.039600 -0.614400 -0.540400
vn -0.120000 -0.803000 0.109000
vn -0.393200 -0.716800 -0.051600
vn -0.039600 -0.614400 -0.540400
vn -0.393200 -0.716800 -0.051600
vn -0.479200 -0.229800 -0.623400
vn -0.765600 -0.291400 0.001600
vn -0.166600 -0.098800 -0.796000
vn -0.315400 0.162800 -0.738200
vn -0.503400 0.246600 -0.597400
vn -0.807200 0.139800 0.009400
vn -0.787200 0.226800 0.000200
vn -0.787200 0.226800 0.000200
vn -0.807200 0.139800 0.009400
vn -0.507600 0.223000 0.603200
vn 0.534600 0.413200 -0.463400
vn 0.644200 0.117800 -0.492200
vn 0.620600 0.480200 -0.235200
vn 0.602600 0.057400 0.552000
vn 0.647200 0.171400 0.472200
vn 0.636200 0.103400 0.505800
vn 0.725600 0.185800 0.331800
vn 0.760400 0.132400 -0.274600
vn 0.647200 0.171400 0.472200
vn 0.806200 -0.145200 0.001000
vn 0.683400 -0.182400 -0.413400
vn 0.663200 0.148200 -0.457400
vn 0.806200 -0.145200 0.001000
vn 0.663200 0.148200 -0.457400
vn 0.760400 0.132400 -0.274600
vn 0.760400 0.132400 -0.274600
vn 0.534600 0.413200 -0.463400
vn 0.647200 0.171400 0.472200
vn 0.673600 0.151200 0.441000
vn 0.695800 -0.173000 0.396200
vn 0.806200 -0.145200 0.001000
vn 0.673600 0.151200 0.441000
vn 0.806200 -0.145200 0.001000
vn 0.725600 0.185800 0.331800
vn -0.135400 0.102800 0.801400
vn 0.366200 0.295000 0.670800
vn 0.353200 0.209600 0.708800
vn 0.350200 0.187600 -0.716400
vn 0.359600 0.258200 -0.689400
vn -0.119400 0.101600 -0.804000
vn 0.636200 0.103400 0.505800
vn 0.353200 0.209600 0.708800
vn 0.577200 0.456200 0.360200
vn 0.574400 0.450200 -0.372200
vn 0.350200 0.187600 -0.716400
vn 0.644200 0.117800 -0.492200
vn 0.577200 0.456200 0.360200
vn 0.602600 0.057400 0.552000
vn 0.636200 0.103400 0.505800
vn 0.644200 0.117800 -0.492200
vn 0.534600 0.413200 -0.463400
vn 0.618600 0.057200 -0.534000
vn 0.233200 -0.785200 0.002800
vn -0.039600 -0.614400 -0.540400
vn 0.515800 -0.476800 -0.421400
vn 0.519200 -0.479600 0.414000
vn 0.310400 -0.191800 0.733400
vn -0.037600 -0.607000 0.548800
vn -0.039600 -0.614400 -0.540400
vn 0.305600 -0.192000 -0.735400
vn 0.515800 -0.476800 -0.421400
vn 0.760400 0.132400 -0.274600
vn 0.663200 0.148200 -0.457400
vn 0.574400 0.450200 -0.372200
vn 0.760400 0.132400 -0.274600
vn 0.574400 0.450200 -0.372200
vn 0.618600 0.057200 -0.534000
vn -0.393200 -0.716800 -0.051600
vn -0.734000 -0.363200 0.022600
vn -0.479200 -0.229800 -0.623400
vn -0.393200 -0.716800 -0.051600
vn -0.455600 -0.313200 0.604600
vn -0.734000 -0.363200 0.022600
vn 0.806200 -0.145200 0.001000
vn 0.760400 0.132400 -0.274600
vn 0.725600 0.185800 0.331800
vn 0.666200 -0.476800 0.001000
vn 0.515800 -0.476800 -0.421400
vn 0.806200 -0.145200 0.001000
vn 0.663200 0.148200 -0.457400
vn 0.683400 -0.182400 -0.413400
vn 0.305600 -0.192000 -0.735400
vn 0.310400 -0.191800 0.733400
vn 0.695800 -0.173000 0.396200
vn 0.673600 0.151200 0.441000
vn 0.620600 0.480200 -0.235200
vn 0.644200 0.117800 -0.492200
vn 0.666600 0.193800 -0.434800
vn 0.366200 0.295000 0.670800
vn 0.673600 0.151200 0.441000
vn 0.577200 0.456200 0.360200
vn 0.359600 0.258200 -0.689400
vn 0.350200 0.187600 -0.716400
vn 0.574400 0.450200 -0.372200
vn 0.620600 0.480200 -0.235200
vn 0.666600 0.193800 -0.434800
vn 0.419600 0.589400 -0.384200
vn 0.688800 0.211200 0.390000
vn 0.636200 0.103400 0.505800
vn 0.525800 0.583400 0.232600
vn 0.725600 0.185800 0.331800
vn 0.647200 0.171400 0.472200
vn 0.602600 0.057400 0.552000
vn 0.577200 0.456200 0.360200
vn 0.673600 0.151200 0.441000
vn 0.725600 0.185800 0.331800
vn 0.577200 0.456200 0.360200
vn 0.725600 0.185800 0.331800
vn 0.602600 0.057400 0.552000
vn 0.644200 0.117800 -0.492200
vn 0.618600 0.057200 -0.534000
vn 0.574400 0.450200 -0.372200
vn 0.636200 0.103400 0.505800
vn 0.688800 0.211200 0.390000
vn 0.434600 0.198200 0.665600
vn 0.636200 0.103400 0.505800
vn 0.434600 0.198200 0.665600
vn 0.353200 0.209600 0.708800
vn -0.120000 -0.803000 0.109000
vn 0.233200 -0.785200 0.002800
vn -0.037600 -0.607000 0.548800
vn 0.233200 -0.785200 0.002800
vn 0.666200 -0.476800 0.001000
vn 0.519200 -0.479600 0.414000
vn 0.806200 -0.145200 0.001000
vn 0.519200 -0.479600 0.414000
vn 0.666200 -0.476800 0.001000
vn 0.519200 -0.479600 0.414000
vn -0.037600 -0.607000 0.548800
vn 0.233200 -0.785200 0.002800
vn 0.515800 -0.476800 -0.421400
vn 0.666200 -0.476800 0.001000
vn 0.233200 -0.785200 0.002800
vn -0.090400 0.385200 0.717200
vn -0.316200 0.165000 0.737400
vn -0.135400 0.102800 0.801400
vn -0.096000 0.387200 -0.715400
vn 0.350200 0.187600 -0.716400
vn -0.119400 0.101600 -0.804000
vn 0.620600 0.480200 -0.235200
vn 0.795400 0.186400 0.061200
vn 0.525800 0.583400 0.232600
vn 0.484600 0.513200 0.415800
vn 0.434600 0.198200 0.665600
vn 0.688800 0.211200 0.390000
vn 0.795400 0.186400 0.061200
vn 0.793000 0.203200 -0.031200
vn 0.484600 0.513200 0.415800
vn 0.419600 0.589400 -0.384200
vn 0.795400 0.186400 0.061200
vn 0.620600 0.480200 -0.235200
vn -0.530800 0.000000 -0.624000
vn 0.429400 0.000000 -0.697600
vn 0.062600 0.000000 -0.816800
vn -0.530800 0.000000 -0.624000
vn 0.062600 0.000000 -0.816800
vn -0.757400 0.000000 -0.312000
vn 0.796200 0.000000 0.192800
vn 0.062600 0.000000 0.816800
vn 0.429400 0.000000 0.697600
vn 0.796200 0.000000 0.192800
vn 0.429400 0.000000 0.697600
vn 0.796200 0.000000 -0.192800
vn 0.429400 0.000000 -0.697600
vn 0.796200 0.000000 0.192800
vn 0.796200 0.000000 -0.192800
vn 0.429400 0.000000 -0.697600
vn 0.796200 0.000000 -0.192800
vn 0.062600 0.000000 -0.816800
vn -0.757400 0.000000 0.312000
vn -0.530800 0.000000 -0.624000
vn -0.757400 0.000000 -0.312000
vn -0.757400 0.000000 0.312000
vn -0.757400 0.000000 -0.312000
vn -0.530800 0.000000 0.624000
vn 0.062600 0.000000 0.816800
vn -0.757400 0.000000 0.312000
vn -0.530800 0.000000 0.624000
vn 0.062600 0.000000 0.816800
vn -0.530800 0.000000 0.624000
vn 0.429400 0.000000 0.697600
vn -0.819200 0.000000 0.000000
vn -0.819200 0.000000 0.000000
vn 0.000000 0.000000 -0.819200
vn 0.000000 0.000000 -0.819200
vn 0.819200 0.000000 0.000000
vn 0.819200 0.000000 0.000000
vn 0.000000 0.000000 0.819200
vn 0.000000 0.000000 0.819200
vn 0.000000 -0.819200 0.000000
vn 0.000000 -0.819200 0.000000
vn -0.819200 0.000000 0.000000
vn -0.819200 0.000000 0.000000
vn 0.000000 0.000000 -0.819200
vn 0.000000 0.000000 -0.819200
vn 0.819200 0.000000 0.000000
vn 0.819200 0.000000 0.000000
vn 0.000000 0.000000 0.819200
vn 0.000000 0.000000 0.819200
vn 0.000000 -0.819200 0.000000
vn 0.000000 -0.819200 0.000000
vn -0.771200 0.152200 -0.230600
vn -0.727200 0.140200 0.350400
vn -0.659600 0.198400 0.443400
vn -0.771200 0.152200 -0.230600
vn -0.659600 0.198400 0.443400
vn -0.448400 0.212600 -0.651800
vn -0.727200 0.140200 0.350400
vn -0.280400 0.247600 0.728800
vn -0.659600 0.198400 0.443400
vn -0.448400 0.212600 -0.651800
vn 0.722600 -0.258800 -0.286000
vn 0.471400 -0.475400 -0.472200
vn -0.448400 0.212600 -0.651800
vn 0.471400 -0.475400 -0.472200
vn -0.358400 0.139800 -0.723200
vn 0.505600 -0.643600 0.034200
vn 0.471400 -0.475400 -0.472200
vn 0.722600 -0.258800 -0.286000
vn -0.147600 0.316400 0.741000
vn -0.659600 0.198400 0.443400
vn -0.280400 0.247600 0.728800
vn -0.147600 0.316400 0.741000
vn -0.280400 0.247600 0.728800
vn -0.287800 0.398000 0.655600
vn 0.000000 0.819200 0.000000
vn 0.000000 0.819200 0.000000
vn 0.505600 -0.643600 0.034200
vn 0.573400 -0.584000 -0.034600
vn 0.357000 -0.727000 -0.123200
vn 0.505600 -0.643600 0.034200
vn 0.357000 -0.727000 -0.123200
vn 0.391400 -0.710200 0.117000
vn 0.357000 -0.727000 -0.123200
vn 0.573400 -0.584000 -0.034600
vn 0.480000 -0.649400 -0.138200
vn 0.391400 -0.710200 0.117000
vn 0.389600 -0.668600 0.268800
vn 0.471400 -0.475400 -0.472200
vn 0.573400 -0.584000 -0.034600
vn 0.505600 -0.643600 0.034200
vn 0.722600 -0.258800 -0.286000
vn 0.573400 -0.584000 -0.034600
vn 0.722600 -0.258800 -0.286000
vn 0.733400 -0.361200 0.050800
vn 0.733400 -0.361200 0.050800
vn 0.480000 -0.649400 -0.138200
vn 0.573400 -0.584000 -0.034600
vn -0.448400 0.212600 -0.651800
vn -0.358400 0.139800 -0.723200
vn -0.771200 0.152200 -0.230600
vn -0.819200 0.002000 0.000000
vn -0.817200 -0.056400 0.000000
vn -0.819200 0.002000 0.000000
vn -0.817200 -0.056400 0.000000
vn -0.817200 -0.056400 0.000000
vn 0.000000 0.000000 -0.819200
vn 0.000000 0.000000 -0.819200
vn 0.783400 0.239800 0.000000
vn 0.783400 0.239800 0.000000
vn 0.000000 0.000000 0.819200
vn 0.000000 0.000000 0.819200
vn 0.749800 0.330200 0.000000
vn 0.749800 0.330200 0.000000
vn -0.796600 -0.190800 0.000000
vn -0.817200 -0.056400 0.000000
vn -0.817200 -0.056400 0.000000
vn -0.796600 -0.190800 0.000000
vn -0.817200 -0.056400 0.000000
vn -0.775000 -0.265800 0.000000
vn -0.044800 -0.818000 0.000000
vn 0.003800 -0.819200 0.000000
vn -0.044800 -0.818000 0.000000
vn 0.003800 -0.819200 0.000000
vn -0.093600 -0.813800 0.000000
vn -0.682800 -0.452600 0.000000
vn -0.796600 -0.190800 0.000000
vn -0.775000 -0.265800 0.000000
vn -0.682800 -0.452600 0.000000
vn -0.775000 -0.265800 0.000000
vn -0.599400 -0.558400 0.000000
vn -0.093600 -0.813800 0.000000
vn -0.392600 -0.719000 0.000000
vn -0.269000 -0.773800 0.000000
vn -0.093600 -0.813800 0.000000
vn -0.269000 -0.773800 0.000000
vn -0.044800 -0.818000 0.000000
vn -0.599400 -0.558400 0.000000
vn -0.269000 -0.773800 0.000000
vn -0.392600 -0.719000 0.000000
vn -0.599400 -0.558400 0.000000
vn -0.392600 -0.719000 0.000000
vn -0.682800 -0.452600 0.000000
vn 0.000000 0.000000 0.819200
vn 0.000000 0.000000 0.819200
vn 0.000000 0.000000 0.819200
vn 0.000000 0.000000 0.819200
vn 0.000000 0.000000 0.819200
vn 0.000000 0.000000 0.819200
vn 0.000000 0.000000 -0.819200
vn 0.000000 0.000000 -0.819200
vn 0.000000 0.000000 -0.819200
vn 0.000000 0.000000 -0.819200
vn 0.000000 0.000000 -0.819200
vn 0.000000 0.000000 -0.819200
vn -0.479200 -0.229800 -0.623400
vn -0.503400 0.246600 -0.597400
vn -0.119400 0.101600 -0.804000
vn 0.310400 -0.191800 0.733400
vn 0.366200 0.295000 0.670800
vn -0.135400 0.102800 0.801400
vn -0.135400 0.102800 0.801400
vn -0.507600 0.223000 0.603200
vn -0.455600 -0.313200 0.604600
vn -0.091000 -0.204200 -0.788000
vn -0.119400 0.101600 -0.804000
vn 0.305600 -0.192000 -0.735400
vn -0.119400 0.101600 -0.804000
vn 0.359600 0.258200 -0.689400
vn 0.305600 -0.192000 -0.735400
vn -0.479200 -0.229800 -0.623400
vn -0.119400 0.101600 -0.804000
vn -0.091000 -0.204200 -0.788000
vn 0.310400 -0.191800 0.733400
vn -0.135400 0.102800 0.801400
vn -0.132800 -0.209600 0.780800
vn -0.132800 -0.209600 0.780800
vn -0.135400 0.102800 0.801400
vn -0.455600 -0.313200 0.604600
vn -0.132800 -0.209600 0.780800
vn -0.037600 -0.607000 0.548800
vn 0.310400 -0.191800 0.733400
vn -0.455600 -0.313200 0.604600
vn -0.037600 -0.607000 0.548800
vn -0.132800 -0.209600 0.780800
vn -0.091000 -0.204200 -0.788000
vn -0.039600 -0.614400 -0.540400
vn -0.479200 -0.229800 -0.623400
vn 0.305600 -0.192000 -0.735400
vn -0.039600 -0.614400 -0.540400
vn -0.091000 -0.204200 -0.788000
vn 0.430600 0.215600 -0.662600
vn 0.666600 0.193800 -0.434800
vn 0.644200 0.117800 -0.492200
vn 0.484600 0.513200 0.415800
vn 0.688800 0.211200 0.390000
vn 0.525800 0.583400 0.232600
vn 0.471400 -0.475400 -0.472200
vn 0.505600 -0.643600 0.034200
vn 0.391400 -0.710200 0.117000
vn 0.480000 -0.649400 -0.138200
vn 0.389600 -0.668600 -0.268800
vn 0.357000 -0.727000 -0.123200
vt 0.125000 0.824219
vt 0.031250 0.824219
vt 0.125000 0.753906
vt 0.031250 0.824219
vt 0.023438 0.730469
vt 0.125000 0.753906
vt 0.562500 0.722656
vt 0.539063 0.820313
vt 0.492188 0.691406
vt 0.539063 0.820313
vt 0.476563 0.781250
vt 0.492188 0.691406
vt 0.476563 0.781250
vt 0.359375 0.781250
vt 0.492188 0.691406
vt 0.359375 0.781250
vt 0.335938 0.691406
vt 0.492188 0.691406
vt 0.648438 0.855469
vt 0.726563 0.789063
vt 0.765625 0.851563
vt 0.882813 0.789063
vt 0.789063 0.789063
vt 0.882813 0.843750
vt 0.031250 0.824219
vt 0.125000 0.824219
vt 0.039063 0.886719
vt 0.359375 0.781250
vt 0.476563 0.781250
vt 0.367188 0.781250
vt 0.476563 0.781250
vt 0.468750 0.781250
vt 0.367188 0.781250
vt 0.632813 0.753906
vt 0.578125 0.753906
vt 0.679688 0.714844
vt 0.742188 0.714844
vt 0.679688 0.714844
vt 0.632813 0.753906
vt 0.789063 0.789063
vt 0.765625 0.851563
vt 0.726563 0.789063
vt 0.789063 0.789063
vt 0.882813 0.789063
vt 0.882813 0.843750
vt 0.632813 0.753906
vt 0.734375 0.714844
vt 0.710938 0.753906
vt 0.632813 0.753906
vt 0.710938 0.753906
vt 0.742188 0.714844
vt 0.367188 0.781250
vt 0.468750 0.781250
vt 0.414063 0.785156
vt 0.890625 0.945313
vt 0.789063 0.953125
vt 0.765625 0.925781
vt 0.125000 0.968750
vt 0.117188 0.980469
vt 0.039063 0.925781
vt 0.789063 0.953125
vt 0.765625 0.925781
vt 0.648438 0.894531
vt 0.453125 0.839844
vt 0.429688 0.835938
vt 0.429688 0.832031
vt 0.882813 0.843750
vt 0.789063 0.789063
vt 0.765625 0.851563
vt 0.734375 0.714844
vt 0.632813 0.753906
vt 0.679688 0.714844
vt 0.632813 0.753906
vt 0.679688 0.714844
vt 0.578125 0.753906
vt 0.125000 0.824219
vt 0.125000 0.753906
vt 0.210938 0.824219
vt 0.406250 0.832031
vt 0.429688 0.832031
vt 0.406250 0.835938
vt 0.429688 0.832031
vt 0.429688 0.835938
vt 0.406250 0.835938
vt 0.117188 0.933594
vt 0.039063 0.925781
vt 0.125000 0.886719
vt 0.039063 0.925781
vt 0.039063 0.886719
vt 0.125000 0.886719
vt 0.359375 0.781250
vt 0.289063 0.820313
vt 0.335938 0.691406
vt 0.289063 0.820313
vt 0.273438 0.722656
vt 0.335938 0.691406
vt 0.406250 0.835938
vt 0.406250 0.878906
vt 0.390625 0.871094
vt 0.328125 0.925781
vt 0.343750 0.960938
vt 0.265625 0.925781
vt 0.320313 0.890625
vt 0.281250 0.886719
vt 0.328125 0.882813
vt 0.273438 0.878906
vt 0.289063 0.820313
vt 0.375000 0.839844
vt 0.367188 0.781250
vt 0.375000 0.832031
vt 0.289063 0.820313
vt 0.414063 0.800781
vt 0.468750 0.781250
vt 0.429688 0.832031
vt 0.554688 0.878906
vt 0.554688 0.886719
vt 0.500000 0.882813
vt 0.554688 0.886719
vt 0.570313 0.925781
vt 0.507813 0.890625
vt 0.203125 0.886719
vt 0.210938 0.925781
vt 0.125000 0.886719
vt 0.210938 0.925781
vt 0.117188 0.933594
vt 0.125000 0.886719
vt 0.210938 0.824219
vt 0.203125 0.886719
vt 0.125000 0.824219
vt 0.414063 0.785156
vt 0.414063 0.800781
vt 0.367188 0.781250
vt 0.648438 0.851563
vt 0.765625 0.851563
vt 0.726563 0.789063
vt 0.328125 0.925781
vt 0.414063 0.925781
vt 0.343750 0.960938
vt 0.507813 0.925781
vt 0.484375 0.960938
vt 0.414063 0.925781
vt 0.507813 0.925781
vt 0.570313 0.925781
vt 0.484375 0.960938
vt 0.281250 0.886719
vt 0.320313 0.890625
vt 0.265625 0.925781
vt 0.789063 0.953125
vt 0.671875 0.937500
vt 0.765625 0.925781
vt 0.671875 0.937500
vt 0.648438 0.894531
vt 0.765625 0.925781
vt 0.226563 0.730469
vt 0.210938 0.824219
vt 0.125000 0.753906
vt 0.125000 0.886719
vt 0.125000 0.824219
vt 0.203125 0.886719
vt 0.125000 0.886719
vt 0.039063 0.886719
vt 0.125000 0.824219
vt 0.375000 0.839844
vt 0.406250 0.832031
vt 0.406250 0.835938
vt 0.429688 0.835938
vt 0.453125 0.839844
vt 0.437500 0.871094
vt 0.406250 0.878906
vt 0.429688 0.835938
vt 0.421875 0.878906
vt 0.328125 0.925781
vt 0.320313 0.890625
vt 0.414063 0.925781
vt 0.320313 0.890625
vt 0.406250 0.878906
vt 0.414063 0.925781
vt 0.406250 0.835938
vt 0.429688 0.835938
vt 0.406250 0.878906
vt 0.507813 0.925781
vt 0.414063 0.925781
vt 0.507813 0.890625
vt 0.414063 0.925781
vt 0.421875 0.878906
vt 0.507813 0.890625
vt 0.906250 0.851563
vt 0.882813 0.843750
vt 0.765625 0.851563
vt 0.906250 0.851563
vt 0.765625 0.851563
vt 0.882813 0.843750
vt 0.554688 0.878906
vt 0.500000 0.882813
vt 0.453125 0.839844
vt 0.273438 0.878906
vt 0.375000 0.839844
vt 0.328125 0.882813
vt 0.437500 0.871094
vt 0.453125 0.839844
vt 0.500000 0.882813
vt 0.406250 0.835938
vt 0.390625 0.871094
vt 0.375000 0.839844
vt 0.765625 0.925781
vt 0.929688 0.925781
vt 0.890625 0.945313
vt 0.882813 0.890625
vt 0.765625 0.925781
vt 0.929688 0.925781
vt 0.882813 0.890625
vt 0.929688 0.925781
vt 0.765625 0.925781
vt 0.320313 0.890625
vt 0.328125 0.882813
vt 0.406250 0.878906
vt 0.328125 0.882813
vt 0.390625 0.871094
vt 0.406250 0.878906
vt 0.117188 0.933594
vt 0.210938 0.925781
vt 0.125000 0.968750
vt 0.039063 0.925781
vt 0.117188 0.933594
vt 0.125000 0.968750
vt 0.406250 0.878906
vt 0.421875 0.878906
vt 0.414063 0.925781
vt 0.343750 0.960938
vt 0.414063 0.925781
vt 0.414063 0.964844
vt 0.328125 0.925781
vt 0.265625 0.925781
vt 0.320313 0.890625
vt 0.507813 0.925781
vt 0.507813 0.890625
vt 0.570313 0.925781
vt 0.375000 0.839844
vt 0.375000 0.832031
vt 0.406250 0.832031
vt 0.507813 0.890625
vt 0.500000 0.882813
vt 0.554688 0.886719
vt 0.273438 0.878906
vt 0.328125 0.882813
vt 0.281250 0.886719
vt 0.375000 0.832031
vt 0.367188 0.781250
vt 0.406250 0.832031
vt 0.453125 0.839844
vt 0.429688 0.832031
vt 0.460938 0.832031
vt 0.429688 0.835938
vt 0.437500 0.871094
vt 0.421875 0.878906
vt 0.507813 0.890625
vt 0.421875 0.878906
vt 0.500000 0.882813
vt 0.421875 0.878906
vt 0.437500 0.871094
vt 0.500000 0.882813
vt 0.390625 0.871094
vt 0.328125 0.882813
vt 0.375000 0.839844
vt 0.460938 0.832031
vt 0.539063 0.820313
vt 0.453125 0.839844
vt 0.539063 0.820313
vt 0.554688 0.878906
vt 0.453125 0.839844
vt 0.890625 0.945313
vt 0.765625 0.925781
vt 0.789063 0.953125
vt 0.414063 0.968750
vt 0.484375 0.960938
vt 0.414063 0.984375
vt 0.484375 0.960938
vt 0.414063 0.964844
vt 0.414063 0.925781
vt 0.765625 0.925781
vt 0.890625 0.945313
vt 0.929688 0.925781
vt 0.414063 0.968750
vt 0.414063 0.984375
vt 0.351563 0.964844
vt 0.726563 0.789063
vt 0.765625 0.851563
vt 0.789063 0.789063
vt 0.882813 0.843750
vt 0.765625 0.851563
vt 0.789063 0.789063
vt 0.414063 0.800781
vt 0.429688 0.832031
vt 0.406250 0.832031
vt 0.539063 0.820313
vt 0.460938 0.832031
vt 0.468750 0.781250
vt 0.414063 0.785156
vt 0.468750 0.781250
vt 0.414063 0.800781
vt 0.414063 0.800781
vt 0.406250 0.832031
vt 0.367188 0.781250
vt 0.789063 0.042969
vt 0.789063 0.078125
vt 0.695313 0.042969
vt 0.789063 0.078125
vt 0.695313 0.078125
vt 0.695313 0.042969
vt 0.835938 0.042969
vt 0.835938 0.078125
vt 0.757813 0.042969
vt 0.835938 0.078125
vt 0.757813 0.078125
vt 0.757813 0.042969
vt 0.757813 0.042969
vt 0.757813 0.078125
vt 0.687500 0.042969
vt 0.757813 0.078125
vt 0.687500 0.078125
vt 0.687500 0.042969
vt 0.804688 0.042969
vt 0.804688 0.078125
vt 0.718750 0.042969
vt 0.804688 0.078125
vt 0.718750 0.078125
vt 0.718750 0.042969
vt 0.695313 0.042969
vt 0.695313 0.078125
vt 0.789063 0.042969
vt 0.695313 0.078125
vt 0.789063 0.078125
vt 0.789063 0.042969
vt 0.695313 0.449219
vt 0.695313 0.500000
vt 0.445313 0.449219
vt 0.695313 0.500000
vt 0.445313 0.500000
vt 0.445313 0.449219
vt 0.640625 0.449219
vt 0.640625 0.500000
vt 0.453125 0.449219
vt 0.640625 0.500000
vt 0.453125 0.500000
vt 0.453125 0.449219
vt 0.695313 0.449219
vt 0.695313 0.500000
vt 0.445313 0.449219
vt 0.695313 0.500000
vt 0.445313 0.500000
vt 0.445313 0.449219
vt 0.632813 0.449219
vt 0.632813 0.500000
vt 0.445313 0.449219
vt 0.632813 0.500000
vt 0.445313 0.500000
vt 0.445313 0.449219
vt 0.609375 0.195313
vt 0.609375 0.078125
vt 0.851563 0.195313
vt 0.609375 0.078125
vt 0.851563 0.078125
vt 0.851563 0.195313
vt 0.820313 0.007813
vt 0.820313 0.500000
vt 0.445313 0.007813
vt 0.820313 0.500000
vt 0.445313 0.500000
vt 0.445313 0.007813
vt 0.820313 0.007813
vt 0.820313 0.500000
vt 0.445313 0.007813
vt 0.820313 0.500000
vt 0.445313 0.500000
vt 0.445313 0.007813
vt 0.820313 0.007813
vt 0.820313 0.500000
vt 0.445313 0.007813
vt 0.820313 0.500000
vt 0.445313 0.500000
vt 0.445313 0.007813
vt 0.820313 0.007813
vt 0.820313 0.500000
vt 0.445313 0.007813
vt 0.820313 0.500000
vt 0.445313 0.500000
vt 0.445313 0.007813
vt 0.546875 0.085938
vt 0.914063 0.085938
vt 0.914063 0.316406
vt 0.546875 0.316406
vt 0.546875 0.085938
vt 0.914063 0.316406
vt 0.625000 0.207031
vt 0.625000 0.070313
vt 0.867188 0.207031
vt 0.625000 0.070313
vt 0.875000 0.070313
vt 0.867188 0.207031
vt 0.562500 0.152344
vt 0.828125 0.128906
vt 0.531250 0.097656
vt 0.828125 0.261719
vt 0.601563 0.187500
vt 0.828125 0.128906
vt 0.601563 0.187500
vt 0.562500 0.152344
vt 0.828125 0.128906
vt 0.453125 0.664063
vt 0.539063 0.523438
vt 0.632813 0.628906
vt 0.828125 0.128906
vt 0.562500 0.152344
vt 0.828125 0.261719
vt 0.562500 0.152344
vt 0.601563 0.187500
vt 0.828125 0.261719
vt 0.742188 0.246094
vt 0.562500 0.246094
vt 0.742188 0.113281
vt 0.562500 0.246094
vt 0.562500 0.113281
vt 0.742188 0.113281
vt 0.789063 0.628906
vt 0.875000 0.703125
vt 0.632813 0.628906
vt 0.875000 0.703125
vt 0.554688 0.703125
vt 0.632813 0.628906
vt 0.789063 0.628906
vt 0.976563 0.664063
vt 0.875000 0.703125
vt 0.460938 0.687500
vt 0.453125 0.664063
vt 0.554688 0.703125
vt 0.632813 0.628906
vt 0.539063 0.523438
vt 0.789063 0.628906
vt 0.539063 0.523438
vt 0.882813 0.523438
vt 0.789063 0.628906
vt 0.976563 0.664063
vt 0.789063 0.628906
vt 0.882813 0.523438
vt 0.562500 0.152344
vt 0.531250 0.097656
vt 0.828125 0.128906
vt 0.648438 0.855469
vt 0.765625 0.851563
vt 0.648438 0.894531
vt 0.906250 0.851563
vt 0.765625 0.851563
vt 0.882813 0.890625
vt 0.648438 0.851563
vt 0.648438 0.894531
vt 0.765625 0.851563
vt 0.765625 0.851563
vt 0.882813 0.890625
vt 0.765625 0.890625
vt 0.906250 0.851563
vt 0.882813 0.890625
vt 0.765625 0.851563
vt 0.765625 0.851563
vt 0.765625 0.890625
vt 0.648438 0.894531
vt 0.765625 0.851563
vt 0.765625 0.890625
vt 0.882813 0.890625
vt 0.765625 0.851563
vt 0.648438 0.894531
vt 0.765625 0.890625
vt 0.765625 0.925781
vt 0.882813 0.890625
vt 0.765625 0.890625
vt 0.765625 0.925781
vt 0.765625 0.890625
vt 0.648438 0.894531
vt 0.765625 0.925781
vt 0.648438 0.894531
vt 0.765625 0.890625
vt 0.765625 0.925781
vt 0.765625 0.890625
vt 0.882813 0.890625
vt 0.375000 0.832031
vt 0.375000 0.839844
vt 0.289063 0.820313
vt 0.460938 0.832031
vt 0.429688 0.832031
vt 0.468750 0.781250
vt 0.632813 0.628906
vt 0.554688 0.703125
vt 0.453125 0.664063
vt 0.960938 0.687500
vt 0.875000 0.703125
vt 0.976563 0.664063
s 1
f 36/1/2 15/2/3 6/3/1
f 15/4/5 10/5/6 6/6/4
f 10/7/8 15/8/9 9/9/7
f 15/10/11 17/11/12 9/12/10
f 17/13/14 16/14/15 9/15/13
f 16/16/17 8/17/18 9/18/16
f 3/19/20 14/20/21 18/21/19
f 49/22/23 21/23/24 50/24/22
f 15/25/26 36/26/27 1/27/25
f 16/28/29 17/29/30 22/30/28
f 17/31/32 23/32/33 22/33/31
f 20/34/35 14/35/36 16/36/34
f 23/37/38 17/38/39 21/39/37
f 20/40/41 18/41/42 14/42/40
f 20/43/44 48/44/45 47/45/43
f 20/46/47 22/47/48 48/48/46
f 21/49/50 49/50/51 23/51/49
f 22/52/53 23/53/54 42/54/52
f 26/55/56 5/56/57 45/57/55
f 31/58/59 5/59/60 27/60/58
f 5/61/62 33/62/63 27/63/61
f 58/64/65 38/65/66 40/66/64
f 50/67/68 21/68/69 19/69/67
f 22/70/71 20/71/72 16/72/70
f 21/73/74 17/74/75 15/75/73
f 36/76/77 6/77/78 14/78/76
f 37/79/80 40/80/81 57/81/79
f 40/82/83 38/83/84 57/84/82
f 39/85/86 27/86/87 35/87/85
f 27/88/89 1/89/90 35/90/88
f 16/91/92 14/92/93 8/93/91
f 14/94/95 34/95/96 8/96/94
f 57/97/98 12/98/99 7/99/97
f 51/100/101 43/101/102 53/102/100
f 4/103/104 46/104/105 29/105/103
f 47/106/107 48/107/108 59/108/106
f 22/109/110 55/110/111 48/111/109
f 13/112/113 23/113/114 40/114/112
f 50/115/116 32/116/117 41/117/115
f 32/118/119 54/119/120 2/120/118
f 3/121/122 25/122/123 35/123/121
f 25/124/125 39/125/126 35/126/124
f 14/127/128 3/128/129 36/129/127
f 42/130/131 13/131/132 22/132/130
f 1/133/134 19/134/135 15/135/133
f 51/136/137 28/137/138 43/138/136
f 52/139/140 30/140/141 28/141/139
f 52/142/143 54/143/144 30/144/142
f 46/145/146 4/146/147 53/147/145
f 5/148/149 31/149/150 45/150/148
f 31/151/152 25/152/153 45/153/151
f 34/154/155 14/155/156 6/156/154
f 35/157/158 36/158/159 3/159/157
f 35/160/161 1/161/162 36/162/160
f 59/163/164 37/164/165 57/165/163
f 38/166/167 58/167/168 11/168/166
f 12/169/170 38/170/171 44/171/169
f 51/172/173 4/173/174 28/174/172
f 4/175/176 12/176/177 28/177/175
f 57/178/179 38/179/180 12/180/178
f 52/181/182 28/182/183 2/183/181
f 28/184/185 44/185/186 2/186/184
f 32/187/188 50/188/189 19/189/187
f 46/190/191 18/191/192 47/192/190
f 50/193/194 41/194/195 58/195/193
f 47/196/197 59/197/198 29/198/196
f 11/199/200 58/200/201 41/201/199
f 57/202/203 7/203/204 59/204/202
f 45/205/206 43/206/207 26/207/205
f 54/208/209 33/209/210 30/210/208
f 53/211/212 43/212/213 45/213/211
f 4/214/215 29/215/216 12/216/214
f 29/217/218 7/218/219 12/219/217
f 39/220/221 25/221/222 31/222/220
f 27/223/224 39/224/225 31/225/223
f 12/226/227 44/227/228 28/228/226
f 43/229/230 28/230/231 24/231/229
f 51/232/233 53/233/234 4/234/232
f 52/235/236 2/236/237 54/237/235
f 59/238/239 55/239/240 37/240/238
f 2/241/242 41/242/243 32/243/241
f 47/244/245 29/245/246 46/246/244
f 55/247/248 22/248/249 37/249/247
f 58/250/251 40/251/252 56/252/250
f 38/253/254 11/254/255 44/255/253
f 2/256/257 44/257/258 41/258/256
f 44/259/260 11/260/261 41/261/259
f 7/262/263 29/263/264 59/264/262
f 56/265/266 49/266/267 58/267/265
f 49/268/269 50/269/270 58/270/268
f 26/271/272 33/272/273 5/273/271
f 24/274/275 30/275/276 26/276/274
f 30/277/278 24/278/279 28/279/277
f 33/280/281 26/281/282 30/282/280
f 24/283/284 26/284/285 43/285/283
f 15/286/287 19/287/288 21/288/286
f 47/289/290 18/290/291 20/291/289
f 13/292/293 40/293/294 37/294/292
f 49/295/296 56/296/297 23/297/295
f 42/298/299 23/299/300 13/300/298
f 13/301/302 37/302/303 22/303/301
f 68/304/305 69/305/306 66/306/304
f 69/307/308 67/308/309 66/309/307
f 62/310/311 63/311/312 60/312/310
f 63/313/314 61/314/315 60/315/313
f 60/316/317 61/317/318 68/318/316
f 61/319/320 69/320/321 68/321/319
f 66/322/323 67/323/324 64/324/322
f 67/325/326 65/326/327 64/327/325
f 64/328/329 65/329/330 62/330/328
f 65/331/332 63/332/333 62/333/331
f 71/334/334 73/335/334 70/336/334
f 73/337/335 72/338/335 70/339/335
f 75/340/336 77/341/336 71/342/336
f 77/343/337 73/344/337 71/345/337
f 74/346/338 76/347/338 75/348/338
f 76/349/339 77/350/339 75/351/339
f 70/352/340 72/353/340 74/354/340
f 72/355/341 76/356/341 74/357/341
f 73/358/342 77/359/342 72/360/342
f 77/361/343 76/362/343 72/363/343
f 79/364/344 81/365/344 78/366/344
f 81/367/345 80/368/345 78/369/345
f 83/370/346 85/371/346 79/372/346
f 85/373/347 81/374/347 79/375/347
f 82/376/348 84/377/348 83/378/348
f 84/379/349 85/380/349 83/381/349
f 78/382/350 80/383/350 82/384/350
f 80/385/351 84/386/351 82/387/351
f 85/388/352 84/389/352 80/390/352
f 81/391/353 85/392/353 80/393/353
f 96/394/355 86/395/356 94/396/354
f 86/397/358 87/398/359 94/399/357
f 88/400/361 86/401/362 96/402/360
f 91/403/364 93/404/365 87/405/363
f 93/406/367 89/407/368 87/408/366
f 93/409/370 91/410/371 95/411/369
f 86/412/373 88/413/374 90/414/372
f 88/415/376 92/416/377 90/417/375
f 91/418/378 87/419/378 90/420/378
f 87/421/379 86/422/379 90/423/379
f 97/424/381 96/425/382 95/426/380
f 96/427/384 94/428/385 95/429/383
f 97/430/387 92/431/388 96/432/386
f 89/433/390 93/434/391 94/435/389
f 95/436/393 91/437/394 97/438/392
f 91/439/396 90/440/397 97/441/395
f 92/442/399 97/443/400 90/444/398
f 89/445/402 94/446/403 87/447/401
f 3/448/459 18/449/460 25/450/458
f 32/451/462 19/452/463 54/453/461
f 1/454/465 27/455/466 19/456/464
f 18/457/468 53/458/469 98/459/467
f 46/460/471 53/461/472 18/462/470
f 18/463/474 98/464/475 25/465/473
f 19/466/477 99/467/478 54/468/476
f 19/469/480 27/470/481 99/471/479
f 33/472/483 54/473/484 99/474/482
f 33/475/486 99/476/487 27/477/485
f 45/478/489 25/479/490 98/480/488
f 45/481/492 98/482/493 53/483/491
f 55/484/495 59/485/496 48/486/494
f 56/487/498 40/488/499 23/489/497
f 95/490/501 94/491/502 93/492/500
f 88/493/504 96/494/505 92/495/503
s 1
