<?xml version="1.0"?>
<COLLADA xmlns="http://www.collada.org/2005/11/COLLADASchema" version="1.4.1">
    <asset>
        <contributor>
            <authoring_tool>J3D Ripoff Exporter</authoring_tool>
        </contributor>
        <created>2025-05-18T17:38:29.888Z</created>
        <modified>2025-05-18T17:38:29.888Z</modified>
		<unit meter="0.01" name="centimeter" ></unit>
        <up_axis>Y_UP</up_axis>
    </asset>
    <library_images>
        <image id="tex0">
            <init_from>iwa_s3tc.png</init_from>
        </image>
    </library_images>
    <library_effects>
        <effect id="effect0">
            <profile_COMMON>
                <newparam sid="surface0">
                    <surface type="2D">
                        <init_from>tex0</init_from>
                    </surface>
                </newparam>
                <newparam sid="sampler0">
                    <sampler2D>
                        <source>surface0</source>
                    </sampler2D>
                </newparam>
                <technique sid="COMMON">
                    <blinn>
                        <diffuse>
                            <texture texture="sampler0" texcoord="UVSET0"></texture>
                        </diffuse>
                    </blinn>
                </technique>
            </profile_COMMON>
        </effect>
    </library_effects>
    <library_materials>
        <material id="mat0" name="_mat3">
            <instance_effect url="#effect0"></instance_effect>
        </material>
    </library_materials>
    <library_geometries>
        <geometry id="mesh0">
            <mesh>
                <source id="points0">
                    <float_array id="pointarray0" count="258">25.31744384765625 -42.88180160522461 -27.89908218383789 31.157028198242188 -42.88180160522461 -22.428070068359375 18.749143600463867 -26.586305618286133 -15.417808532714844 37.08787155151367 -42.88180160522461 -13.641140937805176 21.754505157470703 -27.63735008239746 -8.495320320129395 21.52192497253418 -25.799269676208496 5.535749912261963 9.266805648803711 -15.933961868286133 -3.1239540576934814 10.68675708770752 -14.927892684936523 3.284914970397949 6.7674407958984375 -11.569112777709961 -3.395601987838745 6.7674407958984375 -9.302547454833984 3.5705599784851074 0.018482999876141548 -4.242679595947266 -0.04710699990391731 1.8088029623031616 -7.061698913574219 3.323828935623169 -1.864959955215454 -11.17894172668457 7.492280960083008 2.7126240730285645 -13.62637710571289 11.801358222961426 -2.5791759490966797 -11.7135009765625 7.492280960083008 1.5127160549163818 -15.037126541137695 12.821613311767578 -1.3411020040512085 -19.5938777923584 14.028246879577637 2.860356092453003 -17.884140014648438 15.981094360351562 2.9352550506591797 -26.658669471740723 22.04060935974121 9.552751541137695 -23.534696578979492 19.64698600769043 6.410182952880859 -16.388084411621094 11.975434303283691 -1.7189840078353882 -6.542545318603516 -3.1777310371398926 1.5127160549163818 -15.037126541137695 -9.975247383117676 -5.206727981567383 -7.093677520751953 -4.375225067138672 -1.3411020040512085 -19.5938777923584 -15.696372032165527 28.463666915893555 -42.88180160522461 26.799238204956055 19.619474411010742 -42.88180160522461 30.98826789855957 9.586718559265137 -29.176490783691406 27.79936981201172 10.496105194091797 -42.88180160522461 33.70348358154297 -3.76629900932312 -34.51738882064819 32.02806091308594 -23.884065628051758 -27.825217247009277 3.238037109375 -17.103408813476562 -24.74909210205078 13.126973152160645 -38.456329345703125 -42.88180160522461 5.660765171051025 -14.815628051757812 -25.136932373046875 19.14041519165039 -32.5273551940918 -42.88180160522461 19.237512588500977 -6.542961120605469 -7.298030853271484 -3.570560932159424 -6.600522994995117 -11.528936386108398 6.18677282333374 -6.603172779083252 -18.874942779541016 15.912126541137695 -6.432112216949463 -24.765810012817383 -19.7954158782959 -5.942726135253906 -42.88180160522461 -38.71047592163086 5.1907758712768555 -30.559536933898926 -25.845584869384766 2.6980268955230713 -42.88180160522461 -39.304805755615234 14.708879470825195 -42.88180160522461 -35.29151916503906 12.54975700378418 -34.73517656326294 -27.8101749420166 12.622493743896484 -29.185837745666504 -19.119178771972656 15.64323616027832 -32.10134172439575 -21.675735473632812 11.195786476135254 -15.991231918334961 -10.515603065490723 -10.05517292022705 -19.340970993041992 -12.735203742980957 -17.515216827392578 -20.16196060180664 -11.826948165893555 -13.282904624938965 -22.90146827697754 -12.881292343139648 -35.000606536865234 -42.88180160522461 -17.63040542602539 -35.000606536865234 -42.88180160522461 -18.648834228515625 -9.997688293457031 -12.468717575073242 6.18677282333374 -15.230812072753906 -17.918167114257812 3.3834619522094727 -9.150289535522461 -12.348489761352539 -0.9106079936027527 -17.43488883972168 -18.52153968811035 -3.3212890625 -10.05517292022705 -19.340970993041992 14.35705852508545 -14.702239990234375 -25.317214965820312 18.718149185180664 11.288551330566406 -27.400449752807617 24.06605339050293 14.447671890258789 -22.08665657043457 10.022830963134766 16.085256576538086 -21.943124771118164 10.897347450256348 19.180688858032227 -27.306270599365234 13.822190284729004 3.5450520515441895 -28.432671546936035 24.87248992919922 2.847198963165283 -24.42758560180664 -21.963563919067383 -6.603172779083252 -18.874942779541016 -14.290264129638672 -15.655396461486816 -42.88180160522461 -37.151912689208984 -13.387328147888184 -25.657258987426758 -22.03067970275879 -23.41412353515625 -42.88180160522461 -28.046287536621094 -29.183704376220703 -42.88180160522461 -23.611968994140625 -6.933004856109619 -25.07117748260498 -21.793346405029297 7.061814785003662 -17.43329429626465 -10.45871639251709 4.366535186767578 -13.628091812133789 -9.352245330810547 11.28250503540039 -15.004030227661133 -8.256914138793945 21.428804397583008 -31.44023895263672 15.352456092834473 2.4722299575805664 -42.88180160522461 38.311241149902344 -20.59166717529297 -42.88180160522461 32.529014587402344 -11.065890312194824 -33.78557252883911 29.918426513671875 40.003509521484375 -42.88180160522461 4.144187927246094 11.278045654296875 -28.306838035583496 -18.127967834472656 -6.727643966674805 -10.711708068847656 -5.8387651443481445 -17.630878448486328 -19.992504119873047 -12.257644653320312 6.728538990020752 -34.27758550643921 -24.444944381713867 -14.264287948608398 -30.560232162475586 20.245756149291992 -29.488609313964844 -42.88180160522461 24.135337829589844 2.860356092453003 -17.884140014648438 -10.79122543334961 6.360703945159912 -19.23609161376953 -16.38642692565918</float_array>
                    <technique_common>
                        <accessor count="86" source="#pointarray0" stride="3">
                            <param name="X" type="float"/>
                            <param name="Y" type="float"/>
                            <param name="Z" type="float"/>
                        </accessor>
                    </technique_common>
                </source>
                <source id="uvs0">
                    <float_array id="uvarray0" count="186">2.051435947418213 0.0727120041847229 1.9844030141830444 0.08072900772094727 2.0143120288848877 0.4884769916534424 1.89785897731781 0.09360402822494507 1.915097951889038 0.4729830026626587 1.719035029411316 0.5383769869804382 1.9341009855270386 0.7663200050592422 1.7351789474487305 0.8002510070800781 1.9944579601287842 0.8723890036344528 1.7084590196609497 0.9378819987177849 2.291567087173462 1.0560000017285347 1.5833690166473389 0.9921779995784163 1.1836589574813843 0.8978589996695518 1.3682429790496826 0.8444759994745255 1.149999976158142 0.8848209977149963 1.3277729749679565 0.8115600049495697 1.252058982849121 0.7021810114383698 1.3472620248794556 0.7467460036277771 1.3298289775848389 0.541597992181778 1.4371429681777954 0.6142899990081787 1.4600390195846558 0.7773679941892624 0.29156699776649475 1.0560000017285347 0.3909339904785156 0.995314999949187 0.24649900197982788 0.7781569957733154 0.5062059760093689 0.9801170006394386 0.3128730058670044 0.6586270034313202 1.5455119609832764 0.15285998582839966 1.465643048286438 0.1589980125427246 1.3945540189743042 0.4886220097541809 1.3821829557418823 0.16297698020935059 1.2484569549560547 0.36454498767852783 0.8193860054016113 0.4855930209159851 0.9828910231590271 0.5751160085201263 0.8341990113258362 0.12188601493835449 1.068498969078064 0.5744670033454895 0.9572389721870422 0.14178001880645752 0.5636910200119019 0.9763120003044605 0.9737380146980286 0.8874099999666214 1.1504119634628296 0.7224780023097992 0.38331401348114014 0.5264680087566376 0.33589598536491394 0.056870996952056885 0.22554999589920044 0.3762829899787903 0.26522600650787354 0.0559999942779541 0.1608009934425354 0.06188100576400757 0.15358500182628632 0.2715529799461365 0.05143599957227707 0.0727120041847229 0.014312000013887882 0.4884769916534424 0.10646899789571762 0.4196460247039795 0.09149400144815445 0.34478598833084106 0.04816799983382225 0.7540930062532425 0.48589399456977844 0.6691339910030365 0.5835580229759216 0.6504400074481964 0.5298879742622375 0.5820730030536652 0.6396039724349976 0.08775901794433594 0.6322939991950989 0.08626598119735718 0.9203870296478271 0.8644870072603226 0.8284639716148376 0.7274569869041443 0.6989229917526245 0.8570200055837631 0.7041540145874023 0.7029159963130951 1.0770150423049927 0.7088319957256317 1.0661239624023438 0.5694510042667389 1.4301409721374512 0.5264729857444763 1.6105910539627075 0.6355090141296387 1.6127159595489502 0.6402910053730011 1.596748948097229 0.5137600004673004 1.3325519561767578 0.5024769902229309 0.24806800484657288 0.5315409898757935 0.4153189957141876 0.6782230138778687 0.41468000411987305 0.05915498733520508 0.45573198795318604 0.501448005437851 0.5095459818840027 0.07249701023101807 0.5716519951820374 0.07899397611618042 0.38180699944496155 0.5160920023918152 2.1164820194244385 0.7190020084381104 2.167314052581787 0.8134389966726303 2.0481679439544678 0.7540930062532425 2.014780044555664 0.781481996178627 1.5942389965057373 0.41516798734664917 1.306777000427246 0.16972798109054565 1.107066035270691 0.16125601530075073 1.171841025352478 0.3793039917945862 1.7528280019760132 0.1196640133857727 0.014779999852180481 0.781481996178627 0.11564499884843826 0.4425389766693115 0.11648199707269669 0.7190020084381104 0.5181329846382141 0.889723002910614 0.5794839859008789 0.6539419889450073 0.2029699981212616 0.28764599561691284 1.0859630107879639 0.44380199909210205 1.0053730010986328 0.1489570140838623 0.21435600519180298 0.7075180113315582 0.16731399297714233 0.8134389966726303 0.1774110049009323 0.6663419902324677</float_array>
                    <technique_common>
                        <accessor count="93" source="#uvarray0" stride="2">
                            <param name="S" type="float"/>
                            <param name="T" type="float"/>
                        </accessor>
                    </technique_common>
                </source>
                <vertices id="vertices0">
                    <input semantic="POSITION" source="#points0"/>
                </vertices>
                <polylist count="150" material="Material1">
                    <input offset="0" semantic="VERTEX" source="#vertices0"/>
                    <input offset="1" semantic="TEXCOORD" source="#uvs0" set="0"/>
                    <vcount>3 3 3 3 3 3 3 3 3 3 3 3 3 3 3 3 3 3 3 3 3 3 3 3 3 3 3 3 3 3 3 3 3 3 3 3 3 3 3 3 3 3 3 3 3 3 3 3 3 3 3 3 3 3 3 3 3 3 3 3 3 3 3 3 3 3 3 3 3 3 3 3 3 3 3 3 3 3 3 3 3 3 3 3 3 3 3 3 3 3 3 3 3 3 3 3 3 3 3 3 3 3 3 3 3 3 3 3 3 3 3 3 3 3 3 3 3 3 3 3 3 3 3 3 3 3 3 3 3 3 3 3 3 3 3 3 3 3 3 3 3 3 3 3 3 3 3 3 3 3</vcount>
                    <p>2 2 1 1 0 0 3 3 1 1 2 2 4 4 3 3 2 2 5 5 3 3 4 4 6 6 5 5 4 4 7 7 5 5 6 6 8 8 7 7 6 6 9 9 7 7 8 8 10 10 9 9 8 8 11 11 9 9 10 10 14 14 13 13 12 12 15 15 13 13 14 14 16 16 15 15 14 14 17 17 15 15 16 16 18 18 17 17 16 16 19 19 15 15 17 17 13 13 15 15 19 19 20 20 13 13 19 19 11 11 13 13 20 20 9 9 11 11 20 20 22 23 21 22 10 21 23 24 21 22 22 23 24 25 23 24 22 23 27 28 26 27 25 26 28 29 26 27 27 28 29 30 28 29 27 28 32 33 31 32 30 31 33 34 31 32 32 33 34 35 33 34 32 33 36 37 23 24 35 36 14 14 23 24 36 37 37 38 14 14 36 37 40 41 39 40 38 39 41 42 39 40 40 41 42 43 41 42 40 41 43 44 42 43 40 41 0 45 42 43 43 44 2 46 0 45 43 44 45 48 43 44 44 47 2 46 43 44 45 48 46 49 2 46 45 48 49 52 48 51 47 50 50 53 48 51 49 52 51 54 50 53 49 52 54 57 53 56 52 55 55 58 53 56 54 57 48 51 55 58 54 57 53 56 56 59 52 55 57 60 56 59 53 56 31 32 57 60 53 56 18 18 19 19 17 17 58 61 19 19 18 18 27 28 58 61 18 18 58 61 59 62 19 19 60 63 59 62 58 61 61 64 60 63 58 61 62 65 18 18 29 30 27 28 18 18 62 65 29 30 27 28 62 65 38 39 24 25 63 66 64 67 24 25 38 39 67 70 66 69 65 68 68 71 66 69 67 70 65 68 69 72 39 40 66 69 69 72 65 68 71 74 8 8 70 73 10 10 8 8 71 74 46 75 4 4 2 2 72 76 4 4 46 75 61 64 5 5 60 63 73 77 5 5 61 64 6 6 72 76 8 8 4 4 72 76 6 6 29 30 75 79 74 78 76 80 75 79 29 30 73 77 77 81 5 5 25 26 77 81 73 77 78 83 72 82 44 47 70 84 72 82 78 83 55 58 31 32 53 56 30 31 31 32 55 58 79 85 23 24 64 67 35 36 23 24 79 85 30 31 50 53 32 33 80 86 50 53 30 31 40 41 81 87 43 44 38 39 81 87 40 41 64 67 47 50 79 85 38 39 47 50 64 67 12 12 11 11 10 10 13 13 11 11 12 12 61 64 27 28 25 26 58 61 27 28 61 64 76 80 18 18 16 16 29 30 18 18 76 80 21 22 14 14 12 12 23 24 14 14 21 22 16 16 37 38 76 80 14 14 37 38 16 16 9 9 59 62 7 7 19 19 59 62 9 9 83 89 82 88 34 35 75 79 82 88 83 89 82 88 76 80 56 59 75 79 76 80 82 88 22 23 70 84 84 90 71 91 70 84 22 23 38 39 66 69 49 52 69 72 66 69 38 39 81 87 44 47 43 44 63 66 44 47 81 87 37 38 56 59 76 80 36 37 56 59 37 38 36 37 35 36 54 57 35 36 79 85 47 50 36 37 52 55 56 59 63 66 24 25 84 90 68 71 51 54 49 52 82 88 57 60 34 35 54 57 52 55 36 37 63 66 81 87 38 39 49 52 66 69 68 71 47 50 54 57 35 36 5 5 77 81 3 3 85 92 70 84 78 83 24 25 64 67 23 24 74 78 28 29 29 30 84 90 70 84 85 92 72 76 70 73 8 8 10 21 71 91 22 23 44 47 72 82 46 49 19 19 9 9 20 20 84 90 24 25 22 23 10 21 21 22 12 12 47 50 48 51 54 57 78 83 63 66 85 92 5 5 59 62 60 63 5 5 7 7 59 62 85 92 63 66 84 90 78 83 44 47 63 66 33 34 57 60 31 32 34 35 57 60 33 34 61 64 25 26 73 77 56 59 57 60 82 88 45 48 44 47 46 49 38 39 49 52 47 50 69 72 38 39 39 40 30 31 48 51 80 86 80 86 48 51 50 53 48 51 30 31 55 58</p>
                </polylist>
            </mesh>
        </geometry>
    </library_geometries>
    <library_controllers>
        <controller id="controller0">
            <skin source="#mesh0">
                <bind_shape_matrix>1 0 0 0 0 1 0 0 0 0 1 0 0 0 0 1</bind_shape_matrix>
                <source id="joints0">
                    <Name_array id="JointArr0" count="3">jointnode-1 jointnode0 jointnode1</Name_array>
                    <technique_common>
                        <accessor source="#JointArr0" count="3">
                            <param name="JOINT" type="Name" />
                        </accessor>
                    </technique_common>
                </source>
                <source id="matrices0">
                    <float_array id="MatArr0" count="48">1 0 0 0 0 1 0 0 0 0 1 0 0 0 0 1 1 0 0 0 0 1 0 0 0 0 1 0 0 0 0 1 1 0 0 0 0 1 0 39.88774871826172 0 0 1 0 0 0 0 1</float_array>
                    <technique_common>
                        <accessor source="#MatArr0" count="3" stride="16">
                            <param type="float4x4" />
                        </accessor>
                    </technique_common>
                </source>
                <source id="weights0">
                    <float_array id="WeightArr0" count="1">1</float_array>
                    <technique_common>
                        <accessor source="#WeightArr0" count="1">
                            <param type="float" />
                        </accessor>
                    </technique_common>
                </source>
                <joints>
                    <input semantic="JOINT" source="#joints0" />
                    <input semantic="INV_BIND_MATRIX" source="#matrices0" />
                </joints>
                <vertex_weights count="86">
                    <input semantic="JOINT" offset="0" source="#joints0" />
                    <input semantic="WEIGHT" offset="1" source="#weights0" />
                    <vcount>1 1 1 1 1 1 1 1 1 1 1 1 1 1 1 1 1 1 1 1 1 1 1 1 1 1 1 1 1 1 1 1 1 1 1 1 1 1 1 1 1 1 1 1 1 1 1 1 1 1 1 1 1 1 1 1 1 1 1 1 1 1 1 1 1 1 1 1 1 1 1 1 1 1 1 1 1 1 1 1 1 1 1 1 1 1</vcount>
                    <v>2 0 2 0 2 0 2 0 2 0 2 0 2 0 2 0 2 0 2 0 2 0 2 0 2 0 2 0 2 0 2 0 2 0 2 0 2 0 2 0 2 0 2 0 2 0 2 0 2 0 2 0 2 0 2 0 2 0 2 0 2 0 2 0 2 0 2 0 2 0 2 0 2 0 2 0 2 0 2 0 2 0 2 0 2 0 2 0 2 0 2 0 2 0 2 0 2 0 2 0 2 0 2 0 2 0 2 0 2 0 2 0 2 0 2 0 2 0 2 0 2 0 2 0 2 0 2 0 2 0 2 0 2 0 2 0 2 0 2 0 2 0 2 0 2 0 2 0 2 0 2 0 2 0 2 0 2 0 2 0 2 0 2 0 2 0 2 0 2 0 2 0</v>
                </vertex_weights>
            </skin>
        </controller>
    </library_controllers>
    <library_visual_scenes>
        <visual_scene id="VisualSceneNode">
            <node id="node0" name="m0" type="NODE">
                <instance_controller url="#controller0">
                    <skeleton>#jointnode-1</skeleton>
                    <bind_material>
                        <technique_common>
                            <instance_material symbol="Material1" target="#mat0">
                                <bind_vertex_input semantic="UVSET0" input_semantic="TEXCOORD" input_set="0"></bind_vertex_input>
                            </instance_material>
                        </technique_common>
                    </bind_material>
                </instance_controller>
            </node>
            <node id="jointnode-1" name="root" sid="jointnode-1" type="JOINT">
                <node id="jointnode0" name="test1" sid="jointnode0" type="JOINT">
                    <node id="jointnode1" name="shape" sid="jointnode1" type="JOINT">
                        <translate>0 -39.88774871826172 0</translate>
                    </node>
                </node>
            </node>
        </visual_scene>
    </library_visual_scenes>
    <scene>
        <instance_visual_scene url="#VisualSceneNode"></instance_visual_scene>
    </scene>
</COLLADA>
