<?xml version="1.0" encoding="utf-8"?>
<COLLADA xmlns="http://www.collada.org/2005/11/COLLADASchema" version="1.4.1">
  <asset>
    <contributor>
      <author>Blender User</author>
      <authoring_tool>Blender 2.78.0 commit date:2017-02-24, commit time:14:33, hash:e92f235283</authoring_tool>
    </contributor>
    <created>2024-03-06T21:36:21</created>
    <modified>2024-03-06T21:36:21</modified>
    <unit name="meter" meter="1"/>
    <up_axis>Z_UP</up_axis>
  </asset>
  <library_images>
    <image id="cs_f_a_body_png" name="cs_f_a_body_png">
      <init_from>cs_f_a_body.png</init_from>
    </image>
  </library_images>
  <library_effects>
    <effect id="csfa-effect">
      <profile_COMMON>
        <newparam sid="cs_f_a_body_png-surface">
          <surface type="2D">
            <init_from>cs_f_a_body_png</init_from>
          </surface>
        </newparam>
        <newparam sid="cs_f_a_body_png-sampler">
          <sampler2D>
            <source>cs_f_a_body_png-surface</source>
          </sampler2D>
        </newparam>
        <technique sid="common">
          <phong>
            <emission>
              <color sid="emission">0 0 0 1</color>
            </emission>
            <ambient>
              <color sid="ambient">0 0 0 1</color>
            </ambient>
            <diffuse>
              <texture texture="cs_f_a_body_png-sampler" texcoord="csfa-mesh-map-0"/>
            </diffuse>
            <specular>
              <color sid="specular">0.0625 0.0625 0.0625 1</color>
            </specular>
            <shininess>
              <float sid="shininess">50</float>
            </shininess>
            <transparent opaque="A_ONE">
              <texture texture="cs_f_a_body_png-sampler" texcoord="csfa-mesh-map-0"/>
            </transparent>
            <index_of_refraction>
              <float sid="index_of_refraction">1</float>
            </index_of_refraction>
          </phong>
        </technique>
      </profile_COMMON>
    </effect>
  </library_effects>
  <library_materials>
    <material id="csfa-material" name="csfa">
      <instance_effect url="#csfa-effect"/>
    </material>
  </library_materials>
  <library_geometries>
    <geometry id="csfa-mesh" name="csfa">
      <mesh>
        <source id="csfa-mesh-positions">
          <float_array id="csfa-mesh-positions-array" count="1005">0 -34.9959 80 0 -52.07812 128.8257 0 -87.7055 255.8302 0 -88.59519 350 0 92.96987 360.7048 0 75.40211 350.7521 0 100.1156 246.3415 0 70.75728 161.9254 0 -60.32352 161.8028 0 -76.96163 236.5749 0 92.90376 231.3371 0 -88.73793 320.2287 0 67.83948 338.5622 0 -86.79055 239.0649 0 -64.94804 231.1876 0 -98.37637 307.4708 0 -95.29125 382.26 0 95.29125 382.26 0 68.80915 149.3973 0 81.62894 299.5734 0 95.00809 269.1258 0 -105.4335 391.0748 0 -105.4335 400 0 105.4335 391.0748 0 105.4335 400 0 -97.07234 273.0462 47.28095 80.13336 70.76496 48.17558 49.66749 80 56.86924 97.4625 20 59.57827 47.38249 20 56.7817 51.45664 44.61288 54.07266 88.88776 44.61288 0 -100.6694 294.4114 0 70.11067 322.4797 69.52593 -32.20746 80 51.77534 -54.97425 105.3678 55.91957 -60.85717 260.6311 66.96522 -60.05178 347.7242 54.59492 -80.3677 360.6809 94.56119 46.52421 360.681 78.04183 36.93989 348.9728 89.56277 56.54602 277.4364 50.49131 24.07072 106.1706 62.80635 33.17904 80 74.15209 4.258174 80 69.55678 -8.066298 97.46842 90.18317 -30.27661 282.8182 94.50108 -5.539134 347.0946 109.1898 0.07855099 360.681 36.51324 -79.66281 187.6677 94.37248 15.53027 148.7723 58.56548 66.93257 190.202 39.82764 -67.25051 130.8758 72.65398 -10.04037 113.2742 53.16861 26.79866 137.6105 51.64513 -65.59162 240.7629 112.2557 25.32607 244.3271 71.95764 44.65333 174.1417 70.8214 -62.80565 342.6466 93.48828 2.220976 323.7712 76.93264 35.02604 329.3004 22.6973 99.42667 239.4925 71.8467 74.15795 196.4498 97.71587 54.89721 177.6238 34.54642 69.08493 111.8152 27.41466 69.00924 140.5764 18.56205 74.32044 171.0842 41.72121 86.3048 196.6361 36.09595 95.57592 228.059 51.30207 74.51083 292.3004 42.7769 53.67601 334.0551 45.4856 61.31753 349.8661 54.59492 80.52479 360.6809 36.97647 91.54995 222.2516 0 96.58683 243.88 20.47602 96.65428 237.8523 51.56242 88.1527 212.7085 43.95388 -55.47406 104.6119 33.63692 -63.31922 130.6981 29.76159 -77.92526 185.6665 43.26198 -64.88043 241.0911 58.28532 -57.63168 256.6415 86.30738 -32.01804 286.8326 90.89611 -14.76547 308.8328 92.40807 -16.87475 330.8879 96.51966 -6.080516 302.4218 64.62096 -56.3121 256.124 36.24156 -75.58972 256.6884 12.41429 -82.34337 251.1263 34.81538 -68.39363 252.8634 20.80333 -64.20112 220.5603 8.316169 -87.39751 311.9707 7.73661 -88.14262 298.4626 29.75598 -84.3164 331.9112 56.00542 -82.52465 382.26 112.0109 0 382.26 97.00425 47.64562 382.26 56.00543 82.52465 382.26 91.28803 -33.64209 330.2579 73.66141 -43.73174 271.8506 14.81102 -83.90453 342.3183 21.09721 -70.94168 336.7887 85.74696 -39.55792 345.8018 94.56119 -46.36711 360.681 97.00425 -47.64563 382.26 91.75601 -28.74026 308.9895 85.98403 -43.19965 338.8739 18.56205 -61.53334 168.2351 28.37033 -62.86722 193.8315 114.4744 23.37477 182.431 40.1062 -75.9492 213.4939 33.21186 -67.81434 217.87 95.47501 -37.01682 244.1566 95.15494 -48.73394 201.3496 82.41802 -53.26473 177.1296 59.59882 -55.73292 134.6323 66.28457 -32.14512 100.7511 20.99418 90.97521 220.6152 28.37033 85.70992 196.483 36.46822 75.81459 170.9658 35.97573 47.71116 108.7368 29.44185 50.54198 139.2038 39.6692 61.75542 172.3708 42.90953 75.36724 196.5575 92.93014 71.22644 226.7242 45.58657 88.63999 252.272 71.52838 -67.46189 208.4129 77.34878 -44.10707 269.7434 44.6937 -34.34069 80 33.63549 -54.67977 107.1351 80.08152 -3.594926 133.2779 69.58277 -55.41128 158.3445 61.87783 -71.0578 176.8217 21.52823 -59.77943 139.6209 62.3336 -94.63199 391.0748 62.3336 -94.63199 400 107.9914 -54.63373 391.0748 107.9914 -54.63373 400 124.6977 0 391.0748 124.6977 3e-6 400 62.3336 94.63197 391.0748 107.9914 54.63374 391.0748 62.3336 94.63197 400 107.9914 54.63374 400 41.73087 -67.32215 346.2946 47.98063 -77.14231 341.3164 104.3714 -0.807127 275.8926 110.0661 -7.741824 245.4895 114.7382 -5.266762 210.3805 103.9353 -24.29964 179.6433 87.7953 -31.6451 159.0789 73.09226 -36.53451 141.0257 67.99109 -36.97446 125.1286 107.1827 27.62412 158.9916 35.8582 -76.12072 156.0236 29.38702 -74.05961 158.5467 49.66469 64.16459 311.7998 98.72922 21.95913 293.0013 17.0239 -87.31145 317.4119 11.79074 -82.23548 321.8173 -47.28095 80.13336 70.77529 -48.17558 49.66749 80.01033 -56.86924 97.54386 20.01034 -59.57827 47.38249 20.01034 -56.7817 51.45664 44.62322 -54.07266 88.88776 44.62322 -69.52593 -32.20746 80 -51.77534 -54.97425 105.3678 -55.91957 -60.85717 260.6311 -66.96522 -60.05178 347.7242 -54.59492 -80.36771 360.6809 -94.56119 46.52421 360.681 -78.04183 36.93989 348.9728 -89.56277 56.54602 277.4364 -50.49131 24.07071 106.1706 -62.80635 33.17904 80 -74.15209 4.258174 80 -69.55678 -8.066298 97.46842 -90.18317 -30.27661 282.8182 -94.50108 -5.539135 347.0946 -109.1898 0.07855099 360.681 -36.51324 -79.66281 187.6677 -94.37248 15.53027 148.7723 -58.56548 66.93257 190.202 -39.82764 -67.25051 130.8758 -72.65398 -10.04037 113.2742 -53.16861 26.79866 137.6105 -51.64513 -65.59162 240.7629 -112.2557 25.32607 244.3271 -71.95764 44.65332 174.1417 -70.8214 -62.80565 342.6466 -93.48828 2.220976 323.7712 -76.93264 35.02604 329.3004 -22.6973 99.42668 239.4925 -71.8467 74.15794 196.4498 -97.71587 54.89721 177.6238 -34.54642 69.08493 111.8255 -27.41466 69.00924 140.5868 -18.56205 74.32044 171.0946 -41.72121 86.30481 196.6465 -36.09595 95.57593 228.059 -51.30207 74.51083 292.3004 -42.7769 53.67601 334.0551 -45.4856 61.31753 349.8661 -54.59492 80.52478 360.6809 -36.97647 91.54996 222.262 -20.47602 96.65428 237.8627 -51.56242 88.1527 212.7085 -43.95388 -55.47406 104.6119 -33.63692 -63.31922 130.6981 -29.76159 -77.92526 185.6665 -43.26198 -64.88043 241.0911 -58.28532 -57.63168 256.6415 -86.30738 -32.01804 286.8326 -90.89611 -14.76547 308.8328 -92.40807 -16.87475 330.8879 -96.51966 -6.080515 302.4218 -64.62096 -56.3121 256.124 -36.24156 -75.58972 256.6884 -12.41429 -82.34336 251.1263 -34.81538 -68.39363 252.8634 -20.80333 -64.20113 220.5603 -8.316169 -87.3975 311.9707 -7.73661 -88.14261 298.4626 -29.75598 -84.31641 331.9112 -56.00542 -82.52466 382.26 -112.0109 0 382.26 -97.00425 47.64562 382.26 -56.00543 82.52464 382.26 -91.28803 -33.64209 330.2579 -73.66141 -43.73174 271.8506 -14.81102 -83.90454 342.3183 -21.09721 -70.94168 336.7887 -85.74696 -39.55792 345.8018 -94.56119 -46.36711 360.681 -97.00425 -47.64563 382.26 -91.75601 -28.74026 308.9895 -85.98403 -43.19965 338.8739 -18.56205 -61.53334 168.2351 -28.37033 -62.86723 193.8315 -114.4744 23.37477 182.431 -40.1062 -75.94921 213.4939 -33.21186 -67.81434 217.87 -95.47501 -37.01682 244.1566 -95.15494 -48.73395 201.3496 -82.41802 -53.26474 177.1296 -59.59882 -55.73292 134.6323 -66.28457 -32.14512 100.7511 -20.99418 90.97522 220.6255 -28.37033 85.70993 196.4933 -36.46822 75.81458 170.9761 -35.97573 47.71116 108.7472 -29.44185 50.54198 139.2141 -39.6692 61.75542 172.3811 -42.90953 75.36724 196.5679 -92.93014 71.22644 226.7242 -45.58657 88.64 252.272 -71.52838 -67.4619 208.4129 -77.34878 -44.10707 269.7434 -44.6937 -34.34069 80 -33.63549 -54.67977 107.1351 -80.08152 -3.594926 133.2779 -69.58277 -55.41127 158.3445 -61.87783 -71.0578 176.8217 -21.52823 -59.77943 139.6209 -62.3336 -94.63201 391.0748 -62.3336 -94.63201 400 -107.9914 -54.63373 391.0748 -107.9914 -54.63373 400 -124.6977 0 391.0748 -124.6977 3e-6 400 -62.3336 94.63196 391.0748 -107.9914 54.63374 391.0748 -62.3336 94.63196 400 -107.9914 54.63374 400 -41.73087 -67.32215 346.2946 -47.98063 -77.14231 341.3164 -104.3714 -0.807126 275.8926 -110.0661 -7.741824 245.4895 -114.7382 -5.266762 210.3805 -103.9353 -24.29964 179.6433 -87.7953 -31.6451 159.0789 -73.09226 -36.53451 141.0257 -67.99109 -36.97446 125.1286 -107.1827 27.62412 158.9916 -35.8582 -76.12071 156.0236 -29.38702 -74.05961 158.5467 -49.66469 64.16459 311.7998 -98.72922 21.95913 293.0013 -17.0239 -87.31144 317.4119 -11.79074 -82.23546 321.8173 -10.24401 -79.62196 0.630485 -49.27154 -68.82305 0.630485 -6.230003 -88.88665 86.14147 -55.30852 -78.08773 83.34496 -6.230003 -75.20845 86.78456 -55.30852 -62.9331 83.98804 -6.230003 -10.58252 86.78456 -55.30852 -10.58254 83.98805 -10.24401 -69.61905 0.630485 -49.27154 -50.69967 0.630485 -50.66791 -67.07229 91.7051 -11.71651 -77.87122 94.03553 10.24401 -79.62196 0.630485 49.27154 -68.82305 0.630485 6.230007 -88.88665 86.14147 55.30852 -78.08773 83.34496 6.230008 -75.20845 86.78456 55.30852 -62.9331 83.98804 6.230008 -10.58252 86.78456 55.30852 -10.58254 83.98804 10.24401 -69.61905 0.630485 49.27154 -50.69967 0.630485 50.66791 -67.0723 91.7051 11.71651 -77.87122 94.03553 68.95224 46.20715 0 26.33741 74.76475 0 -26.33742 74.76474 0 -68.95224 46.20715 0 -85.22967 -4e-6 0 -68.95224 -46.20715 0 -26.33742 -73.90199 0 26.33742 -73.90199 0 68.95224 -46.20715 0 85.22967 0 0 72.15932 48.35632 80 27.56241 75.36543 80 -27.56242 75.36542 80 -72.15933 48.35632 80 -89.19384 -4e-6 80 -72.15933 -48.35632 80 -27.56241 -78.24217 80 27.56241 -78.24217 80 72.15933 -48.35632 80 89.19384 0 80</float_array>
          <technique_common>
            <accessor source="#csfa-mesh-positions-array" count="335" stride="3">
              <param name="X" type="float"/>
              <param name="Y" type="float"/>
              <param name="Z" type="float"/>
            </accessor>
          </technique_common>
        </source>
        <source id="csfa-mesh-normals">
          <float_array id="csfa-mesh-normals-array" count="1014">-0.002288877 -0.9995446 0.03009128 -0.4911445 -0.865828 0.09549438 -0.4874857 -0.8580518 -0.1615695 -0.6950553 -0.654403 -0.29775 -0.7756159 -0.6299781 -0.03933924 -0.8734937 -0.3612878 -0.3263127 -0.9773959 -0.2113733 -0.004303097 -0.9776252 0.1342239 -0.161966 -0.9677314 0.2014263 0.1514054 -0.6849329 0.7280254 0.02908438 -0.7198952 0.6178988 0.316152 -0.3631535 0.8511934 0.3789321 -0.3660764 0.8048493 0.4671251 0 0.939289 0.3431272 -0.3695622 0.9291396 -0.01110911 0 0.9698222 -0.2438136 0 0.6708022 -0.7416363 0.3695622 0.9291396 -0.01110911 0.277911 0.651165 -0.7062222 0.7568714 0.6357414 0.1515879 0.6528067 0.5117468 -0.5585328 0.9862684 0.1212235 0.1121591 0.9134308 0.0210275 -0.4064508 0.9938128 -0.1105084 0.01113933 0.8951506 -0.4099912 -0.174965 0.9525755 -0.2958258 0.07132411 0.8473038 -0.5223356 0.09613537 0.954612 -0.261489 -0.1426165 0.5213297 -0.8252097 0.217358 0.7241883 -0.6778603 0.1267154 0.6918112 -0.455775 -0.5600594 0.892356 0.02694857 -0.450527 0.8295907 0.001159667 -0.5583707 0.6941577 0.4549793 -0.5577983 0.7175884 0.4759101 -0.5085042 0.3653712 0.7483212 -0.5536417 0.3707782 0.7606002 -0.5329268 0 0.8742207 -0.4855289 0 0.8502386 -0.5263978 -0.3707782 0.7606002 -0.5329268 -0.277911 0.651165 -0.7062222 -0.6528067 0.5117468 -0.5585328 -0.7568714 0.6357414 0.1515879 -0.9862684 0.1212235 0.1121591 -0.9245504 0.226575 0.3063828 -0.9450246 -0.2384764 0.2237356 -0.9546395 -0.1632775 0.2490059 -0.7583826 -0.6007792 0.2528247 -0.9505195 -0.2653642 0.161538 -0.7690567 -0.6116074 0.1857101 0.7852252 -0.5041751 -0.3594841 0.543815 -0.8391762 0.006988763 0.4037052 -0.8287739 -0.3874997 0.2791581 -0.9596421 -0.03402876 0.4412113 -0.8505609 -0.2861449 0.3181925 -0.9429191 0.0982716 0.1497879 -0.9400501 0.3063815 -0.01522898 -0.8905754 0.4545807 -0.01950132 -0.9765328 0.2144844 0.4592191 -0.7323945 -0.5027087 0.5845984 -0.8099533 -0.04712188 0 -0.9938852 -0.1104181 0 -0.9163905 -0.4002857 -0.5845984 -0.8099533 -0.04712188 0 -0.9997505 -0.02234005 0 -0.9596479 0.2812045 0.3254875 -0.909595 0.2582536 -0.2112523 -0.7123738 -0.6692505 0.2134223 -0.7127202 -0.6681923 0.2267245 -0.7461858 0.6259415 0.6170421 -0.4802539 0.6233901 0.5906407 -0.4654199 -0.6591872 0.7840031 0 0.6207569 0.7531549 0 -0.6578432 0.6090393 0.4940738 0.6204534 0.5914843 0.4674255 -0.6570081 0.2135452 0.7349714 0.6435959 0.2190385 0.7263949 -0.651439 -0.2066156 0.7339279 0.6470394 -0.2121122 0.7254543 -0.6547706 -0.6109616 0.4873898 0.6238406 -0.5930848 0.4605082 -0.6604412 -0.7840031 0 0.6207569 -0.7531549 0 -0.6578432 -0.6175873 -0.478206 0.6244237 -0.5911566 -0.4632506 -0.660252 -0.2246204 -0.7459471 0.6269838 0.6771202 0.7102941 -0.1923293 -0.07010251 0.8857885 -0.4587642 0.7093613 0.6015974 -0.3672698 0.1193615 0.7380515 -0.664103 0.07721233 0.8883996 -0.4525313 0.2141553 0.8352578 -0.5064406 0.6849329 0.7280254 0.02908438 0.4839711 0.6840844 -0.5457111 0.9776252 0.1342239 -0.161966 0.6574732 0.3135839 -0.6851235 0.8734937 -0.3612878 -0.3263127 0.4664608 0.2657337 -0.8436825 0.7774207 -0.399621 -0.4857162 0.8111175 0.1740528 -0.5583853 0.8273428 -0.4101159 -0.3838084 0.9591147 0.1185351 -0.2569989 0.9000902 -0.3796841 -0.213723 0.9853113 0.1275091 0.1135923 0.9438068 -0.3304621 0.004852533 0.8973867 0.2026475 0.3919581 0.8499002 -0.5132118 -0.1195134 0.3660764 0.8048493 0.4671251 0.7198952 0.6178988 0.316152 0.3631535 0.8511934 0.3789321 0.9677314 0.2014263 0.1514054 0.9773959 -0.2113733 -0.004303097 0.7756159 -0.6299781 -0.03933924 0.6950553 -0.654403 -0.29775 0.4911445 -0.865828 0.09549438 0.4874857 -0.8580518 -0.1615695 0.002288877 -0.9995446 0.03009128 -0.03512769 -0.9652338 -0.2590172 -0.6589968 -0.7442974 0.1083729 -0.6224728 -0.747358 -0.2323439 -0.6918112 -0.455775 -0.5600594 -0.4037052 -0.8287739 -0.3874997 -0.3547882 -0.7465965 -0.562778 0 -0.9917902 -0.1278764 -0.4412113 -0.8505609 -0.2861449 0 -0.9721356 0.2344197 -0.1497879 -0.9400501 0.3063815 -0.3254875 -0.909595 0.2582536 0.01950132 -0.9765328 0.2144844 -0.4592191 -0.7323945 -0.5027087 -0.4283667 -0.8031417 -0.4140837 0 -0.7030054 -0.7111845 0 -0.5214846 -0.8532607 0.4283667 -0.8031417 -0.4140837 0.9245504 0.226575 0.3063828 0.9546395 -0.1632775 0.2490059 0.9505195 -0.2653642 0.161538 0.7583826 -0.6007792 0.2528247 0.7690567 -0.6116074 0.1857101 0.4248012 -0.8316265 0.3576888 0.3720911 -0.8510302 0.3705345 0.425646 -0.8963073 0.1243336 -0.6771202 0.7102941 -0.1923293 -0.7092095 0.6017202 -0.3673619 0.07068288 0.8855508 -0.4591338 -0.1192086 0.7380501 -0.6641321 -0.7184248 0.5160817 -0.4663963 -0.1629114 0.6456639 -0.7460415 -0.6599135 0.6554273 -0.3673273 -0.8111175 0.1740528 -0.5583853 -0.9591147 0.1185351 -0.2569989 -0.8273428 -0.4101159 -0.3838084 -0.9000845 -0.3796945 -0.2137289 -0.6984344 -0.6652293 -0.2639309 -0.9438068 -0.3304621 0.004852533 -0.4289785 -0.8234093 -0.3714497 -0.8499002 -0.5132118 -0.1195134 0.03644043 -0.8718553 -0.4884062 -0.5213297 -0.8252097 0.217358 -0.425646 -0.8963073 0.1243336 -0.6060857 -0.7560582 -0.2470549 -0.4112155 -0.7512908 -0.5162015 -0.07718145 -0.9849567 0.1546071 0 -0.4274762 -0.9040266 0.07718145 -0.9849567 0.1546071 -0.5343327 -0.7623426 -0.3651334 -0.5063811 -0.8405096 0.1926702 -0.9761517 -0.1811305 0.1196652 -0.7988445 -0.527924 0.288347 -0.4553846 -0.8142048 -0.3601326 0.4553846 -0.8142048 -0.3601326 0.01977616 -0.9104976 -0.4130413 0.6224728 -0.747358 -0.2323439 0.03512769 -0.9652338 -0.2590172 0.6589968 -0.7442974 0.1083729 0.1909891 -0.943928 0.2693013 -0.1296762 -0.926564 0.3530771 -0.3720911 -0.8510302 0.3705345 -0.5964744 0.7070773 -0.379816 -0.9024109 0.4097762 -0.1331841 -0.6043085 0.7895289 -0.1070304 -0.9097221 0.2847765 0.3021725 -0.6661736 0.6778625 0.3109909 -0.8952156 0.298568 0.3308266 -0.6341946 0.6770439 0.3733751 -0.9813285 0.07901287 0.1753604 -0.6721823 0.658998 0.3374798 -0.7143024 0.04666388 -0.6982799 -0.5753474 0.6782275 -0.4571466 -0.7774207 -0.399621 -0.4857162 -0.4664608 0.2657337 -0.8436825 -0.6574732 0.3135839 -0.6851235 -0.4839711 0.6840844 -0.5457111 -0.2141553 0.8352578 -0.5064406 -0.07693922 0.8883873 -0.4526017 0.06405878 0.9588679 -0.2765302 0.3532332 0.9092076 0.2203816 0.01763993 0.9771866 -0.211649 0 0.9453892 0.3259437 -6.10379e-5 0.9657424 -0.2595028 -0.01718199 0.9770562 -0.212288 0.1904425 0.8051996 -0.5615919 -0.0636028 0.9587727 -0.2769652 0.7626415 0 0.6468216 0.6378571 0.4125012 0.6503701 0.6378571 -0.4125012 0.6503701 0.3271056 -0.6850052 0.6509762 0.3271056 0.6850052 0.6509762 0 -0.7417961 0.6706256 0 0.7417961 0.6706256 -0.3271056 -0.6850052 0.6509762 -0.3271056 0.6850052 0.6509762 -0.6378571 -0.4125012 0.6503701 -0.6378571 0.4125012 0.6503701 -0.7626415 0 0.6468216 -0.954612 -0.261489 -0.1426165 -0.7241883 -0.6778603 0.1267154 -0.979317 -0.1931838 0.06015247 -0.9938128 -0.1105084 0.01113933 -0.9134308 0.0210275 -0.4064508 -0.892356 0.02694857 -0.450527 -0.7175884 0.4759101 -0.5085042 -0.6941577 0.4549793 -0.5577983 -0.3653712 0.7483212 -0.5536417 -0.8295907 0.001159667 -0.5583707 -0.7852252 -0.5041751 -0.3594841 -0.543815 -0.8391762 0.006988763 -0.2791581 -0.9596421 -0.03402876 -0.6066021 -0.7296255 0.3157224 -0.2590746 -0.8086582 0.5281593 0.3547882 -0.7465965 -0.562778 0 -0.9130057 -0.4079471 0 -0.8502828 -0.5263262 -0.3855433 -0.8079227 -0.4456652 -0.7548902 -0.4888857 -0.4371863 -0.9019913 8.24015e-4 -0.4317533 -0.7551068 0.4880025 -0.4377983 -0.3855528 0.8079121 -0.4456762 -0.8951506 -0.4099912 -0.174965 -0.9525755 -0.2958258 0.07132411 -0.8473038 -0.5223356 0.09613537 0.7988315 -0.527946 0.2883423 0.3163661 -0.9371957 -0.1468908 0.1910187 -0.8829772 -0.4287927 0 -0.9705986 -0.240704 0 -0.8834649 -0.4684976 -0.1910187 -0.8829772 -0.4287927 0.01825046 -0.7763487 -0.6300395 -0.03644043 -0.8718553 -0.4884062 0.9019913 8.24015e-4 -0.4317533 0.7548902 -0.4888857 -0.4371863 0.3855433 -0.8079227 -0.4456652 0.7110458 -0.6083167 -0.352654 0.6984344 -0.6652293 -0.2639309 -0.01977616 -0.9104976 -0.4130413 0.4289785 -0.8234093 -0.3714497 -0.3532332 0.9092076 0.2203816 0 0.9042952 0.4269078 0.9450246 -0.2384764 0.2237356 0.979317 -0.1931838 0.06015247 0.6207236 -0.4542431 -0.6390349 0.7161979 -0.6182612 0.3237494 -0.4958272 -0.6165337 -0.6115894 -0.5554804 -0.7493386 0.3604626 0.2872477 0.3294864 0.8994041 -0.2532159 0.1121267 0.9608899 0.8328918 0.1702345 0.5266039 -0.8510839 0.1829615 0.4921192 0.1296762 -0.926564 0.3530771 -0.4087131 0.7183305 -0.5629877 -0.613893 0.747384 -0.2540721 -0.5872228 0.7838284 0.2019465 0 -0.8688473 0.4950803 1.22077e-4 0.8515776 0.5242285 0.5873141 0.7837365 0.202038 6.10385e-4 0.9948968 -0.1008966 0.5964744 0.7070773 -0.379816 0.6026598 0.7905045 -0.1091056 0.9024259 0.4097524 -0.1331558 0.909701 0.2848405 0.3021757 0.6138883 0.7473781 -0.2541006 0.4085376 0.7183743 -0.5630591 -1.22076e-4 0.7111845 -0.7030054 -1.52596e-4 0.7840978 -0.6206373 -0.1901022 0.805821 -0.5608153 0.1629411 0.6456608 -0.7460379 0.6599366 0.6553893 -0.3673537 0.7185122 0.5160177 -0.4663326 0.840116 0.4988752 0.2129055 0.777964 0.4298319 0.4582757 0.8952156 0.298568 0.3308266 -0.3181925 -0.9429191 0.0982716 0.01522898 -0.8905754 0.4545807 0.7551068 0.4880025 -0.4377983 0.3855528 0.8079121 -0.4456762 0 0.9130057 -0.4079471 -0.8401452 0.4988133 0.2129356 -0.7780187 0.4297369 0.458272 0.6060857 -0.7560582 -0.2470549 0.4112155 -0.7512908 -0.5162015 0.2590746 -0.8086582 0.5281593 0.6066021 -0.7296255 0.3157224 -0.7110458 -0.6083167 -0.352654 0.5343327 -0.7623426 -0.3651334 -0.3163661 -0.9371957 -0.1468908 0.6658624 0.6779174 0.3115374 -0.8973867 0.2026475 0.3919581 -0.9853113 0.1275091 0.1135923 -0.4248012 -0.8316265 0.3576888 0.5756837 0.6772821 -0.4581237 0.6720655 0.6595526 0.3366279 0.6342259 0.6770142 0.3733756 -0.1909891 -0.943928 0.2693013 -0.01825046 -0.7763487 -0.6300395 0.9596536 0.06945413 0.2724723 0.9655153 0.1010796 0.2399231 0.9923052 0.07181733 0.1008601 0.9899176 0.05354857 0.1311326 0.9761517 -0.1811305 0.1196652 -0.6207236 -0.4542431 -0.6390349 0.4958272 -0.6165337 -0.6115894 -0.7161979 -0.6182612 0.3237494 0.5554804 -0.7493386 0.3604626 0.7145444 0 -0.69959 -0.8466618 0 -0.5321316 0.8510839 0.1829615 0.4921192 -0.8328918 0.1702345 0.5266039 0.2532159 0.1121267 0.9608899 -0.2872477 0.3294864 0.8994041 0.5063811 -0.8405096 0.1926702 0.7142109 0.04669439 -0.6983714 0.5003336 0 0.8658328 0.6310349 0 0.7757545 0.8466618 0 -0.5321316 -0.5003336 0 0.8658328 -0.7145444 0 -0.69959 -0.6310349 0 0.7757545</float_array>
          <technique_common>
            <accessor source="#csfa-mesh-normals-array" count="338" stride="3">
              <param name="X" type="float"/>
              <param name="Y" type="float"/>
              <param name="Z" type="float"/>
            </accessor>
          </technique_common>
        </source>
        <source id="csfa-mesh-map-0">
          <float_array id="csfa-mesh-map-0-array" count="3846">0.1466064 0.4641113 0.25 0.5195313 0.2202148 0.4375 0.3125 0.4453125 0.2202148 0.4375 0.25 0.5195313 0.25 0.5195313 0.3432617 0.5054932 0.3125 0.4453125 0.4226074 0.4586182 0.3125 0.4453125 0.3432617 0.5054932 0.3432617 0.5054932 0.4792481 0.5384522 0.4226074 0.4586182 0.5744629 0.4765625 0.4226074 0.4586182 0.4792481 0.5384522 0.4792481 0.5384522 0.5716553 0.6170654 0.5744629 0.4765625 0.71521 0.5770264 0.5744629 0.4765625 0.5716553 0.6170654 0.5716553 0.6170654 0.6606445 0.7017822 0.71521 0.5770264 0.7485352 0.7294922 0.71521 0.5770264 0.6606445 0.7017822 0.6606445 0.7017822 0.7279053 0.7677002 0.7485352 0.7294922 0.8497315 0.7819824 0.7485352 0.7294922 0.7279053 0.7677002 0.7279053 0.7677002 0.7080078 0.8148193 0.8497315 0.7819824 0.8275147 0.8300781 0.8497315 0.7819824 0.7080078 0.8148193 0.7080078 0.8148193 0.8244629 0.8696289 0.8275147 0.8300781 0.7080078 0.8148193 0.8275147 0.8300781 0.8244629 0.8696289 0.8244629 0.8696289 0.7055664 0.8690186 0.7080078 0.8148193 0.5865479 0.8088379 0.7080078 0.8148193 0.7055664 0.8690186 0.7055664 0.8690186 0.5837402 0.8690186 0.5865479 0.8088379 0.4924317 0.8051758 0.5865479 0.8088379 0.5837402 0.8690186 0.5837402 0.8690186 0.4334717 0.8735352 0.4924317 0.8051758 0.4139404 0.8233643 0.4924317 0.8051758 0.4334717 0.8735352 0.4334717 0.8735352 0.3070068 0.8592529 0.4139404 0.8233643 0.3404541 0.8010254 0.4139404 0.8233643 0.3070068 0.8592529 0.3070068 0.8592529 0.3093262 0.8322754 0.3404541 0.8010254 0.3532715 0.7653809 0.3404541 0.8010254 0.3093262 0.8322754 0.3093262 0.8322754 0.289917 0.6796875 0.3532715 0.7653809 0.3410645 0.7114258 0.3532715 0.7653809 0.289917 0.6796875 0.31604 0.9609375 0.4591065 0.9146729 0.4591065 0.9609375 0.5887451 0.9609375 0.4591065 0.9609375 0.4591065 0.9146729 0.4591065 0.9146729 0.5797119 0.9146729 0.5887451 0.9609375 0.7016602 0.9609375 0.5887451 0.9609375 0.5797119 0.9146729 0.5797119 0.9146729 0.6990967 0.9146729 0.7016602 0.9609375 0.8123779 0.9609375 0.7016602 0.9609375 0.6990967 0.9146729 0.6990967 0.9146729 0.8244629 0.9147949 0.8123779 0.9609375 0.6990967 0.9146729 0.8123779 0.9609375 0.8244629 0.9147949 0.8244629 0.9147949 0.7055664 0.8690186 0.6990967 0.9146729 0.5837402 0.8690186 0.6990967 0.9146729 0.7055664 0.8690186 0.7055664 0.8690186 0.5865479 0.8088379 0.5837402 0.8690186 0.4924317 0.8051758 0.5837402 0.8690186 0.5865479 0.8088379 0.5865479 0.8088379 0.5498047 0.7370606 0.4924317 0.8051758 0.4621582 0.7595215 0.4924317 0.8051758 0.5498047 0.7370606 0.5498047 0.7370606 0.4880371 0.6977539 0.4621582 0.7595215 0.3859863 0.7193604 0.4621582 0.7595215 0.4880371 0.6977539 0.4880371 0.6977539 0.4672852 0.6091309 0.3859863 0.7193604 0.3708496 0.6055908 0.3859863 0.7193604 0.4672852 0.6091309 0.4672852 0.6091309 0.4792481 0.5384522 0.3708496 0.6055908 0.3432617 0.5054932 0.3708496 0.6055908 0.4792481 0.5384522 0.4334717 0.8735352 0.31604 0.9146729 0.3070068 0.8592529 0.2283935 0.8736572 0.3070068 0.8592529 0.31604 0.9146729 0.31604 0.9146729 0.1778564 0.9146729 0.2283935 0.8736572 0.1533203 0.8659668 0.2283935 0.8736572 0.1778564 0.9146729 0.1778564 0.9146729 0.07202148 0.8625488 0.1533203 0.8659668 0.1099853 0.8406983 0.1533203 0.8659668 0.07202148 0.8625488 0.07202148 0.8625488 0.06665039 0.7890625 0.1099853 0.8406983 0.1120605 0.8087158 0.1099853 0.8406983 0.06665039 0.7890625 0.06665039 0.7890625 0.07336425 0.7722168 0.1120605 0.8087158 0.1425781 0.6412354 0.1120605 0.8087158 0.07336425 0.7722168 0.07336425 0.7722168 0.04406738 0.7216797 0.1425781 0.6412354 0.02966308 0.6153565 0.1425781 0.6412354 0.04406738 0.7216797 0.04406738 0.7216797 2.44141e-4 0.6511231 0.02966308 0.6153565 0.04406738 0.7216797 0.02966308 0.6153565 2.44141e-4 0.6511231 2.44141e-4 0.6511231 2.44141e-4 0.6992188 0.04406738 0.7216797 2.44141e-4 0.7281494 0.04406738 0.7216797 2.44141e-4 0.6992188 2.44141e-4 0.6992188 0.04406738 0.7216797 2.44141e-4 0.7281494 0.04492187 0.7546387 2.44141e-4 0.7281494 0.04406738 0.7216797 0.04406738 0.7216797 0.07336425 0.7722168 0.04492187 0.7546387 0.06665039 0.7890625 0.04492187 0.7546387 0.07336425 0.7722168 0.5 0.1558837 0.5 0.001098573 0.75 0.001098573 0.75 0.1558837 0.75 0.001098573 0.5 0.001098573 0.5 0.001098573 0.5 0.1558837 0.75 0.1558837 0.75 0.001098573 0.75 0.1558837 0.5 0.1558837 0.5 0.1558837 0.5 0.001098573 0.75 0.001098573 0.75 0.1558837 0.75 0.001098573 0.5 0.001098573 0.5 0.001098573 0.5 0.1558837 0.75 0.1558837 0.75 0.001098573 0.75 0.1558837 0.5 0.1558837 0.5 0.1558837 0.5 0.001098573 0.75 0.001098573 0.75 0.1558837 0.75 0.001098573 0.5 0.001098573 0.5 0.001098573 0.5 0.1558837 0.75 0.1558837 0.75 0.001098573 0.75 0.1558837 0.5 0.1558837 0.5 0.1558837 0.5 0.001098573 0.75 0.001098573 0.75 0.1558837 0.75 0.001098573 0.5 0.001098573 0.5 0.001098573 0.5 0.1558837 0.75 0.1558837 0.75 0.001098573 0.75 0.1558837 0.5 0.1558837 0.5 0.1558837 0.5 0.001098573 0.75 0.001098573 0.75 0.1558837 0.75 0.001098573 0.5 0.001098573 0.5 0.001098573 0.5 0.1558837 0.75 0.1558837 0.75 0.001098573 0.75 0.1558837 0.5 0.1558837 0.8640137 0.4689942 0.8580322 0.5261231 0.8312988 0.4498291 0.7805176 0.4210205 0.8312988 0.4498291 0.8580322 0.5261231 0.8580322 0.5261231 0.8017578 0.5239258 0.7805176 0.4210205 0.7495117 0.4859619 0.7805176 0.4210205 0.8017578 0.5239258 0.8017578 0.5239258 0.71521 0.5770264 0.7495117 0.4859619 0.6789551 0.4506836 0.7495117 0.4859619 0.71521 0.5770264 0.71521 0.5770264 0.5744629 0.4765625 0.6789551 0.4506836 0.597168 0.4001465 0.6789551 0.4506836 0.5744629 0.4765625 0.5744629 0.4765625 0.4226074 0.4586182 0.597168 0.4001465 0.5579834 0.3684082 0.597168 0.4001465 0.4226074 0.4586182 0.4226074 0.4586182 0.3778076 0.3928223 0.5579834 0.3684082 0.4814453 0.3200684 0.5579834 0.3684082 0.3778076 0.3928223 0.3778076 0.3928223 0.3393555 0.347168 0.4814453 0.3200684 0.4304199 0.2668457 0.4814453 0.3200684 0.3393555 0.347168 0.3393555 0.347168 0.3220215 0.3000488 0.4304199 0.2668457 0.4293213 0.21875 0.4304199 0.2668457 0.3220215 0.3000488 0.3220215 0.3000488 0.3227539 0.2279052 0.4293213 0.21875 0.4847412 0.1621093 0.4293213 0.21875 0.3227539 0.2279052 0.3227539 0.2279052 0.3189697 0.1621093 0.4847412 0.1621093 0.7279053 0.7677002 0.6606445 0.7017822 0.7485352 0.7294922 0.71521 0.5770264 0.7485352 0.7294922 0.6606445 0.7017822 0.6606445 0.7017822 0.5716553 0.6170654 0.71521 0.5770264 0.5744629 0.4765625 0.71521 0.5770264 0.5716553 0.6170654 0.5716553 0.6170654 0.4792481 0.5384522 0.5744629 0.4765625 0.4226074 0.4586182 0.5744629 0.4765625 0.4792481 0.5384522 0.4792481 0.5384522 0.3432617 0.5054932 0.4226074 0.4586182 0.3125 0.4453125 0.4226074 0.4586182 0.3432617 0.5054932 0.3432617 0.5054932 0.25 0.5195313 0.3125 0.4453125 0.2202148 0.4375 0.3125 0.4453125 0.25 0.5195313 0.25 0.5195313 0.1466064 0.4641113 0.2202148 0.4375 0.1491699 0.3876953 0.2202148 0.4375 0.1466064 0.4641113 0.1466064 0.4641113 0.1151123 0.4637451 0.1491699 0.3876953 0.1154785 0.3989258 0.1491699 0.3876953 0.1151123 0.4637451 0.31604 0.9609375 0.1778564 0.9146729 0.1778564 0.9609375 0.02331537 0.890625 0.1778564 0.9609375 0.1778564 0.9146729 0.1778564 0.9146729 0.07202148 0.8625488 0.02331537 0.890625 0.02331537 0.7849121 0.02331537 0.890625 0.07202148 0.8625488 0.07202148 0.8625488 0.06665039 0.7890625 0.02331537 0.7849121 0.04492187 0.7546387 0.02331537 0.7849121 0.06665039 0.7890625 0.06665039 0.7890625 0.07336425 0.7722168 0.04492187 0.7546387 0.04406738 0.7216797 0.04492187 0.7546387 0.07336425 0.7722168 0.07336425 0.7722168 0.1425781 0.6412354 0.04406738 0.7216797 0.02966308 0.6153565 0.04406738 0.7216797 0.1425781 0.6412354 0.1425781 0.6412354 0.07177734 0.5994873 0.02966308 0.6153565 0.02844238 0.5775147 0.02966308 0.6153565 0.07177734 0.5994873 0.07177734 0.5994873 0.02551269 0.5461426 0.02844238 0.5775147 0.07177734 0.5994873 0.02844238 0.5775147 0.02551269 0.5461426 0.8275147 0.8300781 0.7080078 0.8148193 0.8497315 0.7819824 0.7279053 0.7677002 0.8497315 0.7819824 0.7080078 0.8148193 0.7080078 0.8148193 0.5865479 0.8088379 0.7279053 0.7677002 0.6606445 0.7017822 0.7279053 0.7677002 0.5865479 0.8088379 0.5865479 0.8088379 0.5498047 0.7370606 0.6606445 0.7017822 0.5716553 0.6170654 0.6606445 0.7017822 0.5498047 0.7370606 0.5498047 0.7370606 0.4880371 0.6977539 0.5716553 0.6170654 0.4672852 0.6091309 0.5716553 0.6170654 0.4880371 0.6977539 0.4880371 0.6977539 0.3859863 0.7193604 0.4672852 0.6091309 0.3708496 0.6055908 0.4672852 0.6091309 0.3859863 0.7193604 0.3859863 0.7193604 0.3137207 0.6773682 0.3708496 0.6055908 0.2567139 0.638794 0.3708496 0.6055908 0.3137207 0.6773682 0.3137207 0.6773682 0.3061524 0.6829834 0.2567139 0.638794 0.2353515 0.6470947 0.2567139 0.638794 0.3061524 0.6829834 0.8640137 0.4689942 0.8312988 0.4498291 0.8580322 0.5261231 0.7805176 0.4210205 0.8580322 0.5261231 0.8312988 0.4498291 0.8312988 0.4498291 0.7883301 0.3662109 0.7805176 0.4210205 0.6716309 0.3751221 0.7805176 0.4210205 0.7883301 0.3662109 0.7883301 0.3662109 0.6434326 0.298584 0.6716309 0.3751221 0.4814453 0.3200684 0.6716309 0.3751221 0.6434326 0.298584 0.6434326 0.298584 0.4304199 0.2668457 0.4814453 0.3200684 0.3393555 0.347168 0.4814453 0.3200684 0.4304199 0.2668457 0.4304199 0.2668457 0.3220215 0.3000488 0.3393555 0.347168 0.2381591 0.3295899 0.3393555 0.347168 0.3220215 0.3000488 0.3220215 0.3000488 0.3227539 0.2279052 0.2381591 0.3295899 0.2077636 0.2498779 0.2381591 0.3295899 0.3227539 0.2279052 0.3227539 0.2279052 0.3189697 0.1621093 0.2077636 0.2498779 0.1535644 0.2469482 0.2077636 0.2498779 0.3189697 0.1621093 0.1800537 0.635376 0.1379394 0.5948486 0.125122 0.6107178 0.0805664 0.5622559 0.125122 0.6107178 0.1379394 0.5948486 0.1379394 0.5948486 0.1055908 0.5090332 0.0805664 0.5622559 -4.88281e-4 0.4692383 0.0805664 0.5622559 0.1055908 0.5090332 0.1055908 0.5090332 -4.88281e-4 0.4257813 -4.88281e-4 0.4692383 0.1055908 0.5090332 -4.88281e-4 0.4692383 -4.88281e-4 0.4257813 -4.88281e-4 0.4257813 0.05493164 0.4107666 0.1055908 0.5090332 0.09863281 0.4116211 0.1055908 0.5090332 0.05493164 0.4107666 0.05493164 0.4107666 0.06811523 0.3625488 0.09863281 0.4116211 0.1047363 0.3435059 0.09863281 0.4116211 0.06811523 0.3625488 0.06811523 0.3625488 0.06384277 0.3062744 0.1047363 0.3435059 0.1196289 0.2692871 0.1047363 0.3435059 0.06384277 0.3062744 0.06384277 0.3062744 0.1363525 0.1799316 0.1196289 0.2692871 0.1535644 0.2469482 0.1301269 0.3236084 0.2077636 0.2498779 0.1655273 0.3238525 0.2077636 0.2498779 0.1301269 0.3236084 0.1301269 0.3236084 0.1154785 0.3989258 0.1655273 0.3238525 0.1491699 0.3876953 0.1655273 0.3238525 0.1154785 0.3989258 0.1154785 0.3989258 0.1151123 0.4637451 0.1491699 0.3876953 0.1466064 0.4641113 0.1491699 0.3876953 0.1151123 0.4637451 0.1151123 0.4637451 0.1640625 0.5234375 0.1466064 0.4641113 0.25 0.5195313 0.1466064 0.4641113 0.1640625 0.5234375 0.1640625 0.5234375 0.1992187 0.6055908 0.25 0.5195313 0.2567139 0.638794 0.25 0.5195313 0.1992187 0.6055908 0.1992187 0.6055908 0.2353515 0.6470947 0.2567139 0.638794 0.3061524 0.6829834 0.2567139 0.638794 0.2353515 0.6470947 1.125488 0.470459 1.078125 0.4127197 1.120972 0.3858643 1.125488 0.3085938 1.120972 0.3858643 1.078125 0.4127197 1.078125 0.4127197 1.06958 0.3217774 1.125488 0.3085938 1.145996 0.2371826 1.125488 0.3085938 1.06958 0.3217774 1.06958 0.3217774 1.082886 0.2456054 1.145996 0.2371826 1.161255 0.1737059 1.145996 0.2371826 1.082886 0.2456054 1.082886 0.2456054 1.108398 0.1369628 1.161255 0.1737059 1.218384 0.08728027 1.161255 0.1737059 1.108398 0.1369628 1.108398 0.1369628 1.123657 0.06774902 1.218384 0.08728027 1.231812 0 1.218384 0.08728027 1.123657 0.06774902 1.123657 0.06774902 1.129883 0 1.231812 0 0.3393555 0.347168 0.3778076 0.3928223 0.4814453 0.3200684 0.5579834 0.3684082 0.4814453 0.3200684 0.3778076 0.3928223 0.3778076 0.3928223 0.4226074 0.4586182 0.5579834 0.3684082 0.597168 0.4001465 0.5579834 0.3684082 0.4226074 0.4586182 0.4226074 0.4586182 0.5744629 0.4765625 0.597168 0.4001465 0.6789551 0.4506836 0.597168 0.4001465 0.5744629 0.4765625 0.5744629 0.4765625 0.71521 0.5770264 0.6789551 0.4506836 0.7495117 0.4859619 0.6789551 0.4506836 0.71521 0.5770264 0.71521 0.5770264 0.8017578 0.5239258 0.7495117 0.4859619 0.7805176 0.4210205 0.7495117 0.4859619 0.8017578 0.5239258 0.8017578 0.5239258 0.8580322 0.5261231 0.7805176 0.4210205 0.8017578 0.5239258 0.836792 0.5550537 0.71521 0.5770264 0.8009033 0.6275635 0.71521 0.5770264 0.836792 0.5550537 0.836792 0.5550537 0.8580322 0.579834 0.8009033 0.6275635 0.8944092 0.6646729 0.8009033 0.6275635 0.8580322 0.579834 0.8580322 0.579834 0.8964844 0.591919 0.8944092 0.6646729 0.8580322 0.579834 0.8944092 0.6646729 0.8964844 0.591919 0.8964844 0.591919 0.8834229 0.5565186 0.8580322 0.579834 0.836792 0.5550537 0.8580322 0.579834 0.8834229 0.5565186 0.8834229 0.5565186 0.8580322 0.5261231 0.836792 0.5550537 0.8017578 0.5239258 0.836792 0.5550537 0.8580322 0.5261231 0.8156738 1 0.84021 1.094727 0.84021 0.9052734 0.9074707 0.8359375 0.84021 0.9052734 0.84021 1.094727 0.84021 1.094727 0.9074707 1.164062 0.9074707 0.8359375 0.9991455 0.8171387 0.9074707 0.8359375 0.9074707 1.164062 0.9074707 1.164062 0.9991455 1.182861 0.9991455 0.8171387 0.9074707 0.8359375 0.9991455 0.8171387 0.9991455 1.182861 0.9991455 1.182861 0.9074707 1.164062 0.9074707 0.8359375 0.84021 0.9052734 0.9074707 0.8359375 0.9074707 1.164062 0.9074707 1.164062 0.84021 1.094727 0.84021 0.9052734 0.8156738 1 0.84021 0.9052734 0.84021 1.094727 0.289917 0.6796875 0.3532715 0.7653809 0.3410645 0.7114258 0.4230957 0.7706299 0.3410645 0.7114258 0.3532715 0.7653809 0.3532715 0.7653809 0.4139404 0.8233643 0.4230957 0.7706299 0.4924317 0.8051758 0.4230957 0.7706299 0.4139404 0.8233643 0.4139404 0.8233643 0.4334717 0.8735352 0.4924317 0.8051758 0.5837402 0.8690186 0.4924317 0.8051758 0.4334717 0.8735352 0.4334717 0.8735352 0.4591065 0.9146729 0.5837402 0.8690186 0.5797119 0.9146729 0.5837402 0.8690186 0.4591065 0.9146729 0.4591065 0.9146729 0.5887451 0.9609375 0.5797119 0.9146729 0.7016602 0.9609375 0.5797119 0.9146729 0.5887451 0.9609375 0.5887451 0.9609375 0.4591065 0.9146729 0.4591065 0.9609375 0.31604 0.9609375 0.4591065 0.9609375 0.4591065 0.9146729 0.4591065 0.9146729 0.31604 0.9146729 0.31604 0.9609375 0.1778564 0.9146729 0.31604 0.9609375 0.31604 0.9146729 0.31604 0.9146729 0.2283935 0.8736572 0.1778564 0.9146729 0.1533203 0.8659668 0.1778564 0.9146729 0.2283935 0.8736572 0.2283935 0.8736572 0.2342529 0.8381348 0.1533203 0.8659668 0.163208 0.8338623 0.1533203 0.8659668 0.2342529 0.8381348 0.2342529 0.8381348 0.2230224 0.6580811 0.163208 0.8338623 0.1425781 0.6412354 0.163208 0.8338623 0.2230224 0.6580811 0.8006592 -0.2890625 0.8359375 -0.375 0.8006592 -0.375 0.8006592 -0.2890625 0.8006592 -0.375 0.8359375 -0.375 0.8359375 -0.375 0.8359375 -0.2890625 0.8006592 -0.2890625 0.8006592 -0.1953125 0.8006592 -0.2890625 0.8359375 -0.2890625 0.8359375 -0.2890625 0.8359375 -0.1953125 0.8006592 -0.1953125 0.8006592 -0.2890625 0.8006592 -0.1953125 0.8359375 -0.1953125 0.8359375 -0.1953125 0.8359375 -0.2890625 0.8006592 -0.2890625 0.8006592 -0.375 0.8006592 -0.2890625 0.8359375 -0.2890625 0.8359375 -0.2890625 0.8359375 -0.375 0.8006592 -0.375 0.8359375 -0.2890625 0.8006592 -0.375 0.8359375 -0.375 0.4591065 0.9146729 0.4334717 0.8735352 0.31604 0.9146729 0.3070068 0.8592529 0.31604 0.9146729 0.4334717 0.8735352 0.4334717 0.8735352 0.4139404 0.8233643 0.3070068 0.8592529 0.3404541 0.8010254 0.3070068 0.8592529 0.4139404 0.8233643 0.4139404 0.8233643 0.3532715 0.7653809 0.3404541 0.8010254 0.3093262 0.8322754 0.3404541 0.8010254 0.3532715 0.7653809 0.3532715 0.7653809 0.289917 0.6796875 0.3093262 0.8322754 0.2342529 0.8381348 0.3093262 0.8322754 0.289917 0.6796875 0.289917 0.6796875 0.2230224 0.6580811 0.2342529 0.8381348 0.1196289 0.2692871 0.1363525 0.1799316 0.06384277 0.3062744 0.08203125 0.2064208 0.06384277 0.3062744 0.1363525 0.1799316 0.1363525 0.1799316 0.1186523 0.1037597 0.08203125 0.2064208 -4.88281e-4 0.1691894 0.08203125 0.2064208 0.1186523 0.1037597 0.1186523 0.1037597 -4.88281e-4 0.001464784 -4.88281e-4 0.1691894 0.1186523 0.1037597 -4.88281e-4 0.1691894 -4.88281e-4 0.001464784 -4.88281e-4 0.001464784 0.1492919 0.001464784 0.1186523 0.1037597 0.161621 0.09399414 0.1186523 0.1037597 0.1492919 0.001464784 0.1492919 0.001464784 0.2468261 0.001464784 0.161621 0.09399414 0.5889893 0.9997559 0.463501 0.9997559 0.463501 0.9726563 0.3198242 0.9726563 0.463501 0.9726563 0.463501 0.9997559 0.463501 0.9997559 0.3198242 0.9997559 0.3198242 0.9726563 0.1785888 0.9726563 0.3198242 0.9726563 0.3198242 0.9997559 0.3198242 0.9997559 0.1785888 0.9997559 0.1785888 0.9726563 0.02478027 0.9726563 0.1785888 0.9726563 0.1785888 0.9997559 0.1785888 0.9997559 0.02478027 0.9997559 0.02478027 0.9726563 0.1785888 0.9997559 0.02478027 0.9726563 0.02478027 0.9997559 0.4226074 0.4586182 0.3125 0.4453125 0.3778076 0.3928223 0.2766113 0.394165 0.3778076 0.3928223 0.3125 0.4453125 0.3125 0.4453125 0.2202148 0.4375 0.2766113 0.394165 0.2381591 0.3295899 0.2766113 0.394165 0.2202148 0.4375 0.2202148 0.4375 0.1655273 0.3238525 0.2381591 0.3295899 0.2077636 0.2498779 0.2381591 0.3295899 0.1655273 0.3238525 0.1655273 0.3238525 0.1301269 0.3236084 0.2077636 0.2498779 0.1535644 0.2469482 0.2077636 0.2498779 0.1301269 0.3236084 0.8017578 0.5239258 0.71521 0.5770264 0.836792 0.5550537 0.8009033 0.6275635 0.836792 0.5550537 0.71521 0.5770264 0.71521 0.5770264 0.7485352 0.7294922 0.8009033 0.6275635 0.8944092 0.6646729 0.8009033 0.6275635 0.7485352 0.7294922 0.7485352 0.7294922 0.8682861 0.7398682 0.8944092 0.6646729 0.7485352 0.7294922 0.8944092 0.6646729 0.8682861 0.7398682 0.8682861 0.7398682 0.8497315 0.7819824 0.7485352 0.7294922 0.7279053 0.7677002 0.7485352 0.7294922 0.8497315 0.7819824 0.8543701 0.8884277 0.9447022 0.8193359 0.8198242 1 0.8543701 1.111694 0.8198242 1 0.9447022 0.8193359 0.9447022 0.8193359 1.056396 0.8193359 0.8543701 1.111694 0.9447022 1.180664 0.8543701 1.111694 1.056396 0.8193359 1.056396 0.8193359 1.146728 0.8884277 0.9447022 1.180664 1.056396 1.180664 0.9447022 1.180664 1.146728 0.8884277 1.146728 0.8884277 1.181274 1 1.056396 1.180664 1.146728 1.111694 1.056396 1.180664 1.181274 1 0.1778564 0.9609375 0.02331537 0.890625 0.02331537 0.9609375 0.1778564 0.9609375 0.02331537 0.9609375 0.02331537 0.890625 0.02331537 0.890625 0.1778564 0.9146729 0.1778564 0.9609375 0.31604 0.9609375 0.1778564 0.9609375 0.1778564 0.9146729 0.1778564 0.9146729 0.31604 0.9146729 0.31604 0.9609375 0.4591065 0.9146729 0.31604 0.9609375 0.31604 0.9146729 0.31604 0.9146729 0.4334717 0.8735352 0.4591065 0.9146729 0.5837402 0.8690186 0.4591065 0.9146729 0.4334717 0.8735352 0.4591065 0.9146729 0.5837402 0.8690186 0.5797119 0.9146729 0.6990967 0.9146729 0.5797119 0.9146729 0.5837402 0.8690186 0.5837402 0.8690186 0.7055664 0.8690186 0.6990967 0.9146729 0.8244629 0.9147949 0.6990967 0.9146729 0.7055664 0.8690186 0.7055664 0.8690186 0.8244629 0.8696289 0.8244629 0.9147949 0.7055664 0.8690186 0.8244629 0.9147949 0.8244629 0.8696289 0.8244629 0.8696289 0.7080078 0.8148193 0.7055664 0.8690186 0.5865479 0.8088379 0.7055664 0.8690186 0.7080078 0.8148193 0.5865479 0.8088379 0.4924317 0.8051758 0.5498047 0.7370606 0.4621582 0.7595215 0.5498047 0.7370606 0.4924317 0.8051758 0.4924317 0.8051758 0.4230957 0.7706299 0.4621582 0.7595215 0.3859863 0.7193604 0.4621582 0.7595215 0.4230957 0.7706299 0.4230957 0.7706299 0.3751221 0.730835 0.3859863 0.7193604 0.3137207 0.6773682 0.3859863 0.7193604 0.3751221 0.730835 0.3751221 0.730835 0.3061524 0.6829834 0.3137207 0.6773682 0.2609863 -0.1378173 0.4060059 -0.1489257 0.2609863 0.1386718 0.4060059 0.1497802 0.2609863 0.1386718 0.4060059 -0.1489257 0.4060059 -0.1489257 0.4511719 -0.131958 0.4060059 0.1497802 0.4511719 0.1328125 0.4060059 0.1497802 0.4511719 -0.131958 0.4511719 -0.131958 0.4053955 -0.1489257 0.4511719 0.1328125 0.4053955 0.1497802 0.4511719 0.1328125 0.4053955 -0.1489257 0.4792481 0.5384522 0.3708496 0.6055908 0.3432617 0.5054932 0.25 0.5195313 0.3432617 0.5054932 0.3708496 0.6055908 0.3708496 0.6055908 0.2567139 0.638794 0.25 0.5195313 0.1992187 0.6055908 0.25 0.5195313 0.2567139 0.638794 0.2567139 0.638794 0.2353515 0.6470947 0.1992187 0.6055908 0.1600341 0.6062012 0.1992187 0.6055908 0.2353515 0.6470947 2.032471 -0.3088379 1.966064 -0.3088379 1.966064 -0.4074707 2.032471 -0.4074707 1.966064 -0.4074707 1.966064 -0.3088379 1.966064 -0.3088379 2.032471 -0.3088379 2.032471 -0.4074707 1.966064 -0.4074707 2.032471 -0.4074707 2.032471 -0.3088379 2.032471 -0.3088379 1.966064 -0.3088379 1.966064 -0.4074707 2.032471 -0.3088379 1.966064 -0.4074707 1.966064 -0.3088379 1.045776 0.4134522 1.000854 0.388916 1.078125 0.4127197 1.001343 0.3450928 1.078125 0.4127197 1.000854 0.388916 1.000854 0.388916 0.9217529 0.4127197 1.001343 0.3450928 0.9302979 0.3217774 1.001343 0.3450928 0.9217529 0.4127197 0.9217529 0.4127197 0.8745117 0.3085938 0.9302979 0.3217774 0.8538818 0.2371826 0.9302979 0.3217774 0.8745117 0.3085938 1.103149 0.4752197 1.096436 0.517334 1.0625 0.4737549 1.048096 0.5185547 1.0625 0.4737549 1.096436 0.517334 1.096436 0.517334 1.056519 0.5653076 1.048096 0.5185547 1 0.5439453 1.048096 0.5185547 1.056519 0.5653076 1.056519 0.5653076 1 0.5839844 1 0.5439453 0.9434815 0.5653076 1 0.5439453 1 0.5839844 0.6716309 0.3751221 0.6434326 0.298584 0.7883301 0.3662109 0.7640381 0.2965088 0.7883301 0.3662109 0.6434326 0.298584 0.6434326 0.298584 0.6243897 0.2274169 0.7640381 0.2965088 0.7572022 0.2293701 0.7640381 0.2965088 0.6243897 0.2274169 0.6243897 0.2274169 0.6170654 0.1629638 0.7572022 0.2293701 0.7550049 0.1628417 0.7572022 0.2293701 0.6170654 0.1629638 0.1778564 0.9146729 0.1533203 0.8659668 0.07202148 0.8625488 0.1099853 0.8406983 0.07202148 0.8625488 0.1533203 0.8659668 0.1533203 0.8659668 0.163208 0.8338623 0.1099853 0.8406983 0.1120605 0.8087158 0.1099853 0.8406983 0.163208 0.8338623 0.163208 0.8338623 0.1425781 0.6412354 0.1120605 0.8087158 0.07336425 0.7722168 0.1120605 0.8087158 0.1425781 0.6412354 0.5579834 0.3684082 0.4814453 0.3200684 0.6716309 0.3751221 0.6434326 0.298584 0.6716309 0.3751221 0.4814453 0.3200684 0.4814453 0.3200684 0.4304199 0.2668457 0.6434326 0.298584 0.6243897 0.2274169 0.6434326 0.298584 0.4304199 0.2668457 0.4304199 0.2668457 0.4293213 0.21875 0.6243897 0.2274169 0.4847412 0.1621093 0.6243897 0.2274169 0.4293213 0.21875 0.463501 0.9726563 0.5889893 0.9726563 0.5889893 0.9997559 0.7006836 0.9997559 0.5889893 0.9997559 0.5889893 0.9726563 0.5889893 0.9726563 0.7004395 0.9726563 0.7006836 0.9997559 0.8104248 1.001343 0.7006836 0.9997559 0.7004395 0.9726563 0.7004395 0.9726563 0.8104248 0.9726563 0.8104248 1.001343 0.7004395 0.9726563 0.8104248 1.001343 0.8104248 0.9726563 0.7883301 0.3662109 0.7640381 0.2965088 0.6434326 0.298584 0.6243897 0.2274169 0.6434326 0.298584 0.7640381 0.2965088 0.7640381 0.2965088 0.7572022 0.2293701 0.6243897 0.2274169 0.6170654 0.1629638 0.6243897 0.2274169 0.7572022 0.2293701 0.7572022 0.2293701 0.7550049 0.1628417 0.6170654 0.1629638 0.3393555 0.347168 0.2381591 0.3295899 0.3220215 0.3000488 0.3227539 0.2279052 0.3220215 0.3000488 0.2381591 0.3295899 0.2381591 0.3295899 0.2077636 0.2498779 0.3227539 0.2279052 0.3189697 0.1621093 0.3227539 0.2279052 0.2077636 0.2498779 0.2077636 0.2498779 0.1535644 0.2469482 0.3189697 0.1621093 0.4880371 0.6977539 0.5498047 0.7370606 0.5716553 0.6170654 0.6606445 0.7017822 0.5716553 0.6170654 0.5498047 0.7370606 0.5498047 0.7370606 0.5865479 0.8088379 0.6606445 0.7017822 0.7279053 0.7677002 0.6606445 0.7017822 0.5865479 0.8088379 0.5865479 0.8088379 0.7080078 0.8148193 0.7279053 0.7677002 0.1800537 0.635376 0.125122 0.6107178 0.1379394 0.5948486 0.0805664 0.5622559 0.1379394 0.5948486 0.125122 0.6107178 0.125122 0.6107178 0.0715332 0.5797119 0.0805664 0.5622559 0.02307111 0.5366211 0.0805664 0.5622559 0.0715332 0.5797119 0.8834229 0.5565186 0.8964844 0.591919 0.9168701 0.5743408 0.8834229 0.5565186 0.9168701 0.5743408 0.8964844 0.591919 0.8964844 0.591919 0.8580322 0.579834 0.8834229 0.5565186 0.836792 0.5550537 0.8834229 0.5565186 0.8580322 0.579834 0.1425781 0.6412354 0.2230224 0.6580811 0.163208 0.8338623 0.2342529 0.8381348 0.163208 0.8338623 0.2230224 0.6580811 0.2230224 0.6580811 0.289917 0.6796875 0.2342529 0.8381348 0.3093262 0.8322754 0.2342529 0.8381348 0.289917 0.6796875 0.2381591 0.3295899 0.2766113 0.394165 0.3393555 0.347168 0.3778076 0.3928223 0.3393555 0.347168 0.2766113 0.394165 0.2766113 0.394165 0.3125 0.4453125 0.3778076 0.3928223 0.4226074 0.4586182 0.3778076 0.3928223 0.3125 0.4453125 1.966064 -0.4074707 2.032471 -0.4074707 2.032471 -0.3088379 1.966064 -0.3088379 2.032471 -0.3088379 2.032471 -0.4074707 2.032471 -0.4074707 1.966064 -0.4074707 1.966064 -0.3088379 2.032471 -0.4074707 1.966064 -0.3088379 1.966064 -0.4074707 0.04406738 0.7216797 2.44141e-4 0.7281494 0.04492187 0.7546387 0.02331537 0.7849121 0.04492187 0.7546387 2.44141e-4 0.7281494 2.44141e-4 0.7281494 0.04492187 0.7546387 0.02331537 0.7849121 0.06665039 0.7890625 0.02331537 0.7849121 0.04492187 0.7546387 0.161621 0.09399414 0.1363525 0.1799316 0.1186523 0.1037597 0.08203125 0.2064208 0.1186523 0.1037597 0.1363525 0.1799316 0.1363525 0.1799316 0.06384277 0.3062744 0.08203125 0.2064208 -4.88281e-4 0.1691894 0.08203125 0.2064208 0.06384277 0.3062744 0.8359375 -0.1953125 0.8359375 -0.2890625 0.8006592 -0.2890625 0.8006592 -0.375 0.8006592 -0.2890625 0.8359375 -0.2890625 0.8359375 -0.2890625 0.8359375 -0.375 0.8006592 -0.375 0.8359375 -0.2890625 0.8006592 -0.375 0.8359375 -0.375 0.7495117 0.4859619 0.6789551 0.4506836 0.7805176 0.4210205 0.6716309 0.3751221 0.7805176 0.4210205 0.6789551 0.4506836 0.6789551 0.4506836 0.597168 0.4001465 0.6716309 0.3751221 0.5579834 0.3684082 0.6716309 0.3751221 0.597168 0.4001465 1.078125 0.4127197 1.001343 0.3450928 1.06958 0.3217774 0.9171143 0.2456054 1.06958 0.3217774 1.001343 0.3450928 1.001343 0.3450928 0.9302979 0.3217774 0.9171143 0.2456054 0.8538818 0.2371826 0.9171143 0.2456054 0.9302979 0.3217774 0.3189697 0.1621093 0.3227539 0.2279052 0.4847412 0.1621093 0.4293213 0.21875 0.4847412 0.1621093 0.3227539 0.2279052 0.3227539 0.2279052 0.3220215 0.3000488 0.4293213 0.21875 0.4304199 0.2668457 0.4293213 0.21875 0.3220215 0.3000488 0.4230957 0.7706299 0.3859863 0.7193604 0.3751221 0.730835 0.3137207 0.6773682 0.3751221 0.730835 0.3859863 0.7193604 0.3859863 0.7193604 0.3708496 0.6055908 0.3137207 0.6773682 0.2567139 0.638794 0.3137207 0.6773682 0.3708496 0.6055908 0.2077636 0.2498779 0.1655273 0.3238525 0.2381591 0.3295899 0.2202148 0.4375 0.2381591 0.3295899 0.1655273 0.3238525 0.1655273 0.3238525 0.1491699 0.3876953 0.2202148 0.4375 0.1466064 0.4641113 0.2202148 0.4375 0.1491699 0.3876953 0.597168 0.4001465 0.6789551 0.4506836 0.6716309 0.3751221 0.7805176 0.4210205 0.6716309 0.3751221 0.6789551 0.4506836 0.6789551 0.4506836 0.7495117 0.4859619 0.7805176 0.4210205 1.129883 0 1.123657 0.06774902 0.8699951 0 0.8763428 0.06774902 0.8699951 0 1.123657 0.06774902 1.123657 0.06774902 0.8914795 0.1369628 0.8763428 0.06774902 1.045776 0.4134522 1.078125 0.4127197 1.0625 0.4737549 1.103149 0.4752197 1.0625 0.4737549 1.078125 0.4127197 1.078125 0.4127197 1.125488 0.470459 1.103149 0.4752197 0.125122 0.6107178 0.0805664 0.5622559 0.0715332 0.5797119 0.02307111 0.5366211 0.0715332 0.5797119 0.0805664 0.5622559 0.0805664 0.5622559 -4.88281e-4 0.4692383 0.02307111 0.5366211 0.8123779 0.9609375 0.6990967 0.9146729 0.7016602 0.9609375 0.5797119 0.9146729 0.7016602 0.9609375 0.6990967 0.9146729 0.6990967 0.9146729 0.5837402 0.8690186 0.5797119 0.9146729 0.1425781 0.6412354 0.163208 0.8338623 0.1120605 0.8087158 0.1099853 0.8406983 0.1120605 0.8087158 0.163208 0.8338623 0.163208 0.8338623 0.1533203 0.8659668 0.1099853 0.8406983 0.1992187 0.6055908 0.1640625 0.5234375 0.25 0.5195313 0.1466064 0.4641113 0.25 0.5195313 0.1640625 0.5234375 0.1640625 0.5234375 0.1151123 0.4637451 0.1466064 0.4641113 0.1151123 0.4637451 0.1640625 0.5234375 0.1259765 0.5372315 0.1600341 0.6062012 0.1259765 0.5372315 0.1640625 0.5234375 0.1640625 0.5234375 0.1992187 0.6055908 0.1600341 0.6062012 0.8359375 -0.2890625 0.8359375 -0.1953125 0.8006592 -0.2890625 0.8006592 -0.1953125 0.8006592 -0.2890625 0.8359375 -0.1953125 0.8359375 -0.1953125 0.8006592 -0.2890625 0.8006592 -0.1953125 0.08203125 0.2064208 -4.88281e-4 0.1691894 0.06384277 0.3062744 -4.88281e-4 0.2855225 0.06384277 0.3062744 -4.88281e-4 0.1691894 -4.88281e-4 0.1691894 0.06384277 0.3062744 -4.88281e-4 0.2855225 0.1363525 0.1799316 0.161621 0.09399414 0.1186523 0.1037597 0.1492919 0.001464784 0.1186523 0.1037597 0.161621 0.09399414 0.161621 0.09399414 0.2468261 0.001464784 0.1492919 0.001464784 0.4924317 0.8051758 0.4139404 0.8233643 0.4230957 0.7706299 0.3532715 0.7653809 0.4230957 0.7706299 0.4139404 0.8233643 0.4139404 0.8233643 0.3404541 0.8010254 0.3532715 0.7653809 0.31604 0.9146729 0.3070068 0.8592529 0.2283935 0.8736572 0.2342529 0.8381348 0.2283935 0.8736572 0.3070068 0.8592529 0.3070068 0.8592529 0.3093262 0.8322754 0.2342529 0.8381348 0.6434326 0.298584 0.6243897 0.2274169 0.4304199 0.2668457 0.4293213 0.21875 0.4304199 0.2668457 0.6243897 0.2274169 0.6243897 0.2274169 0.4847412 0.1621093 0.4293213 0.21875 0.3751221 0.730835 0.3137207 0.6773682 0.3061524 0.6829834 0.2567139 0.638794 0.3061524 0.6829834 0.3137207 0.6773682 0.8763428 0.06774902 0.8914795 0.1369628 0.7814942 0.08728027 0.8386231 0.1737059 0.7814942 0.08728027 0.8914795 0.1369628 0.4792481 0.5384522 0.4672852 0.6091309 0.5716553 0.6170654 0.4880371 0.6977539 0.5716553 0.6170654 0.4672852 0.6091309 0.4924317 0.8051758 0.4621582 0.7595215 0.4230957 0.7706299 0.3859863 0.7193604 0.4230957 0.7706299 0.4621582 0.7595215 0.3432617 0.5054932 0.25 0.5195313 0.3708496 0.6055908 0.2567139 0.638794 0.3708496 0.6055908 0.25 0.5195313 0.7814942 0.08728027 0.7680664 0 0.8763428 0.06774902 0.8699951 0 0.8763428 0.06774902 0.7680664 0 2.032471 -0.4074707 1.966064 -0.3088379 1.966064 -0.4074707 2.032471 -0.3088379 1.966064 -0.4074707 1.966064 -0.3088379 1.966064 -0.4074707 2.032471 -0.3088379 2.032471 -0.4074707 1.966064 -0.3088379 2.032471 -0.4074707 2.032471 -0.3088379 1.966064 -0.3088379 2.032471 -0.4074707 2.032471 -0.3088379 1.966064 -0.4074707 2.032471 -0.3088379 2.032471 -0.4074707 0.1785888 0.9726563 0.3198242 0.9997559 0.3198242 0.9726563 0.463501 0.9997559 0.3198242 0.9726563 0.3198242 0.9997559 0.02478027 0.9726563 0.1785888 0.9997559 0.1785888 0.9726563 0.3198242 0.9997559 0.1785888 0.9726563 0.1785888 0.9997559 0.5889893 0.9997559 0.463501 0.9726563 0.463501 0.9997559 0.3198242 0.9726563 0.463501 0.9997559 0.463501 0.9726563 0.7006836 0.9997559 0.5889893 0.9726563 0.5889893 0.9997559 0.463501 0.9726563 0.5889893 0.9997559 0.5889893 0.9726563 0.8104248 1.001343 0.7004395 0.9726563 0.7006836 0.9997559 0.5889893 0.9726563 0.7006836 0.9997559 0.7004395 0.9726563 0.8006592 -0.1953125 0.8359375 -0.2890625 0.8006592 -0.2890625 0.8359375 -0.375 0.8006592 -0.2890625 0.8359375 -0.2890625 0.8006592 -0.2890625 0.8359375 -0.1953125 0.8006592 -0.1953125 0.8359375 -0.2890625 0.8006592 -0.1953125 0.8359375 -0.1953125 0.8006592 -0.375 0.8359375 -0.2890625 0.8006592 -0.2890625 0.8359375 -0.1953125 0.8006592 -0.2890625 0.8359375 -0.2890625 0.163208 0.8338623 0.2342529 0.8381348 0.1533203 0.8659668 0.2283935 0.8736572 0.1533203 0.8659668 0.2342529 0.8381348 0.3093262 0.8322754 0.3070068 0.8592529 0.2342529 0.8381348 0.2283935 0.8736572 0.2342529 0.8381348 0.3070068 0.8592529 0.5716553 0.6170654 0.4672852 0.6091309 0.4792481 0.5384522 0.3708496 0.6055908 0.4792481 0.5384522 0.4672852 0.6091309 0.71521 0.5770264 0.8009033 0.6275635 0.7485352 0.7294922 0.8944092 0.6646729 0.7485352 0.7294922 0.8009033 0.6275635 0.3778076 0.3928223 0.2766113 0.394165 0.3393555 0.347168 0.2381591 0.3295899 0.3393555 0.347168 0.2766113 0.394165 0.2202148 0.4375 0.1491699 0.3876953 0.1655273 0.3238525 0.1154785 0.3989258 0.1655273 0.3238525 0.1491699 0.3876953 0.8017578 0.5239258 0.8580322 0.5261231 0.836792 0.5550537 0.8834229 0.5565186 0.836792 0.5550537 0.8580322 0.5261231 0.836792 0.5550537 0.8009033 0.6275635 0.8580322 0.579834 0.8944092 0.6646729 0.8580322 0.579834 0.8009033 0.6275635 0.2609863 -0.1378173 0.2609863 0.1386718 0.4060059 -0.1489257 0.4060059 0.1497802 0.4060059 -0.1489257 0.2609863 0.1386718 0.2609863 -0.1378173 0.2609863 0.1386718 0.3562012 -0.1341552 0.3525391 0.1491699 0.3562012 -0.1341552 0.2609863 0.1386718 0.4053955 0.1497802 0.4053955 -0.1489257 0.4511719 0.1328125 0.4511719 -0.131958 0.4511719 0.1328125 0.4053955 -0.1489257 0.1600341 0.6062012 0.1640625 0.5234375 0.1259765 0.5372315 0.1151123 0.4637451 0.1259765 0.5372315 0.1640625 0.5234375 0.9318848 -1.390747 0.9002686 -1.21106 1.062256 -1.397339 1.099609 -1.217895 1.062256 -1.397339 0.9002686 -1.21106 0.3859863 0.7193604 0.4880371 0.6977539 0.4621582 0.7595215 0.5498047 0.7370606 0.4621582 0.7595215 0.4880371 0.6977539 0.2353515 0.6470947 0.1992187 0.6055908 0.1600341 0.6062012 0.1640625 0.5234375 0.1600341 0.6062012 0.1992187 0.6055908 0.8312988 0.4498291 0.7805176 0.4210205 0.7883301 0.3662109 0.6716309 0.3751221 0.7883301 0.3662109 0.7805176 0.4210205 0.02307111 0.5366211 -4.88281e-4 0.4692383 0.0805664 0.5622559 0.1055908 0.5090332 0.0805664 0.5622559 -4.88281e-4 0.4692383 0.8608399 0.8933106 0.8278809 1 0.9471436 0.8273926 0.8608399 1.106689 0.9471436 0.8273926 0.8278809 1 1.120972 0.7910156 0.9343262 0.7910156 0.9592285 0.5982666 0.9300537 0.5968018 0.9592285 0.5982666 0.9343262 0.7910156 0.9471436 1.172607 1.053833 0.8273926 0.8608399 1.106689 0.9471436 0.8273926 0.8608399 1.106689 1.053833 0.8273926 1.053833 1.172607 1.140259 0.8933106 0.9471436 1.172607 1.053833 0.8273926 0.9471436 1.172607 1.140259 0.8933106 1.140259 1.106689 1.173218 1 1.053833 1.172607 1.140259 0.8933106 1.053833 1.172607 1.173218 1 0.06811523 0.3625488 0.1047363 0.3435059 0.06384277 0.3062744 0.1196289 0.2692871 0.06384277 0.3062744 0.1047363 0.3435059 0.05493164 0.4107666 0.09863281 0.4116211 0.06811523 0.3625488 0.1047363 0.3435059 0.06811523 0.3625488 0.09863281 0.4116211 1.120972 0.7910156 0.9343262 0.7910156 0.9592285 0.5982666 0.9300537 0.5968018 0.9592285 0.5982666 0.9343262 0.7910156 0.9266358 0.8084717 0.9343262 0.7910156 0.8947754 0.7895508 0.9300537 0.5968018 0.8947754 0.7895508 0.9343262 0.7910156 0.9266358 0.8084717 0.8947754 0.7895508 0.9343262 0.7910156 0.9300537 0.5968018 0.9343262 0.7910156 0.8947754 0.7895508 0.9266358 0.8084717 0.8947754 0.7895508 0.9343262 0.7910156 0.9300537 0.5968018 0.9343262 0.7910156 0.8947754 0.7895508 0.9266358 0.8084717 0.9343262 0.7910156 0.8947754 0.7895508 0.9300537 0.5968018 0.8947754 0.7895508 0.9343262 0.7910156 -4.88281e-4 0.4257813 0.1055908 0.5090332 0.05493164 0.4107666 0.09863281 0.4116211 0.05493164 0.4107666 0.1055908 0.5090332 1.120972 0.7910156 0.9592285 0.5982666 0.9343262 0.7910156 0.9300537 0.5968018 0.9343262 0.7910156 0.9592285 0.5982666 1.120972 0.7910156 0.9592285 0.5982666 0.9343262 0.7910156 0.9300537 0.5968018 0.9343262 0.7910156 0.9592285 0.5982666 0.1778564 0.9146729 0.02331537 0.890625 0.07202148 0.8625488 0.02331537 0.7849121 0.07202148 0.8625488 0.02331537 0.890625 0.02844238 0.5775147 0.07177734 0.5994873 0.02966308 0.6153565 0.1425781 0.6412354 0.02966308 0.6153565 0.07177734 0.5994873 0.07202148 0.8625488 0.1099853 0.8406983 0.06665039 0.7890625 0.1120605 0.8087158 0.06665039 0.7890625 0.1099853 0.8406983 0.8914795 0.1369628 1.082886 0.2456054 0.9171143 0.2456054 1.06958 0.3217774 0.9171143 0.2456054 1.082886 0.2456054 1.123657 0.06774902 1.108398 0.1369628 0.8914795 0.1369628 1.082886 0.2456054 0.8914795 0.1369628 1.108398 0.1369628 0.8743897 0.470459 0.8790283 0.3858643 0.9217529 0.4127197 0.8745117 0.3085938 0.9217529 0.4127197 0.8790283 0.3858643 0.9375 0.4737549 0.8967285 0.4752197 0.9217529 0.4127197 0.8743897 0.470459 0.9217529 0.4127197 0.8967285 0.4752197 1.000854 0.388916 0.9542236 0.4134522 0.9217529 0.4127197 0.9375 0.4737549 0.9217529 0.4127197 0.9542236 0.4134522 0.8538818 0.2371826 0.8386231 0.1737059 0.9171143 0.2456054 0.8914795 0.1369628 0.9171143 0.2456054 0.8386231 0.1737059 0.9517822 0.5185547 0.9035645 0.517334 0.9375 0.4737549 0.8967285 0.4752197 0.9375 0.4737549 0.9035645 0.517334 1 0.5439453 0.9434815 0.5653076 0.9517822 0.5185547 0.9035645 0.517334 0.9517822 0.5185547 0.9434815 0.5653076 0.4814453 0.3200684 0.5579834 0.3684082 0.6716309 0.3751221 0.597168 0.4001465 0.6716309 0.3751221 0.5579834 0.3684082 0.2381591 0.3295899 0.2202148 0.4375 0.2766113 0.394165 0.3125 0.4453125 0.2766113 0.394165 0.2202148 0.4375 0.3525391 0.1491699 0.2609863 0.1386718 0.3562012 -0.1341552 0.2609863 -0.1378173 0.3562012 -0.1341552 0.2609863 0.1386718 0.2658692 0.1497802 0.2658692 -0.1489257 0.4053955 0.1497802 0.4060059 -0.1489257 0.4053955 0.1497802 0.2658692 -0.1489257 0.4060059 -0.1489257 0.2658692 -0.1489257 0.4053955 0.1497802 0.2658692 0.1497802 0.4053955 0.1497802 0.2658692 -0.1489257 0.4511719 0.1328125 0.4511719 -0.131958 0.4060059 0.1497802 0.4060059 -0.1489257 0.4060059 0.1497802 0.4511719 -0.131958 0.06665039 0.7890625 0.1120605 0.8087158 0.07336425 0.7722168 0.02331537 0.7849121 0.06665039 0.7890625 0.07202148 0.8625488 2.44141e-4 0.6992188 2.44141e-4 0.6511231 0.04406738 0.7216797 0.1655273 0.3238525 0.1154785 0.3989258 0.1301269 0.3236084 0.3093262 0.8322754 0.3070068 0.8592529 0.3404541 0.8010254 0.6170654 0.1629638 0.4847412 0.1621093 0.6243897 0.2274169 0.6243897 0.2274169 0.4847412 0.1621093 0.6170654 0.1629638 -4.88281e-4 0.1691894 0.1186523 0.1037597 0.08203125 0.2064208 0.1492919 0.001464784 -4.88281e-4 0.001464784 0.1186523 0.1037597 0.7485352 0.7294922 0.8497315 0.7819824 0.8682861 0.7398682 0.3532715 0.7653809 0.3410645 0.7114258 0.4230957 0.7706299 0.1379394 0.5948486 0.0805664 0.5622559 0.1055908 0.5090332 0.8006592 -0.2890625 0.8006592 -0.375 0.8359375 -0.2890625</float_array>
          <technique_common>
            <accessor source="#csfa-mesh-map-0-array" count="1923" stride="2">
              <param name="S" type="float"/>
              <param name="T" type="float"/>
            </accessor>
          </technique_common>
        </source>
        <vertices id="csfa-mesh-vertices">
          <input semantic="POSITION" source="#csfa-mesh-positions"/>
        </vertices>
        <polylist material="csfa-material" count="641">
          <input semantic="VERTEX" source="#csfa-mesh-vertices" offset="0"/>
          <input semantic="NORMAL" source="#csfa-mesh-normals" offset="1"/>
          <input semantic="TEXCOORD" source="#csfa-mesh-map-0" offset="2" set="0"/>
          <vcount>3 3 3 3 3 3 3 3 3 3 3 3 3 3 3 3 3 3 3 3 3 3 3 3 3 3 3 3 3 3 3 3 3 3 3 3 3 3 3 3 3 3 3 3 3 3 3 3 3 3 3 3 3 3 3 3 3 3 3 3 3 3 3 3 3 3 3 3 3 3 3 3 3 3 3 3 3 3 3 3 3 3 3 3 3 3 3 3 3 3 3 3 3 3 3 3 3 3 3 3 3 3 3 3 3 3 3 3 3 3 3 3 3 3 3 3 3 3 3 3 3 3 3 3 3 3 3 3 3 3 3 3 3 3 3 3 3 3 3 3 3 3 3 3 3 3 3 3 3 3 3 3 3 3 3 3 3 3 3 3 3 3 3 3 3 3 3 3 3 3 3 3 3 3 3 3 3 3 3 3 3 3 3 3 3 3 3 3 3 3 3 3 3 3 3 3 3 3 3 3 3 3 3 3 3 3 3 3 3 3 3 3 3 3 3 3 3 3 3 3 3 3 3 3 3 3 3 3 3 3 3 3 3 3 3 3 3 3 3 3 3 3 3 3 3 3 3 3 3 3 3 3 3 3 3 3 3 3 3 3 3 3 3 3 3 3 3 3 3 3 3 3 3 3 3 3 3 3 3 3 3 3 3 3 3 3 3 3 3 3 3 3 3 3 3 3 3 3 3 3 3 3 3 3 3 3 3 3 3 3 3 3 3 3 3 3 3 3 3 3 3 3 3 3 3 3 3 3 3 3 3 3 3 3 3 3 3 3 3 3 3 3 3 3 3 3 3 3 3 3 3 3 3 3 3 3 3 3 3 3 3 3 3 3 3 3 3 3 3 3 3 3 3 3 3 3 3 3 3 3 3 3 3 3 3 3 3 3 3 3 3 3 3 3 3 3 3 3 3 3 3 3 3 3 3 3 3 3 3 3 3 3 3 3 3 3 3 3 3 3 3 3 3 3 3 3 3 3 3 3 3 3 3 3 3 3 3 3 3 3 3 3 3 3 3 3 3 3 3 3 3 3 3 3 3 3 3 3 3 3 3 3 3 3 3 3 3 3 3 3 3 3 3 3 3 3 3 3 3 3 3 3 3 3 3 3 3 3 3 3 3 3 3 3 3 3 3 3 3 3 3 3 3 3 3 3 3 3 3 3 3 3 3 3 3 3 3 3 3 3 3 3 3 3 3 3 3 3 3 3 3 3 3 3 3 3 3 3 3 3 3 3 3 3 3 3 3 3 3 3 3 3 3 3 3 3 3 3 3 3 3 3 3 3 3 3 3 3 3 3 3 3 3 3 3 3 3 3 3 3 3 3 3 3 3 3 3 3 3 3 3 3 3 3 3 3 3 3 3 3 3 3 3 3 3 3 3 3 3 3 3 3 3 3 3 3 3 3 3 3 3 3 3 3 3 3 3 3 3 3 3 3 3 3 3 3 3 3 3 3 3 </vcount>
          <p>181 0 0 257 1 1 263 2 2 245 3 3 263 2 4 257 1 5 257 1 6 244 4 7 245 3 8 280 5 9 245 3 10 244 4 11 244 4 12 279 6 13 280 5 14 240 7 15 280 5 16 279 6 17 279 6 18 188 8 19 240 7 20 255 9 21 240 7 22 188 8 23 188 8 24 173 10 25 255 9 26 201 11 27 255 9 28 173 10 29 173 10 30 287 12 31 201 11 32 33 13 33 201 11 34 287 12 35 287 12 36 202 14 37 33 13 38 12 15 39 33 13 40 202 14 41 202 14 42 5 16 43 12 15 44 70 17 45 12 15 46 5 16 47 5 16 48 71 18 49 70 17 50 60 19 51 70 17 52 71 18 53 71 18 54 40 20 55 60 19 56 59 21 57 60 19 58 40 20 59 40 20 60 47 22 61 59 21 62 84 23 63 59 21 64 47 22 65 47 22 66 102 24 67 84 23 68 98 25 69 84 23 70 102 24 71 102 24 72 106 26 73 98 25 74 105 27 75 98 25 76 106 26 77 106 26 78 99 28 79 105 27 80 82 29 81 105 27 82 99 28 83 104 30 84 48 31 85 95 32 86 96 33 87 95 32 88 48 31 89 48 31 90 39 34 91 96 33 92 97 35 93 96 33 94 39 34 95 39 34 96 72 36 97 97 35 98 17 37 99 97 35 100 72 36 101 72 36 102 4 38 103 17 37 104 204 39 105 17 37 106 4 38 107 4 38 108 203 40 109 204 39 110 172 41 111 204 39 112 203 40 113 203 40 114 192 42 115 172 41 116 191 43 117 172 41 118 192 42 119 192 42 120 288 44 121 191 43 122 216 45 123 191 43 124 288 44 125 288 44 126 277 46 127 216 45 128 178 47 129 216 45 130 277 46 131 277 46 132 278 48 133 178 47 134 243 49 135 178 47 136 278 48 137 278 48 138 279 6 139 243 49 140 244 4 141 243 49 142 279 6 143 47 22 144 103 50 145 102 24 146 37 51 147 102 24 148 103 50 149 103 50 150 38 52 151 37 51 152 144 53 153 37 51 154 38 52 155 38 52 156 100 54 157 144 53 158 101 55 159 144 53 160 100 54 161 100 54 162 159 56 163 101 55 164 93 57 165 101 55 166 159 56 167 159 56 168 158 58 169 93 57 170 87 59 171 93 57 172 158 58 173 158 58 174 92 60 175 87 59 176 2 61 177 87 59 178 92 60 179 92 60 180 25 62 181 2 61 182 223 63 183 2 61 184 25 62 185 25 62 186 32 64 187 223 63 188 15 65 189 223 63 190 32 64 191 32 64 192 92 60 193 15 65 194 91 66 195 15 65 196 92 60 197 92 60 198 158 58 199 91 66 200 159 56 201 91 66 202 158 58 203 321 67 204 322 68 205 332 69 206 333 70 207 332 69 208 322 68 209 322 68 210 323 71 211 333 70 212 334 72 213 333 70 214 323 71 215 323 71 216 324 73 217 334 72 218 325 74 219 334 72 220 324 73 221 324 73 222 315 75 223 325 74 224 326 76 225 325 74 226 315 75 227 315 75 228 316 77 229 326 76 230 327 78 231 326 76 232 316 77 233 316 77 234 317 79 235 327 78 236 328 80 237 327 78 238 317 79 239 317 79 240 318 81 241 328 80 242 329 82 243 328 80 244 318 81 245 318 81 246 319 83 247 329 82 248 330 84 249 329 82 250 319 83 251 319 83 252 320 85 253 330 84 254 331 86 255 330 84 256 320 85 257 320 85 258 321 67 259 331 86 260 332 69 261 331 86 262 321 67 263 67 87 264 73 88 265 123 89 266 51 90 267 123 89 268 73 88 269 73 88 270 76 91 271 51 90 272 62 92 273 51 90 274 76 91 275 76 91 276 124 93 277 62 92 278 63 94 279 62 92 280 124 93 281 124 93 282 109 95 283 63 94 284 153 96 285 63 94 286 109 95 287 109 95 288 149 97 289 153 96 290 50 98 291 153 96 292 149 97 293 149 97 294 150 99 295 50 98 296 130 100 297 50 98 298 150 99 299 150 99 300 151 101 301 130 100 302 53 102 303 130 100 304 151 101 305 151 101 306 152 103 307 53 102 308 45 104 309 53 102 310 152 103 311 152 103 312 116 105 313 45 104 314 44 106 315 45 104 316 116 105 317 116 105 318 34 107 319 44 106 320 156 108 321 41 109 322 69 110 323 124 93 324 69 110 325 41 109 326 41 109 327 56 111 328 124 93 329 109 95 330 124 93 331 56 111 332 56 111 333 148 112 334 109 95 335 149 97 336 109 95 337 148 112 338 148 112 339 113 113 340 149 97 341 114 114 342 149 97 343 113 113 344 113 113 345 126 115 346 114 114 347 132 116 348 114 114 349 126 115 350 126 115 351 49 117 352 132 116 353 154 118 354 132 116 355 49 117 356 49 117 357 79 119 358 154 118 359 155 120 360 154 118 361 79 119 362 235 121 363 170 122 364 225 123 365 3 124 366 225 123 367 170 122 368 170 122 369 231 125 370 3 124 371 11 126 372 3 124 373 231 125 374 231 125 375 290 127 376 11 126 377 222 128 378 11 126 379 290 127 380 290 127 381 289 129 382 222 128 383 223 63 384 222 128 385 289 129 386 289 129 387 218 130 388 223 63 389 2 61 390 223 63 391 218 130 392 218 130 393 219 131 394 2 61 395 13 132 396 2 61 397 219 131 398 219 131 399 9 133 400 13 132 401 88 134 402 13 132 403 9 133 404 12 15 405 70 17 406 33 13 407 156 108 408 33 13 409 70 17 410 70 17 411 60 19 412 156 108 413 41 109 414 156 108 415 60 19 416 60 19 417 157 135 418 41 109 419 56 111 420 41 109 421 157 135 422 157 135 423 146 136 424 56 111 425 147 137 426 56 111 427 146 136 428 146 136 429 46 138 430 147 137 431 112 139 432 147 137 433 46 138 434 46 138 435 127 140 436 112 139 437 86 141 438 112 139 439 127 140 440 127 140 441 99 28 442 86 141 443 81 142 444 86 141 445 99 28 446 199 143 447 254 144 448 205 145 449 183 146 450 205 145 451 254 144 452 254 144 453 253 147 454 183 146 455 189 148 456 183 146 457 253 147 458 253 147 459 186 149 460 189 148 461 261 150 462 189 148 463 186 149 464 186 149 465 185 151 466 261 150 467 282 152 468 261 150 469 185 151 470 185 151 471 283 153 472 282 152 473 246 154 474 282 152 475 283 153 476 283 153 477 247 155 478 246 154 479 167 156 480 246 154 481 247 155 482 247 155 483 166 157 484 167 156 485 208 158 486 167 156 487 166 157 488 230 159 489 212 160 490 168 161 491 220 162 492 168 161 493 212 160 494 212 160 495 211 163 496 220 162 497 9 133 498 220 162 499 211 163 500 211 163 501 14 164 502 9 133 503 80 165 504 9 133 505 14 164 506 14 164 507 90 166 508 80 165 509 111 167 510 80 165 511 90 166 512 90 166 513 108 168 514 111 167 515 79 119 516 111 167 517 108 168 518 108 168 519 107 169 520 79 119 521 155 120 522 79 119 523 107 169 524 107 169 525 78 170 526 155 120 527 208 158 528 209 171 529 167 156 530 184 172 531 167 156 532 209 171 533 209 171 534 286 173 535 184 172 536 285 174 537 184 172 538 286 173 539 286 173 540 210 175 541 285 174 542 181 0 543 285 174 544 210 175 545 210 175 546 241 176 547 181 0 548 257 1 549 181 0 550 241 176 551 241 176 552 187 177 553 257 1 554 217 178 555 257 1 556 187 177 557 187 177 558 212 160 559 217 178 560 230 159 561 217 178 562 212 160 563 254 144 564 250 179 565 253 147 566 252 180 567 253 147 568 250 179 569 250 179 570 197 181 571 252 180 572 251 182 573 252 180 574 197 181 575 197 181 576 196 183 577 251 182 578 161 184 579 251 182 580 196 183 581 196 183 582 160 185 583 161 184 584 164 186 585 161 184 586 160 185 587 160 185 588 165 187 589 164 186 590 163 188 591 164 186 592 165 187 593 165 187 594 162 189 595 163 188 596 282 152 597 281 190 598 261 150 599 182 191 600 261 150 601 281 190 602 281 190 603 280 5 604 182 191 605 284 192 606 182 191 607 280 5 608 280 5 609 240 7 610 284 192 611 195 193 612 284 192 613 240 7 614 240 7 615 255 9 616 195 193 617 194 194 618 195 193 619 255 9 620 255 9 621 207 195 622 194 194 623 183 146 624 194 194 625 207 195 626 207 195 627 205 145 628 183 146 629 76 91 630 68 196 631 124 93 632 125 197 633 124 93 634 68 196 635 68 196 636 61 198 637 125 197 638 20 199 639 125 197 640 61 198 641 61 198 642 6 200 643 20 199 644 193 201 645 20 199 646 6 200 647 6 200 648 206 202 649 193 201 650 200 203 651 193 201 652 206 202 653 206 202 654 205 145 655 200 203 656 207 195 657 200 203 658 205 145 659 139 204 660 143 205 661 137 206 662 135 207 663 137 206 664 143 205 665 143 205 666 142 208 667 135 207 668 22 209 669 135 207 670 142 208 671 142 208 672 24 210 673 22 209 674 266 211 675 22 209 676 24 210 677 24 210 678 273 212 679 266 211 680 268 213 681 266 211 682 273 212 683 273 212 684 274 214 685 268 213 686 270 215 687 268 213 688 274 214 689 230 159 690 236 216 691 213 217 692 214 218 693 213 217 694 236 216 695 236 216 696 215 219 697 214 218 698 191 43 699 214 218 700 215 219 701 215 219 702 179 220 703 191 43 704 172 41 705 191 43 706 179 220 707 179 220 708 180 221 709 172 41 710 171 222 711 172 41 712 180 221 713 180 221 714 227 223 715 171 222 716 228 224 717 171 222 718 227 223 719 227 223 720 180 221 721 226 225 722 235 121 723 226 225 724 180 221 725 180 221 726 234 226 727 235 121 728 170 122 729 235 121 730 234 226 731 234 226 732 169 227 733 170 122 734 275 228 735 170 122 736 169 227 737 169 227 738 190 229 739 275 228 740 276 230 741 275 228 742 190 229 743 190 229 744 168 161 745 276 230 746 218 130 747 276 230 748 168 161 749 94 231 750 21 232 751 16 233 752 225 123 753 16 233 754 21 232 755 21 232 756 265 234 757 225 123 758 235 121 759 225 123 760 265 234 761 265 234 762 267 235 763 235 121 764 226 225 765 235 121 766 267 235 767 267 235 768 269 236 769 226 225 770 227 223 771 226 225 772 269 236 773 269 236 774 272 237 775 227 223 776 271 238 777 227 223 778 272 237 779 180 221 780 179 220 781 234 226 782 233 239 783 234 226 784 179 220 785 179 220 786 215 219 787 233 239 788 229 240 789 233 239 790 215 219 791 215 219 792 236 216 793 229 240 794 237 241 795 229 240 796 236 216 797 236 216 798 230 159 799 237 241 800 190 229 801 237 241 802 230 159 803 230 159 804 168 161 805 190 229 806 286 173 807 209 171 808 238 242 809 264 243 810 238 242 811 209 171 812 209 171 813 260 244 814 264 243 815 1 245 816 264 243 817 260 244 818 260 244 819 0 246 820 1 245 821 129 247 822 1 245 823 0 246 824 0 246 825 128 248 826 129 247 827 77 249 828 129 247 829 128 248 830 128 248 831 34 107 832 77 249 833 143 205 834 139 204 835 138 250 836 136 251 837 138 250 838 139 204 839 139 204 840 137 206 841 136 251 842 134 252 843 136 251 844 137 206 845 137 206 846 135 207 847 134 252 848 21 232 849 134 252 850 135 207 851 135 207 852 22 209 853 21 232 854 266 211 855 21 232 856 22 209 857 149 97 858 114 114 859 150 99 860 131 253 861 150 99 862 114 114 863 114 114 864 132 116 865 131 253 866 115 254 867 131 253 868 132 116 869 132 116 870 52 255 871 115 254 872 35 256 873 115 254 874 52 255 875 52 255 876 78 170 877 35 256 878 77 249 879 35 256 880 78 170 881 207 195 882 255 9 883 200 203 884 256 257 885 200 203 886 255 9 887 255 9 888 201 11 889 256 257 890 20 199 891 256 257 892 201 11 893 201 11 894 19 258 895 20 199 896 69 110 897 20 199 898 19 258 899 19 258 900 33 13 901 69 110 902 156 108 903 69 110 904 33 13 905 330 84 906 331 86 907 329 82 908 328 80 909 329 82 910 331 86 911 331 86 912 332 69 913 328 80 914 327 78 915 328 80 916 332 69 917 332 69 918 333 70 919 327 78 920 326 76 921 327 78 922 333 70 923 333 70 924 334 72 925 326 76 926 325 74 927 326 76 928 334 72 929 225 123 930 3 124 931 16 233 932 94 231 933 16 233 934 3 124 935 3 124 936 38 52 937 94 231 938 104 30 939 94 231 940 38 52 941 38 52 942 103 50 943 104 30 944 48 31 945 104 30 946 103 50 947 103 50 948 47 22 949 48 31 950 40 20 951 48 31 952 47 22 953 48 31 954 40 20 955 39 34 956 72 36 957 39 34 958 40 20 959 40 20 960 71 18 961 72 36 962 4 38 963 72 36 964 71 18 965 71 18 966 5 16 967 4 38 968 203 40 969 4 38 970 5 16 971 5 16 972 202 14 973 203 40 974 192 42 975 203 40 976 202 14 977 60 19 978 59 21 979 157 135 980 85 259 981 157 135 982 59 21 983 59 21 984 83 260 985 85 259 986 46 138 987 85 259 988 83 260 989 83 260 990 82 29 991 46 138 992 127 140 993 46 138 994 82 29 995 82 29 996 99 28 997 127 140 998 304 261 999 306 262 1000 303 263 1001 305 264 1002 303 263 1003 306 262 1004 306 262 1005 313 265 1006 305 264 1007 314 266 1008 305 264 1009 313 265 1010 313 265 1011 308 267 1012 314 266 1013 307 268 1014 314 266 1015 308 267 1016 148 112 1017 112 139 1018 113 113 1019 126 115 1020 113 113 1021 112 139 1022 112 139 1023 86 141 1024 126 115 1025 55 269 1026 126 115 1027 86 141 1028 86 141 1029 81 142 1030 55 269 1031 80 165 1032 55 269 1033 81 142 1034 117 270 1035 118 271 1036 108 168 1037 107 169 1038 108 168 1039 118 271 1040 118 271 1041 66 272 1042 107 169 1043 8 273 1044 107 169 1045 66 272 1046 66 272 1047 7 274 1048 8 273 1049 198 275 1050 8 273 1051 7 274 1052 198 275 1053 7 274 1054 250 179 1055 18 276 1056 250 179 1057 7 274 1058 7 274 1059 119 277 1060 18 276 1061 65 278 1062 18 276 1063 119 277 1064 119 277 1065 121 279 1066 65 278 1067 120 280 1068 65 278 1069 121 279 1070 199 143 1071 205 145 1072 249 281 1073 248 282 1074 249 281 1075 205 145 1076 205 145 1077 206 202 1078 248 282 1079 10 283 1080 248 282 1081 206 202 1082 206 202 1083 74 284 1084 10 283 1085 75 285 1086 10 283 1087 74 284 1088 57 286 1089 54 287 1090 122 288 1091 121 279 1092 122 288 1093 54 287 1094 54 287 1095 42 289 1096 121 279 1097 120 280 1098 121 279 1099 42 289 1100 42 289 1101 43 290 1102 120 280 1103 27 291 1104 120 280 1105 43 290 1106 170 122 1107 275 228 1108 231 125 1109 232 292 1110 231 125 1111 275 228 1112 275 228 1113 276 230 1114 232 292 1115 224 293 1116 232 292 1117 276 230 1118 276 230 1119 218 130 1120 224 293 1121 289 129 1122 224 293 1123 218 130 1124 50 98 1125 130 100 1126 57 286 1127 54 287 1128 57 286 1129 130 100 1130 130 100 1131 53 102 1132 54 287 1133 42 289 1134 54 287 1135 53 102 1136 53 102 1137 45 104 1138 42 289 1139 44 106 1140 42 289 1141 45 104 1142 138 250 1143 141 294 1144 143 205 1145 142 208 1146 143 205 1147 141 294 1148 141 294 1149 140 295 1150 142 208 1151 24 210 1152 142 208 1153 140 295 1154 140 295 1155 23 296 1156 24 210 1157 271 238 1158 24 210 1159 23 296 1160 253 147 1161 252 180 1162 186 149 1163 174 297 1164 186 149 1165 252 180 1166 252 180 1167 251 182 1168 174 297 1169 175 298 1170 174 297 1171 251 182 1172 251 182 1173 161 184 1174 175 298 1175 151 101 1176 115 254 1177 152 103 1178 116 105 1179 152 103 1180 115 254 1181 115 254 1182 35 256 1183 116 105 1184 34 107 1185 116 105 1186 35 256 1187 35 256 1188 77 249 1189 34 107 1190 277 46 1191 288 44 1192 188 8 1193 173 10 1194 188 8 1195 288 44 1196 288 44 1197 192 42 1198 173 10 1199 287 12 1200 173 10 1201 192 42 1202 192 42 1203 202 14 1204 287 12 1205 99 28 1206 36 299 1207 81 142 1208 89 300 1209 81 142 1210 36 299 1211 36 299 1212 87 59 1213 89 300 1214 88 134 1215 89 300 1216 87 59 1217 206 202 1218 6 200 1219 74 284 1220 75 285 1221 74 284 1222 6 200 1223 6 200 1224 61 198 1225 75 285 1226 68 196 1227 75 285 1228 61 198 1229 87 59 1230 36 299 1231 145 301 1232 58 302 1233 145 301 1234 36 299 1235 36 299 1236 99 28 1237 58 302 1238 106 26 1239 58 302 1240 99 28 1241 246 154 1242 262 303 1243 282 152 1244 281 190 1245 282 152 1246 262 303 1247 262 303 1248 245 3 1249 281 190 1250 280 5 1251 281 190 1252 245 3 1253 108 168 1254 90 166 1255 117 270 1256 10 283 1257 117 270 1258 90 166 1259 90 166 1260 14 164 1261 10 283 1262 221 304 1263 10 283 1264 14 164 1265 223 63 1266 15 65 1267 222 128 1268 11 126 1269 222 128 1270 15 65 1271 15 65 1272 91 66 1273 11 126 1274 159 56 1275 11 126 1276 91 66 1277 77 249 1278 78 170 1279 129 247 1280 133 305 1281 129 247 1282 78 170 1283 78 170 1284 107 169 1285 133 305 1286 1 245 1287 133 305 1288 107 169 1289 23 296 1290 140 295 1291 97 35 1292 96 33 1293 97 35 1294 140 295 1295 140 295 1296 141 294 1297 96 33 1298 138 250 1299 96 33 1300 141 294 1301 62 92 1302 63 94 1303 51 90 1304 57 286 1305 51 90 1306 63 94 1307 63 94 1308 153 96 1309 57 286 1310 50 98 1311 57 286 1312 153 96 1313 250 179 1314 18 276 1315 197 181 1316 64 306 1317 197 181 1318 18 276 1319 18 276 1320 65 278 1321 64 306 1322 120 280 1323 64 306 1324 65 278 1325 166 157 1326 247 155 1327 176 307 1328 177 308 1329 176 307 1330 247 155 1331 247 155 1332 283 153 1333 177 308 1334 185 151 1335 177 308 1336 283 153 1337 214 218 1338 178 47 1339 213 217 1340 258 309 1341 213 217 1342 178 47 1343 178 47 1344 243 49 1345 258 309 1346 217 178 1347 258 309 1348 243 49 1349 167 156 1350 184 172 1351 246 154 1352 263 2 1353 246 154 1354 184 172 1355 184 172 1356 285 174 1357 263 2 1358 181 0 1359 263 2 1360 285 174 1361 284 192 1362 195 193 1363 189 148 1364 183 146 1365 189 148 1366 195 193 1367 195 193 1368 194 194 1369 183 146 1370 162 189 1371 165 187 1372 28 310 1373 31 311 1374 28 310 1375 165 187 1376 165 187 1377 26 312 1378 31 311 1379 198 275 1380 250 179 1381 249 281 1382 199 143 1383 249 281 1384 250 179 1385 250 179 1386 254 144 1387 199 143 1388 168 161 1389 220 162 1390 218 130 1391 219 131 1392 218 130 1393 220 162 1394 220 162 1395 9 133 1396 219 131 1397 17 37 1398 204 39 1399 228 224 1400 171 222 1401 228 224 1402 204 39 1403 204 39 1404 172 41 1405 171 222 1406 87 59 1407 145 301 1408 93 57 1409 101 55 1410 93 57 1411 145 301 1412 145 301 1413 144 53 1414 101 55 1415 55 269 1416 110 313 1417 126 115 1418 49 117 1419 126 115 1420 110 313 1421 110 313 1422 79 119 1423 49 117 1424 79 119 1425 110 313 1426 111 167 1427 80 165 1428 111 167 1429 110 313 1430 110 313 1431 55 269 1432 80 165 1433 271 238 1434 23 296 1435 228 224 1436 17 37 1437 228 224 1438 23 296 1439 23 296 1440 97 35 1441 17 37 1442 264 243 1443 1 245 1444 238 242 1445 8 273 1446 238 242 1447 1 245 1448 1 245 1449 107 169 1450 8 273 1451 209 171 1452 208 158 1453 260 244 1454 259 314 1455 260 244 1456 208 158 1457 208 158 1458 166 157 1459 259 314 1460 59 21 1461 84 23 1462 83 260 1463 105 27 1464 83 260 1465 84 23 1466 84 23 1467 98 25 1468 105 27 1469 234 226 1470 233 239 1471 169 227 1472 190 229 1473 169 227 1474 233 239 1475 233 239 1476 237 241 1477 190 229 1478 186 149 1479 174 297 1480 185 151 1481 177 308 1482 185 151 1483 174 297 1484 174 297 1485 176 307 1486 177 308 1487 213 217 1488 258 309 1489 230 159 1490 217 178 1491 230 159 1492 258 309 1493 31 315 1494 26 315 1495 30 315 1496 27 316 1497 30 316 1498 26 316 1499 279 6 1500 278 48 1501 188 8 1502 277 46 1503 188 8 1504 278 48 1505 191 43 1506 216 45 1507 214 218 1508 178 47 1509 214 218 1510 216 45 1511 244 4 1512 257 1 1513 243 49 1514 217 178 1515 243 49 1516 257 1 1517 30 317 1518 29 317 1519 31 317 1520 28 318 1521 31 318 1522 29 318 1523 238 242 1524 249 281 1525 239 319 1526 248 282 1527 239 319 1528 249 281 1529 8 273 1530 198 275 1531 238 242 1532 249 281 1533 238 242 1534 198 275 1535 10 283 1536 221 304 1537 248 282 1538 239 319 1539 248 282 1540 221 304 1541 265 234 1542 268 213 1543 267 235 1544 270 215 1545 267 235 1546 268 213 1547 21 232 1548 266 211 1549 265 234 1550 268 213 1551 265 234 1552 266 211 1553 274 214 1554 269 236 1555 270 215 1556 267 235 1557 270 215 1558 269 236 1559 273 212 1560 272 237 1561 274 214 1562 269 236 1563 274 214 1564 272 237 1565 24 210 1566 271 238 1567 273 212 1568 272 237 1569 273 212 1570 271 238 1571 104 30 1572 134 252 1573 94 231 1574 21 232 1575 94 231 1576 134 252 1577 95 32 1578 136 251 1579 104 30 1580 134 252 1581 104 30 1582 136 251 1583 96 33 1584 138 250 1585 95 32 1586 136 251 1587 95 32 1588 138 250 1589 145 301 1590 58 302 1591 144 53 1592 37 51 1593 144 53 1594 58 302 1595 106 26 1596 102 24 1597 58 302 1598 37 51 1599 58 302 1600 102 24 1601 56 111 1602 147 137 1603 148 112 1604 112 139 1605 148 112 1606 147 137 1607 124 93 1608 125 197 1609 69 110 1610 20 199 1611 69 110 1612 125 197 1613 150 99 1614 131 253 1615 151 101 1616 115 254 1617 151 101 1618 131 253 1619 132 116 1620 154 118 1621 52 255 1622 155 120 1623 52 255 1624 154 118 1625 76 91 1626 73 88 1627 68 196 1628 75 285 1629 68 196 1630 73 88 1631 200 203 1632 256 257 1633 193 201 1634 20 199 1635 193 201 1636 256 257 1637 292 320 1638 291 321 1639 294 322 1640 293 323 1641 294 322 1642 291 321 1643 291 321 1644 292 320 1645 299 324 1646 300 325 1647 299 324 1648 292 320 1649 295 326 1650 296 327 1651 302 328 1652 301 329 1653 302 328 1654 296 327 1655 211 163 1656 241 176 1657 242 330 1658 210 175 1659 242 330 1660 241 176 1661 163 188 1662 162 189 1663 29 331 1664 28 310 1665 29 331 1666 162 189 1667 46 138 1668 146 136 1669 85 259 1670 157 135 1671 85 259 1672 146 136 1673 212 160 1674 187 177 1675 211 163 1676 241 176 1677 211 163 1678 187 177 1679 123 89 1680 51 90 1681 122 288 1682 57 286 1683 122 288 1684 51 90 1685 88 134 1686 9 133 1687 89 300 1688 80 165 1689 89 300 1690 9 133 1691 320 85 1692 319 83 1693 321 67 1694 318 81 1695 321 67 1696 319 83 1697 297 332 1698 295 326 1699 299 324 1700 291 321 1701 299 324 1702 295 326 1703 317 79 1704 322 68 1705 318 81 1706 321 67 1707 318 81 1708 322 68 1709 316 77 1710 323 71 1711 317 79 1712 322 68 1713 317 79 1714 323 71 1715 315 75 1716 324 73 1717 316 77 1718 323 71 1719 316 77 1720 324 73 1721 239 319 1722 210 175 1723 238 242 1724 286 173 1725 238 242 1726 210 175 1727 221 304 1728 242 330 1729 239 319 1730 210 175 1731 239 319 1732 242 330 1733 310 333 1734 308 267 1735 312 334 1736 304 261 1737 312 334 1738 308 267 1739 314 266 1740 307 268 1741 305 264 1742 303 263 1743 305 264 1744 307 268 1745 313 265 1746 306 262 1747 308 267 1748 304 261 1749 308 267 1750 306 262 1751 302 328 1752 293 323 1753 295 326 1754 291 321 1755 295 326 1756 293 323 1757 301 329 1758 296 327 1759 294 322 1760 292 320 1761 294 322 1762 296 327 1763 14 164 1764 211 163 1765 221 304 1766 242 330 1767 221 304 1768 211 163 1769 309 335 1770 311 336 1771 307 268 1772 303 263 1773 307 268 1774 311 336 1775 298 337 1776 300 325 1777 296 327 1778 292 320 1779 296 327 1780 300 325 1781 38 52 1782 3 124 1783 100 54 1784 11 126 1785 100 54 1786 3 124 1787 13 132 1788 88 134 1789 2 61 1790 87 59 1791 2 61 1792 88 134 1793 231 125 1794 232 292 1795 290 127 1796 224 293 1797 290 127 1798 232 292 1799 26 312 1800 196 183 1801 64 306 1802 197 181 1803 64 306 1804 196 183 1805 165 187 1806 160 185 1807 26 312 1808 196 183 1809 26 312 1810 160 185 1811 123 89 1812 122 288 1813 119 277 1814 121 279 1815 119 277 1816 122 288 1817 118 271 1818 67 87 1819 119 277 1820 123 89 1821 119 277 1822 67 87 1823 7 274 1824 66 272 1825 119 277 1826 118 271 1827 119 277 1828 66 272 1829 120 280 1830 27 291 1831 64 306 1832 26 312 1833 64 306 1834 27 291 1835 117 270 1836 73 88 1837 118 271 1838 67 87 1839 118 271 1840 73 88 1841 10 283 1842 75 285 1843 117 270 1844 73 88 1845 117 270 1846 75 285 1847 261 150 1848 182 191 1849 189 148 1850 284 192 1851 189 148 1852 182 191 1853 246 154 1854 263 2 1855 262 303 1856 245 3 1857 262 303 1858 263 2 1859 312 334 1860 304 261 1861 311 336 1862 303 263 1863 311 336 1864 304 261 1865 297 332 1866 298 337 1867 295 326 1868 296 327 1869 295 326 1870 298 337 1871 308 267 1872 310 333 1873 307 268 1874 309 335 1875 307 268 1876 310 333 1877 302 328 1878 301 329 1879 293 323 1880 294 322 1881 293 323 1882 301 329 1883 290 127 1884 224 293 1885 289 129 1886 11 126 1887 159 56 1888 100 54 1889 32 64 1890 25 62 1891 92 60 1892 52 255 1893 155 120 1894 78 170 1895 237 241 1896 233 239 1897 229 240 1898 175 298 1899 176 307 1900 174 297 1901 42 289 1902 44 106 1903 43 290 1904 1 245 1905 129 247 1906 133 305 1907 259 314 1908 0 246 1909 260 244 1910 201 11 1911 33 13 1912 19 258 1913 105 27 1914 82 29 1915 83 260 1916 81 142 1917 89 300 1918 80 165 1919 228 224 1920 227 223 1921 271 238 1922</p>
        </polylist>
      </mesh>
    </geometry>
  </library_geometries>
  <library_controllers>
    <controller id="csfa_armature_csfaMesh-skin" name="csfa_armature">
      <skin source="#csfa-mesh">
        <bind_shape_matrix>1 0 0 0 0 1 0 0 0 0 1 0 0 0 0 1</bind_shape_matrix>
        <source id="csfa_armature_csfaMesh-skin-joints">
          <Name_array id="csfa_armature_csfaMesh-skin-joints-array" count="1">csfa</Name_array>
          <technique_common>
            <accessor source="#csfa_armature_csfaMesh-skin-joints-array" count="1" stride="1">
              <param name="JOINT" type="name"/>
            </accessor>
          </technique_common>
        </source>
        <source id="csfa_armature_csfaMesh-skin-bind_poses">
          <float_array id="csfa_armature_csfaMesh-skin-bind_poses-array" count="16">1 0 0 0 0 1 0 0 0 0 1 0 0 0 0 1</float_array>
          <technique_common>
            <accessor source="#csfa_armature_csfaMesh-skin-bind_poses-array" count="1" stride="16">
              <param name="TRANSFORM" type="float4x4"/>
            </accessor>
          </technique_common>
        </source>
        <source id="csfa_armature_csfaMesh-skin-weights">
          <float_array id="csfa_armature_csfaMesh-skin-weights-array" count="335">1 1 1 1 1 1 1 1 1 1 1 1 1 1 1 1 1 1 1 1 1 1 1 1 1 1 1 1 1 1 1 1 1 1 1 1 1 1 1 1 1 1 1 1 1 1 1 1 1 1 1 1 1 1 1 1 1 1 1 1 1 1 1 1 1 1 1 1 1 1 1 1 1 1 1 1 1 1 1 1 1 1 1 1 1 1 1 1 1 1 1 1 1 1 1 1 1 1 1 1 1 1 1 1 1 1 1 1 1 1 1 1 1 1 1 1 1 1 1 1 1 1 1 1 1 1 1 1 1 1 1 1 1 1 1 1 1 1 1 1 1 1 1 1 1 1 1 1 1 1 1 1 1 1 1 1 1 1 1 1 1 1 1 1 1 1 1 1 1 1 1 1 1 1 1 1 1 1 1 1 1 1 1 1 1 1 1 1 1 1 1 1 1 1 1 1 1 1 1 1 1 1 1 1 1 1 1 1 1 1 1 1 1 1 1 1 1 1 1 1 1 1 1 1 1 1 1 1 1 1 1 1 1 1 1 1 1 1 1 1 1 1 1 1 1 1 1 1 1 1 1 1 1 1 1 1 1 1 1 1 1 1 1 1 1 1 1 1 1 1 1 1 1 1 1 1 1 1 1 1 1 1 1 1 1 1 1 1 1 1 1 1 1 1 1 1 1 1 1 1 1 1 1 1 1 1 1 1 1 1 1 1 1 1 1 1 1 1 1 1 1 1 1 1 1 1 1 1 1 1 1 1 1 1 1</float_array>
          <technique_common>
            <accessor source="#csfa_armature_csfaMesh-skin-weights-array" count="335" stride="1">
              <param name="WEIGHT" type="float"/>
            </accessor>
          </technique_common>
        </source>
        <joints>
          <input semantic="JOINT" source="#csfa_armature_csfaMesh-skin-joints"/>
          <input semantic="INV_BIND_MATRIX" source="#csfa_armature_csfaMesh-skin-bind_poses"/>
        </joints>
        <vertex_weights count="335">
          <input semantic="JOINT" source="#csfa_armature_csfaMesh-skin-joints" offset="0"/>
          <input semantic="WEIGHT" source="#csfa_armature_csfaMesh-skin-weights" offset="1"/>
          <vcount>1 1 1 1 1 1 1 1 1 1 1 1 1 1 1 1 1 1 1 1 1 1 1 1 1 1 1 1 1 1 1 1 1 1 1 1 1 1 1 1 1 1 1 1 1 1 1 1 1 1 1 1 1 1 1 1 1 1 1 1 1 1 1 1 1 1 1 1 1 1 1 1 1 1 1 1 1 1 1 1 1 1 1 1 1 1 1 1 1 1 1 1 1 1 1 1 1 1 1 1 1 1 1 1 1 1 1 1 1 1 1 1 1 1 1 1 1 1 1 1 1 1 1 1 1 1 1 1 1 1 1 1 1 1 1 1 1 1 1 1 1 1 1 1 1 1 1 1 1 1 1 1 1 1 1 1 1 1 1 1 1 1 1 1 1 1 1 1 1 1 1 1 1 1 1 1 1 1 1 1 1 1 1 1 1 1 1 1 1 1 1 1 1 1 1 1 1 1 1 1 1 1 1 1 1 1 1 1 1 1 1 1 1 1 1 1 1 1 1 1 1 1 1 1 1 1 1 1 1 1 1 1 1 1 1 1 1 1 1 1 1 1 1 1 1 1 1 1 1 1 1 1 1 1 1 1 1 1 1 1 1 1 1 1 1 1 1 1 1 1 1 1 1 1 1 1 1 1 1 1 1 1 1 1 1 1 1 1 1 1 1 1 1 1 1 1 1 1 1 1 1 1 1 1 1 1 1 1 1 1 1 1 1 1 1 1 1 1 1 1 1 1 1 1 1 1 1 1 1 1 1 1 1 1 1 </vcount>
          <v>0 0 0 1 0 2 0 3 0 4 0 5 0 6 0 7 0 8 0 9 0 10 0 11 0 12 0 13 0 14 0 15 0 16 0 17 0 18 0 19 0 20 0 21 0 22 0 23 0 24 0 25 0 26 0 27 0 28 0 29 0 30 0 31 0 32 0 33 0 34 0 35 0 36 0 37 0 38 0 39 0 40 0 41 0 42 0 43 0 44 0 45 0 46 0 47 0 48 0 49 0 50 0 51 0 52 0 53 0 54 0 55 0 56 0 57 0 58 0 59 0 60 0 61 0 62 0 63 0 64 0 65 0 66 0 67 0 68 0 69 0 70 0 71 0 72 0 73 0 74 0 75 0 76 0 77 0 78 0 79 0 80 0 81 0 82 0 83 0 84 0 85 0 86 0 87 0 88 0 89 0 90 0 91 0 92 0 93 0 94 0 95 0 96 0 97 0 98 0 99 0 100 0 101 0 102 0 103 0 104 0 105 0 106 0 107 0 108 0 109 0 110 0 111 0 112 0 113 0 114 0 115 0 116 0 117 0 118 0 119 0 120 0 121 0 122 0 123 0 124 0 125 0 126 0 127 0 128 0 129 0 130 0 131 0 132 0 133 0 134 0 135 0 136 0 137 0 138 0 139 0 140 0 141 0 142 0 143 0 144 0 145 0 146 0 147 0 148 0 149 0 150 0 151 0 152 0 153 0 154 0 155 0 156 0 157 0 158 0 159 0 160 0 161 0 162 0 163 0 164 0 165 0 166 0 167 0 168 0 169 0 170 0 171 0 172 0 173 0 174 0 175 0 176 0 177 0 178 0 179 0 180 0 181 0 182 0 183 0 184 0 185 0 186 0 187 0 188 0 189 0 190 0 191 0 192 0 193 0 194 0 195 0 196 0 197 0 198 0 199 0 200 0 201 0 202 0 203 0 204 0 205 0 206 0 207 0 208 0 209 0 210 0 211 0 212 0 213 0 214 0 215 0 216 0 217 0 218 0 219 0 220 0 221 0 222 0 223 0 224 0 225 0 226 0 227 0 228 0 229 0 230 0 231 0 232 0 233 0 234 0 235 0 236 0 237 0 238 0 239 0 240 0 241 0 242 0 243 0 244 0 245 0 246 0 247 0 248 0 249 0 250 0 251 0 252 0 253 0 254 0 255 0 256 0 257 0 258 0 259 0 260 0 261 0 262 0 263 0 264 0 265 0 266 0 267 0 268 0 269 0 270 0 271 0 272 0 273 0 274 0 275 0 276 0 277 0 278 0 279 0 280 0 281 0 282 0 283 0 284 0 285 0 286 0 287 0 288 0 289 0 290 0 291 0 292 0 293 0 294 0 295 0 296 0 297 0 298 0 299 0 300 0 301 0 302 0 303 0 304 0 305 0 306 0 307 0 308 0 309 0 310 0 311 0 312 0 313 0 314 0 315 0 316 0 317 0 318 0 319 0 320 0 321 0 322 0 323 0 324 0 325 0 326 0 327 0 328 0 329 0 330 0 331 0 332 0 333 0 334</v>
        </vertex_weights>
      </skin>
    </controller>
  </library_controllers>
  <library_visual_scenes>
    <visual_scene id="Scene" name="Scene">
      <node id="csfa_armature" name="csfa_armature" type="NODE">
        <matrix sid="transform">1 0 0 0 0 1 0 0 0 0 1 0 0 0 0 1</matrix>
        <node id="csfa" name="csfa" sid="csfa" type="JOINT">
          <matrix sid="transform">1 0 0 0 0 1 0 0 0 0 1 0 0 0 0 1</matrix>
          <extra>
            <technique profile="blender">
              <layer>0</layer>
              <tip_x>0</tip_x>
              <tip_y>10</tip_y>
              <tip_z>0</tip_z>
            </technique>
          </extra>
        </node>
      </node>
      <node id="csfaMesh" name="csfaMesh" type="NODE">
        <translate sid="location">0 0 0</translate>
        <rotate sid="rotationZ">0 0 1 0</rotate>
        <rotate sid="rotationY">0 1 0 0</rotate>
        <rotate sid="rotationX">1 0 0 0</rotate>
        <scale sid="scale">1 1 1</scale>
        <instance_controller url="#csfa_armature_csfaMesh-skin">
          <skeleton>#csfa</skeleton>
          <bind_material>
            <technique_common>
              <instance_material symbol="csfa-material" target="#csfa-material">
                <bind_vertex_input semantic="csfa-mesh-map-0" input_semantic="TEXCOORD" input_set="0"/>
              </instance_material>
            </technique_common>
          </bind_material>
        </instance_controller>
      </node>
    </visual_scene>
  </library_visual_scenes>
  <scene>
    <instance_visual_scene url="#Scene"/>
  </scene>
</COLLADA>