# Wavefront OBJ exported by RE2MV

mtllib ROOM10C0_model02_RE2MV.mtl

v  -2.640000 60.680000 4.500000
v  -2.220000 60.779999 -3.240000
v  2.680000 60.680000 4.500000
v  2.320000 60.779999 -3.240000
v  -0.040000 65.820000 1.080000
v  0.000000 53.459999 6.160000
v  0.540000 59.919998 -2.820000
v  1.500000 50.959999 0.480000
v  -1.420000 50.959999 0.480000
v  -2.640000 51.980000 3.860000
v  -0.500000 59.900002 -2.820000
v  0.200000 60.200001 -3.900000
v  0.000000 56.400002 -2.800000
v  2.400000 57.320000 2.260000
v  -2.360000 57.320000 2.260000
v  1.200000 55.240002 -0.400000
v  -1.180000 55.240002 -0.400000
v  3.900000 60.639999 1.580000
v  -3.860000 60.639999 1.580000
v  3.340000 57.419998 1.060000
v  -3.300000 57.419998 1.060000
v  1.300000 55.259998 -2.040000
v  -1.260000 55.259998 -2.220000
v  0.000000 64.540001 -3.240000
v  2.900000 62.799999 4.660000
v  0.020000 65.459999 -1.680000
v  -2.660000 62.779999 4.660000
v  0.020000 62.619999 -3.640000
v  2.120000 60.360001 -2.880000
v  -1.700000 64.320000 -2.660000
v  0.040000 65.080002 4.100000
v  -3.360000 60.619999 -1.920000
v  -2.820000 64.440002 1.500000
v  2.720000 51.980000 3.860000
v  0.000000 60.700001 6.400000
v  0.000000 57.340000 4.600000
v  0.340000 57.860001 -3.480000
v  -0.320000 58.099998 -4.300000
v  -0.060000 63.119999 6.180000
v  -0.340000 57.860001 -3.480000
v  -2.020000 60.360001 -2.880000
v  0.000000 55.580002 -3.060000
v  1.720000 64.320000 -2.660000
v  -0.160000 60.200001 -3.900000
v  2.900000 64.440002 1.500000
v  3.320000 60.639999 -1.920000
v  3.360000 60.139999 -1.440000
v  3.100000 57.439999 -1.300000
v  -3.020000 57.419998 -1.300000
v  -3.320000 60.139999 -1.440000
v  2.200000 62.619999 -3.000000
v  -2.140000 62.599998 -3.000000
v  3.640000 62.660000 -1.480000
v  -3.740000 62.660000 -1.480000
v  1.060000 57.919998 -3.160000
v  -1.000000 57.919998 -3.160000
v  0.300000 58.099998 -4.300000
v  -0.900000 58.279999 -3.300000
v  0.980000 58.279999 -3.300000
v  0.000000 39.939999 -3.660000
v  0.000000 42.759998 -3.660000
v  -3.480000 39.939999 -1.140000
v  -3.480000 42.759998 -1.140000
v  -2.160000 39.939999 2.940000
v  -2.160000 42.759998 2.940000
v  2.140000 39.939999 2.940000
v  2.140000 42.759998 2.940000
v  3.460000 39.939999 -1.140000
v  3.460000 42.759998 -1.140000
v  -5.720000 36.279999 4.320000
v  5.700000 36.279999 4.320000
v  -5.720000 39.939999 4.320000
v  5.700000 39.939999 4.320000
v  -5.720000 36.279999 -4.340000
v  5.700000 36.279999 -4.340000
v  -5.720000 39.939999 -4.340000
v  5.700000 39.939999 -4.340000
v  -8.580000 0.000000 8.560000
v  8.560000 0.000000 8.560000
v  -8.580000 36.320000 8.560000
v  8.560000 36.320000 8.560000
v  -8.580000 0.000000 -8.580000
v  8.560000 0.000000 -8.580000
v  -8.580000 36.320000 -8.580000
v  8.560000 36.320000 -8.580000
v  -5.400000 42.759998 4.300000
v  5.380000 42.759998 4.300000
v  -8.160000 52.680000 2.620000
v  8.140000 52.680000 2.620000
v  -5.400000 42.759998 -4.800000
v  5.380000 42.759998 -4.800000
v  -8.460000 51.320000 0.080000
v  8.440000 51.320000 0.080000
v  5.120000 53.759998 6.560000
v  2.640000 49.080002 -1.880000
v  -5.140000 53.759998 6.560000
v  -2.660000 49.080002 -1.880000
v  3.780000 62.540001 1.680000
v  -3.720000 62.540001 1.680000
# 99 vertices

vt  0.125000 0.823529
vt  0.031250 0.823529
vt  0.125000 0.752941
vt  0.031250 0.823529
vt  0.023438 0.729412
vt  0.125000 0.752941
vt  0.562500 0.721569
vt  0.539063 0.819608
vt  0.492188 0.690196
vt  0.539063 0.819608
vt  0.476563 0.780392
vt  0.492188 0.690196
vt  0.476563 0.780392
vt  0.359375 0.780392
vt  0.492188 0.690196
vt  0.359375 0.780392
vt  0.335938 0.690196
vt  0.492188 0.690196
vt  0.648438 0.854902
vt  0.726563 0.788235
vt  0.765625 0.850980
vt  0.882813 0.788235
vt  0.789063 0.788235
vt  0.882813 0.843137
vt  0.031250 0.823529
vt  0.125000 0.823529
vt  0.039063 0.886275
vt  0.359375 0.780392
vt  0.476563 0.780392
vt  0.367188 0.780392
vt  0.476563 0.780392
vt  0.468750 0.780392
vt  0.367188 0.780392
vt  0.632813 0.752941
vt  0.578125 0.752941
vt  0.679688 0.713725
vt  0.742188 0.713725
vt  0.679688 0.713725
vt  0.632813 0.752941
vt  0.789063 0.788235
vt  0.765625 0.850980
vt  0.726563 0.788235
vt  0.789063 0.788235
vt  0.882813 0.788235
vt  0.882813 0.843137
vt  0.632813 0.752941
vt  0.734375 0.713725
vt  0.710938 0.752941
vt  0.632813 0.752941
vt  0.710938 0.752941
vt  0.742188 0.713725
vt  0.367188 0.780392
vt  0.468750 0.780392
vt  0.414063 0.784314
vt  0.890625 0.945098
vt  0.789063 0.952941
vt  0.765625 0.925490
vt  0.125000 0.968627
vt  0.117188 0.980392
vt  0.039063 0.925490
vt  0.789063 0.952941
vt  0.765625 0.925490
vt  0.648438 0.894118
vt  0.453125 0.839216
vt  0.429688 0.835294
vt  0.429688 0.831373
vt  0.882813 0.843137
vt  0.789063 0.788235
vt  0.765625 0.850980
vt  0.734375 0.713725
vt  0.632813 0.752941
vt  0.679688 0.713725
vt  0.632813 0.752941
vt  0.679688 0.713725
vt  0.578125 0.752941
vt  0.125000 0.823529
vt  0.125000 0.752941
vt  0.210938 0.823529
vt  0.406250 0.831373
vt  0.429688 0.831373
vt  0.406250 0.835294
vt  0.429688 0.831373
vt  0.429688 0.835294
vt  0.406250 0.835294
vt  0.117188 0.933333
vt  0.039063 0.925490
vt  0.125000 0.886275
vt  0.039063 0.925490
vt  0.039063 0.886275
vt  0.125000 0.886275
vt  0.359375 0.780392
vt  0.289063 0.819608
vt  0.335938 0.690196
vt  0.289063 0.819608
vt  0.273438 0.721569
vt  0.335938 0.690196
vt  0.406250 0.835294
vt  0.406250 0.878431
vt  0.390625 0.870588
vt  0.328125 0.925490
vt  0.343750 0.960784
vt  0.265625 0.925490
vt  0.320313 0.890196
vt  0.281250 0.886275
vt  0.328125 0.882353
vt  0.273438 0.878431
vt  0.289063 0.819608
vt  0.375000 0.839216
vt  0.367188 0.780392
vt  0.375000 0.831373
vt  0.289063 0.819608
vt  0.414063 0.800000
vt  0.468750 0.780392
vt  0.429688 0.831373
vt  0.554688 0.878431
vt  0.554688 0.886275
vt  0.500000 0.882353
vt  0.554688 0.886275
vt  0.570313 0.925490
vt  0.507813 0.890196
vt  0.203125 0.886275
vt  0.210938 0.925490
vt  0.125000 0.886275
vt  0.210938 0.925490
vt  0.117188 0.933333
vt  0.125000 0.886275
vt  0.210938 0.823529
vt  0.203125 0.886275
vt  0.125000 0.823529
vt  0.414063 0.784314
vt  0.414063 0.800000
vt  0.367188 0.780392
vt  0.648438 0.850980
vt  0.765625 0.850980
vt  0.726563 0.788235
vt  0.328125 0.925490
vt  0.414063 0.925490
vt  0.343750 0.960784
vt  0.507813 0.925490
vt  0.484375 0.960784
vt  0.414063 0.925490
vt  0.507813 0.925490
vt  0.570313 0.925490
vt  0.484375 0.960784
vt  0.281250 0.886275
vt  0.320313 0.890196
vt  0.265625 0.925490
vt  0.789063 0.952941
vt  0.671875 0.937255
vt  0.765625 0.925490
vt  0.671875 0.937255
vt  0.648438 0.894118
vt  0.765625 0.925490
vt  0.226563 0.729412
vt  0.210938 0.823529
vt  0.125000 0.752941
vt  0.125000 0.886275
vt  0.125000 0.823529
vt  0.203125 0.886275
vt  0.125000 0.886275
vt  0.039063 0.886275
vt  0.125000 0.823529
vt  0.375000 0.839216
vt  0.406250 0.831373
vt  0.406250 0.835294
vt  0.429688 0.835294
vt  0.453125 0.839216
vt  0.437500 0.870588
vt  0.406250 0.878431
vt  0.429688 0.835294
vt  0.421875 0.878431
vt  0.328125 0.925490
vt  0.320313 0.890196
vt  0.414063 0.925490
vt  0.320313 0.890196
vt  0.406250 0.878431
vt  0.414063 0.925490
vt  0.406250 0.835294
vt  0.429688 0.835294
vt  0.406250 0.878431
vt  0.507813 0.925490
vt  0.414063 0.925490
vt  0.507813 0.890196
vt  0.414063 0.925490
vt  0.421875 0.878431
vt  0.507813 0.890196
vt  0.906250 0.850980
vt  0.882813 0.843137
vt  0.765625 0.850980
vt  0.906250 0.850980
vt  0.765625 0.850980
vt  0.882813 0.843137
vt  0.554688 0.878431
vt  0.500000 0.882353
vt  0.453125 0.839216
vt  0.273438 0.878431
vt  0.375000 0.839216
vt  0.328125 0.882353
vt  0.437500 0.870588
vt  0.453125 0.839216
vt  0.500000 0.882353
vt  0.406250 0.835294
vt  0.390625 0.870588
vt  0.375000 0.839216
vt  0.765625 0.925490
vt  0.929688 0.925490
vt  0.890625 0.945098
vt  0.882813 0.890196
vt  0.765625 0.925490
vt  0.929688 0.925490
vt  0.882813 0.890196
vt  0.929688 0.925490
vt  0.765625 0.925490
vt  0.320313 0.890196
vt  0.328125 0.882353
vt  0.406250 0.878431
vt  0.328125 0.882353
vt  0.390625 0.870588
vt  0.406250 0.878431
vt  0.117188 0.933333
vt  0.210938 0.925490
vt  0.125000 0.968627
vt  0.039063 0.925490
vt  0.117188 0.933333
vt  0.125000 0.968627
vt  0.406250 0.878431
vt  0.421875 0.878431
vt  0.414063 0.925490
vt  0.343750 0.960784
vt  0.414063 0.925490
vt  0.414063 0.964706
vt  0.328125 0.925490
vt  0.265625 0.925490
vt  0.320313 0.890196
vt  0.507813 0.925490
vt  0.507813 0.890196
vt  0.570313 0.925490
vt  0.375000 0.839216
vt  0.375000 0.831373
vt  0.406250 0.831373
vt  0.507813 0.890196
vt  0.500000 0.882353
vt  0.554688 0.886275
vt  0.273438 0.878431
vt  0.328125 0.882353
vt  0.281250 0.886275
vt  0.375000 0.831373
vt  0.367188 0.780392
vt  0.406250 0.831373
vt  0.453125 0.839216
vt  0.429688 0.831373
vt  0.460938 0.831373
vt  0.429688 0.835294
vt  0.437500 0.870588
vt  0.421875 0.878431
vt  0.507813 0.890196
vt  0.421875 0.878431
vt  0.500000 0.882353
vt  0.421875 0.878431
vt  0.437500 0.870588
vt  0.500000 0.882353
vt  0.390625 0.870588
vt  0.328125 0.882353
vt  0.375000 0.839216
vt  0.460938 0.831373
vt  0.539063 0.819608
vt  0.453125 0.839216
vt  0.539063 0.819608
vt  0.554688 0.878431
vt  0.453125 0.839216
vt  0.890625 0.945098
vt  0.765625 0.925490
vt  0.789063 0.952941
vt  0.414063 0.968627
vt  0.484375 0.960784
vt  0.414063 0.984314
vt  0.484375 0.960784
vt  0.414063 0.964706
vt  0.414063 0.925490
vt  0.765625 0.925490
vt  0.890625 0.945098
vt  0.929688 0.925490
vt  0.414063 0.968627
vt  0.414063 0.984314
vt  0.351563 0.964706
vt  0.726563 0.788235
vt  0.765625 0.850980
vt  0.789063 0.788235
vt  0.882813 0.843137
vt  0.765625 0.850980
vt  0.789063 0.788235
vt  0.414063 0.800000
vt  0.429688 0.831373
vt  0.406250 0.831373
vt  0.539063 0.819608
vt  0.460938 0.831373
vt  0.468750 0.780392
vt  0.414063 0.784314
vt  0.468750 0.780392
vt  0.414063 0.800000
vt  0.414063 0.800000
vt  0.406250 0.831373
vt  0.367188 0.780392
vt  0.789063 0.039216
vt  0.789063 0.074510
vt  0.695313 0.039216
vt  0.789063 0.074510
vt  0.695313 0.074510
vt  0.695313 0.039216
vt  0.835938 0.039216
vt  0.835938 0.074510
vt  0.757813 0.039216
vt  0.835938 0.074510
vt  0.757813 0.074510
vt  0.757813 0.039216
vt  0.757813 0.039216
vt  0.757813 0.074510
vt  0.687500 0.039216
vt  0.757813 0.074510
vt  0.687500 0.074510
vt  0.687500 0.039216
vt  0.804688 0.039216
vt  0.804688 0.074510
vt  0.718750 0.039216
vt  0.804688 0.074510
vt  0.718750 0.074510
vt  0.718750 0.039216
vt  0.695313 0.039216
vt  0.695313 0.074510
vt  0.789063 0.039216
vt  0.695313 0.074510
vt  0.789063 0.074510
vt  0.789063 0.039216
vt  0.695313 0.447059
vt  0.695313 0.498039
vt  0.445313 0.447059
vt  0.695313 0.498039
vt  0.445313 0.498039
vt  0.445313 0.447059
vt  0.640625 0.447059
vt  0.640625 0.498039
vt  0.453125 0.447059
vt  0.640625 0.498039
vt  0.453125 0.498039
vt  0.453125 0.447059
vt  0.695313 0.447059
vt  0.695313 0.498039
vt  0.445313 0.447059
vt  0.695313 0.498039
vt  0.445313 0.498039
vt  0.445313 0.447059
vt  0.632813 0.447059
vt  0.632813 0.498039
vt  0.445313 0.447059
vt  0.632813 0.498039
vt  0.445313 0.498039
vt  0.445313 0.447059
vt  0.609375 0.192157
vt  0.609375 0.074510
vt  0.851563 0.192157
vt  0.609375 0.074510
vt  0.851563 0.074510
vt  0.851563 0.192157
vt  0.820313 0.003922
vt  0.820313 0.498039
vt  0.445313 0.003922
vt  0.820313 0.498039
vt  0.445313 0.498039
vt  0.445313 0.003922
vt  0.820313 0.003922
vt  0.820313 0.498039
vt  0.445313 0.003922
vt  0.820313 0.498039
vt  0.445313 0.498039
vt  0.445313 0.003922
vt  0.820313 0.003922
vt  0.820313 0.498039
vt  0.445313 0.003922
vt  0.820313 0.498039
vt  0.445313 0.498039
vt  0.445313 0.003922
vt  0.820313 0.003922
vt  0.820313 0.498039
vt  0.445313 0.003922
vt  0.820313 0.498039
vt  0.445313 0.498039
vt  0.445313 0.003922
vt  0.546875 0.082353
vt  0.914063 0.082353
vt  0.914063 0.313725
vt  0.546875 0.313725
vt  0.546875 0.082353
vt  0.914063 0.313725
vt  0.625000 0.203922
vt  0.625000 0.066667
vt  0.867188 0.203922
vt  0.625000 0.066667
vt  0.875000 0.066667
vt  0.867188 0.203922
vt  0.562500 0.149020
vt  0.828125 0.125490
vt  0.531250 0.094118
vt  0.828125 0.258824
vt  0.601563 0.184314
vt  0.828125 0.125490
vt  0.601563 0.184314
vt  0.562500 0.149020
vt  0.828125 0.125490
vt  0.453125 0.662745
vt  0.539063 0.521569
vt  0.632813 0.627451
vt  0.828125 0.125490
vt  0.562500 0.149020
vt  0.828125 0.258824
vt  0.562500 0.149020
vt  0.601563 0.184314
vt  0.828125 0.258824
vt  0.742188 0.243137
vt  0.562500 0.243137
vt  0.742188 0.109804
vt  0.562500 0.243137
vt  0.562500 0.109804
vt  0.742188 0.109804
vt  0.789063 0.627451
vt  0.875000 0.701961
vt  0.632813 0.627451
vt  0.875000 0.701961
vt  0.554688 0.701961
vt  0.632813 0.627451
vt  0.789063 0.627451
vt  0.976563 0.662745
vt  0.875000 0.701961
vt  0.460938 0.686275
vt  0.453125 0.662745
vt  0.554688 0.701961
vt  0.632813 0.627451
vt  0.539063 0.521569
vt  0.789063 0.627451
vt  0.539063 0.521569
vt  0.882813 0.521569
vt  0.789063 0.627451
vt  0.976563 0.662745
vt  0.789063 0.627451
vt  0.882813 0.521569
vt  0.562500 0.149020
vt  0.531250 0.094118
vt  0.828125 0.125490
vt  0.648438 0.854902
vt  0.765625 0.850980
vt  0.648438 0.894118
vt  0.906250 0.850980
vt  0.765625 0.850980
vt  0.882813 0.890196
vt  0.648438 0.850980
vt  0.648438 0.894118
vt  0.765625 0.850980
vt  0.765625 0.850980
vt  0.882813 0.890196
vt  0.765625 0.890196
vt  0.906250 0.850980
vt  0.882813 0.890196
vt  0.765625 0.850980
vt  0.765625 0.850980
vt  0.765625 0.890196
vt  0.648438 0.894118
vt  0.765625 0.850980
vt  0.765625 0.890196
vt  0.882813 0.890196
vt  0.765625 0.850980
vt  0.648438 0.894118
vt  0.765625 0.890196
vt  0.765625 0.925490
vt  0.882813 0.890196
vt  0.765625 0.890196
vt  0.765625 0.925490
vt  0.765625 0.890196
vt  0.648438 0.894118
vt  0.765625 0.925490
vt  0.648438 0.894118
vt  0.765625 0.890196
vt  0.765625 0.925490
vt  0.765625 0.890196
vt  0.882813 0.890196
vt  0.375000 0.831373
vt  0.375000 0.839216
vt  0.289063 0.819608
vt  0.460938 0.831373
vt  0.429688 0.831373
vt  0.468750 0.780392
vt  0.632813 0.627451
vt  0.554688 0.701961
vt  0.453125 0.662745
vt  0.960938 0.686275
vt  0.875000 0.701961
vt  0.976563 0.662745
# 495 texture coordinates

vn  -0.001871 0.340449 0.894849
vn  -0.000234 -0.265158 0.920102
vn  -0.862113 -0.192906 0.369444
vn  -0.001871 0.340449 0.894849
vn  -0.862113 -0.192906 0.369444
vn  -0.932027 0.106390 0.192204
vn  -0.542708 -0.142867 -0.776066
vn  -0.932027 0.106390 0.192204
vn  -0.862113 -0.192906 0.369444
vn  -0.542708 -0.142867 -0.776066
vn  -0.862113 -0.192906 0.369444
vn  -0.470924 -0.805761 -0.215119
vn  -0.542708 -0.142867 -0.776066
vn  -0.470924 -0.805761 -0.215119
vn  0.501789 -0.675521 -0.457128
vn  -0.542708 -0.142867 -0.776066
vn  0.501789 -0.675521 -0.457128
vn  0.702645 -0.099610 -0.642785
vn  0.939743 -0.118783 0.139360
vn  0.698202 -0.288306 0.588304
vn  0.862815 -0.190334 0.368508
vn  -0.828676 -0.245049 -0.412935
vn  -0.778170 -0.231721 -0.508102
vn  -0.838497 -0.450347 0.105455
vn  -0.705217 -0.260715 0.593214
vn  -0.862113 -0.192906 0.369444
vn  -0.000234 -0.265158 0.920102
vn  0.448944 -0.689083 -0.490565
vn  0.501789 -0.675521 -0.457128
vn  -0.470924 -0.805761 -0.215119
vn  0.448944 -0.689083 -0.490565
vn  -0.470924 -0.805761 -0.215119
vn  -0.486122 -0.599995 -0.566558
vn  0.501789 -0.675521 -0.457128
vn  0.836159 -0.452685 0.112002
vn  0.862815 -0.190334 0.368508
vn  -0.838497 -0.450347 0.105455
vn  -0.486122 -0.599995 -0.566558
vn  -0.470924 -0.805761 -0.215119
vn  0.862815 -0.190334 0.368508
vn  0.836159 -0.452685 0.112002
vn  0.939743 -0.118783 0.139360
vn  0.837328 -0.219328 -0.409428
vn  0.836159 -0.452685 0.112002
vn  0.774429 -0.252064 -0.503426
vn  0.774429 -0.252064 -0.503426
vn  0.836159 -0.452685 0.112002
vn  0.448944 -0.689083 -0.490565
vn  -0.486122 -0.599995 -0.566558
vn  -0.838497 -0.450347 0.105455
vn  -0.778170 -0.231721 -0.508102
vn  0.036243 -0.237566 -0.927117
vn  0.448944 -0.689083 -0.490565
vn  -0.486122 -0.599995 -0.566558
vn  0.631562 0.718077 0.046064
vn  -0.003274 0.917764 -0.272640
vn  -0.127435 0.938574 0.140061
vn  -0.706853 0.365936 0.532420
vn  0.060093 0.837796 0.459466
vn  -0.127435 0.938574 0.140061
vn  -0.706853 0.365936 0.532420
vn  -0.127435 0.938574 0.140061
vn  -0.641616 0.709425 0.043725
vn  -0.271939 -0.682068 -0.614726
vn  -0.591344 -0.120888 -0.743798
vn  -0.552061 -0.200388 -0.756658
vn  -0.936937 -0.120186 0.158066
vn  -0.828676 -0.245049 -0.412935
vn  -0.838497 -0.450347 0.105455
vn  0.501789 -0.675521 -0.457128
vn  0.448944 -0.689083 -0.490565
vn  0.836159 -0.452685 0.112002
vn  -0.862113 -0.192906 0.369444
vn  -0.838497 -0.450347 0.105455
vn  -0.470924 -0.805761 -0.215119
vn  0.862815 -0.190334 0.368508
vn  -0.000234 -0.265158 0.920102
vn  -0.001871 0.340449 0.894849
vn  0.541539 -0.483083 -0.625015
vn  0.274745 -0.561414 -0.725559
vn  -0.271939 -0.682068 -0.614726
vn  0.541539 -0.483083 -0.625015
vn  -0.271939 -0.682068 -0.614726
vn  -0.552061 -0.200388 -0.756658
vn  -0.010990 -0.163444 0.943484
vn  -0.026422 0.424393 0.857904
vn  -0.706853 0.365936 0.532420
vn  -0.010990 -0.163444 0.943484
vn  -0.706853 0.365936 0.532420
vn  -0.705217 -0.260715 0.593214
vn  0.702645 -0.099610 -0.642785
vn  0.501789 -0.675521 -0.457128
vn  0.862815 -0.190334 0.368508
vn  0.702645 -0.099610 -0.642785
vn  0.862815 -0.190334 0.368508
vn  0.930390 0.115276 0.194543
vn  0.624079 -0.066874 -0.723221
vn  0.541539 -0.483083 -0.625015
vn  0.320808 -0.154792 -0.889003
vn  0.859541 0.224238 -0.357285
vn  0.483083 0.213015 -0.798980
vn  0.492436 0.557205 -0.603035
vn  0.434915 -0.526340 -0.671546
vn  0.534524 -0.173264 -0.775364
vn  0.805761 -0.301868 -0.420418
vn  0.575210 -0.137723 -0.753151
vn  0.837328 -0.219328 -0.409428
vn  0.774429 -0.252064 -0.503426
vn  0.774429 -0.252064 -0.503426
vn  0.448944 -0.689083 -0.490565
vn  0.508102 -0.226577 -0.779339
vn  -0.271939 -0.682068 -0.614726
vn  -0.071550 -0.217925 -0.929923
vn  -0.486122 -0.599995 -0.566558
vn  -0.421119 -0.533355 -0.674819
vn  -0.828676 -0.245049 -0.412935
vn  -0.784250 -0.344892 -0.428134
vn  -0.515584 -0.176772 -0.787523
vn  -0.784250 -0.344892 -0.428134
vn  -0.857437 0.224004 -0.362897
vn  -0.010990 -0.163444 0.943484
vn  0.698202 -0.288306 0.588304
vn  0.728599 0.268431 0.560011
vn  -0.010990 -0.163444 0.943484
vn  0.728599 0.268431 0.560011
vn  -0.026422 0.424393 0.857904
vn  -0.000234 -0.265158 0.920102
vn  0.862815 -0.190334 0.368508
vn  0.698202 -0.288306 0.588304
vn  0.448944 -0.689083 -0.490565
vn  0.036243 -0.237566 -0.927117
vn  -0.071550 -0.217925 -0.929923
vn  -0.862113 -0.192906 0.369444
vn  -0.705217 -0.260715 0.593214
vn  -0.936937 -0.120186 0.158066
vn  0.492436 0.557205 -0.603035
vn  0.483083 0.213015 -0.798980
vn  -0.001169 0.169523 -0.942549
vn  -0.001169 0.169523 -0.942549
vn  -0.463208 0.202025 -0.813478
vn  -0.484018 0.560479 -0.607010
vn  -0.484018 0.560479 -0.607010
vn  -0.463208 0.202025 -0.813478
vn  -0.857437 0.224004 -0.362897
vn  0.859541 0.224238 -0.357285
vn  0.805761 -0.301868 -0.420418
vn  0.534524 -0.173264 -0.775364
vn  0.631562 0.718077 0.046064
vn  -0.127435 0.938574 0.140061
vn  0.060093 0.837796 0.459466
vn  0.631562 0.718077 0.046064
vn  0.060093 0.837796 0.459466
vn  0.728599 0.268431 0.560011
vn  -0.001871 0.340449 0.894849
vn  0.930390 0.115276 0.194543
vn  0.862815 -0.190334 0.368508
vn  0.698202 -0.288306 0.588304
vn  -0.010990 -0.163444 0.943484
vn  -0.000234 -0.265158 0.920102
vn  -0.000234 -0.265158 0.920102
vn  -0.010990 -0.163444 0.943484
vn  -0.705217 -0.260715 0.593214
vn  0.541539 -0.483083 -0.625015
vn  0.575210 -0.137723 -0.753151
vn  0.274745 -0.561414 -0.725559
vn  -0.645357 -0.067108 -0.704515
vn  -0.552061 -0.200388 -0.756658
vn  -0.591344 -0.120888 -0.743798
vn  -0.387916 -0.217224 -0.848318
vn  0.320808 -0.154792 -0.889003
vn  -0.552061 -0.200388 -0.756658
vn  -0.001169 0.169523 -0.942549
vn  0.483083 0.213015 -0.798980
vn  0.534524 -0.173264 -0.775364
vn  -0.001169 0.169523 -0.942549
vn  0.534524 -0.173264 -0.775364
vn  0.320808 -0.154792 -0.889003
vn  0.320808 -0.154792 -0.889003
vn  0.541539 -0.483083 -0.625015
vn  -0.552061 -0.200388 -0.756658
vn  -0.515584 -0.176772 -0.787523
vn  -0.463208 0.202025 -0.813478
vn  -0.001169 0.169523 -0.942549
vn  -0.515584 -0.176772 -0.787523
vn  -0.001169 0.169523 -0.942549
vn  -0.387916 -0.217224 -0.848318
vn  -0.936937 -0.120186 0.158066
vn  -0.784250 -0.344892 -0.428134
vn  -0.828676 -0.245049 -0.412935
vn  0.837328 -0.219328 -0.409428
vn  0.805761 -0.301868 -0.420418
vn  0.939743 -0.118783 0.139360
vn  -0.591344 -0.120888 -0.743798
vn  -0.828676 -0.245049 -0.412935
vn  -0.421119 -0.533355 -0.674819
vn  0.434915 -0.526340 -0.671546
vn  0.837328 -0.219328 -0.409428
vn  0.575210 -0.137723 -0.753151
vn  -0.421119 -0.533355 -0.674819
vn  -0.645357 -0.067108 -0.704515
vn  -0.591344 -0.120888 -0.743798
vn  0.575210 -0.137723 -0.753151
vn  0.541539 -0.483083 -0.625015
vn  0.624079 -0.066874 -0.723221
vn  -0.003274 0.917764 -0.272640
vn  0.631562 0.718077 0.046064
vn  0.492436 0.557205 -0.603035
vn  -0.484018 0.560479 -0.607010
vn  -0.857437 0.224004 -0.362897
vn  -0.641616 0.709425 0.043725
vn  0.631562 0.718077 0.046064
vn  0.859541 0.224238 -0.357285
vn  0.492436 0.557205 -0.603035
vn  0.320808 -0.154792 -0.889003
vn  0.534524 -0.173264 -0.775364
vn  0.434915 -0.526340 -0.671546
vn  0.320808 -0.154792 -0.889003
vn  0.434915 -0.526340 -0.671546
vn  0.624079 -0.066874 -0.723221
vn  0.060093 0.837796 0.459466
vn  -0.026422 0.424393 0.857904
vn  0.728599 0.268431 0.560011
vn  0.060093 0.837796 0.459466
vn  -0.706853 0.365936 0.532420
vn  -0.026422 0.424393 0.857904
vn  -0.001169 0.169523 -0.942549
vn  0.320808 -0.154792 -0.889003
vn  -0.387916 -0.217224 -0.848318
vn  -0.001169 0.557205 -0.778872
vn  0.492436 0.557205 -0.603035
vn  -0.001169 0.169523 -0.942549
vn  0.534524 -0.173264 -0.775364
vn  0.483083 0.213015 -0.798980
vn  0.859541 0.224238 -0.357285
vn  -0.857437 0.224004 -0.362897
vn  -0.463208 0.202025 -0.813478
vn  -0.515584 -0.176772 -0.787523
vn  0.274745 -0.561414 -0.725559
vn  0.575210 -0.137723 -0.753151
vn  0.508102 -0.226577 -0.779339
vn  -0.784250 -0.344892 -0.428134
vn  -0.515584 -0.176772 -0.787523
vn  -0.421119 -0.533355 -0.674819
vn  0.805761 -0.301868 -0.420418
vn  0.837328 -0.219328 -0.409428
vn  0.434915 -0.526340 -0.671546
vn  0.274745 -0.561414 -0.725559
vn  0.508102 -0.226577 -0.779339
vn  0.448944 -0.689083 -0.490565
vn  -0.455959 -0.246919 -0.805294
vn  -0.591344 -0.120888 -0.743798
vn  -0.271939 -0.682068 -0.614726
vn  -0.387916 -0.217224 -0.848318
vn  -0.552061 -0.200388 -0.756658
vn  -0.645357 -0.067108 -0.704515
vn  -0.421119 -0.533355 -0.674819
vn  -0.515584 -0.176772 -0.787523
vn  -0.387916 -0.217224 -0.848318
vn  -0.421119 -0.533355 -0.674819
vn  -0.387916 -0.217224 -0.848318
vn  -0.645357 -0.067108 -0.704515
vn  0.575210 -0.137723 -0.753151
vn  0.624079 -0.066874 -0.723221
vn  0.434915 -0.526340 -0.671546
vn  -0.591344 -0.120888 -0.743798
vn  -0.455959 -0.246919 -0.805294
vn  -0.778170 -0.231721 -0.508102
vn  -0.591344 -0.120888 -0.743798
vn  -0.778170 -0.231721 -0.508102
vn  -0.828676 -0.245049 -0.412935
vn  -0.127435 0.938574 0.140061
vn  -0.003274 0.917764 -0.272640
vn  -0.641616 0.709425 0.043725
vn  -0.003274 0.917764 -0.272640
vn  -0.001169 0.557205 -0.778872
vn  -0.484018 0.560479 -0.607010
vn  -0.001169 0.169523 -0.942549
vn  -0.484018 0.560479 -0.607010
vn  -0.001169 0.557205 -0.778872
vn  -0.484018 0.560479 -0.607010
vn  -0.641616 0.709425 0.043725
vn  -0.003274 0.917764 -0.272640
vn  0.492436 0.557205 -0.603035
vn  -0.001169 0.557205 -0.778872
vn  -0.003274 0.917764 -0.272640
vn  -0.838497 -0.450347 0.105455
vn  -0.862113 -0.192906 0.369444
vn  -0.936937 -0.120186 0.158066
vn  0.836159 -0.452685 0.112002
vn  0.837328 -0.219328 -0.409428
vn  0.939743 -0.118783 0.139360
vn  0.274745 -0.561414 -0.725559
vn  -0.071550 -0.217925 -0.929923
vn  -0.271939 -0.682068 -0.614726
vn  -0.486122 -0.599995 -0.566558
vn  -0.778170 -0.231721 -0.508102
vn  -0.455959 -0.246919 -0.805294
vn  -0.071550 -0.217925 -0.929923
vn  0.036243 -0.237566 -0.927117
vn  -0.486122 -0.599995 -0.566558
vn  0.448944 -0.689083 -0.490565
vn  -0.071550 -0.217925 -0.929923
vn  0.274745 -0.561414 -0.725559
vn  0.729301 0.000000 0.620338
vn  0.815348 0.000000 -0.502023
vn  0.954708 0.000000 -0.073187
vn  0.729301 0.000000 0.620338
vn  0.954708 0.000000 -0.073187
vn  0.364533 0.000000 0.885262
vn  -0.225407 0.000000 -0.930858
vn  -0.954942 0.000000 -0.073187
vn  -0.815582 0.000000 -0.502023
vn  -0.225407 0.000000 -0.930858
vn  -0.815582 0.000000 -0.502023
vn  0.225174 0.000000 -0.930858
vn  0.815348 0.000000 -0.502023
vn  -0.225407 0.000000 -0.930858
vn  0.225174 0.000000 -0.930858
vn  0.815348 0.000000 -0.502023
vn  0.225174 0.000000 -0.930858
vn  0.954708 0.000000 -0.073187
vn  -0.364767 0.000000 0.885262
vn  0.729301 0.000000 0.620338
vn  0.364533 0.000000 0.885262
vn  -0.364767 0.000000 0.885262
vn  0.364533 0.000000 0.885262
vn  -0.729534 0.000000 0.620338
vn  -0.954942 0.000000 -0.073187
vn  -0.364767 0.000000 0.885262
vn  -0.729534 0.000000 0.620338
vn  -0.954942 0.000000 -0.073187
vn  -0.729534 0.000000 0.620338
vn  -0.815582 0.000000 -0.502023
vn  0.000000 0.000000 0.957514
vn  0.000000 0.000000 0.957514
vn  0.957514 0.000000 0.000000
vn  0.957514 0.000000 0.000000
vn  0.000000 0.000000 -0.957748
vn  0.000000 0.000000 -0.957748
vn  -0.957748 0.000000 0.000000
vn  -0.957748 0.000000 0.000000
vn  0.000000 0.957514 0.000000
vn  0.000000 0.957514 0.000000
vn  0.000000 0.000000 0.957514
vn  0.000000 0.000000 0.957514
vn  0.957514 0.000000 0.000000
vn  0.957514 0.000000 0.000000
vn  0.000000 0.000000 -0.957748
vn  0.000000 0.000000 -0.957748
vn  -0.957748 0.000000 0.000000
vn  -0.957748 0.000000 0.000000
vn  0.000000 0.957514 0.000000
vn  0.000000 0.957514 0.000000
vn  0.269367 -0.177941 0.901396
vn  -0.409662 -0.163911 0.849954
vn  -0.518390 -0.231955 0.770922
vn  0.269367 -0.177941 0.901396
vn  -0.518390 -0.231955 0.770922
vn  0.761802 -0.248556 0.524002
vn  -0.409662 -0.163911 0.849954
vn  -0.852059 -0.289476 0.327589
vn  -0.518390 -0.231955 0.770922
vn  0.761802 -0.248556 0.524002
vn  0.334136 0.302336 -0.844810
vn  0.551827 0.555569 -0.551126
vn  0.761802 -0.248556 0.524002
vn  0.551827 0.555569 -0.551126
vn  0.845278 -0.163444 0.418781
vn  -0.039984 0.752215 -0.591110
vn  0.551827 0.555569 -0.551126
vn  0.334136 0.302336 -0.844810
vn  -0.866322 -0.369911 0.172329
vn  -0.518390 -0.231955 0.770922
vn  -0.852059 -0.289476 0.327589
vn  -0.866322 -0.369911 0.172329
vn  -0.852059 -0.289476 0.327589
vn  -0.766479 -0.465312 0.336241
vn  0.000000 -0.957748 0.000000
vn  0.000000 -0.957748 0.000000
vn  -0.039984 0.752215 -0.591110
vn  0.040218 0.682536 -0.670377
vn  0.143802 0.849721 -0.417378
vn  -0.039984 0.752215 -0.591110
vn  0.143802 0.849721 -0.417378
vn  -0.136788 0.830079 -0.457596
vn  0.143802 0.849721 -0.417378
vn  0.040218 0.682536 -0.670377
vn  0.161339 0.758996 -0.561180
vn  -0.136788 0.830079 -0.457596
vn  -0.314261 0.781444 -0.455491
vn  0.551827 0.555569 -0.551126
vn  0.040218 0.682536 -0.670377
vn  -0.039984 0.752215 -0.591110
vn  0.334136 0.302336 -0.844810
vn  0.040218 0.682536 -0.670377
vn  0.334136 0.302336 -0.844810
vn  -0.059392 0.422054 -0.857437
vn  -0.059392 0.422054 -0.857437
vn  0.161339 0.758996 -0.561180
vn  0.040218 0.682536 -0.670377
vn  0.761802 -0.248556 0.524002
vn  0.845278 -0.163444 0.418781
vn  0.269367 -0.177941 0.901396
vn  0.000000 -0.002338 0.957514
vn  0.000000 0.065705 0.955176
vn  0.000000 -0.002338 0.957514
vn  0.000000 0.065705 0.955176
vn  0.000000 0.065705 0.955176
vn  0.957514 0.000000 0.000000
vn  0.957514 0.000000 0.000000
vn  0.000000 -0.280356 -0.915893
vn  0.000000 -0.280356 -0.915893
vn  -0.957748 0.000000 0.000000
vn  -0.957748 0.000000 0.000000
vn  0.000000 -0.386045 -0.876611
vn  0.000000 -0.386045 -0.876611
vn  0.000000 0.222835 0.931092
vn  0.000000 0.065705 0.955176
vn  0.000000 0.065705 0.955176
vn  0.000000 0.222835 0.931092
vn  0.000000 0.065705 0.955176
vn  0.000000 0.310520 0.905839
vn  0.000000 0.956111 0.052143
vn  0.000000 0.957514 -0.004443
vn  0.000000 0.956111 0.052143
vn  0.000000 0.957514 -0.004443
vn  0.000000 0.951201 0.109196
vn  0.000000 0.528912 0.798045
vn  0.000000 0.222835 0.931092
vn  0.000000 0.310520 0.905839
vn  0.000000 0.528912 0.798045
vn  0.000000 0.310520 0.905839
vn  0.000000 0.652606 0.700540
vn  0.000000 0.951201 0.109196
vn  0.000000 0.840368 0.458765
vn  0.000000 0.904436 0.314261
vn  0.000000 0.951201 0.109196
vn  0.000000 0.904436 0.314261
vn  0.000000 0.956111 0.052143
vn  0.000000 0.652606 0.700540
vn  0.000000 0.904436 0.314261
vn  0.000000 0.840368 0.458765
vn  0.000000 0.652606 0.700540
vn  0.000000 0.840368 0.458765
vn  0.000000 0.528912 0.798045
vn  -0.957748 0.000000 0.000000
vn  -0.957748 0.000000 0.000000
vn  -0.957748 0.000000 0.000000
vn  -0.957748 0.000000 0.000000
vn  -0.957748 0.000000 0.000000
vn  -0.957748 0.000000 0.000000
vn  0.957514 0.000000 0.000000
vn  0.957514 0.000000 0.000000
vn  0.957514 0.000000 0.000000
vn  0.957514 0.000000 0.000000
vn  0.957514 0.000000 0.000000
vn  0.957514 0.000000 0.000000
vn  0.728599 0.268431 0.560011
vn  0.698202 -0.288306 0.588304
vn  0.939743 -0.118783 0.139360
vn  -0.857437 0.224004 -0.362897
vn  -0.784250 -0.344892 -0.428134
vn  -0.936937 -0.120186 0.158066
vn  -0.936937 -0.120186 0.158066
vn  -0.705217 -0.260715 0.593214
vn  -0.706853 0.365936 0.532420
vn  0.921037 0.238502 0.106157
vn  0.939743 -0.118783 0.139360
vn  0.859541 0.224238 -0.357285
vn  0.939743 -0.118783 0.139360
vn  0.805761 -0.301868 -0.420418
vn  0.859541 0.224238 -0.357285
vn  0.728599 0.268431 0.560011
vn  0.939743 -0.118783 0.139360
vn  0.921037 0.238502 0.106157
vn  -0.857437 0.224004 -0.362897
vn  -0.936937 -0.120186 0.158066
vn  -0.912853 0.244815 0.155026
vn  -0.912853 0.244815 0.155026
vn  -0.936937 -0.120186 0.158066
vn  -0.706853 0.365936 0.532420
vn  -0.912853 0.244815 0.155026
vn  -0.641616 0.709425 0.043725
vn  -0.857437 0.224004 -0.362897
vn  -0.706853 0.365936 0.532420
vn  -0.641616 0.709425 0.043725
vn  -0.912853 0.244815 0.155026
vn  0.921037 0.238502 0.106157
vn  0.631562 0.718077 0.046064
vn  0.728599 0.268431 0.560011
vn  0.859541 0.224238 -0.357285
vn  0.631562 0.718077 0.046064
vn  0.921037 0.238502 0.106157
vn  0.774429 -0.252064 -0.503426
vn  0.508102 -0.226577 -0.779339
vn  0.575210 -0.137723 -0.753151
vn  -0.486122 -0.599995 -0.566558
vn  -0.455959 -0.246919 -0.805294
vn  -0.271939 -0.682068 -0.614726
vn  0.551827 0.555569 -0.551126
vn  -0.039984 0.752215 -0.591110
vn  -0.136788 0.830079 -0.457596
vn  0.161339 0.758996 -0.561180
vn  0.314027 0.781444 -0.455491
vn  0.143802 0.849721 -0.417378
# 505 vertex normals

g Object_0
usemtl Material_0
s 1
f 36/1/2 15/2/3 6/3/1
f 15/4/5 10/5/6 6/6/4
f 10/7/8 15/8/9 9/9/7
f 15/10/11 17/11/12 9/12/10
f 17/13/14 16/14/15 9/15/13
f 16/16/17 8/17/18 9/18/16
f 3/19/20 14/20/21 18/21/19
f 49/22/23 21/23/24 50/24/22
f 15/25/26 36/26/27 1/27/25
f 16/28/29 17/29/30 22/30/28
f 17/31/32 23/32/33 22/33/31
f 20/34/35 14/35/36 16/36/34
f 23/37/38 17/38/39 21/39/37
f 20/40/41 18/41/42 14/42/40
f 20/43/44 48/44/45 47/45/43
f 20/46/47 22/47/48 48/48/46
f 21/49/50 49/50/51 23/51/49
f 22/52/53 23/53/54 42/54/52
f 26/55/56 5/56/57 45/57/55
f 31/58/59 5/59/60 27/60/58
f 5/61/62 33/62/63 27/63/61
f 58/64/65 38/65/66 40/66/64
f 50/67/68 21/68/69 19/69/67
f 22/70/71 20/71/72 16/72/70
f 21/73/74 17/74/75 15/75/73
f 36/76/77 6/77/78 14/78/76
f 37/79/80 40/80/81 57/81/79
f 40/82/83 38/83/84 57/84/82
f 39/85/86 27/86/87 35/87/85
f 27/88/89 1/89/90 35/90/88
f 16/91/92 14/92/93 8/93/91
f 14/94/95 34/95/96 8/96/94
f 57/97/98 12/98/99 7/99/97
f 51/100/101 43/101/102 53/102/100
f 4/103/104 46/104/105 29/105/103
f 47/106/107 48/107/108 59/108/106
f 22/109/110 55/110/111 48/111/109
f 13/112/113 23/113/114 40/114/112
f 50/115/116 32/116/117 41/117/115
f 32/118/119 54/119/120 2/120/118
f 3/121/122 25/122/123 35/123/121
f 25/124/125 39/125/126 35/126/124
f 14/127/128 3/128/129 36/129/127
f 42/130/131 13/131/132 22/132/130
f 1/133/134 19/134/135 15/135/133
f 51/136/137 28/137/138 43/138/136
f 52/139/140 30/140/141 28/141/139
f 52/142/143 54/143/144 30/144/142
f 46/145/146 4/146/147 53/147/145
f 5/148/149 31/149/150 45/150/148
f 31/151/152 25/152/153 45/153/151
f 34/154/155 14/155/156 6/156/154
f 35/157/158 36/158/159 3/159/157
f 35/160/161 1/161/162 36/162/160
f 59/163/164 37/164/165 57/165/163
f 38/166/167 58/167/168 11/168/166
f 12/169/170 38/170/171 44/171/169
f 51/172/173 4/173/174 28/174/172
f 4/175/176 12/176/177 28/177/175
f 57/178/179 38/179/180 12/180/178
f 52/181/182 28/182/183 2/183/181
f 28/184/185 44/185/186 2/186/184
f 32/187/188 50/188/189 19/189/187
f 46/190/191 18/191/192 47/192/190
f 50/193/194 41/194/195 58/195/193
f 47/196/197 59/197/198 29/198/196
f 11/199/200 58/200/201 41/201/199
f 57/202/203 7/203/204 59/204/202
f 45/205/206 43/206/207 26/207/205
f 54/208/209 33/209/210 30/210/208
f 53/211/212 43/212/213 45/213/211
f 4/214/215 29/215/216 12/216/214
f 29/217/218 7/218/219 12/219/217
f 39/220/221 25/221/222 31/222/220
f 27/223/224 39/224/225 31/225/223
f 12/226/227 44/227/228 28/228/226
f 43/229/230 28/230/231 24/231/229
f 51/232/233 53/233/234 4/234/232
f 52/235/236 2/236/237 54/237/235
f 59/238/239 55/239/240 37/240/238
f 2/241/242 41/242/243 32/243/241
f 47/244/245 29/245/246 46/246/244
f 55/247/248 22/248/249 37/249/247
f 58/250/251 40/251/252 56/252/250
f 38/253/254 11/254/255 44/255/253
f 2/256/257 44/257/258 41/258/256
f 44/259/260 11/260/261 41/261/259
f 7/262/263 29/263/264 59/264/262
f 56/265/266 49/266/267 58/267/265
f 49/268/269 50/269/270 58/270/268
f 26/271/272 33/272/273 5/273/271
f 24/274/275 30/275/276 26/276/274
f 30/277/278 24/278/279 28/279/277
f 33/280/281 26/281/282 30/282/280
f 24/283/284 26/284/285 43/285/283
f 15/286/287 19/287/288 21/288/286
f 47/289/290 18/290/291 20/291/289
f 13/292/293 40/293/294 37/294/292
f 49/295/296 56/296/297 23/297/295
f 42/298/299 23/299/300 13/300/298
f 13/301/302 37/302/303 22/303/301
f 68/304/305 69/305/306 66/306/304
f 69/307/308 67/308/309 66/309/307
f 62/310/311 63/311/312 60/312/310
f 63/313/314 61/314/315 60/315/313
f 60/316/317 61/317/318 68/318/316
f 61/319/320 69/320/321 68/321/319
f 66/322/323 67/323/324 64/324/322
f 67/325/326 65/326/327 64/327/325
f 64/328/329 65/329/330 62/330/328
f 65/331/332 63/332/333 62/333/331
f 71/334/334 73/335/334 70/336/334
f 73/337/335 72/338/335 70/339/335
f 75/340/336 77/341/336 71/342/336
f 77/343/337 73/344/337 71/345/337
f 74/346/338 76/347/338 75/348/338
f 76/349/339 77/350/339 75/351/339
f 70/352/340 72/353/340 74/354/340
f 72/355/341 76/356/341 74/357/341
f 73/358/342 77/359/342 72/360/342
f 77/361/343 76/362/343 72/363/343
f 79/364/344 81/365/344 78/366/344
f 81/367/345 80/368/345 78/369/345
f 83/370/346 85/371/346 79/372/346
f 85/373/347 81/374/347 79/375/347
f 82/376/348 84/377/348 83/378/348
f 84/379/349 85/380/349 83/381/349
f 78/382/350 80/383/350 82/384/350
f 80/385/351 84/386/351 82/387/351
f 85/388/352 84/389/352 80/390/352
f 81/391/353 85/392/353 80/393/353
f 96/394/355 86/395/356 94/396/354
f 86/397/358 87/398/359 94/399/357
f 88/400/361 86/401/362 96/402/360
f 91/403/364 93/404/365 87/405/363
f 93/406/367 89/407/368 87/408/366
f 93/409/370 91/410/371 95/411/369
f 86/412/373 88/413/374 90/414/372
f 88/415/376 92/416/377 90/417/375
f 91/418/378 87/419/378 90/420/378
f 87/421/379 86/422/379 90/423/379
f 97/424/381 96/425/382 95/426/380
f 96/427/384 94/428/385 95/429/383
f 97/430/387 92/431/388 96/432/386
f 89/433/390 93/434/391 94/435/389
f 95/436/393 91/437/394 97/438/392
f 91/439/396 90/440/397 97/441/395
f 92/442/399 97/443/400 90/444/398
f 89/445/402 94/446/403 87/447/401
f 3/448/459 18/449/460 25/450/458
f 32/451/462 19/452/463 54/453/461
f 1/454/465 27/455/466 19/456/464
f 18/457/468 53/458/469 98/459/467
f 46/460/471 53/461/472 18/462/470
f 18/463/474 98/464/475 25/465/473
f 19/466/477 99/467/478 54/468/476
f 19/469/480 27/470/481 99/471/479
f 33/472/483 54/473/484 99/474/482
f 33/475/486 99/476/487 27/477/485
f 45/478/489 25/479/490 98/480/488
f 45/481/492 98/482/493 53/483/491
f 55/484/495 59/485/496 48/486/494
f 56/487/498 40/488/499 23/489/497
f 95/490/501 94/491/502 93/492/500
f 88/493/504 96/494/505 92/495/503
# 165 faces

g
