<?xml version="1.0"?>
<COLLADA xmlns="http://www.collada.org/2005/11/COLLADASchema" version="1.4.1">
    <asset>
        <contributor>
            <authoring_tool>J3D Ripoff Exporter</authoring_tool>
        </contributor>
        <created>2025-05-18T16:14:03.009Z</created>
        <modified>2025-05-18T16:14:03.009Z</modified>
		<unit meter="0.01" name="centimeter" ></unit>
        <up_axis>Y_UP</up_axis>
    </asset>
    <library_images>
        <image id="tex0">
            <init_from>rock02_4ia.png</init_from>
        </image>
        <image id="tex_vc">
            <init_from>vertexColors.png</init_from>
        </image>
    </library_images>
    <library_effects>
        <effect id="effect0">
            <profile_COMMON>
                <technique sid="COMMON">
                    <blinn>
                        <diffuse>
                            <color>1 1 1 1</color>
                        </diffuse>
                    </blinn>
                </technique>
            </profile_COMMON>
        </effect>
        <effect id="effect1">
            <profile_COMMON>
                <newparam sid="surface1">
                    <surface type="2D">
                        <init_from>tex0</init_from>
                    </surface>
                </newparam>
                <newparam sid="sampler1">
                    <sampler2D>
                        <source>surface1</source>
                    </sampler2D>
                </newparam>
                <technique sid="COMMON">
                    <blinn>
                        <diffuse>
                            <texture texture="sampler1" texcoord="UVSET0"></texture>
                        </diffuse>
                    </blinn>
                </technique>
            </profile_COMMON>
        </effect>
        <effect id="effect_vc">
            <profile_COMMON>
                <newparam sid="surface_vc">
                    <surface type="2D">
                        <init_from>tex_vc</init_from>
                    </surface>
                </newparam>
                <newparam sid="sampler_vc">
                    <sampler2D>
                        <source>surface_vc</source>
                    </sampler2D>
                </newparam>
                <technique sid="COMMON">
                    <blinn>
                        <diffuse>
                            <texture texture="sampler_vc" texcoord="UVSET0"></texture>
                        </diffuse>
                    </blinn>
                </technique>
            </profile_COMMON>
        </effect>
    </library_effects>
    <library_materials>
        <material id="mat0" name="lambert1_v">
            <instance_effect url="#effect0"></instance_effect>
        </material>
        <material id="mat1" name="lambert5_v_x">
            <instance_effect url="#effect1"></instance_effect>
        </material>
        <material id="mat_vc" name="vertexColors">
            <instance_effect url="#effect_vc"></instance_effect>
        </material>
    </library_materials>
    <library_geometries>
        <geometry id="mesh0">
            <mesh>
                <source id="points0">
                    <float_array id="pointarray0" count="501">-10.341796875 -2.91015625 -14.927734375 0.384765625 -2.87109375 -18.181640625 -8.115211738273501 3.46533157187514 -26.96150769526139 9.250247371383011 3.480985243571922 -26.602073017973453 0.6290558930486441 10.716894985409454 -29.57717635226436 17.875346029177308 10.683630933053792 -23.5605524063576 8.203123276121914 20.541530684102327 -23.53906446369365 20.487295498140156 20.4769592883531 -14.189855955541134 10.854144539684057 27.13759659533389 -14.205483550205827 17.179868085309863 27.06715507269837 -5.063340671360493 5.503262269310653 30.438564614392817 -7.139857312431559 8.60165558103472 30.354426129022613 3.1626344702672213 -5.227806117385626 30.428781069582328 -7.3625505364034325 -8.761849938891828 30.33877245732583 2.8051532423123717 -16.970833984203637 27.035847729304805 -5.788070373935625 -17.21503270044923 26.941925699124113 5.338777027325705 -24.96687674894929 20.31063902657479 -0.41022435994818807 -20.514645754359663 20.18932307092473 14.396921584848315 -28.291886469349265 10.36077395430766 8.628385704243556 -17.875346029177308 10.243371416581795 23.66408522101119 -23.08556983899325 3.0818166153039783 16.112050099298358 -9.25415455084294 3.0074616747442633 26.641142004635185 -10.966796875 -3.16015625 14.48828125 -0.384765625 -3.1796875 18.181640625 10.966796875 -2.890625 -14.48828125 23.081662659533322 3.4046735940501094 -16.074934561969712 28.291886469349265 10.566228395327926 -8.522899440256879 24.941480082459748 20.35564333270304 0.6172899892553687 16.937622958794236 26.97127633355558 6.063506729900837 10.217274287715554 26.889094557147473 14.928259803447872 -0.2129412805661559 30.293768151197582 9.310139521490782 -0.4083002535626292 26.849960377905518 18.143637405708432 -10.887355565093458 26.869527467526495 14.480919906171039 -8.23047353234142 20.122794966213405 23.74613009300083 -17.359375 -3.087890625 5.26171875 -28.10043467581272 3.218786242650822 -0.560639958595857 -27.903122113086283 10.517310671275482 -9.683248344110325 -19.887543451040983 20.439781818073243 -15.02202537143603 -10.25243890285492 27.11802950571291 -14.65282344748266 0.37508922815322876 27.157163684954867 -17.86820104974322 29.25390625 0 -11.4296875 29.25390625 0 -7.07421875 32.167808493599296 4.028863752959296 -9.251536041498184 28.217650059610605 4.030820461921394 -3.8131330981850624 29.30970671866089 6.263425387674943 -7.175019400427118 25.357594694942236 6.263425387674943 -5.891603188589215 26.44965135399252 7.11459378618747 -9.251536041498184 22.91560753248632 6.263425387674943 -9.251536041498184 25.357594694942236 6.263425387674943 -12.61342234374024 21.823550873436034 4.028863752959296 -12.61342234374024 28.217650059610605 4.028863752959296 -14.689938984811306 25.11328125 0 -12.7734375 2.126953125 0 33.00390625 -1.2265625 0 34.09375 1.8383279358968139 4.203010850585997 36.94558723666705 -4.8644384276121855 4.203010850585997 34.76749123027548 -1.1584787098690867 6.543234769254923 34.76749123027548 -3.719634845852852 6.543234769254923 31.24151518405415 -0.011721538379788399 7.439407473895699 31.24151518405415 -1.1584787098690867 6.543234769254923 27.71553913783282 2.985085107386112 6.543234769254923 29.06341917766258 1.8383279358968139 4.203010850585997 25.53744313144125 5.983845342881978 4.203010850585997 31.24151518405415 2.126953125 0 29.478515625 -1.044921875 0.091796875 -25.595703125 -4.498046875 0.091796875 -24.47265625 -2.1391807543113828 3.093556869076565 -23.41795060504228 -6.835610465146601 3.093556869076565 -24.94359453418292 -4.239289714023471 4.733278979314491 -24.94359453418292 -6.032685086131096 4.733278979314491 -27.41080104187131 -3.4383179247379303 5.359425847185776 -27.41080104187131 -4.239289714023471 4.733278979314491 -29.879960998892784 -1.3382089650258422 4.733278979314491 -28.93644497101195 -2.1391807543113828 3.093556869076565 -31.405604928033426 0.7599464049562812 3.093556869076565 -27.41080104187131 -1.044921875 0.091796875 -29.228515625 -28.7578125 0 -8.919921875 -31.658203125 0 -7.9765625 -29.65549210086465 2.7139553304295987 -7.036324497777969 -33.66230463702232 2.7139553304295987 -8.339275202946737 -31.44693388324231 4.1130022383295 -8.339275202946737 -32.976594641804695 4.1130022383295 -10.445093584014103 -30.763177477754653 4.6471837849821895 -10.445093584014103 -31.44693388324231 4.1130022383295 -12.550911965081468 -28.971735695376992 4.1130022383295 -11.746090839849785 -29.65549210086465 2.7139553304295987 -13.85190922091715 -27.180293912999332 2.7139553304295987 -10.445093584014103 -28.7578125 0 -11.970703125 -22.892578125 0 24.3984375 -25.328125 0 21.044921875 -25.963207511231303 4.06017109635286 24.19542343961075 -25.963207511231303 4.06017109635286 17.895549340406433 -24.939526492729783 6.153849685797468 21.044509665342048 -22.65187291894108 6.153849685797468 17.895549340406433 -21.62819190043956 6.9521869423333555 21.044509665342048 -18.947866790927947 6.153849685797468 19.098874129587784 -18.947866790927947 6.153849685797468 22.992098650429398 -16.269495271146297 4.06017109635286 21.044509665342048 -19.971547809429467 4.06017109635286 26.141058975365013 -18.951171875 0 23.1171875 -4.541015625 0 26.033203125 -4.541015625 0 29.26171875 -2.6529748532921076 3.058336107758805 27.64716841117479 -5.411443552002311 3.058336107758805 31.44467391469516 -4.649543557316065 4.615876441588625 29.09858126565814 -7.406058666296303 4.615876441588625 29.993261060211807 -6.644158671610057 5.210715966066346 27.64716841117479 -9.111542500555515 4.615876441588625 27.64716841117479 -7.406058666296303 4.615876441588625 25.30107576213777 -9.873442495241761 3.058336107758805 25.30107576213777 -5.411443552002311 3.058336107758805 23.851616356987506 -7.611328125 0 25.03515625 -16.54296875 0.02734375 -21.130859375 -19.4453125 0.02734375 -26.25390625 -21.014764725230634 4.55913188168779 -21.845423891907558 -19.94419755320996 4.55913188168779 -30.800035634776577 -19.004520893096924 8.705398172372952 -26.146919323364273 -15.171577842906117 8.705398172372952 -30.229628429515287 -14.233854772523046 9.922471146797761 -25.576512118102983 -10.041451212018728 8.705398172372952 -27.881582331145182 -10.703718130476773 8.705398172372952 -22.34550692117773 -6.51326815970242 4.555218463763595 -24.65057713421993 -12.715915552340448 4.555218463763595 -18.0459649390541 -10.71875 0.02734375 -22.2578125 -17.12109375 -2.9921875 -5.97265625 -22.382277536205947 3.365539414808154 -17.012590241851285 -16.855572190135717 10.652323589660227 -24.277468311600387 -7.218514052219689 20.527833721367642 -23.857476704986766 17.359375 -2.9609375 -5.26171875 17.12109375 -3.056640625 5.97265625 28.094573906622827 3.2696606756653637 0.5977554959245026 22.376416767016053 3.1229075035080314 17.051659228513017 27.84060724172741 10.411648387322202 9.579715529456735 16.855572190135717 10.274678759975359 24.381001126253977 19.86214678455144 20.22454383224249 15.231044450076297 7.191163796000183 20.13649192894809 24.064542334293947 10.341796875 -3.140625 14.927734375 8.109350969083607 3.0231153464410454 26.998623232590035 -0.6290558930486441 10.21206407318823 29.682662616251037 -33.451171875 0 -10.4453125 -33.66230463702232 2.7139553304295987 -12.550911965081468 -28.971735695376992 4.1130022383295 -9.14409632817842 25.11328125 0 -5.73046875 21.823550873436034 4.030820461921394 -5.891603188589215 -22.892578125 0 17.69140625 -19.971547809429467 4.06017109635286 15.947960355319083 -22.65187291894108 6.153849685797468 24.19542343961075 -1.3382089650258422 4.733278979314491 -25.885157112730667 -6.6328125 0.091796875 -27.412109375 -6.835610465146601 3.093556869076565 -29.879960998892784 -4.649543557316065 4.615876441588625 26.197709006024525 -7.611328125 0 30.26171875 -9.873442495241761 3.058336107758805 29.993261060211807 29.30970671866089 6.263425387674943 -11.330006131902337 2.985085107386112 6.543234769254923 33.41961119044572 -3.298828125 0 31.2421875 -4.8644384276121855 4.203010850585997 27.71553913783282 -16.244098604656756 8.705398172372952 -21.275016686646268 -15.4140625 0.02734375 -30.544921875 -10.981127872131765 4.55913188168779 -32.53469864255749 -4.498046875 0.091796875 -30.349609375 -9.509765625 0 27.6484375 -1.2265625 0 28.388671875 -18.951171875 0 18.97265625 22.5546875 0 -9.251953125 -10.021484375 0.02734375 -28.076171875 -31.658203125 0 -12.912109375</float_array>
                    <technique_common>
                        <accessor count="167" source="#pointarray0" stride="3">
                            <param name="X" type="float"/>
                            <param name="Y" type="float"/>
                            <param name="Z" type="float"/>
                        </accessor>
                    </technique_common>
                </source>
                <source id="uvs0">
                    <float_array id="uvarray0" count="2">0 1</float_array>
                    <technique_common>
                        <accessor count="1" source="#uvarray0" stride="2">
                            <param name="S" type="float"/>
                            <param name="T" type="float"/>
                        </accessor>
                    </technique_common>
                </source>
                <vertices id="vertices0">
                    <input semantic="POSITION" source="#points0"/>
                </vertices>
                <polylist count="273" material="Material1">
                    <input offset="0" semantic="VERTEX" source="#vertices0"/>
                    <input offset="1" semantic="TEXCOORD" source="#uvs0" set="0"/>
                    <vcount>3 3 3 3 3 3 3 3 3 3 3 3 3 3 3 3 3 3 3 3 3 3 3 3 3 3 3 3 3 3 3 3 3 3 3 3 3 3 3 3 3 3 3 3 3 3 3 3 3 3 3 3 3 3 3 3 3 3 3 3 3 3 3 3 3 3 3 3 3 3 3 3 3 3 3 3 3 3 3 3 3 3 3 3 3 3 3 3 3 3 3 3 3 3 3 3 3 3 3 3 3 3 3 3 3 3 3 3 3 3 3 3 3 3 3 3 3 3 3 3 3 3 3 3 3 3 3 3 3 3 3 3 3 3 3 3 3 3 3 3 3 3 3 3 3 3 3 3 3 3 3 3 3 3 3 3 3 3 3 3 3 3 3 3 3 3 3 3 3 3 3 3 3 3 3 3 3 3 3 3 3 3 3 3 3 3 3 3 3 3 3 3 3 3 3 3 3 3 3 3 3 3 3 3 3 3 3 3 3 3 3 3 3 3 3 3 3 3 3 3 3 3 3 3 3 3 3 3 3 3 3 3 3 3 3 3 3 3 3 3 3 3 3 3 3 3 3 3 3 3 3 3 3 3 3 3 3 3 3 3 3 3 3 3 3 3 3 3 3 3 3 3 3</vcount>
                    <p>2 0 1 0 0 0 3 0 1 0 2 0 4 0 3 0 2 0 5 0 3 0 4 0 6 0 5 0 4 0 7 0 5 0 6 0 8 0 7 0 6 0 9 0 7 0 8 0 10 0 9 0 8 0 11 0 9 0 10 0 12 0 11 0 10 0 13 0 11 0 12 0 14 0 13 0 12 0 15 0 13 0 14 0 16 0 15 0 14 0 17 0 15 0 16 0 18 0 17 0 16 0 19 0 17 0 18 0 20 0 19 0 18 0 21 0 19 0 20 0 22 0 21 0 20 0 23 0 21 0 22 0 3 0 24 0 1 0 25 0 24 0 3 0 5 0 25 0 3 0 26 0 25 0 5 0 7 0 26 0 5 0 27 0 26 0 7 0 9 0 27 0 7 0 28 0 27 0 9 0 11 0 28 0 9 0 29 0 28 0 11 0 30 0 29 0 11 0 31 0 29 0 30 0 32 0 31 0 30 0 33 0 31 0 32 0 17 0 33 0 32 0 19 0 33 0 17 0 20 0 34 0 22 0 35 0 34 0 20 0 18 0 35 0 20 0 36 0 35 0 18 0 16 0 36 0 18 0 37 0 36 0 16 0 14 0 37 0 16 0 38 0 37 0 14 0 12 0 38 0 14 0 39 0 38 0 12 0 10 0 39 0 12 0 8 0 39 0 10 0 42 0 41 0 40 0 43 0 41 0 42 0 44 0 43 0 42 0 45 0 43 0 44 0 46 0 45 0 44 0 47 0 45 0 46 0 48 0 47 0 46 0 49 0 47 0 48 0 50 0 49 0 48 0 51 0 49 0 50 0 40 0 51 0 50 0 54 0 53 0 52 0 55 0 53 0 54 0 56 0 55 0 54 0 57 0 55 0 56 0 58 0 57 0 56 0 59 0 57 0 58 0 60 0 59 0 58 0 61 0 59 0 60 0 62 0 61 0 60 0 63 0 61 0 62 0 52 0 63 0 62 0 66 0 65 0 64 0 67 0 65 0 66 0 68 0 67 0 66 0 69 0 67 0 68 0 70 0 69 0 68 0 71 0 69 0 70 0 72 0 71 0 70 0 73 0 71 0 72 0 74 0 73 0 72 0 75 0 73 0 74 0 64 0 75 0 74 0 78 0 77 0 76 0 79 0 77 0 78 0 80 0 79 0 78 0 81 0 79 0 80 0 82 0 81 0 80 0 83 0 81 0 82 0 84 0 83 0 82 0 85 0 83 0 84 0 86 0 85 0 84 0 87 0 85 0 86 0 76 0 87 0 86 0 90 0 89 0 88 0 91 0 89 0 90 0 92 0 91 0 90 0 93 0 91 0 92 0 94 0 93 0 92 0 95 0 93 0 94 0 96 0 95 0 94 0 97 0 95 0 96 0 98 0 97 0 96 0 99 0 97 0 98 0 88 0 99 0 98 0 102 0 101 0 100 0 103 0 101 0 102 0 104 0 103 0 102 0 105 0 103 0 104 0 106 0 105 0 104 0 107 0 105 0 106 0 108 0 107 0 106 0 109 0 107 0 108 0 110 0 109 0 108 0 111 0 109 0 110 0 100 0 111 0 110 0 114 0 113 0 112 0 115 0 113 0 114 0 116 0 115 0 114 0 117 0 115 0 116 0 118 0 117 0 116 0 119 0 117 0 118 0 120 0 119 0 118 0 121 0 119 0 120 0 122 0 121 0 120 0 123 0 121 0 122 0 112 0 123 0 122 0 125 0 0 0 124 0 2 0 0 0 125 0 126 0 2 0 125 0 4 0 2 0 126 0 127 0 4 0 126 0 6 0 4 0 127 0 39 0 6 0 127 0 8 0 6 0 39 0 35 0 124 0 34 0 125 0 124 0 35 0 36 0 125 0 35 0 126 0 125 0 36 0 37 0 126 0 36 0 127 0 126 0 37 0 38 0 127 0 37 0 39 0 127 0 38 0 130 0 129 0 128 0 131 0 129 0 130 0 132 0 131 0 130 0 133 0 131 0 132 0 134 0 133 0 132 0 135 0 133 0 134 0 29 0 135 0 134 0 31 0 135 0 29 0 25 0 128 0 24 0 130 0 128 0 25 0 26 0 130 0 25 0 132 0 130 0 26 0 27 0 132 0 26 0 134 0 132 0 27 0 28 0 134 0 27 0 29 0 134 0 28 0 131 0 136 0 129 0 137 0 136 0 131 0 133 0 137 0 131 0 138 0 137 0 133 0 135 0 138 0 133 0 33 0 138 0 135 0 31 0 33 0 135 0 79 0 139 0 77 0 140 0 139 0 79 0 81 0 140 0 79 0 83 0 140 0 81 0 86 0 78 0 76 0 141 0 78 0 86 0 84 0 141 0 86 0 82 0 141 0 84 0 43 0 142 0 41 0 143 0 142 0 43 0 45 0 143 0 43 0 47 0 143 0 45 0 91 0 144 0 89 0 145 0 144 0 91 0 93 0 145 0 91 0 95 0 145 0 93 0 98 0 90 0 88 0 146 0 90 0 98 0 96 0 146 0 98 0 94 0 146 0 96 0 74 0 66 0 64 0 147 0 66 0 74 0 72 0 147 0 74 0 70 0 147 0 72 0 32 0 15 0 17 0 13 0 15 0 32 0 30 0 13 0 32 0 11 0 13 0 30 0 67 0 148 0 65 0 149 0 148 0 67 0 69 0 149 0 67 0 71 0 149 0 69 0 110 0 102 0 100 0 150 0 102 0 110 0 108 0 150 0 110 0 106 0 150 0 108 0 103 0 151 0 101 0 152 0 151 0 103 0 105 0 152 0 103 0 107 0 152 0 105 0 50 0 42 0 40 0 153 0 42 0 50 0 48 0 153 0 50 0 46 0 153 0 48 0 62 0 54 0 52 0 154 0 54 0 62 0 60 0 154 0 62 0 58 0 154 0 60 0 55 0 155 0 53 0 156 0 155 0 55 0 57 0 156 0 55 0 59 0 156 0 57 0 122 0 114 0 112 0 157 0 114 0 122 0 120 0 157 0 122 0 118 0 157 0 120 0 115 0 158 0 113 0 159 0 158 0 115 0 117 0 159 0 115 0 119 0 159 0 117 0 149 0 160 0 148 0 73 0 160 0 149 0 71 0 73 0 149 0 152 0 161 0 151 0 109 0 161 0 152 0 107 0 109 0 152 0 156 0 162 0 155 0 61 0 162 0 156 0 59 0 61 0 156 0 145 0 163 0 144 0 97 0 163 0 145 0 95 0 97 0 145 0 143 0 164 0 142 0 49 0 164 0 143 0 47 0 49 0 143 0 159 0 165 0 158 0 121 0 165 0 159 0 119 0 121 0 159 0 140 0 166 0 139 0 85 0 166 0 140 0 83 0 85 0 140 0 147 0 68 0 66 0 70 0 68 0 147 0 56 0 154 0 58 0 54 0 154 0 56 0 80 0 141 0 82 0 78 0 141 0 80 0 146 0 92 0 90 0 94 0 92 0 146 0 44 0 153 0 46 0 42 0 153 0 44 0 21 0 137 0 138 0 23 0 137 0 21 0 19 0 138 0 33 0 21 0 138 0 19 0 150 0 104 0 102 0 106 0 104 0 150 0 116 0 157 0 118 0 114 0 157 0 116 0 85 0 87 0 166 0 97 0 99 0 163 0 49 0 51 0 164 0 23 0 136 0 137 0 73 0 75 0 160 0 109 0 111 0 161 0 61 0 63 0 162 0 121 0 123 0 165 0</p>
                </polylist>
            </mesh>
        </geometry>
        <geometry id="mesh0_VC">
            <mesh>
                <source id="points0_VC">
                    <float_array id="pointarray0_VC" count="501">-10.341796875 -2.91015625 -14.927734375 0.384765625 -2.87109375 -18.181640625 -8.115211738273501 3.46533157187514 -26.96150769526139 9.250247371383011 3.480985243571922 -26.602073017973453 0.6290558930486441 10.716894985409454 -29.57717635226436 17.875346029177308 10.683630933053792 -23.5605524063576 8.203123276121914 20.541530684102327 -23.53906446369365 20.487295498140156 20.4769592883531 -14.189855955541134 10.854144539684057 27.13759659533389 -14.205483550205827 17.179868085309863 27.06715507269837 -5.063340671360493 5.503262269310653 30.438564614392817 -7.139857312431559 8.60165558103472 30.354426129022613 3.1626344702672213 -5.227806117385626 30.428781069582328 -7.3625505364034325 -8.761849938891828 30.33877245732583 2.8051532423123717 -16.970833984203637 27.035847729304805 -5.788070373935625 -17.21503270044923 26.941925699124113 5.338777027325705 -24.96687674894929 20.31063902657479 -0.41022435994818807 -20.514645754359663 20.18932307092473 14.396921584848315 -28.291886469349265 10.36077395430766 8.628385704243556 -17.875346029177308 10.243371416581795 23.66408522101119 -23.08556983899325 3.0818166153039783 16.112050099298358 -9.25415455084294 3.0074616747442633 26.641142004635185 -10.966796875 -3.16015625 14.48828125 -0.384765625 -3.1796875 18.181640625 10.966796875 -2.890625 -14.48828125 23.081662659533322 3.4046735940501094 -16.074934561969712 28.291886469349265 10.566228395327926 -8.522899440256879 24.941480082459748 20.35564333270304 0.6172899892553687 16.937622958794236 26.97127633355558 6.063506729900837 10.217274287715554 26.889094557147473 14.928259803447872 -0.2129412805661559 30.293768151197582 9.310139521490782 -0.4083002535626292 26.849960377905518 18.143637405708432 -10.887355565093458 26.869527467526495 14.480919906171039 -8.23047353234142 20.122794966213405 23.74613009300083 -17.359375 -3.087890625 5.26171875 -28.10043467581272 3.218786242650822 -0.560639958595857 -27.903122113086283 10.517310671275482 -9.683248344110325 -19.887543451040983 20.439781818073243 -15.02202537143603 -10.25243890285492 27.11802950571291 -14.65282344748266 0.37508922815322876 27.157163684954867 -17.86820104974322 29.25390625 0 -11.4296875 29.25390625 0 -7.07421875 32.167808493599296 4.028863752959296 -9.251536041498184 28.217650059610605 4.030820461921394 -3.8131330981850624 29.30970671866089 6.263425387674943 -7.175019400427118 25.357594694942236 6.263425387674943 -5.891603188589215 26.44965135399252 7.11459378618747 -9.251536041498184 22.91560753248632 6.263425387674943 -9.251536041498184 25.357594694942236 6.263425387674943 -12.61342234374024 21.823550873436034 4.028863752959296 -12.61342234374024 28.217650059610605 4.028863752959296 -14.689938984811306 25.11328125 0 -12.7734375 2.126953125 0 33.00390625 -1.2265625 0 34.09375 1.8383279358968139 4.203010850585997 36.94558723666705 -4.8644384276121855 4.203010850585997 34.76749123027548 -1.1584787098690867 6.543234769254923 34.76749123027548 -3.719634845852852 6.543234769254923 31.24151518405415 -0.011721538379788399 7.439407473895699 31.24151518405415 -1.1584787098690867 6.543234769254923 27.71553913783282 2.985085107386112 6.543234769254923 29.06341917766258 1.8383279358968139 4.203010850585997 25.53744313144125 5.983845342881978 4.203010850585997 31.24151518405415 2.126953125 0 29.478515625 -1.044921875 0.091796875 -25.595703125 -4.498046875 0.091796875 -24.47265625 -2.1391807543113828 3.093556869076565 -23.41795060504228 -6.835610465146601 3.093556869076565 -24.94359453418292 -4.239289714023471 4.733278979314491 -24.94359453418292 -6.032685086131096 4.733278979314491 -27.41080104187131 -3.4383179247379303 5.359425847185776 -27.41080104187131 -4.239289714023471 4.733278979314491 -29.879960998892784 -1.3382089650258422 4.733278979314491 -28.93644497101195 -2.1391807543113828 3.093556869076565 -31.405604928033426 0.7599464049562812 3.093556869076565 -27.41080104187131 -1.044921875 0.091796875 -29.228515625 -28.7578125 0 -8.919921875 -31.658203125 0 -7.9765625 -29.65549210086465 2.7139553304295987 -7.036324497777969 -33.66230463702232 2.7139553304295987 -8.339275202946737 -31.44693388324231 4.1130022383295 -8.339275202946737 -32.976594641804695 4.1130022383295 -10.445093584014103 -30.763177477754653 4.6471837849821895 -10.445093584014103 -31.44693388324231 4.1130022383295 -12.550911965081468 -28.971735695376992 4.1130022383295 -11.746090839849785 -29.65549210086465 2.7139553304295987 -13.85190922091715 -27.180293912999332 2.7139553304295987 -10.445093584014103 -28.7578125 0 -11.970703125 -22.892578125 0 24.3984375 -25.328125 0 21.044921875 -25.963207511231303 4.06017109635286 24.19542343961075 -25.963207511231303 4.06017109635286 17.895549340406433 -24.939526492729783 6.153849685797468 21.044509665342048 -22.65187291894108 6.153849685797468 17.895549340406433 -21.62819190043956 6.9521869423333555 21.044509665342048 -18.947866790927947 6.153849685797468 19.098874129587784 -18.947866790927947 6.153849685797468 22.992098650429398 -16.269495271146297 4.06017109635286 21.044509665342048 -19.971547809429467 4.06017109635286 26.141058975365013 -18.951171875 0 23.1171875 -4.541015625 0 26.033203125 -4.541015625 0 29.26171875 -2.6529748532921076 3.058336107758805 27.64716841117479 -5.411443552002311 3.058336107758805 31.44467391469516 -4.649543557316065 4.615876441588625 29.09858126565814 -7.406058666296303 4.615876441588625 29.993261060211807 -6.644158671610057 5.210715966066346 27.64716841117479 -9.111542500555515 4.615876441588625 27.64716841117479 -7.406058666296303 4.615876441588625 25.30107576213777 -9.873442495241761 3.058336107758805 25.30107576213777 -5.411443552002311 3.058336107758805 23.851616356987506 -7.611328125 0 25.03515625 -16.54296875 0.02734375 -21.130859375 -19.4453125 0.02734375 -26.25390625 -21.014764725230634 4.55913188168779 -21.845423891907558 -19.94419755320996 4.55913188168779 -30.800035634776577 -19.004520893096924 8.705398172372952 -26.146919323364273 -15.171577842906117 8.705398172372952 -30.229628429515287 -14.233854772523046 9.922471146797761 -25.576512118102983 -10.041451212018728 8.705398172372952 -27.881582331145182 -10.703718130476773 8.705398172372952 -22.34550692117773 -6.51326815970242 4.555218463763595 -24.65057713421993 -12.715915552340448 4.555218463763595 -18.0459649390541 -10.71875 0.02734375 -22.2578125 -17.12109375 -2.9921875 -5.97265625 -22.382277536205947 3.365539414808154 -17.012590241851285 -16.855572190135717 10.652323589660227 -24.277468311600387 -7.218514052219689 20.527833721367642 -23.857476704986766 17.359375 -2.9609375 -5.26171875 17.12109375 -3.056640625 5.97265625 28.094573906622827 3.2696606756653637 0.5977554959245026 22.376416767016053 3.1229075035080314 17.051659228513017 27.84060724172741 10.411648387322202 9.579715529456735 16.855572190135717 10.274678759975359 24.381001126253977 19.86214678455144 20.22454383224249 15.231044450076297 7.191163796000183 20.13649192894809 24.064542334293947 10.341796875 -3.140625 14.927734375 8.109350969083607 3.0231153464410454 26.998623232590035 -0.6290558930486441 10.21206407318823 29.682662616251037 -33.451171875 0 -10.4453125 -33.66230463702232 2.7139553304295987 -12.550911965081468 -28.971735695376992 4.1130022383295 -9.14409632817842 25.11328125 0 -5.73046875 21.823550873436034 4.030820461921394 -5.891603188589215 -22.892578125 0 17.69140625 -19.971547809429467 4.06017109635286 15.947960355319083 -22.65187291894108 6.153849685797468 24.19542343961075 -1.3382089650258422 4.733278979314491 -25.885157112730667 -6.6328125 0.091796875 -27.412109375 -6.835610465146601 3.093556869076565 -29.879960998892784 -4.649543557316065 4.615876441588625 26.197709006024525 -7.611328125 0 30.26171875 -9.873442495241761 3.058336107758805 29.993261060211807 29.30970671866089 6.263425387674943 -11.330006131902337 2.985085107386112 6.543234769254923 33.41961119044572 -3.298828125 0 31.2421875 -4.8644384276121855 4.203010850585997 27.71553913783282 -16.244098604656756 8.705398172372952 -21.275016686646268 -15.4140625 0.02734375 -30.544921875 -10.981127872131765 4.55913188168779 -32.53469864255749 -4.498046875 0.091796875 -30.349609375 -9.509765625 0 27.6484375 -1.2265625 0 28.388671875 -18.951171875 0 18.97265625 22.5546875 0 -9.251953125 -10.021484375 0.02734375 -28.076171875 -31.658203125 0 -12.912109375</float_array>
                    <technique_common>
                        <accessor count="167" source="#pointarray0_VC" stride="3">
                            <param name="X" type="float"/>
                            <param name="Y" type="float"/>
                            <param name="Z" type="float"/>
                        </accessor>
                    </technique_common>
                </source>
                <source id="uvs0_VC">
                    <float_array id="uvarray0_VC" count="24">0.6953125 0.99609375 0.6953125 0.75390625 0.5390625 0.99609375 0.5390625 0.50390625 0.4921875 0.00390625 0.0078125 0.99609375 0.0078125 0.00390625 0.9921875 0.75390625 0.7578125 0.99609375 0.7578125 0.75390625 0.5703125 0.99609375 0.5703125 0.50390625</float_array>
                    <technique_common>
                        <accessor count="12" source="#uvarray0_VC" stride="2">
                            <param name="S" type="float"/>
                            <param name="T" type="float"/>
                        </accessor>
                    </technique_common>
                </source>
                <vertices id="vertices0_VC">
                    <input semantic="POSITION" source="#points0_VC"/>
                </vertices>
                <polylist count="273" material="Material1">
                    <input offset="0" semantic="VERTEX" source="#vertices0_VC"/>
                    <input offset="1" semantic="TEXCOORD" source="#uvs0_VC" set="0"/>
                    <vcount>3 3 3 3 3 3 3 3 3 3 3 3 3 3 3 3 3 3 3 3 3 3 3 3 3 3 3 3 3 3 3 3 3 3 3 3 3 3 3 3 3 3 3 3 3 3 3 3 3 3 3 3 3 3 3 3 3 3 3 3 3 3 3 3 3 3 3 3 3 3 3 3 3 3 3 3 3 3 3 3 3 3 3 3 3 3 3 3 3 3 3 3 3 3 3 3 3 3 3 3 3 3 3 3 3 3 3 3 3 3 3 3 3 3 3 3 3 3 3 3 3 3 3 3 3 3 3 3 3 3 3 3 3 3 3 3 3 3 3 3 3 3 3 3 3 3 3 3 3 3 3 3 3 3 3 3 3 3 3 3 3 3 3 3 3 3 3 3 3 3 3 3 3 3 3 3 3 3 3 3 3 3 3 3 3 3 3 3 3 3 3 3 3 3 3 3 3 3 3 3 3 3 3 3 3 3 3 3 3 3 3 3 3 3 3 3 3 3 3 3 3 3 3 3 3 3 3 3 3 3 3 3 3 3 3 3 3 3 3 3 3 3 3 3 3 3 3 3 3 3 3 3 3 3 3 3 3 3 3 3 3 3 3 3 3 3 3 3 3 3 3 3 3</vcount>
                    <p>2 0 1 1 0 1 3 0 1 1 2 0 4 2 3 3 2 3 5 2 3 3 4 2 6 4 5 5 4 5 7 6 5 5 6 4 8 7 7 8 6 9 9 7 7 8 8 7 10 8 9 7 8 7 11 8 9 7 10 8 12 6 11 6 10 6 13 6 11 6 12 6 14 7 13 8 12 8 15 7 13 8 14 7 16 9 15 7 14 7 17 9 15 7 16 9 18 5 17 4 16 4 19 5 17 4 18 5 20 3 19 2 18 2 21 3 19 2 20 3 22 1 21 0 20 0 23 1 21 0 22 1 3 0 24 1 1 1 25 0 24 1 3 0 5 2 25 3 3 3 26 2 25 3 5 2 7 6 26 5 5 5 27 4 26 5 7 6 9 7 27 9 7 8 28 7 27 9 9 7 11 8 28 7 9 7 29 7 28 7 11 8 30 8 29 7 11 8 31 7 29 7 30 8 32 7 31 7 30 8 33 9 31 7 32 7 17 9 33 9 32 7 19 5 33 4 17 4 20 0 34 1 22 1 35 0 34 1 20 0 18 2 35 3 20 3 36 2 35 3 18 2 16 4 36 5 18 5 37 4 36 5 16 4 14 7 37 9 16 9 38 7 37 9 14 7 12 8 38 7 14 7 39 7 38 7 12 8 10 8 39 7 12 8 8 7 39 7 10 8 42 10 41 11 40 11 43 10 41 11 42 10 44 6 43 5 42 5 45 6 43 5 44 6 46 6 45 6 44 6 47 6 45 6 46 6 48 6 47 6 46 6 49 5 47 6 48 6 50 5 49 5 48 6 51 11 49 10 50 10 40 11 51 11 50 10 54 10 53 11 52 11 55 10 53 11 54 10 56 6 55 5 54 5 57 6 55 5 56 6 58 6 57 6 56 6 59 6 57 6 58 6 60 6 59 6 58 6 61 5 59 6 60 6 62 5 61 5 60 6 63 11 61 10 62 10 52 11 63 11 62 10 66 10 65 11 64 11 67 10 65 11 66 10 68 6 67 5 66 5 69 6 67 5 68 6 70 6 69 6 68 6 71 6 69 6 70 6 72 6 71 6 70 6 73 5 71 6 72 6 74 5 73 5 72 6 75 11 73 10 74 10 64 11 75 11 74 10 78 10 77 11 76 11 79 10 77 11 78 10 80 6 79 5 78 5 81 6 79 5 80 6 82 6 81 6 80 6 83 6 81 6 82 6 84 6 83 6 82 6 85 5 83 6 84 6 86 5 85 5 84 6 87 11 85 10 86 10 76 11 87 11 86 10 90 10 89 11 88 11 91 10 89 11 90 10 92 6 91 5 90 5 93 6 91 5 92 6 94 6 93 6 92 6 95 6 93 6 94 6 96 6 95 6 94 6 97 5 95 6 96 6 98 5 97 5 96 6 99 11 97 10 98 10 88 11 99 11 98 10 102 10 101 11 100 11 103 10 101 11 102 10 104 6 103 5 102 5 105 6 103 5 104 6 106 6 105 6 104 6 107 6 105 6 106 6 108 6 107 6 106 6 109 5 107 6 108 6 110 5 109 5 108 6 111 11 109 10 110 10 100 11 111 11 110 10 114 10 113 11 112 11 115 10 113 11 114 10 116 6 115 5 114 5 117 6 115 5 116 6 118 6 117 6 116 6 119 6 117 6 118 6 120 6 119 6 118 6 121 5 119 6 120 6 122 5 121 5 120 6 123 11 121 10 122 10 112 11 123 11 122 10 125 0 0 1 124 1 2 0 0 1 125 0 126 2 2 3 125 3 4 2 2 3 126 2 127 4 4 5 126 5 6 4 4 5 127 4 39 7 6 9 127 9 8 7 6 9 39 7 35 0 124 1 34 1 125 0 124 1 35 0 36 2 125 3 35 3 126 2 125 3 36 2 37 4 126 5 36 5 127 4 126 5 37 4 38 7 127 9 37 9 39 7 127 9 38 7 130 0 129 1 128 1 131 0 129 1 130 0 132 2 131 3 130 3 133 2 131 3 132 2 134 4 133 5 132 5 135 4 133 5 134 4 29 7 135 9 134 9 31 7 135 9 29 7 25 0 128 1 24 1 130 0 128 1 25 0 26 2 130 3 25 3 132 2 130 3 26 2 27 4 132 5 26 5 134 4 132 5 27 4 28 7 134 9 27 9 29 7 134 9 28 7 131 0 136 1 129 1 137 0 136 1 131 0 133 2 137 3 131 3 138 2 137 3 133 2 135 4 138 5 133 5 33 4 138 5 135 4 31 7 33 9 135 9 79 10 139 11 77 11 140 10 139 11 79 10 81 6 140 5 79 5 83 6 140 5 81 6 86 10 78 10 76 11 141 6 78 5 86 5 84 6 141 6 86 5 82 6 141 6 84 6 43 10 142 11 41 11 143 10 142 11 43 10 45 6 143 5 43 5 47 6 143 5 45 6 91 10 144 11 89 11 145 10 144 11 91 10 93 6 145 5 91 5 95 6 145 5 93 6 98 10 90 10 88 11 146 6 90 5 98 5 96 6 146 6 98 5 94 6 146 6 96 6 74 10 66 10 64 11 147 6 66 5 74 5 72 6 147 6 74 5 70 6 147 6 72 6 32 7 15 7 17 9 13 8 15 7 32 7 30 8 13 8 32 7 11 6 13 6 30 6 67 10 148 11 65 11 149 10 148 11 67 10 69 6 149 5 67 5 71 6 149 5 69 6 110 10 102 10 100 11 150 6 102 5 110 5 108 6 150 6 110 5 106 6 150 6 108 6 103 10 151 11 101 11 152 10 151 11 103 10 105 6 152 5 103 5 107 6 152 5 105 6 50 10 42 10 40 11 153 6 42 5 50 5 48 6 153 6 50 5 46 6 153 6 48 6 62 10 54 10 52 11 154 6 54 5 62 5 60 6 154 6 62 5 58 6 154 6 60 6 55 10 155 11 53 11 156 10 155 11 55 10 57 6 156 5 55 5 59 6 156 5 57 6 122 10 114 10 112 11 157 6 114 5 122 5 120 6 157 6 122 5 118 6 157 6 120 6 115 10 158 11 113 11 159 10 158 11 115 10 117 6 159 5 115 5 119 6 159 5 117 6 149 10 160 11 148 11 73 10 160 11 149 10 71 6 73 5 149 5 152 10 161 11 151 11 109 10 161 11 152 10 107 6 109 5 152 5 156 10 162 11 155 11 61 10 162 11 156 10 59 6 61 5 156 5 145 10 163 11 144 11 97 10 163 11 145 10 95 6 97 5 145 5 143 10 164 11 142 11 49 10 164 11 143 10 47 6 49 5 143 5 159 10 165 11 158 11 121 10 165 11 159 10 119 6 121 5 159 5 140 10 166 11 139 11 85 10 166 11 140 10 83 6 85 5 140 5 147 6 68 6 66 5 70 6 68 6 147 6 56 6 154 6 58 6 54 5 154 6 56 6 80 6 141 6 82 6 78 5 141 6 80 6 146 6 92 6 90 5 94 6 92 6 146 6 44 6 153 6 46 6 42 5 153 6 44 6 21 3 137 3 138 2 23 1 137 0 21 0 19 5 138 5 33 4 21 3 138 2 19 2 150 6 104 6 102 5 106 6 104 6 150 6 116 6 157 6 118 6 114 5 157 6 116 6 85 10 87 11 166 11 97 10 99 11 163 11 49 10 51 11 164 11 23 1 136 1 137 0 73 10 75 11 160 11 109 10 111 11 161 11 61 10 63 11 162 11 121 10 123 11 165 11</p>
                </polylist>
            </mesh>
        </geometry>
        <geometry id="mesh1">
            <mesh>
                <source id="points1">
                    <float_array id="pointarray1" count="123">50.28515625 0 17.544921875 34.43359375 9.4609375 0.73046875 50.986328125 0 -15.455078125 28.2890625 9.62890625 -19.703125 32.212890625 0 -42.552734375 11.3359375 9.71875 -32.60546875 1.134765625 0 -53.3984375 -9.9453125 9.701171875 -33.044921875 -30.376953125 0 -43.845703125 -27.4296875 9.578125 -20.853515625 -50.28515625 0 -17.544921875 -34.439453125 9.400390625 -0.689453125 -50.986328125 0 15.455078125 -28.29296875 9.232421875 19.74609375 -32.212890625 0 42.552734375 -11.341796875 9.140625 32.6484375 -1.134765625 0 53.3984375 9.939453125 9.16015625 33.0859375 30.376953125 0 43.845703125 27.42578125 9.283203125 20.89453125 -22.563961381092668 19.04269161913544 -17.047752329846844 -28.325097494758666 18.895938446978107 -0.46882783994078636 -23.273114453069866 18.758968819631264 16.32888297527097 -9.33620531950146 18.68265717010945 26.936112853931263 8.16014430206269 18.698310841806233 27.297500980552286 22.534657535143197 18.79810299887322 17.27435245248489 28.295793648809195 18.94681287999265 0.6973814119119197 23.243810607120395 19.083782507339492 -16.102282852632925 9.306901473551989 19.158137447899207 -26.709512731293216 -8.187494558282197 19.142483776202425 -27.07090085791424 9.351834037341177 29.642184066819027 -12.212965230457485 0.3184351259842515 29.659794447477907 -15.369739352725446 -8.841947117820382 29.626530395122245 -12.597794749075547 -14.632387077435851 29.556088872486725 -4.955900958040729 -14.841421178542078 29.47390709607862 4.6335818180814385 -9.388952242210507 29.41324911825359 12.513796427752823 -0.35555333085358143 29.39563873759471 15.670570550020784 8.802875323221087 29.42890278995037 12.900579395703971 14.595268872566521 29.49934431258589 5.258685604669154 14.804302973672748 29.581526088993996 -4.332750620786101 0 32.99989664577879 0</float_array>
                    <technique_common>
                        <accessor count="41" source="#pointarray1" stride="3">
                            <param name="X" type="float"/>
                            <param name="Y" type="float"/>
                            <param name="Z" type="float"/>
                        </accessor>
                    </technique_common>
                </source>
                <source id="uvs1">
                    <float_array id="uvarray1" count="82">-0.7265625 -0.7421875 -0.4921875 -0.98828125 -0.73828125 -1.22265625 -0.40625 -1.28125 -0.46484375 -1.6171875 -0.16015625 -1.46484375 -0.015625 -1.7734375 0.140625 -1.47265625 0.4375 -1.63671875 0.390625 -1.296875 0.7265625 -1.25390625 0.4921875 -1.0078125 0.73828125 -0.7734375 0.40625 -0.71484375 0.46484375 -0.37890625 0.16015625 -0.52734375 0.015625 -0.22265625 -0.140625 -0.5234375 -0.4375 -0.359375 -0.390625 -0.69921875 0.26953125 -1.203125 0.3359375 -1.00390625 0.27734375 -0.80078125 0.109375 -0.67578125 -0.09765625 -0.671875 -0.26953125 -0.79296875 -0.3359375 -0.98828125 -0.27734375 -1.19140625 -0.109375 -1.31640625 0.09765625 -1.32421875 -0.12109375 -1.16015625 -0.00390625 -1.203125 0.1171875 -1.16796875 0.19140625 -1.06640625 0.1953125 -0.9375 0.125 -0.83203125 0.00390625 -0.7890625 -0.1171875 -0.828125 -0.19140625 -0.9296875 -0.1953125 -1.0546875 0 -1</float_array>
                    <technique_common>
                        <accessor count="41" source="#uvarray1" stride="2">
                            <param name="S" type="float"/>
                            <param name="T" type="float"/>
                        </accessor>
                    </technique_common>
                </source>
                <vertices id="vertices1">
                    <input semantic="POSITION" source="#points1"/>
                </vertices>
                <polylist count="70" material="Material1">
                    <input offset="0" semantic="VERTEX" source="#vertices1"/>
                    <input offset="1" semantic="TEXCOORD" source="#uvs1" set="0"/>
                    <vcount>3 3 3 3 3 3 3 3 3 3 3 3 3 3 3 3 3 3 3 3 3 3 3 3 3 3 3 3 3 3 3 3 3 3 3 3 3 3 3 3 3 3 3 3 3 3 3 3 3 3 3 3 3 3 3 3 3 3 3 3 3 3 3 3 3 3 3 3 3 3</vcount>
                    <p>2 2 1 1 0 0 3 3 1 1 2 2 4 4 3 3 2 2 5 5 3 3 4 4 6 6 5 5 4 4 7 7 5 5 6 6 8 8 7 7 6 6 9 9 7 7 8 8 10 10 9 9 8 8 11 11 9 9 10 10 12 12 11 11 10 10 13 13 11 11 12 12 14 14 13 13 12 12 15 15 13 13 14 14 16 16 15 15 14 14 17 17 15 15 16 16 18 18 17 17 16 16 19 19 17 17 18 18 0 0 19 19 18 18 1 1 19 19 0 0 11 11 20 20 9 9 21 21 20 20 11 11 13 13 21 21 11 11 22 22 21 21 13 13 15 15 22 22 13 13 23 23 22 22 15 15 17 17 23 23 15 15 24 24 23 23 17 17 19 19 24 24 17 17 25 25 24 24 19 19 1 1 25 25 19 19 26 26 25 25 1 1 3 3 26 26 1 1 27 27 26 26 3 3 5 5 27 27 3 3 28 28 27 27 5 5 7 7 28 28 5 5 29 29 28 28 7 7 9 9 29 29 7 7 20 20 29 29 9 9 28 28 30 30 27 27 31 31 30 30 28 28 29 29 31 31 28 28 32 32 31 31 29 29 20 20 32 32 29 29 33 33 32 32 20 20 21 21 33 33 20 20 34 34 33 33 21 21 22 22 34 34 21 21 35 35 34 34 22 22 23 23 35 35 22 22 36 36 35 35 23 23 24 24 36 36 23 23 37 37 36 36 24 24 25 25 37 37 24 24 38 38 37 37 25 25 26 26 38 38 25 25 39 39 38 38 26 26 27 27 39 39 26 26 30 30 39 39 27 27 40 40 37 37 38 38 36 36 37 37 40 40 35 35 36 36 40 40 39 39 40 40 38 38 30 30 40 40 39 39 31 31 40 40 30 30 32 32 40 40 31 31 33 33 40 40 32 32 34 34 40 40 33 33 40 40 34 34 35 35</p>
                </polylist>
            </mesh>
        </geometry>
        <geometry id="mesh1_VC">
            <mesh>
                <source id="points1_VC">
                    <float_array id="pointarray1_VC" count="123">50.28515625 0 17.544921875 34.43359375 9.4609375 0.73046875 50.986328125 0 -15.455078125 28.2890625 9.62890625 -19.703125 32.212890625 0 -42.552734375 11.3359375 9.71875 -32.60546875 1.134765625 0 -53.3984375 -9.9453125 9.701171875 -33.044921875 -30.376953125 0 -43.845703125 -27.4296875 9.578125 -20.853515625 -50.28515625 0 -17.544921875 -34.439453125 9.400390625 -0.689453125 -50.986328125 0 15.455078125 -28.29296875 9.232421875 19.74609375 -32.212890625 0 42.552734375 -11.341796875 9.140625 32.6484375 -1.134765625 0 53.3984375 9.939453125 9.16015625 33.0859375 30.376953125 0 43.845703125 27.42578125 9.283203125 20.89453125 -22.563961381092668 19.04269161913544 -17.047752329846844 -28.325097494758666 18.895938446978107 -0.46882783994078636 -23.273114453069866 18.758968819631264 16.32888297527097 -9.33620531950146 18.68265717010945 26.936112853931263 8.16014430206269 18.698310841806233 27.297500980552286 22.534657535143197 18.79810299887322 17.27435245248489 28.295793648809195 18.94681287999265 0.6973814119119197 23.243810607120395 19.083782507339492 -16.102282852632925 9.306901473551989 19.158137447899207 -26.709512731293216 -8.187494558282197 19.142483776202425 -27.07090085791424 9.351834037341177 29.642184066819027 -12.212965230457485 0.3184351259842515 29.659794447477907 -15.369739352725446 -8.841947117820382 29.626530395122245 -12.597794749075547 -14.632387077435851 29.556088872486725 -4.955900958040729 -14.841421178542078 29.47390709607862 4.6335818180814385 -9.388952242210507 29.41324911825359 12.513796427752823 -0.35555333085358143 29.39563873759471 15.670570550020784 8.802875323221087 29.42890278995037 12.900579395703971 14.595268872566521 29.49934431258589 5.258685604669154 14.804302973672748 29.581526088993996 -4.332750620786101 0 32.99989664577879 0</float_array>
                    <technique_common>
                        <accessor count="41" source="#pointarray1_VC" stride="3">
                            <param name="X" type="float"/>
                            <param name="Y" type="float"/>
                            <param name="Z" type="float"/>
                        </accessor>
                    </technique_common>
                </source>
                <source id="uvs1_VC">
                    <float_array id="uvarray1_VC" count="16">0.5078125 0.99609375 0.5078125 0.00390625 0.6015625 0.99609375 0.6015625 0.50390625 0.6328125 0.99609375 0.6328125 0.50390625 0.6640625 0.99609375 0.6640625 0.50390625</float_array>
                    <technique_common>
                        <accessor count="8" source="#uvarray1_VC" stride="2">
                            <param name="S" type="float"/>
                            <param name="T" type="float"/>
                        </accessor>
                    </technique_common>
                </source>
                <vertices id="vertices1_VC">
                    <input semantic="POSITION" source="#points1_VC"/>
                </vertices>
                <polylist count="70" material="Material1">
                    <input offset="0" semantic="VERTEX" source="#vertices1_VC"/>
                    <input offset="1" semantic="TEXCOORD" source="#uvs1_VC" set="0"/>
                    <vcount>3 3 3 3 3 3 3 3 3 3 3 3 3 3 3 3 3 3 3 3 3 3 3 3 3 3 3 3 3 3 3 3 3 3 3 3 3 3 3 3 3 3 3 3 3 3 3 3 3 3 3 3 3 3 3 3 3 3 3 3 3 3 3 3 3 3 3 3 3 3</vcount>
                    <p>2 0 1 1 0 0 3 1 1 1 2 0 4 0 3 1 2 0 5 1 3 1 4 0 6 0 5 1 4 0 7 1 5 1 6 0 8 0 7 1 6 0 9 1 7 1 8 0 10 0 9 1 8 0 11 1 9 1 10 0 12 0 11 1 10 0 13 1 11 1 12 0 14 0 13 1 12 0 15 1 13 1 14 0 16 0 15 1 14 0 17 1 15 1 16 0 18 0 17 1 16 0 19 1 17 1 18 0 0 0 19 1 18 0 1 1 19 1 0 0 11 2 20 3 9 2 21 3 20 3 11 2 13 2 21 3 11 2 22 3 21 3 13 2 15 2 22 3 13 2 23 3 22 3 15 2 17 2 23 3 15 2 24 3 23 3 17 2 19 2 24 3 17 2 25 3 24 3 19 2 1 2 25 3 19 2 26 3 25 3 1 2 3 2 26 3 1 2 27 3 26 3 3 2 5 2 27 3 3 2 28 3 27 3 5 2 7 2 28 3 5 2 29 3 28 3 7 2 9 2 29 3 7 2 20 3 29 3 9 2 28 4 30 5 27 4 31 5 30 5 28 4 29 4 31 5 28 4 32 5 31 5 29 4 20 4 32 5 29 4 33 5 32 5 20 4 21 4 33 5 20 4 34 5 33 5 21 4 22 4 34 5 21 4 35 5 34 5 22 4 23 4 35 5 22 4 36 5 35 5 23 4 24 4 36 5 23 4 37 5 36 5 24 4 25 4 37 5 24 4 38 5 37 5 25 4 26 4 38 5 25 4 39 5 38 5 26 4 27 4 39 5 26 4 30 5 39 5 27 4 40 6 37 7 38 7 36 7 37 7 40 6 35 7 36 7 40 6 39 7 40 6 38 7 30 7 40 6 39 7 31 7 40 6 30 7 32 7 40 6 31 7 33 7 40 6 32 7 34 7 40 6 33 7 40 6 34 7 35 7</p>
                </polylist>
            </mesh>
        </geometry>
    </library_geometries>
    <library_controllers>
        <controller id="controller0">
            <skin source="#mesh0">
                <bind_shape_matrix>1 0 0 0 0 1 0 0 0 0 1 0 0 0 0 1</bind_shape_matrix>
                <source id="joints0">
                    <Name_array id="JointArr0" count="3">jointnode-1 jointnode0 jointnode1</Name_array>
                    <technique_common>
                        <accessor source="#JointArr0" count="3">
                            <param name="JOINT" type="Name" />
                        </accessor>
                    </technique_common>
                </source>
                <source id="matrices0">
                    <float_array id="MatArr0" count="48">1 0 0 0 0 1 0 0 0 0 1 0 0 0 0 1 1 0 0 0 0 1 0 0 0 0 1 0 0 0 0 1 0.9997621148608611 0 0 0 0 0.9981683724216597 0 0 0 0 0.9998339690305162 0 0 0 0 1</float_array>
                    <technique_common>
                        <accessor source="#MatArr0" count="3" stride="16">
                            <param type="float4x4" />
                        </accessor>
                    </technique_common>
                </source>
                <source id="weights0">
                    <float_array id="WeightArr0" count="2">1 0.5</float_array>
                    <technique_common>
                        <accessor source="#WeightArr0" count="1">
                            <param type="float" />
                        </accessor>
                    </technique_common>
                </source>
                <joints>
                    <input semantic="JOINT" source="#joints0" />
                    <input semantic="INV_BIND_MATRIX" source="#matrices0" />
                </joints>
                <vertex_weights count="167">
                    <input semantic="JOINT" offset="0" source="#joints0" />
                    <input semantic="WEIGHT" offset="1" source="#weights0" />
                    <vcount>1 1 1 1 1 1 1 1 1 1 1 1 1 1 1 1 1 1 1 1 1 1 1 1 1 1 1 1 1 1 1 1 1 1 1 1 1 1 1 1 1 1 1 1 1 1 1 1 1 1 1 1 1 1 1 1 1 1 1 1 1 1 1 1 1 1 1 1 1 1 1 1 1 1 1 1 1 1 1 1 1 1 1 1 1 1 1 1 1 1 1 1 1 1 1 1 1 1 1 1 1 1 1 1 1 1 1 1 1 1 1 1 1 1 1 1 1 1 1 1 1 1 1 1 1 1 1 1 1 1 1 1 1 1 1 1 1 1 1 1 1 1 1 1 1 1 1 1 1 1 1 1 1 1 1 1 1 1 1 1 1 1 1 1 1 1 1</vcount>
                    <v>1 0 1 0 2 0 2 0 2 0 2 0 2 0 2 0 2 0 2 0 2 0 2 0 2 0 2 0 2 0 2 0 2 0 2 0 2 0 2 0 2 0 2 0 1 0 1 0 1 0 2 0 2 0 2 0 2 0 2 0 2 0 2 0 2 0 2 0 1 0 2 0 2 0 2 0 2 0 2 0 1 0 1 0 2 0 2 0 2 0 2 0 2 0 2 0 2 0 2 0 2 0 1 0 1 0 1 0 2 0 2 0 2 0 2 0 2 0 2 0 2 0 2 0 2 0 1 0 1 0 1 0 2 0 2 0 2 0 2 0 2 0 2 0 2 0 2 0 2 0 1 0 1 0 1 0 2 0 2 0 2 0 2 0 2 0 2 0 2 0 2 0 2 0 1 0 1 0 1 0 2 0 2 0 2 0 2 0 2 0 2 0 2 0 2 0 2 0 1 0 1 0 1 0 2 0 2 0 2 0 2 0 2 0 2 0 2 0 2 0 2 0 1 0 1 0 1 0 2 0 2 0 2 0 2 0 2 0 2 0 2 0 2 0 2 0 1 0 1 0 2 0 2 0 2 0 1 0 1 0 2 0 2 0 2 0 2 0 2 0 2 0 1 0 2 0 2 0 1 0 2 0 2 0 1 0 2 0 1 0 2 0 2 0 2 0 1 0 2 0 2 0 1 0 2 0 2 0 2 0 1 0 2 0 2 0 1 0 2 0 1 0 1 0 1 0 1 0 1 0 1 0 1 0</v>
                </vertex_weights>
            </skin>
        </controller>
        <controller id="controller0_VC">
            <skin source="#mesh0_VC">
                <bind_shape_matrix>1 0 0 0 0 1 0 0 0 0 1 0 0 0 0 1</bind_shape_matrix>
                <source id="joints0_VC">
                    <Name_array id="JointArr0_VC" count="3">jointnode-1 jointnode0 jointnode1</Name_array>
                    <technique_common>
                        <accessor source="#JointArr0_VC" count="3">
                            <param name="JOINT" type="Name" />
                        </accessor>
                    </technique_common>
                </source>
                <source id="matrices0_VC">
                    <float_array id="MatArr0_VC" count="48">1 0 0 0 0 1 0 0 0 0 1 0 0 0 0 1 1 0 0 0 0 1 0 0 0 0 1 0 0 0 0 1 0.9997621148608611 0 0 0 0 0.9981683724216597 0 0 0 0 0.9998339690305162 0 0 0 0 1</float_array>
                    <technique_common>
                        <accessor source="#MatArr0_VC" count="3" stride="16">
                            <param type="float4x4" />
                        </accessor>
                    </technique_common>
                </source>
                <source id="weights0_VC">
                    <float_array id="WeightArr0_VC" count="2">1 0.5</float_array>
                    <technique_common>
                        <accessor source="#WeightArr0_VC" count="1">
                            <param type="float" />
                        </accessor>
                    </technique_common>
                </source>
                <joints>
                    <input semantic="JOINT" source="#joints0_VC" />
                    <input semantic="INV_BIND_MATRIX" source="#matrices0_VC" />
                </joints>
                <vertex_weights count="167">
                    <input semantic="JOINT" offset="0" source="#joints0_VC" />
                    <input semantic="WEIGHT" offset="1" source="#weights0_VC" />
                    <vcount>1 1 1 1 1 1 1 1 1 1 1 1 1 1 1 1 1 1 1 1 1 1 1 1 1 1 1 1 1 1 1 1 1 1 1 1 1 1 1 1 1 1 1 1 1 1 1 1 1 1 1 1 1 1 1 1 1 1 1 1 1 1 1 1 1 1 1 1 1 1 1 1 1 1 1 1 1 1 1 1 1 1 1 1 1 1 1 1 1 1 1 1 1 1 1 1 1 1 1 1 1 1 1 1 1 1 1 1 1 1 1 1 1 1 1 1 1 1 1 1 1 1 1 1 1 1 1 1 1 1 1 1 1 1 1 1 1 1 1 1 1 1 1 1 1 1 1 1 1 1 1 1 1 1 1 1 1 1 1 1 1 1 1 1 1 1 1</vcount>
                    <v>1 0 1 0 2 0 2 0 2 0 2 0 2 0 2 0 2 0 2 0 2 0 2 0 2 0 2 0 2 0 2 0 2 0 2 0 2 0 2 0 2 0 2 0 1 0 1 0 1 0 2 0 2 0 2 0 2 0 2 0 2 0 2 0 2 0 2 0 1 0 2 0 2 0 2 0 2 0 2 0 1 0 1 0 2 0 2 0 2 0 2 0 2 0 2 0 2 0 2 0 2 0 1 0 1 0 1 0 2 0 2 0 2 0 2 0 2 0 2 0 2 0 2 0 2 0 1 0 1 0 1 0 2 0 2 0 2 0 2 0 2 0 2 0 2 0 2 0 2 0 1 0 1 0 1 0 2 0 2 0 2 0 2 0 2 0 2 0 2 0 2 0 2 0 1 0 1 0 1 0 2 0 2 0 2 0 2 0 2 0 2 0 2 0 2 0 2 0 1 0 1 0 1 0 2 0 2 0 2 0 2 0 2 0 2 0 2 0 2 0 2 0 1 0 1 0 1 0 2 0 2 0 2 0 2 0 2 0 2 0 2 0 2 0 2 0 1 0 1 0 2 0 2 0 2 0 1 0 1 0 2 0 2 0 2 0 2 0 2 0 2 0 1 0 2 0 2 0 1 0 2 0 2 0 1 0 2 0 1 0 2 0 2 0 2 0 1 0 2 0 2 0 1 0 2 0 2 0 2 0 1 0 2 0 2 0 1 0 2 0 1 0 1 0 1 0 1 0 1 0 1 0 1 0</v>
                </vertex_weights>
            </skin>
        </controller>
        <controller id="controller1">
            <skin source="#mesh1">
                <bind_shape_matrix>1 0 0 0 0 1 0 0 0 0 1 0 0 0 0 1</bind_shape_matrix>
                <source id="joints1">
                    <Name_array id="JointArr1" count="3">jointnode-1 jointnode0 jointnode1</Name_array>
                    <technique_common>
                        <accessor source="#JointArr1" count="3">
                            <param name="JOINT" type="Name" />
                        </accessor>
                    </technique_common>
                </source>
                <source id="matrices1">
                    <float_array id="MatArr1" count="48">1 0 0 0 0 1 0 0 0 0 1 0 0 0 0 1 1 0 0 0 0 1 0 0 0 0 1 0 0 0 0 1 0.9997621148608611 0 0 0 0 0.9981683724216597 0 0 0 0 0.9998339690305162 0 0 0 0 1</float_array>
                    <technique_common>
                        <accessor source="#MatArr1" count="3" stride="16">
                            <param type="float4x4" />
                        </accessor>
                    </technique_common>
                </source>
                <source id="weights1">
                    <float_array id="WeightArr1" count="2">1 0.5</float_array>
                    <technique_common>
                        <accessor source="#WeightArr1" count="1">
                            <param type="float" />
                        </accessor>
                    </technique_common>
                </source>
                <joints>
                    <input semantic="JOINT" source="#joints1" />
                    <input semantic="INV_BIND_MATRIX" source="#matrices1" />
                </joints>
                <vertex_weights count="41">
                    <input semantic="JOINT" offset="0" source="#joints1" />
                    <input semantic="WEIGHT" offset="1" source="#weights1" />
                    <vcount>1 2 1 2 1 2 1 2 1 2 1 2 1 2 1 2 1 2 1 2 1 1 1 1 1 1 1 1 1 1 1 1 1 1 1 1 1 1 1 1 1</vcount>
                    <v>1 0 1 1 2 1 1 0 1 1 2 1 1 0 1 1 2 1 1 0 1 1 2 1 1 0 1 1 2 1 1 0 1 1 2 1 1 0 1 1 2 1 1 0 1 1 2 1 1 0 1 1 2 1 1 0 1 1 2 1 2 0 2 0 2 0 2 0 2 0 2 0 2 0 2 0 2 0 2 0 2 0 2 0 2 0 2 0 2 0 2 0 2 0 2 0 2 0 2 0 2 0</v>
                </vertex_weights>
            </skin>
        </controller>
        <controller id="controller1_VC">
            <skin source="#mesh1_VC">
                <bind_shape_matrix>1 0 0 0 0 1 0 0 0 0 1 0 0 0 0 1</bind_shape_matrix>
                <source id="joints1_VC">
                    <Name_array id="JointArr1_VC" count="3">jointnode-1 jointnode0 jointnode1</Name_array>
                    <technique_common>
                        <accessor source="#JointArr1_VC" count="3">
                            <param name="JOINT" type="Name" />
                        </accessor>
                    </technique_common>
                </source>
                <source id="matrices1_VC">
                    <float_array id="MatArr1_VC" count="48">1 0 0 0 0 1 0 0 0 0 1 0 0 0 0 1 1 0 0 0 0 1 0 0 0 0 1 0 0 0 0 1 0.9997621148608611 0 0 0 0 0.9981683724216597 0 0 0 0 0.9998339690305162 0 0 0 0 1</float_array>
                    <technique_common>
                        <accessor source="#MatArr1_VC" count="3" stride="16">
                            <param type="float4x4" />
                        </accessor>
                    </technique_common>
                </source>
                <source id="weights1_VC">
                    <float_array id="WeightArr1_VC" count="2">1 0.5</float_array>
                    <technique_common>
                        <accessor source="#WeightArr1_VC" count="1">
                            <param type="float" />
                        </accessor>
                    </technique_common>
                </source>
                <joints>
                    <input semantic="JOINT" source="#joints1_VC" />
                    <input semantic="INV_BIND_MATRIX" source="#matrices1_VC" />
                </joints>
                <vertex_weights count="41">
                    <input semantic="JOINT" offset="0" source="#joints1_VC" />
                    <input semantic="WEIGHT" offset="1" source="#weights1_VC" />
                    <vcount>1 2 1 2 1 2 1 2 1 2 1 2 1 2 1 2 1 2 1 2 1 1 1 1 1 1 1 1 1 1 1 1 1 1 1 1 1 1 1 1 1</vcount>
                    <v>1 0 1 1 2 1 1 0 1 1 2 1 1 0 1 1 2 1 1 0 1 1 2 1 1 0 1 1 2 1 1 0 1 1 2 1 1 0 1 1 2 1 1 0 1 1 2 1 1 0 1 1 2 1 1 0 1 1 2 1 2 0 2 0 2 0 2 0 2 0 2 0 2 0 2 0 2 0 2 0 2 0 2 0 2 0 2 0 2 0 2 0 2 0 2 0 2 0 2 0 2 0</v>
                </vertex_weights>
            </skin>
        </controller>
    </library_controllers>
    <library_visual_scenes>
        <visual_scene id="VisualSceneNode">
            <node id="node0" name="m0" type="NODE">
                <instance_controller url="#controller0">
                    <skeleton>#jointnode-1</skeleton>
                    <bind_material>
                        <technique_common>
                            <instance_material symbol="Material1" target="#mat0">
                                <bind_vertex_input semantic="UVSET0" input_semantic="TEXCOORD" input_set="0"></bind_vertex_input>
                            </instance_material>
                        </technique_common>
                    </bind_material>
                </instance_controller>
            </node>
            <node id="node0_VC" name="m0_VC" type="NODE">
                <instance_controller url="#controller0_VC">
                    <skeleton>#jointnode-1</skeleton>
                    <bind_material>
                        <technique_common>
                            <instance_material symbol="Material1" target="#mat_vc">
                                <bind_vertex_input semantic="UVSET0" input_semantic="TEXCOORD" input_set="0"></bind_vertex_input>
                            </instance_material>
                        </technique_common>
                    </bind_material>
                </instance_controller>
            </node>
            <node id="node1" name="m1" type="NODE">
                <instance_controller url="#controller1">
                    <skeleton>#jointnode-1</skeleton>
                    <bind_material>
                        <technique_common>
                            <instance_material symbol="Material1" target="#mat1">
                                <bind_vertex_input semantic="UVSET0" input_semantic="TEXCOORD" input_set="0"></bind_vertex_input>
                            </instance_material>
                        </technique_common>
                    </bind_material>
                </instance_controller>
            </node>
            <node id="node1_VC" name="m1_VC" type="NODE">
                <instance_controller url="#controller1_VC">
                    <skeleton>#jointnode-1</skeleton>
                    <bind_material>
                        <technique_common>
                            <instance_material symbol="Material1" target="#mat_vc">
                                <bind_vertex_input semantic="UVSET0" input_semantic="TEXCOORD" input_set="0"></bind_vertex_input>
                            </instance_material>
                        </technique_common>
                    </bind_material>
                </instance_controller>
            </node>
            <node id="jointnode-1" name="root" sid="jointnode-1" type="JOINT">
                <node id="jointnode0" name="top1" sid="jointnode0" type="JOINT">
                    <node id="jointnode1" name="motion" sid="jointnode1" type="JOINT">
                        <scale>1.0002379417419434 1.0018349885940552 1.0001660585403442</scale>
                    </node>
                </node>
            </node>
        </visual_scene>
    </library_visual_scenes>
    <scene>
        <instance_visual_scene url="#VisualSceneNode"></instance_visual_scene>
    </scene>
</COLLADA>
