<?xml version="1.0"?>
<COLLADA xmlns="http://www.collada.org/2005/11/COLLADASchema" version="1.4.1">
    <asset>
        <contributor>
            <authoring_tool>J3D Ripoff Exporter</authoring_tool>
        </contributor>
        <created>2025-05-18T16:14:11.522Z</created>
        <modified>2025-05-18T16:14:11.522Z</modified>
		<unit meter="0.01" name="centimeter" ></unit>
        <up_axis>Y_UP</up_axis>
    </asset>
    <library_images>
        <image id="tex0">
            <init_from>rock02_4ia.png</init_from>
        </image>
    </library_images>
    <library_effects>
        <effect id="effect0">
            <profile_COMMON>
                <technique sid="COMMON">
                    <blinn>
                        <diffuse>
                            <color>1 1 1 1</color>
                        </diffuse>
                    </blinn>
                </technique>
            </profile_COMMON>
        </effect>
        <effect id="effect1">
            <profile_COMMON>
                <newparam sid="surface1">
                    <surface type="2D">
                        <init_from>tex0</init_from>
                    </surface>
                </newparam>
                <newparam sid="sampler1">
                    <sampler2D>
                        <source>surface1</source>
                    </sampler2D>
                </newparam>
                <technique sid="COMMON">
                    <blinn>
                        <diffuse>
                            <texture texture="sampler1" texcoord="UVSET0"></texture>
                        </diffuse>
                    </blinn>
                </technique>
            </profile_COMMON>
        </effect>
    </library_effects>
    <library_materials>
        <material id="mat0" name="lambert1_v">
            <instance_effect url="#effect0"></instance_effect>
        </material>
        <material id="mat1" name="lambert5_v_x">
            <instance_effect url="#effect1"></instance_effect>
        </material>
    </library_materials>
    <library_geometries>
        <geometry id="mesh0">
            <mesh>
                <source id="points0">
                    <float_array id="pointarray0" count="501">-10.341796875 -2.91015625 -14.927734375 0.384765625 -2.87109375 -18.181640625 -8.115211738273501 3.46533157187514 -26.96150769526139 9.250247371383011 3.480985243571922 -26.602073017973453 0.6290558930486441 10.716894985409454 -29.57717635226436 17.875346029177308 10.683630933053792 -23.5605524063576 8.203123276121914 20.541530684102327 -23.53906446369365 20.487295498140156 20.4769592883531 -14.189855955541134 10.854144539684057 27.13759659533389 -14.205483550205827 17.179868085309863 27.06715507269837 -5.063340671360493 5.503262269310653 30.438564614392817 -7.139857312431559 8.60165558103472 30.354426129022613 3.1626344702672213 -5.227806117385626 30.428781069582328 -7.3625505364034325 -8.761849938891828 30.33877245732583 2.8051532423123717 -16.970833984203637 27.035847729304805 -5.788070373935625 -17.21503270044923 26.941925699124113 5.338777027325705 -24.96687674894929 20.31063902657479 -0.41022435994818807 -20.514645754359663 20.18932307092473 14.396921584848315 -28.291886469349265 10.36077395430766 8.628385704243556 -17.875346029177308 10.243371416581795 23.66408522101119 -23.08556983899325 3.0818166153039783 16.112050099298358 -9.25415455084294 3.0074616747442633 26.641142004635185 -10.966796875 -3.16015625 14.48828125 -0.384765625 -3.1796875 18.181640625 10.966796875 -2.890625 -14.48828125 23.081662659533322 3.4046735940501094 -16.074934561969712 28.291886469349265 10.566228395327926 -8.522899440256879 24.941480082459748 20.35564333270304 0.6172899892553687 16.937622958794236 26.97127633355558 6.063506729900837 10.217274287715554 26.889094557147473 14.928259803447872 -0.2129412805661559 30.293768151197582 9.310139521490782 -0.4083002535626292 26.849960377905518 18.143637405708432 -10.887355565093458 26.869527467526495 14.480919906171039 -8.23047353234142 20.122794966213405 23.74613009300083 -17.359375 -3.087890625 5.26171875 -28.10043467581272 3.218786242650822 -0.560639958595857 -27.903122113086283 10.517310671275482 -9.683248344110325 -19.887543451040983 20.439781818073243 -15.02202537143603 -10.25243890285492 27.11802950571291 -14.65282344748266 0.37508922815322876 27.157163684954867 -17.86820104974322 29.25390625 0 -11.4296875 29.25390625 0 -7.07421875 32.167808493599296 4.028863752959296 -9.251536041498184 28.217650059610605 4.030820461921394 -3.8131330981850624 29.30970671866089 6.263425387674943 -7.175019400427118 25.357594694942236 6.263425387674943 -5.891603188589215 26.44965135399252 7.11459378618747 -9.251536041498184 22.91560753248632 6.263425387674943 -9.251536041498184 25.357594694942236 6.263425387674943 -12.61342234374024 21.823550873436034 4.028863752959296 -12.61342234374024 28.217650059610605 4.028863752959296 -14.689938984811306 25.11328125 0 -12.7734375 2.126953125 0 33.00390625 -1.2265625 0 34.09375 1.8383279358968139 4.203010850585997 36.94558723666705 -4.8644384276121855 4.203010850585997 34.76749123027548 -1.1584787098690867 6.543234769254923 34.76749123027548 -3.719634845852852 6.543234769254923 31.24151518405415 -0.011721538379788399 7.439407473895699 31.24151518405415 -1.1584787098690867 6.543234769254923 27.71553913783282 2.985085107386112 6.543234769254923 29.06341917766258 1.8383279358968139 4.203010850585997 25.53744313144125 5.983845342881978 4.203010850585997 31.24151518405415 2.126953125 0 29.478515625 -1.044921875 0.091796875 -25.595703125 -4.498046875 0.091796875 -24.47265625 -2.1391807543113828 3.093556869076565 -23.41795060504228 -6.835610465146601 3.093556869076565 -24.94359453418292 -4.239289714023471 4.733278979314491 -24.94359453418292 -6.032685086131096 4.733278979314491 -27.41080104187131 -3.4383179247379303 5.359425847185776 -27.41080104187131 -4.239289714023471 4.733278979314491 -29.879960998892784 -1.3382089650258422 4.733278979314491 -28.93644497101195 -2.1391807543113828 3.093556869076565 -31.405604928033426 0.7599464049562812 3.093556869076565 -27.41080104187131 -1.044921875 0.091796875 -29.228515625 -28.7578125 0 -8.919921875 -31.658203125 0 -7.9765625 -29.65549210086465 2.7139553304295987 -7.036324497777969 -33.66230463702232 2.7139553304295987 -8.339275202946737 -31.44693388324231 4.1130022383295 -8.339275202946737 -32.976594641804695 4.1130022383295 -10.445093584014103 -30.763177477754653 4.6471837849821895 -10.445093584014103 -31.44693388324231 4.1130022383295 -12.550911965081468 -28.971735695376992 4.1130022383295 -11.746090839849785 -29.65549210086465 2.7139553304295987 -13.85190922091715 -27.180293912999332 2.7139553304295987 -10.445093584014103 -28.7578125 0 -11.970703125 -22.892578125 0 24.3984375 -25.328125 0 21.044921875 -25.963207511231303 4.06017109635286 24.19542343961075 -25.963207511231303 4.06017109635286 17.895549340406433 -24.939526492729783 6.153849685797468 21.044509665342048 -22.65187291894108 6.153849685797468 17.895549340406433 -21.62819190043956 6.9521869423333555 21.044509665342048 -18.947866790927947 6.153849685797468 19.098874129587784 -18.947866790927947 6.153849685797468 22.992098650429398 -16.269495271146297 4.06017109635286 21.044509665342048 -19.971547809429467 4.06017109635286 26.141058975365013 -18.951171875 0 23.1171875 -4.541015625 0 26.033203125 -4.541015625 0 29.26171875 -2.6529748532921076 3.058336107758805 27.64716841117479 -5.411443552002311 3.058336107758805 31.44467391469516 -4.649543557316065 4.615876441588625 29.09858126565814 -7.406058666296303 4.615876441588625 29.993261060211807 -6.644158671610057 5.210715966066346 27.64716841117479 -9.111542500555515 4.615876441588625 27.64716841117479 -7.406058666296303 4.615876441588625 25.30107576213777 -9.873442495241761 3.058336107758805 25.30107576213777 -5.411443552002311 3.058336107758805 23.851616356987506 -7.611328125 0 25.03515625 -16.54296875 0.02734375 -21.130859375 -19.4453125 0.02734375 -26.25390625 -21.014764725230634 4.55913188168779 -21.845423891907558 -19.94419755320996 4.55913188168779 -30.800035634776577 -19.004520893096924 8.705398172372952 -26.146919323364273 -15.171577842906117 8.705398172372952 -30.229628429515287 -14.233854772523046 9.922471146797761 -25.576512118102983 -10.041451212018728 8.705398172372952 -27.881582331145182 -10.703718130476773 8.705398172372952 -22.34550692117773 -6.51326815970242 4.555218463763595 -24.65057713421993 -12.715915552340448 4.555218463763595 -18.0459649390541 -10.71875 0.02734375 -22.2578125 -17.12109375 -2.9921875 -5.97265625 -22.382277536205947 3.365539414808154 -17.012590241851285 -16.855572190135717 10.652323589660227 -24.277468311600387 -7.218514052219689 20.527833721367642 -23.857476704986766 17.359375 -2.9609375 -5.26171875 17.12109375 -3.056640625 5.97265625 28.094573906622827 3.2696606756653637 0.5977554959245026 22.376416767016053 3.1229075035080314 17.051659228513017 27.84060724172741 10.411648387322202 9.579715529456735 16.855572190135717 10.274678759975359 24.381001126253977 19.86214678455144 20.22454383224249 15.231044450076297 7.191163796000183 20.13649192894809 24.064542334293947 10.341796875 -3.140625 14.927734375 8.109350969083607 3.0231153464410454 26.998623232590035 -0.6290558930486441 10.21206407318823 29.682662616251037 -33.451171875 0 -10.4453125 -33.66230463702232 2.7139553304295987 -12.550911965081468 -28.971735695376992 4.1130022383295 -9.14409632817842 25.11328125 0 -5.73046875 21.823550873436034 4.030820461921394 -5.891603188589215 -22.892578125 0 17.69140625 -19.971547809429467 4.06017109635286 15.947960355319083 -22.65187291894108 6.153849685797468 24.19542343961075 -1.3382089650258422 4.733278979314491 -25.885157112730667 -6.6328125 0.091796875 -27.412109375 -6.835610465146601 3.093556869076565 -29.879960998892784 -4.649543557316065 4.615876441588625 26.197709006024525 -7.611328125 0 30.26171875 -9.873442495241761 3.058336107758805 29.993261060211807 29.30970671866089 6.263425387674943 -11.330006131902337 2.985085107386112 6.543234769254923 33.41961119044572 -3.298828125 0 31.2421875 -4.8644384276121855 4.203010850585997 27.71553913783282 -16.244098604656756 8.705398172372952 -21.275016686646268 -15.4140625 0.02734375 -30.544921875 -10.981127872131765 4.55913188168779 -32.53469864255749 -4.498046875 0.091796875 -30.349609375 -9.509765625 0 27.6484375 -1.2265625 0 28.388671875 -18.951171875 0 18.97265625 22.5546875 0 -9.251953125 -10.021484375 0.02734375 -28.076171875 -31.658203125 0 -12.912109375</float_array>
                    <technique_common>
                        <accessor count="167" source="#pointarray0" stride="3">
                            <param name="X" type="float"/>
                            <param name="Y" type="float"/>
                            <param name="Z" type="float"/>
                        </accessor>
                    </technique_common>
                </source>
                <source id="uvs0">
                    <float_array id="uvarray0" count="2">0 1</float_array>
                    <technique_common>
                        <accessor count="1" source="#uvarray0" stride="2">
                            <param name="S" type="float"/>
                            <param name="T" type="float"/>
                        </accessor>
                    </technique_common>
                </source>
                <source id="colors0">
                    <float_array id="colorarray0" count="24">0.5686274509803921 0.47843137254901963 0.2823529411764706 1 0.7490196078431373 0.6078431372549019 0.4980392156862745 1 0.7058823529411765 0.8745098039215686 0.40784313725490196 1 0.9372549019607843 0.9333333333333333 0.8117647058823529 1 1 1 1 1 0.8862745098039215 0.9411764705882353 0.8705882352941177 1</float_array>
                    <technique_common>
                        <accessor count="6" source="#colorarray0" stride="4">
                            <param name="R" type="float"/>
                            <param name="G" type="float"/>
                            <param name="B" type="float"/>
                            <param name="A" type="float"/>
                        </accessor>
                    </technique_common>
                </source>
                <vertices id="vertices0">
                    <input semantic="POSITION" source="#points0"/>
                </vertices>
                <polylist count="273" material="Material1">
                    <input offset="0" semantic="VERTEX" source="#vertices0"/>
                    <input offset="1" semantic="TEXCOORD" source="#uvs0" set="0"/>
                    <input offset="2" semantic="COLOR" source="#colors0" set="0"/>
                    <vcount>3 3 3 3 3 3 3 3 3 3 3 3 3 3 3 3 3 3 3 3 3 3 3 3 3 3 3 3 3 3 3 3 3 3 3 3 3 3 3 3 3 3 3 3 3 3 3 3 3 3 3 3 3 3 3 3 3 3 3 3 3 3 3 3 3 3 3 3 3 3 3 3 3 3 3 3 3 3 3 3 3 3 3 3 3 3 3 3 3 3 3 3 3 3 3 3 3 3 3 3 3 3 3 3 3 3 3 3 3 3 3 3 3 3 3 3 3 3 3 3 3 3 3 3 3 3 3 3 3 3 3 3 3 3 3 3 3 3 3 3 3 3 3 3 3 3 3 3 3 3 3 3 3 3 3 3 3 3 3 3 3 3 3 3 3 3 3 3 3 3 3 3 3 3 3 3 3 3 3 3 3 3 3 3 3 3 3 3 3 3 3 3 3 3 3 3 3 3 3 3 3 3 3 3 3 3 3 3 3 3 3 3 3 3 3 3 3 3 3 3 3 3 3 3 3 3 3 3 3 3 3 3 3 3 3 3 3 3 3 3 3 3 3 3 3 3 3 3 3 3 3 3 3 3 3 3 3 3 3 3 3 3 3 3 3 3 3 3 3 3 3 3 3</vcount>
                    <p>2 0 1 1 0 0 0 0 0 3 0 1 1 0 0 2 0 1 4 0 2 3 0 1 2 0 1 5 0 2 3 0 1 4 0 2 6 0 3 5 0 2 4 0 2 7 0 4 5 0 2 6 0 3 8 0 5 7 0 4 6 0 3 9 0 5 7 0 4 8 0 5 10 0 4 9 0 5 8 0 5 11 0 4 9 0 5 10 0 4 12 0 4 11 0 4 10 0 4 13 0 4 11 0 4 12 0 4 14 0 5 13 0 4 12 0 4 15 0 5 13 0 4 14 0 5 16 0 3 15 0 5 14 0 5 17 0 3 15 0 5 16 0 3 18 0 2 17 0 3 16 0 3 19 0 2 17 0 3 18 0 2 20 0 1 19 0 2 18 0 2 21 0 1 19 0 2 20 0 1 22 0 0 21 0 1 20 0 1 23 0 0 21 0 1 22 0 0 3 0 1 24 0 0 1 0 0 25 0 1 24 0 0 3 0 1 5 0 2 25 0 1 3 0 1 26 0 2 25 0 1 5 0 2 7 0 4 26 0 2 5 0 2 27 0 3 26 0 2 7 0 4 9 0 5 27 0 3 7 0 4 28 0 5 27 0 3 9 0 5 11 0 4 28 0 5 9 0 5 29 0 5 28 0 5 11 0 4 30 0 4 29 0 5 11 0 4 31 0 5 29 0 5 30 0 4 32 0 5 31 0 5 30 0 4 33 0 3 31 0 5 32 0 5 17 0 3 33 0 3 32 0 5 19 0 2 33 0 3 17 0 3 20 0 1 34 0 0 22 0 0 35 0 1 34 0 0 20 0 1 18 0 2 35 0 1 20 0 1 36 0 2 35 0 1 18 0 2 16 0 3 36 0 2 18 0 2 37 0 3 36 0 2 16 0 3 14 0 5 37 0 3 16 0 3 38 0 5 37 0 3 14 0 5 12 0 4 38 0 5 14 0 5 39 0 5 38 0 5 12 0 4 10 0 4 39 0 5 12 0 4 8 0 5 39 0 5 10 0 4 42 0 2 41 0 0 40 0 0 43 0 2 41 0 0 42 0 2 44 0 4 43 0 2 42 0 2 45 0 4 43 0 2 44 0 4 46 0 4 45 0 4 44 0 4 47 0 4 45 0 4 46 0 4 48 0 4 47 0 4 46 0 4 49 0 2 47 0 4 48 0 4 50 0 2 49 0 2 48 0 4 51 0 0 49 0 2 50 0 2 40 0 0 51 0 0 50 0 2 54 0 2 53 0 0 52 0 0 55 0 2 53 0 0 54 0 2 56 0 4 55 0 2 54 0 2 57 0 4 55 0 2 56 0 4 58 0 4 57 0 4 56 0 4 59 0 4 57 0 4 58 0 4 60 0 4 59 0 4 58 0 4 61 0 2 59 0 4 60 0 4 62 0 2 61 0 2 60 0 4 63 0 0 61 0 2 62 0 2 52 0 0 63 0 0 62 0 2 66 0 2 65 0 0 64 0 0 67 0 2 65 0 0 66 0 2 68 0 4 67 0 2 66 0 2 69 0 4 67 0 2 68 0 4 70 0 4 69 0 4 68 0 4 71 0 4 69 0 4 70 0 4 72 0 4 71 0 4 70 0 4 73 0 2 71 0 4 72 0 4 74 0 2 73 0 2 72 0 4 75 0 0 73 0 2 74 0 2 64 0 0 75 0 0 74 0 2 78 0 2 77 0 0 76 0 0 79 0 2 77 0 0 78 0 2 80 0 4 79 0 2 78 0 2 81 0 4 79 0 2 80 0 4 82 0 4 81 0 4 80 0 4 83 0 4 81 0 4 82 0 4 84 0 4 83 0 4 82 0 4 85 0 2 83 0 4 84 0 4 86 0 2 85 0 2 84 0 4 87 0 0 85 0 2 86 0 2 76 0 0 87 0 0 86 0 2 90 0 2 89 0 0 88 0 0 91 0 2 89 0 0 90 0 2 92 0 4 91 0 2 90 0 2 93 0 4 91 0 2 92 0 4 94 0 4 93 0 4 92 0 4 95 0 4 93 0 4 94 0 4 96 0 4 95 0 4 94 0 4 97 0 2 95 0 4 96 0 4 98 0 2 97 0 2 96 0 4 99 0 0 97 0 2 98 0 2 88 0 0 99 0 0 98 0 2 102 0 2 101 0 0 100 0 0 103 0 2 101 0 0 102 0 2 104 0 4 103 0 2 102 0 2 105 0 4 103 0 2 104 0 4 106 0 4 105 0 4 104 0 4 107 0 4 105 0 4 106 0 4 108 0 4 107 0 4 106 0 4 109 0 2 107 0 4 108 0 4 110 0 2 109 0 2 108 0 4 111 0 0 109 0 2 110 0 2 100 0 0 111 0 0 110 0 2 114 0 2 113 0 0 112 0 0 115 0 2 113 0 0 114 0 2 116 0 4 115 0 2 114 0 2 117 0 4 115 0 2 116 0 4 118 0 4 117 0 4 116 0 4 119 0 4 117 0 4 118 0 4 120 0 4 119 0 4 118 0 4 121 0 2 119 0 4 120 0 4 122 0 2 121 0 2 120 0 4 123 0 0 121 0 2 122 0 2 112 0 0 123 0 0 122 0 2 125 0 1 0 0 0 124 0 0 2 0 1 0 0 0 125 0 1 126 0 2 2 0 1 125 0 1 4 0 2 2 0 1 126 0 2 127 0 3 4 0 2 126 0 2 6 0 3 4 0 2 127 0 3 39 0 5 6 0 3 127 0 3 8 0 5 6 0 3 39 0 5 35 0 1 124 0 0 34 0 0 125 0 1 124 0 0 35 0 1 36 0 2 125 0 1 35 0 1 126 0 2 125 0 1 36 0 2 37 0 3 126 0 2 36 0 2 127 0 3 126 0 2 37 0 3 38 0 5 127 0 3 37 0 3 39 0 5 127 0 3 38 0 5 130 0 1 129 0 0 128 0 0 131 0 1 129 0 0 130 0 1 132 0 2 131 0 1 130 0 1 133 0 2 131 0 1 132 0 2 134 0 3 133 0 2 132 0 2 135 0 3 133 0 2 134 0 3 29 0 5 135 0 3 134 0 3 31 0 5 135 0 3 29 0 5 25 0 1 128 0 0 24 0 0 130 0 1 128 0 0 25 0 1 26 0 2 130 0 1 25 0 1 132 0 2 130 0 1 26 0 2 27 0 3 132 0 2 26 0 2 134 0 3 132 0 2 27 0 3 28 0 5 134 0 3 27 0 3 29 0 5 134 0 3 28 0 5 131 0 1 136 0 0 129 0 0 137 0 1 136 0 0 131 0 1 133 0 2 137 0 1 131 0 1 138 0 2 137 0 1 133 0 2 135 0 3 138 0 2 133 0 2 33 0 3 138 0 2 135 0 3 31 0 5 33 0 3 135 0 3 79 0 2 139 0 0 77 0 0 140 0 2 139 0 0 79 0 2 81 0 4 140 0 2 79 0 2 83 0 4 140 0 2 81 0 4 86 0 2 78 0 2 76 0 0 141 0 4 78 0 2 86 0 2 84 0 4 141 0 4 86 0 2 82 0 4 141 0 4 84 0 4 43 0 2 142 0 0 41 0 0 143 0 2 142 0 0 43 0 2 45 0 4 143 0 2 43 0 2 47 0 4 143 0 2 45 0 4 91 0 2 144 0 0 89 0 0 145 0 2 144 0 0 91 0 2 93 0 4 145 0 2 91 0 2 95 0 4 145 0 2 93 0 4 98 0 2 90 0 2 88 0 0 146 0 4 90 0 2 98 0 2 96 0 4 146 0 4 98 0 2 94 0 4 146 0 4 96 0 4 74 0 2 66 0 2 64 0 0 147 0 4 66 0 2 74 0 2 72 0 4 147 0 4 74 0 2 70 0 4 147 0 4 72 0 4 32 0 5 15 0 5 17 0 3 13 0 4 15 0 5 32 0 5 30 0 4 13 0 4 32 0 5 11 0 4 13 0 4 30 0 4 67 0 2 148 0 0 65 0 0 149 0 2 148 0 0 67 0 2 69 0 4 149 0 2 67 0 2 71 0 4 149 0 2 69 0 4 110 0 2 102 0 2 100 0 0 150 0 4 102 0 2 110 0 2 108 0 4 150 0 4 110 0 2 106 0 4 150 0 4 108 0 4 103 0 2 151 0 0 101 0 0 152 0 2 151 0 0 103 0 2 105 0 4 152 0 2 103 0 2 107 0 4 152 0 2 105 0 4 50 0 2 42 0 2 40 0 0 153 0 4 42 0 2 50 0 2 48 0 4 153 0 4 50 0 2 46 0 4 153 0 4 48 0 4 62 0 2 54 0 2 52 0 0 154 0 4 54 0 2 62 0 2 60 0 4 154 0 4 62 0 2 58 0 4 154 0 4 60 0 4 55 0 2 155 0 0 53 0 0 156 0 2 155 0 0 55 0 2 57 0 4 156 0 2 55 0 2 59 0 4 156 0 2 57 0 4 122 0 2 114 0 2 112 0 0 157 0 4 114 0 2 122 0 2 120 0 4 157 0 4 122 0 2 118 0 4 157 0 4 120 0 4 115 0 2 158 0 0 113 0 0 159 0 2 158 0 0 115 0 2 117 0 4 159 0 2 115 0 2 119 0 4 159 0 2 117 0 4 149 0 2 160 0 0 148 0 0 73 0 2 160 0 0 149 0 2 71 0 4 73 0 2 149 0 2 152 0 2 161 0 0 151 0 0 109 0 2 161 0 0 152 0 2 107 0 4 109 0 2 152 0 2 156 0 2 162 0 0 155 0 0 61 0 2 162 0 0 156 0 2 59 0 4 61 0 2 156 0 2 145 0 2 163 0 0 144 0 0 97 0 2 163 0 0 145 0 2 95 0 4 97 0 2 145 0 2 143 0 2 164 0 0 142 0 0 49 0 2 164 0 0 143 0 2 47 0 4 49 0 2 143 0 2 159 0 2 165 0 0 158 0 0 121 0 2 165 0 0 159 0 2 119 0 4 121 0 2 159 0 2 140 0 2 166 0 0 139 0 0 85 0 2 166 0 0 140 0 2 83 0 4 85 0 2 140 0 2 147 0 4 68 0 4 66 0 2 70 0 4 68 0 4 147 0 4 56 0 4 154 0 4 58 0 4 54 0 2 154 0 4 56 0 4 80 0 4 141 0 4 82 0 4 78 0 2 141 0 4 80 0 4 146 0 4 92 0 4 90 0 2 94 0 4 92 0 4 146 0 4 44 0 4 153 0 4 46 0 4 42 0 2 153 0 4 44 0 4 21 0 1 137 0 1 138 0 2 23 0 0 137 0 1 21 0 1 19 0 2 138 0 2 33 0 3 21 0 1 138 0 2 19 0 2 150 0 4 104 0 4 102 0 2 106 0 4 104 0 4 150 0 4 116 0 4 157 0 4 118 0 4 114 0 2 157 0 4 116 0 4 85 0 2 87 0 0 166 0 0 97 0 2 99 0 0 163 0 0 49 0 2 51 0 0 164 0 0 23 0 0 136 0 0 137 0 1 73 0 2 75 0 0 160 0 0 109 0 2 111 0 0 161 0 0 61 0 2 63 0 0 162 0 0 121 0 2 123 0 0 165 0 0</p>
                </polylist>
            </mesh>
        </geometry>
        <geometry id="mesh1">
            <mesh>
                <source id="points1">
                    <float_array id="pointarray1" count="123">50.28515625 0 17.544921875 34.43359375 9.4609375 0.73046875 50.986328125 0 -15.455078125 28.2890625 9.62890625 -19.703125 32.212890625 0 -42.552734375 11.3359375 9.71875 -32.60546875 1.134765625 0 -53.3984375 -9.9453125 9.701171875 -33.044921875 -30.376953125 0 -43.845703125 -27.4296875 9.578125 -20.853515625 -50.28515625 0 -17.544921875 -34.439453125 9.400390625 -0.689453125 -50.986328125 0 15.455078125 -28.29296875 9.232421875 19.74609375 -32.212890625 0 42.552734375 -11.341796875 9.140625 32.6484375 -1.134765625 0 53.3984375 9.939453125 9.16015625 33.0859375 30.376953125 0 43.845703125 27.42578125 9.283203125 20.89453125 -22.563961381092668 19.04269161913544 -17.047752329846844 -28.325097494758666 18.895938446978107 -0.46882783994078636 -23.273114453069866 18.758968819631264 16.32888297527097 -9.33620531950146 18.68265717010945 26.936112853931263 8.16014430206269 18.698310841806233 27.297500980552286 22.534657535143197 18.79810299887322 17.27435245248489 28.295793648809195 18.94681287999265 0.6973814119119197 23.243810607120395 19.083782507339492 -16.102282852632925 9.306901473551989 19.158137447899207 -26.709512731293216 -8.187494558282197 19.142483776202425 -27.07090085791424 9.351834037341177 29.642184066819027 -12.212965230457485 0.3184351259842515 29.659794447477907 -15.369739352725446 -8.841947117820382 29.626530395122245 -12.597794749075547 -14.632387077435851 29.556088872486725 -4.955900958040729 -14.841421178542078 29.47390709607862 4.6335818180814385 -9.388952242210507 29.41324911825359 12.513796427752823 -0.35555333085358143 29.39563873759471 15.670570550020784 8.802875323221087 29.42890278995037 12.900579395703971 14.595268872566521 29.49934431258589 5.258685604669154 14.804302973672748 29.581526088993996 -4.332750620786101 0 32.99989664577879 0</float_array>
                    <technique_common>
                        <accessor count="41" source="#pointarray1" stride="3">
                            <param name="X" type="float"/>
                            <param name="Y" type="float"/>
                            <param name="Z" type="float"/>
                        </accessor>
                    </technique_common>
                </source>
                <source id="uvs1">
                    <float_array id="uvarray1" count="82">-0.7265625 -0.7421875 -0.4921875 -0.98828125 -0.73828125 -1.22265625 -0.40625 -1.28125 -0.46484375 -1.6171875 -0.16015625 -1.46484375 -0.015625 -1.7734375 0.140625 -1.47265625 0.4375 -1.63671875 0.390625 -1.296875 0.7265625 -1.25390625 0.4921875 -1.0078125 0.73828125 -0.7734375 0.40625 -0.71484375 0.46484375 -0.37890625 0.16015625 -0.52734375 0.015625 -0.22265625 -0.140625 -0.5234375 -0.4375 -0.359375 -0.390625 -0.69921875 0.26953125 -1.203125 0.3359375 -1.00390625 0.27734375 -0.80078125 0.109375 -0.67578125 -0.09765625 -0.671875 -0.26953125 -0.79296875 -0.3359375 -0.98828125 -0.27734375 -1.19140625 -0.109375 -1.31640625 0.09765625 -1.32421875 -0.12109375 -1.16015625 -0.00390625 -1.203125 0.1171875 -1.16796875 0.19140625 -1.06640625 0.1953125 -0.9375 0.125 -0.83203125 0.00390625 -0.7890625 -0.1171875 -0.828125 -0.19140625 -0.9296875 -0.1953125 -1.0546875 0 -1</float_array>
                    <technique_common>
                        <accessor count="41" source="#uvarray1" stride="2">
                            <param name="S" type="float"/>
                            <param name="T" type="float"/>
                        </accessor>
                    </technique_common>
                </source>
                <source id="colors1">
                    <float_array id="colorarray1" count="16">1 1 1 0 1 1 1 1 1 1 1 0.6980392156862745 1 1 1 0.30196078431372547</float_array>
                    <technique_common>
                        <accessor count="4" source="#colorarray1" stride="4">
                            <param name="R" type="float"/>
                            <param name="G" type="float"/>
                            <param name="B" type="float"/>
                            <param name="A" type="float"/>
                        </accessor>
                    </technique_common>
                </source>
                <vertices id="vertices1">
                    <input semantic="POSITION" source="#points1"/>
                </vertices>
                <polylist count="70" material="Material1">
                    <input offset="0" semantic="VERTEX" source="#vertices1"/>
                    <input offset="1" semantic="TEXCOORD" source="#uvs1" set="0"/>
                    <input offset="2" semantic="COLOR" source="#colors1" set="0"/>
                    <vcount>3 3 3 3 3 3 3 3 3 3 3 3 3 3 3 3 3 3 3 3 3 3 3 3 3 3 3 3 3 3 3 3 3 3 3 3 3 3 3 3 3 3 3 3 3 3 3 3 3 3 3 3 3 3 3 3 3 3 3 3 3 3 3 3 3 3 3 3 3 3</vcount>
                    <p>2 2 0 1 1 1 0 0 0 3 3 1 1 1 1 2 2 0 4 4 0 3 3 1 2 2 0 5 5 1 3 3 1 4 4 0 6 6 0 5 5 1 4 4 0 7 7 1 5 5 1 6 6 0 8 8 0 7 7 1 6 6 0 9 9 1 7 7 1 8 8 0 10 10 0 9 9 1 8 8 0 11 11 1 9 9 1 10 10 0 12 12 0 11 11 1 10 10 0 13 13 1 11 11 1 12 12 0 14 14 0 13 13 1 12 12 0 15 15 1 13 13 1 14 14 0 16 16 0 15 15 1 14 14 0 17 17 1 15 15 1 16 16 0 18 18 0 17 17 1 16 16 0 19 19 1 17 17 1 18 18 0 0 0 0 19 19 1 18 18 0 1 1 1 19 19 1 0 0 0 11 11 1 20 20 2 9 9 1 21 21 2 20 20 2 11 11 1 13 13 1 21 21 2 11 11 1 22 22 2 21 21 2 13 13 1 15 15 1 22 22 2 13 13 1 23 23 2 22 22 2 15 15 1 17 17 1 23 23 2 15 15 1 24 24 2 23 23 2 17 17 1 19 19 1 24 24 2 17 17 1 25 25 2 24 24 2 19 19 1 1 1 1 25 25 2 19 19 1 26 26 2 25 25 2 1 1 1 3 3 1 26 26 2 1 1 1 27 27 2 26 26 2 3 3 1 5 5 1 27 27 2 3 3 1 28 28 2 27 27 2 5 5 1 7 7 1 28 28 2 5 5 1 29 29 2 28 28 2 7 7 1 9 9 1 29 29 2 7 7 1 20 20 2 29 29 2 9 9 1 28 28 2 30 30 3 27 27 2 31 31 3 30 30 3 28 28 2 29 29 2 31 31 3 28 28 2 32 32 3 31 31 3 29 29 2 20 20 2 32 32 3 29 29 2 33 33 3 32 32 3 20 20 2 21 21 2 33 33 3 20 20 2 34 34 3 33 33 3 21 21 2 22 22 2 34 34 3 21 21 2 35 35 3 34 34 3 22 22 2 23 23 2 35 35 3 22 22 2 36 36 3 35 35 3 23 23 2 24 24 2 36 36 3 23 23 2 37 37 3 36 36 3 24 24 2 25 25 2 37 37 3 24 24 2 38 38 3 37 37 3 25 25 2 26 26 2 38 38 3 25 25 2 39 39 3 38 38 3 26 26 2 27 27 2 39 39 3 26 26 2 30 30 3 39 39 3 27 27 2 40 40 0 37 37 3 38 38 3 36 36 3 37 37 3 40 40 0 35 35 3 36 36 3 40 40 0 39 39 3 40 40 0 38 38 3 30 30 3 40 40 0 39 39 3 31 31 3 40 40 0 30 30 3 32 32 3 40 40 0 31 31 3 33 33 3 40 40 0 32 32 3 34 34 3 40 40 0 33 33 3 40 40 0 34 34 3 35 35 3</p>
                </polylist>
            </mesh>
        </geometry>
    </library_geometries>
    <library_controllers>
        <controller id="controller0">
            <skin source="#mesh0">
                <bind_shape_matrix>1 0 0 0 0 1 0 0 0 0 1 0 0 0 0 1</bind_shape_matrix>
                <source id="joints0">
                    <Name_array id="JointArr0" count="3">jointnode-1 jointnode0 jointnode1</Name_array>
                    <technique_common>
                        <accessor source="#JointArr0" count="3">
                            <param name="JOINT" type="Name" />
                        </accessor>
                    </technique_common>
                </source>
                <source id="matrices0">
                    <float_array id="MatArr0" count="48">1 0 0 0 0 1 0 0 0 0 1 0 0 0 0 1 1 0 0 0 0 1 0 0 0 0 1 0 0 0 0 1 0.9997621148608611 0 0 0 0 0.9981683724216597 0 0 0 0 0.9998339690305162 0 0 0 0 1</float_array>
                    <technique_common>
                        <accessor source="#MatArr0" count="3" stride="16">
                            <param type="float4x4" />
                        </accessor>
                    </technique_common>
                </source>
                <source id="weights0">
                    <float_array id="WeightArr0" count="2">1 0.5</float_array>
                    <technique_common>
                        <accessor source="#WeightArr0" count="1">
                            <param type="float" />
                        </accessor>
                    </technique_common>
                </source>
                <joints>
                    <input semantic="JOINT" source="#joints0" />
                    <input semantic="INV_BIND_MATRIX" source="#matrices0" />
                </joints>
                <vertex_weights count="167">
                    <input semantic="JOINT" offset="0" source="#joints0" />
                    <input semantic="WEIGHT" offset="1" source="#weights0" />
                    <vcount>1 1 1 1 1 1 1 1 1 1 1 1 1 1 1 1 1 1 1 1 1 1 1 1 1 1 1 1 1 1 1 1 1 1 1 1 1 1 1 1 1 1 1 1 1 1 1 1 1 1 1 1 1 1 1 1 1 1 1 1 1 1 1 1 1 1 1 1 1 1 1 1 1 1 1 1 1 1 1 1 1 1 1 1 1 1 1 1 1 1 1 1 1 1 1 1 1 1 1 1 1 1 1 1 1 1 1 1 1 1 1 1 1 1 1 1 1 1 1 1 1 1 1 1 1 1 1 1 1 1 1 1 1 1 1 1 1 1 1 1 1 1 1 1 1 1 1 1 1 1 1 1 1 1 1 1 1 1 1 1 1 1 1 1 1 1 1</vcount>
                    <v>1 0 1 0 2 0 2 0 2 0 2 0 2 0 2 0 2 0 2 0 2 0 2 0 2 0 2 0 2 0 2 0 2 0 2 0 2 0 2 0 2 0 2 0 1 0 1 0 1 0 2 0 2 0 2 0 2 0 2 0 2 0 2 0 2 0 2 0 1 0 2 0 2 0 2 0 2 0 2 0 1 0 1 0 2 0 2 0 2 0 2 0 2 0 2 0 2 0 2 0 2 0 1 0 1 0 1 0 2 0 2 0 2 0 2 0 2 0 2 0 2 0 2 0 2 0 1 0 1 0 1 0 2 0 2 0 2 0 2 0 2 0 2 0 2 0 2 0 2 0 1 0 1 0 1 0 2 0 2 0 2 0 2 0 2 0 2 0 2 0 2 0 2 0 1 0 1 0 1 0 2 0 2 0 2 0 2 0 2 0 2 0 2 0 2 0 2 0 1 0 1 0 1 0 2 0 2 0 2 0 2 0 2 0 2 0 2 0 2 0 2 0 1 0 1 0 1 0 2 0 2 0 2 0 2 0 2 0 2 0 2 0 2 0 2 0 1 0 1 0 2 0 2 0 2 0 1 0 1 0 2 0 2 0 2 0 2 0 2 0 2 0 1 0 2 0 2 0 1 0 2 0 2 0 1 0 2 0 1 0 2 0 2 0 2 0 1 0 2 0 2 0 1 0 2 0 2 0 2 0 1 0 2 0 2 0 1 0 2 0 1 0 1 0 1 0 1 0 1 0 1 0 1 0</v>
                </vertex_weights>
            </skin>
        </controller>
        <controller id="controller1">
            <skin source="#mesh1">
                <bind_shape_matrix>1 0 0 0 0 1 0 0 0 0 1 0 0 0 0 1</bind_shape_matrix>
                <source id="joints1">
                    <Name_array id="JointArr1" count="3">jointnode-1 jointnode0 jointnode1</Name_array>
                    <technique_common>
                        <accessor source="#JointArr1" count="3">
                            <param name="JOINT" type="Name" />
                        </accessor>
                    </technique_common>
                </source>
                <source id="matrices1">
                    <float_array id="MatArr1" count="48">1 0 0 0 0 1 0 0 0 0 1 0 0 0 0 1 1 0 0 0 0 1 0 0 0 0 1 0 0 0 0 1 0.9997621148608611 0 0 0 0 0.9981683724216597 0 0 0 0 0.9998339690305162 0 0 0 0 1</float_array>
                    <technique_common>
                        <accessor source="#MatArr1" count="3" stride="16">
                            <param type="float4x4" />
                        </accessor>
                    </technique_common>
                </source>
                <source id="weights1">
                    <float_array id="WeightArr1" count="2">1 0.5</float_array>
                    <technique_common>
                        <accessor source="#WeightArr1" count="1">
                            <param type="float" />
                        </accessor>
                    </technique_common>
                </source>
                <joints>
                    <input semantic="JOINT" source="#joints1" />
                    <input semantic="INV_BIND_MATRIX" source="#matrices1" />
                </joints>
                <vertex_weights count="41">
                    <input semantic="JOINT" offset="0" source="#joints1" />
                    <input semantic="WEIGHT" offset="1" source="#weights1" />
                    <vcount>1 2 1 2 1 2 1 2 1 2 1 2 1 2 1 2 1 2 1 2 1 1 1 1 1 1 1 1 1 1 1 1 1 1 1 1 1 1 1 1 1</vcount>
                    <v>1 0 1 1 2 1 1 0 1 1 2 1 1 0 1 1 2 1 1 0 1 1 2 1 1 0 1 1 2 1 1 0 1 1 2 1 1 0 1 1 2 1 1 0 1 1 2 1 1 0 1 1 2 1 1 0 1 1 2 1 2 0 2 0 2 0 2 0 2 0 2 0 2 0 2 0 2 0 2 0 2 0 2 0 2 0 2 0 2 0 2 0 2 0 2 0 2 0 2 0 2 0</v>
                </vertex_weights>
            </skin>
        </controller>
    </library_controllers>
    <library_visual_scenes>
        <visual_scene id="VisualSceneNode">
            <node id="node0" name="m0" type="NODE">
                <instance_controller url="#controller0">
                    <skeleton>#jointnode-1</skeleton>
                    <bind_material>
                        <technique_common>
                            <instance_material symbol="Material1" target="#mat0">
                                <bind_vertex_input semantic="UVSET0" input_semantic="TEXCOORD" input_set="0"></bind_vertex_input>
                            </instance_material>
                        </technique_common>
                    </bind_material>
                </instance_controller>
            </node>
            <node id="node1" name="m1" type="NODE">
                <instance_controller url="#controller1">
                    <skeleton>#jointnode-1</skeleton>
                    <bind_material>
                        <technique_common>
                            <instance_material symbol="Material1" target="#mat1">
                                <bind_vertex_input semantic="UVSET0" input_semantic="TEXCOORD" input_set="0"></bind_vertex_input>
                            </instance_material>
                        </technique_common>
                    </bind_material>
                </instance_controller>
            </node>
            <node id="jointnode-1" name="root" sid="jointnode-1" type="JOINT">
                <node id="jointnode0" name="top1" sid="jointnode0" type="JOINT">
                    <node id="jointnode1" name="motion" sid="jointnode1" type="JOINT">
                        <scale>1.0002379417419434 1.0018349885940552 1.0001660585403442</scale>
                    </node>
                </node>
            </node>
        </visual_scene>
    </library_visual_scenes>
    <scene>
        <instance_visual_scene url="#VisualSceneNode"></instance_visual_scene>
    </scene>
</COLLADA>
